<svg xmlns="http://www.w3.org/2000/svg" version="1.1" xmlns:xlink="http://www.w3.org/1999/xlink" xmlns:svgjs="http://svgjs.dev/svgjs" width="447.05" height="447.05"><svg width="447.05" height="447.05" version="1.1" viewBox="0 0 447.05 447.05" xmlns="http://www.w3.org/2000/svg">
 <rect x="97.876" y="85.641" width="250" height="250" fill="#fff"></rect>
 <g fill="none" stroke-linecap="round" stroke-linejoin="round" stroke-width="105">
  <path d="m336.4 369.7h-274.79" stroke="#609aff"></path>
  <path d="m101.6 52.5h274.8l3.1e-4 317.2h-40" stroke="#f94d61"></path>
  <path d="m61.596 369.7-3.96e-4 -317.2h40" stroke="#609aff"></path>
 </g>
 <path d="m409.97 447.05q16.064-13.906 23.479-34.046 7.8263-20.62 2.0595-40.76-0.82383-14.866-6.1786-28.292-5.7668-13.906-13.593-26.374-8.2383-12.468-17.712-23.497-9.474-11.029-17.712-20.62-1.6476-5.7543-5.7668-10.07-4.1191-4.3158-8.6501-8.1519-4.943-4.3158-9.474-9.111-4.943-4.7952-7.8263-11.029 1.6477-6.7134 5.3548-13.427 3.7072-6.7134 8.2382-13.427 4.531-6.7134 9.474-13.427 4.943-6.7134 9.062-13.906 0.41192-2.3976 3.2953-1.4386 2.4715 0.95907 3.7072-0.47952-0.82383-7.6723 2.8833-16.304 3.2953-9.111 9.062-15.345-2.0595-5.7543-3.7072-14.866-2.0595-9.111 0.82384-19.661 0.41189-4.7952-0.82384-9.111-1.6476-4.3158-3.2953-8.1519-1.6476-3.8362-2.4715-7.1928-0.82385-3.8362 0.41191-7.6725-6.1786-0.95904-11.122 0.95905-5.3548 1.4385-9.474 3.8362-4.531 1.9181-8.2381 3.3567-4.1192 1.4385-7.8263-0.47951 0.8238 2.8771 0.41189 4.3158-0.82382 0.95905-1.6476 1.9181-1.2357 0.47954-2.0595 0.95906-1.2358 0.47951-1.2358 2.3976-7.8263 2.8771-16.889 12.468-9.474 9.5904-18.123 21.099-8.6501 11.509-15.653 23.017-7.0025 11.029-10.298 17.262-11.945-8.6314-25.538-20.62-14.005-11.988-28.422-24.455-14.828-12.468-29.658-23.497-15.241-11.509-29.658-18.222-8.2381 4.3158-12.769 11.029-4.943 6.7134-7.8263 14.385-3.2953 7.1928-5.7668 14.866-2.8833 7.1928-7.4143 12.947 4.1191 9.5905 8.6501 16.304 4.531 6.2338 6.5906 15.345 10.298 4.7952 24.715 15.345 12.357 9.111 31.305 24.936 18.948 15.824 44.899 41.719-6.1786 8.1519-9.8858 15.345-4.1191 7.1928-6.5906 12.468-2.8833 6.2338-4.531 11.509-4.531 3.8362-7.4145 9.111-2.8833 5.2747-5.3548 11.029-2.8833 5.2747-6.1786 10.07-3.2953 4.7952-8.6501 7.6724-1.6477 8.6314-4.1192 16.304-2.4715 7.1928-4.531 14.385-2.4715 7.1928-3.7072 14.385-1.6477 6.7134-1.2358 13.906 3.2953 12.947 9.8858 21.578 6.5906 8.6314 9.474 17.743 4.531 1.4385 9.062 3.3567 4.1192 1.4385 7.0025 4.7952l28.01-23.017q7.4143-28.771 21.42-55.145 14.005-26.374 27.186-45.554 19.772 17.743 37.896 39.321 18.123 21.578 32.953 46.035 0.82381 11.988 2.4715 20.14 1.6476 7.6725 5.3548 12.947 3.7072 5.2748 9.474 9.111 5.7667 3.8362 14.417 7.6723z" stroke-linecap="round" stroke-linejoin="round" stroke-width=".47189"></path>
</svg><style>@media (prefers-color-scheme: light) { :root { filter: none; } }
@media (prefers-color-scheme: dark) { :root { filter: none; } }
</style></svg>