<?xml version="1.0" encoding="UTF-8" standalone="no"?>
<svg
   version="1.1"
   width="447.05399"
   height="447.05435"
   id="svg1"
   sodipodi:docname="favicon.svg"
   inkscape:version="1.3.2 (091e20e, 2023-11-25)"
   xmlns:inkscape="http://www.inkscape.org/namespaces/inkscape"
   xmlns:sodipodi="http://sodipodi.sourceforge.net/DTD/sodipodi-0.dtd"
   xmlns="http://www.w3.org/2000/svg"
   xmlns:svg="http://www.w3.org/2000/svg">
  <defs
     id="defs1" />
  <svg
     viewBox="0 0 447.05399 447.05436"
     version="1.1"
     id="SvgjsSvg1027"
     sodipodi:docname="favicon.svg"
     width="447.05399"
     height="447.05435"
     inkscape:version="1.3.2 (091e20e, 2023-11-25)"
     inkscape:export-filename="favicon.png"
     inkscape:export-xdpi="429.47833"
     inkscape:export-ydpi="429.47833">
    <defs
       id="SvgjsDefs1026" />
    <sodipodi:namedview
       id="SvgjsSodipodi:namedview1025"
       pagecolor="#ffffff"
       bordercolor="#000000"
       borderopacity="0.25"
       inkscape:showpageshadow="2"
       inkscape:pageopacity="0.0"
       inkscape:pagecheckerboard="0"
       inkscape:deskcolor="#d1d1d1"
       inkscape:zoom="1.0625703"
       inkscape:cx="221.16184"
       inkscape:cy="196.69287"
       inkscape:window-width="1512"
       inkscape:window-height="843"
       inkscape:window-x="0"
       inkscape:window-y="38"
       inkscape:window-maximized="0"
       inkscape:current-layer="svg1" />
    <g
       id="SvgjsG1024">
      <rect
         style="fill:#ffffff;stroke-width:92.386;stroke-linecap:round;stroke-linejoin:round;stroke-dasharray:none;stroke:none"
         id="SvgjsRect1023"
         width="250"
         height="250"
         x="97.875877"
         y="85.641396" />
      <g
         id="SvgjsG1022"
         transform="translate(9.0963958)">
        <path
           id="SvgjsPath1017"
           style="fill:none;stroke-width:105;stroke-linecap:round;stroke-linejoin:round;stroke-dasharray:none;stroke:#ffee00;stroke-opacity:0.93333334"
           d="M 52.5,369.69731 V 211.10142 m 0,0 V 52.505539 h 157.39593 m 0.006,-0.0055 h 157.39593 v 158.59588 m 0,0.006 V 369.69731 H 209.90236 m 0,0 H 52.506435" />
        <path
           d="m 400.87611,447.05435 q 16.06418,-13.90636 23.47905,-34.04594 7.8263,-20.62001 2.0595,-40.75959 -0.82383,-14.86586 -6.17865,-28.29179 -5.76679,-13.90637 -13.59297,-26.37419 -8.23828,-12.46754 -17.71238,-23.4971 -9.47397,-11.029 -17.7124,-20.62002 -1.64765,-5.7543 -5.7668,-10.07007 -4.11913,-4.31576 -8.65013,-8.15192 -4.94298,-4.31576 -9.47396,-9.111 -4.94297,-4.79522 -7.8263,-11.029 1.64766,-6.71337 5.35481,-13.42675 3.70716,-6.71338 8.23815,-13.42662 4.53099,-6.71339 9.47397,-13.42663 4.94297,-6.71337 9.06197,-13.90635 0.41192,-2.39762 3.29532,-1.43856 2.47148,0.95907 3.70716,-0.47952 -0.82383,-7.67232 2.88333,-16.3044 3.29531,-9.111 9.06197,-15.34491 -2.0595,-5.7543 -3.70716,-14.86585 -2.0595,-9.11099 0.82384,-19.66052 0.41189,-4.79523 -0.82384,-9.111 -1.64765,-4.315762 -3.29531,-8.151919 -1.64765,-3.836157 -2.47148,-7.192846 -0.82385,-3.836157 0.41191,-7.672453 -6.17865,-0.959045 -11.12161,0.959047 -5.35483,1.438541 -9.47398,3.836157 -4.53098,1.918148 -8.23814,3.356689 -4.11915,1.438542 -7.8263,-0.479509 0.8238,2.877083 0.41189,4.315763 -0.82382,0.959047 -1.64765,1.918147 -1.23571,0.479539 -2.0595,0.959061 -1.23576,0.47951 -1.23576,2.397616 -7.8263,2.877087 -16.88896,12.467687 -9.47397,9.59045 -18.12341,21.09906 -8.65013,11.50861 -15.65316,23.01666 -7.00247,11.02901 -10.2978,17.2625 -11.94544,-8.63138 -25.53826,-20.62002 -14.00496,-11.98807 -28.42232,-24.4552 -14.82836,-12.46768 -29.65811,-23.4971 -15.24077,-11.508609 -29.65812,-18.221988 -8.23814,4.315763 -12.76914,11.029003 -4.94297,6.713375 -7.8263,14.385425 -3.29532,7.19283 -5.7668,14.86584 -2.88333,7.19284 -7.41432,12.94715 4.11914,9.59046 8.65013,16.30439 4.53099,6.23377 6.59063,15.34491 10.29779,4.79523 24.71487,15.34491 12.35729,9.11099 31.30494,24.93564 18.9482,15.82395 44.89888,41.7191 -6.17865,8.15192 -9.88581,15.3449 -4.11914,7.19285 -6.59062,12.46768 -2.88334,6.23378 -4.53099,11.50861 -4.53101,3.83616 -7.41447,9.111 -2.88334,5.27469 -5.35482,11.02901 -2.88332,5.27469 -6.17864,10.06992 -3.29531,4.79523 -8.65014,7.67245 -1.64767,8.63139 -4.11915,16.3044 -2.47148,7.19284 -4.53098,14.38542 -2.47149,7.19284 -3.70716,14.38541 -1.64766,6.71338 -1.23575,13.90636 3.29532,12.94716 9.88581,21.57812 6.59064,8.63139 9.47397,17.74295 4.53099,1.43854 9.06197,3.35669 4.11915,1.43853 7.00247,4.79523 l 28.0099,-23.01667 q 7.41433,-28.77083 21.41985,-55.14502 14.00494,-26.37419 27.18648,-45.55427 19.77161,17.74293 37.89641,39.32105 18.1234,21.57813 32.95315,46.03472 0.82381,11.98807 2.47148,20.13958 1.64765,7.67246 5.35483,12.94716 3.70715,5.27483 9.47395,9.11099 5.76667,3.83616 14.41735,7.67231 z"
           stroke-width="0.314591"
           id="SvgjsPath1016"
           style="stroke-width:0.471886;stroke-linecap:round;stroke-linejoin:round;stroke-dasharray:none" />
      </g>
    </g>
  </svg>
  <style
     id="style1">@media (prefers-color-scheme: light) { :root { filter: none; } }
@media (prefers-color-scheme: dark) { :root { filter: none; } }
</style>
</svg>
