<svg width="999.81" height="855.59" fill="#eee" stroke-linecap="round" stroke-linejoin="round" version="1.1" viewBox="23 190 999.81 855.59" xml:space="preserve" xmlns="http://www.w3.org/2000/svg">
<path d="m565.87 190c0.18448 4.0015-9.0225 10.747-4.9492 2.7695-7.6912-4.4874-17.776 3.5283-16.549 6.5352-4.5094-4.1343-14.32-1.9742-7.2109 4.502 4.5595 7.0008-9.3093-9.628-9.7383 0.25 7.0864 4.3119-9.0031 0.25857-1.2148 5.8711-1.3717 2.259-7.1868-1.9805-4.4727 3.8516-0.0963 1.7643 1.3158 3.5732 2.8574 4.9863-0.02638-0.01596-0.03188-0.02097-0.05859-0.0371-4.5357-1.5732-0.73706 5.0807-4.1699-0.52344-5.2544-6.8442-12.424 1.8803-7.8418 5.6934-7.0223-1.4449-18.23 5.7235-14.432 9.2871 4.2507-1.6292-1.0087 9.4085 4.9551 3.2051 3.1201 0.1851-6.0961 12.513 3.0176 8.8965 3.2393-1.1091 15.588-5.4893 6.7969-1.2988-6.3147-0.76286-11.373 12.331-2.6797 8.0586 0.72109-1.8432 3.1995-3.8079 5.582-5.5274-1.7612 5.53 1.1188 13.29 6.5332 6.3027 0.68289-5.1662 9.2048-2.6161 3.6035 0.74804 7.2783 0.9324 10.078-7.7327 12.109-13.658 0.99825 2.1919 4.2691 3.8052 6.5684 3.9863-4.9695 4.7645-7.6557 9.9054-14.23 12.988-6.4472 6.9638 3.0337 12.97 7.127 16.043-6.5555 0.60417-9.6732-13.374-19.133-11.109-10.338 6.114 6.0154 16.561 7.4258 23.527-7.64 6.6293 15.732-0.02258 5.5508 5.5527 4.8556 7.6194-2.7235-3.8652-7.3262-0.4043-7.6451-0.66728-15.497 15.224-5.7715 15.225 0.43295-2.1156 3.3715 5.8322 4.5742-0.1914 3.1035-11.325 0.57215 4.6482 1.6562 7.7754-0.46204 8.6923 11.38 4.8165 9.8027-2.5508 3.7664 7.9465-8.4708 16.333-14.211 6.748-5.2067-8.5419-11-0.39347-5.4258 5.5274 2.0292 8.1952-13.482 7.9846-7.2891 18.025 2.6033 3.523 2.4608-6.6122 4.8379 0.76758 0.80273 2.8025 4.5016 4.2469 3.957 0.13085 2.6361 4.5506 6.7215-3.5527 8.5371 3.3164 4.2064 1.6757 4.6566-2.0954 4.1816-4.4453 1.4392 0.87502 2.5972-0.30202 3.041-1.2363 1.4818 3.2668 3.1043 0.63543 3.875-1.2207 2.7348 6.4189 5.9346-2.6323 5.4355-2.2539 5.6641 2.6392 9.1463 12.036 14.535 3.7285 5.0597-3.6841 7.2587-13.977-1.2539-13.533-4.4629-5.7773-7.7846-3.1441-14.029-3.4297 4.9153-1.1539-3.1941-7.7021 3.7578-3.959 8.8181 7.5096 16.156-4.3269 10.74-11.924 0.15928-4.6096 12.277 0.61455 6.6035-7.3926-1.1143-2.8006 7.0385-3.6165 0.17383-6.3223-5.1548-1.3944 6.8502-3.3997 1.377-8.1094-3.5056-4.084-12.572-3.9304-13.266 2.4726-0.52816-3.5921 8.8584-10.144 0.1543-7.8164 2.6317-1.4669 16.494 0.25717 8.5449-2.9062-4.1258 3.5573-9.9743-3.6019-2.6035-2.4199-4.557-3.9823 16.669-3.2216 6.9297-10.363-6.4316-2.2634 15.458 0.71448 7.4453-7.0195 4.1504-4.2769-8.453-1.8143-0.74414-4.377 1.8916-8.5828 5.1253-16.434 8.2676-25.061 2.7668-5.3769-1.2283-10.535-5.0527-4.0781-1.3602 2.4973-7.3314 7.7921-2.4023 2.1504 5.6251-5.2702-7.208-5.8054 0.34179-6.8594 8.1636-3.716 14.889-18.54 5.1875-23.963-3.1727-1.9769-6.7413-3.1763-10.029-4.9316zm-76.877 48.803c-2.1086 3.3748 1.3199 8.8382-4.9668 8.459-2.0566 3.2763 5.1202 12.764-3.0195 8.1875-7.5097 5.2234 10.579 13.663-2.6524 11.785-6.7609 2.3623 4.6151 8.3475 4.0606 9.6113-6.6826 4.3965 5.503 6.9364 9.4668 5.043 3.7046 0.72774 7.6431 4.8976 0.71093 4.666-6.2746 0.25498-9.1215 5.4311-3.8457 9.0586-2.2064 1.6288 9.0532 5.925 1.291 6.5625 1.5229 6.9733 17.565 7.5584 12.789-1.6777 5.9714 13.001 7.1871-7.7226 7.5078-8.8457 2.358 6.1295 9.8766-6.5586 9.7871-10.986-0.5988-4.6563-12.941-4.2397-7.6191-11.166-1.5331-2.7674-5.7156-14.3-6.2168-5.0352-2.8973-7.8567-12.139-11.851-12.215-21.139-0.96334-2.1182-2.7318-4.0088-5.0781-4.5234zm-23.266 24.842c-6.5996 6.5482 7.9692 13.062 2.6465 1.8184-0.45885-1.0349-1.5234-1.7468-2.6465-1.8184zm-23.523 13.527c-0.28063-0.0016-0.55606 0.00415-0.82422 0.01757-3.8189 6.3858 1.7455 10.108 4.1465 11.596 5.094 8.8829-13.304 3.9616-3.7539 10.273 11.18-4.03 18.668 25.023 20.838 5.4688 1.2723-9.8802-8.5863-16.489-11.416-20.389 0.59466-5.1743-4.7808-6.9428-8.9902-6.9668zm-23.773 6.8418c-6.0526 1.8379-18.62 4.0898-7.1504 7.1738 8.511 6.2331 12.757-0.65744 7.1504-7.1738zm-20.029 8.3144c-10.207 1.5598 5.7614 12.273-0.08203 0.99805l0.06445-0.78711 0.01758-0.21094zm70.232 0.16797c-2.2713 7.0219 0.51913 16.334 4.1074 21.068 16.467-0.21358 4.6606-19.01-4.1074-21.068zm-62.299 3.7207c-11.679 0.30597-3.0312 23.912 6.875 11.609-4.414-7.9661 4.9294-5.0908 4.209-9.7949-2.2677-1.3886-5.1098-1.3454-7.6641-1.3535-1.2933-0.34477-2.4302-0.48686-3.4199-0.46093zm-32.107 2.4785c-7.9458 7.9865-25.74 7.6997-28.504 18.709 3.9558 2.1846 6.2825 2.408 9.2617 1.2695-2.2699 12.285 4.3774 0.81603 7.6543 0.23242-1.8 8.0399 15.291-17.283 7.4668-1.7441 1.8053 10.401 14.631-2.9274 13.715-9.7305 8.1968-1.9706 2.0915-12.482-2.6074-5.0938-2.5433-0.72552-4.6853-2.4051-6.9863-3.6426zm57.809 10.387c-5.5443 6.8146 7.9017 20.334 2.8203 6.5254-0.3873-2.214 0.08823-5.8329-2.8203-6.5254zm45.805 5.6953c-12.398 9.5335 20.739 8.9043 6.9121 1.084-2.322-0.13049-4.7536-0.04483-6.9121-1.084zm20.998 3.4688c-9.169 10.736 17.509 11.118 0 0zm-115.93 4.1484c-9.5328-0.30571 4.7485 10.992-7.2891 4.0449-6.8295 2.5435-0.97925 6.3466 1.6816 7.7383-0.59228-0.2634-1.2987-0.57455-2.5684-1.0918-16.479-0.35697 3.0742 6.5709-0.75195 5.75-13.945-4.1336-12.206 8.2338-3.2266 10.094 4.075 10.609 12.902-12.141 9.7246 1.7324-1.717 3.3969 23.258 1.8832 8.4766 6.041-9.544-3.3891-22.427 5.6018-7.9824 10.873 10.9-0.3944 20.544-9.2939 29.998-4.5625 12.939 11.428 19.936-28.306 7.4473-15.5-11.983 0.94426 4.2431-29.451-10.189-18.67-4.4681 7.1159-0.664 13.91-1.8809 22.014-15.747 0.60401-8.4959-18.915-19.836-23.551 1.0013-3.5451-0.20813-4.7759-3.6035-4.9121zm-15.084 2.043c-8.4059-0.20947-13.339 14.377-2.9805 5.9238 1.6134-1.3871 5.1615-3.1313 3.8047-5.8555-0.27799-0.03882-0.55306-0.0616-0.82422-0.06836zm108.63 5.7715c-11.558 2.0124 0.13396 21.343 7.7715 15.846 17.099 5.3471 0.99663 23.852 11.414 33.807 5.0794-4.5107 8.7598 8.4678 15.195-0.60156 3.2969-8.1493-1.3416 8.6767 7.7383 4.7051 6.7998-4.7242 23.161 1.658 21.93-10.09 0.79899 10.27 21.332 6.0277 16.053-3.4961 9.5181 1.5972-1.9384-4.0718 0.49219-3.707 5.1482-13.943-19.315-17.04-26.949-8.375-5.7936 8.2693-11.845 3.4797-20.145 2.2461-0.93948 7.7338-3.4548-9.7261-9.0098-7.6758-0.25321-2.745-6.419-5.6903 1.9824-3.2051 11.715-4.4255-12.893-5.9286-2.0898-7.834-3.7668-10.13-18.103 8.2398-13.471-5.3906-2.1674-4.143-7.8812-3.1171-10.912-6.2285zm-41.352 2.9043c-9.6225 6.2424 11.584 10.685 1.2852 1.1504-0.42836-0.38348-0.85681-0.76691-1.2852-1.1504zm26.182 3.8164c0.0287 9.7513-12.953-6.1223-8.9824 5.7559 4.1948 7.4071 0.31615 12-2.8672 1.9863-9.1955-13.676 1.1279 14.281-7.5976 6.9414-13.953 13.427 26.626-0.54895 9.2168 9.8418-8.4456 14.739 15.983 10.733 13.729 1.5762-0.71114-7.9876 4.523-20.34-3.498-26.102zm-140.54 4.2578c-3.1464 14.296-13.234 22.807-24.154 31.768-12.831 6.8554 2.7512 15.513-1.2383 26.994 0.98895 9.1216 12.431-0.34162 18.779 4.3027 7.6112-15.3 25.793-19.325 41.029-22.395 11.532-3.8514-1.0303-29.867-10.963-20.59-1.1476-12.922-12.228-18.093-23.453-20.08zm118.55 0.38086c-12.76 0.0943-5.0206 4.9175-0.71094 4.9629-7.2418 0.50291-1.921 6.9991 2.9766 0.08789-0.8926-0.09666-1.6802-0.13175-2.3691-0.11719 1.8113-0.20722 2.6384-1.5367 0.10352-4.9336zm2.6074 7.2793c-8.8757-0.01398-5.4834 11.054 0.89844 0.03711-0.31216-0.02463-0.61213-0.03666-0.89844-0.03711zm-262.79 6.793c-43.775 44.825-87.254 89.938-131.13 134.66-1.7095 10.413 19.549 10.978 8.9434 22.186 2.4864 8.2211-1.5593 20.313-0.6582 25.557 9.257-0.076 31.357-8.4264 24.213 9.5976 1.3775 17.694-0.25764 34.946-4.7441 52.148-7.1749 15.182 14.194 29.982 1.5703 42.355-4.4156 4.4344-8.4863 10.947-0.0625 4.5918 7.8906-2.7945-5.0966 4.5092-6.0859 6.125-5.4433-0.22757-8.1372 4.2569-10.395 3.7715-3.7195 5.9727 5.7312 10.367-1.7383 11.457-3.2041 6.6289 0.14007 20.581 7.6582 10.43 8.6295-0.58312 4.2536 1.71 0.56836 4.5 1.8822 6.3 9.5203 13.506 1.4727 4.2226-7.683-2.2579 1.8378-9.9358-5.9668-5.127 0.39749 1.5501 0.53478 3.6261 0.53516 5.8691-0.54744-0.54195-1.309-1.0009-2.3398-1.3418-6.0773 0.91533-7.7517 16.843-0.31836 9.4941-5.7303 7.5073-0.61016 4.2044 2.2207-0.55859-0.35903 3.6049-0.82708 7.1111-0.95508 8.0566 10.569-6.5336-12.172 10.618 0.88281 3.4258-6.3543 5.1021 2.3515 7.4896-0.47656 7.9356-6.5187 2.622-6.335 10.704-3.7852 11.666-4.1236 0.66567-4.0629 4.5598-2.8477 5.8965-8.5686-0.1168 0.17579 14.525 7.4648 12.76 4.823 1.6145-5.4519 1.6979 1.5098 6.3672 1.7271 2.1702 3.8096 2.3148 5.5391 1.8926-0.67898 0.45885-0.75436 0.36134-1.7617 1.1445-5.474-0.78465-7.7795-2.892-4.8066 2.3926 4.2452 2.5313 9.2147 6.7206 13.844 3.8535-3.0822 3.4727-5.1286 7.0824 2.5098 6.541-5.7118 1.8096-8.053-0.8439-6.6074 7.0898-1.938 12.922 13.889 2.3601 9.9082 4.9141-7.52 4.191-6.023 16.315 3.6953 11.506-7.5226 9.0841 2.6781 1.5434-0.88672 5.4219 5.5969 2.2515-9.236 0.97781-0.66992 6.998 20.38 12.956 42.902 22 64.744 32.168 31.85 13.44 64.385 25.775 97.648 34.994 2.4496-8.0152 3.7368 5.9899 12.014 4.1113 14.036 1.8464 27.095 7.4258 40.945 10.027 11.101-0.68575 22.835 7.1443 35.723 6.9785 15.551 3.4145 31.458 5.0948 47.193 7.5527 13.508 0.75667 21.964 2.4736 35.318 3.2637 13.649 3.6831 28.463 4.4352 35.646-7.6465 4.5102-4.2234-9.1449 3.879-1.4434-2.3438 6.4677-6.4675 9.8829 4.2832 11.973 6.3027-3.5815-1.387-11.054-6.5846-5.9688 1.4121 8.3612 0.41866 4.1817 6.676 0.70898 3.9512-13.256 10.001 18.956 14.912 13.57 4.8242 5.5432 3.5693 10.664 9.8726 16.152 11.803 3.4542-1.3088 10.494 8.0444 17.414 2.5605 7.4447 0.77417 23.991 8.2298 24.271-5.4277-5.5301-0.60137 5.7563-3.1878 6.8105-1.4707 2.7134-5.6701 6.4921-9.8549 2.4863-0.77344 9.6958-2.4334-0.20624-13.687 10.256-9.0195 11.425 0.64347 24.037 1.9699 25.588 14.834 3.16 7.0882 20.947-3.7317 14.838 8.3066 5.4762 3.3246 8.6971 7.6471 5.916 13.131 8.41 0.61182-0.98238 14.081 9.9062 9.1699 0.58097 5.9942 3.5863 9.5883 5.4258 3.3477 13.333 1.5581 27.21-0.38308 39.158 1.209 11.288 1.6438 19.336 14.56 24.924 20.943-10.34-1.3212 3.2547 8.0152-7.1582 7.1035-7.3218 0.16431-13.43-5.2286-19.537-12.129-7.5376 1.3914 12.123 15.484 2.4805 17.002-6.08 11.619 5.0784 27.97-9.9531 35.236-0.55907 8.7208 6.599 14.79-6.9394 13.33-2.5623 2.6303 0.11008 9.1751 6.0625 5.334-0.76582-2.8991 4.487 3.9912 5.9707-3.8574 6.3889-8.7131 14.856-14.001 26.646-15.324 5.2053-7.9217 19.655-5.424 21.436-11.611-0.64937-7.4659-17.313 0.4266-14.539-4.1445 5.7509-9.1433 6.8477-14.386 18.699-16.717 4.5395-2.3945 8.7175-4.6061 12.793-6.6582 0.26145 2.7036 9.7046 5.7405 9.3672-1.0352-1.2273-0.45958-2.8158-0.09945-3.6133-1.4316-0.18523 0.01195-0.36216 0.02635-0.53711 0.04102 2.589-1.2246 5.1756-2.513 7.7969-3.5801-4.4987-2.653 10.603-0.01681 4.4883-5.8301 9.626 0.54869 10.682-16.76 21.379-19.621 5.1368-7.1154 5.7754-5.1363 0.58789 0.93164 8.8121-2.0512 23.813-5.9825 32.482-11.084-1.8802-5.6798 4.5375 6.1786 9.0352-1.8691 8.8986-7.3781 15.709-19.935 10.646-31.305 3.3823-7.4215-0.25643-27.584 9.832-27.23 4.883 2.7024 17.992-10.733 19.906 2.7442 2.9547 10.677 7.8203 21.263 15.283 25.463 7.8688 13.737 22.819-2.7696 29.352-11.668 4.063-5.9928 6.6353-0.23832 8.3984-7.9414-1.3341 4.5528-1.9661 9.2867 3.2793 3.9453 4.7117-3.6992 22.239-8.4456 8.9277-1.0391-1.6981 6.4166-6.3156 3.6519-7.5156 2.916-3.9847 6.3428-16.005 23.035-14.141 24.383 0.30049-2.2819-1.6695 16.943 8.8476 15.461 13.28 3.9799 14.079-21.282 17.525-28.082 0.0741-4.2894 11.456 1.0385 4.1699-5.1738 10.997-3.7293 17.826-16.573 25.721-24.803 5.5606-3.3568 2.9376-7.2569-2.0742-3.4453-1.279-10.033 22.359-14.7 11.227-26.062-4.2838 2.3531-7.9327 26.295-11.447 10.576 3.8845-1.2751 7.51-14.988 3.8516-6.0976 0.11209-6.7899-7.9851-24.11-10.148-8.0371-3.5042 9.6436 4.7787 21.318-1.832 28.906-3.6444-12.772-10.659 9.8997-19.73 5.0586-4.1752 1.5261-16.689 1.8494-8.293-3.9473-5.1882 0.47708-17.724-2.8496-17.738-5.2988 1.904 9.1218-6.8417 0.36821-6.9609-5.6641-10.938 8.7932 4.1729-23.576-11.143-10.738-3.177 9.36-8.9791-3.5671-11.266 3.4258-3.5813-9.2248-15.625 7.012-6.5332-3.5098 9.7501-5.095 23.392-5.8495 23.697-20.361-3.147-13.594-21.341-9.4192-29.346-1.9609-10.256 8.1144-18.027 18.663-25.928 28.553-10.509 13.555-7.917 34.109-22.711 44.9-10.685 6.522-17.967 17.31-22.537 28.762-1.19 8.4919 0.83396 6.0873-4.707 1.5449 5.7083-5.1681 10.306-16.18 15.615-22.234-1.0389-2.2151 12.65-7.4169 8.793-10.314 3.881 5.8753 8.3234-14.123 11.785-19.018 1.733-2.9605 6.0579-17.349-1.4414-11.67 11.559-8.729 7.2728-28.113 21.557-35.014 7.2485-7.4999-0.27784-22.34 13.617-27.137 13.824-6.3383 27.601-12.869 41.473-19.125 12.011-3.5798 26.508-9.3688 31.848-21.725 2.8166-14.864 6.71-28.639 20.57-36.461 4.1222-6.7967 7.8031-21.92 0.74805-22.381 5.629-3.7368-6.8971 0.2371-3.1816-5.6621-5.4675 0.15883-1.6453-14.829-12.262-12.615-7.3218-3.8865-9.7374 2.6362-12.225 7.9394 2.4866-8.0205-11.528-15.447-16.561-6.0938-0.0393 2.9937 8.3636-4.1368 1.7402 2.3574-5.2865 4.3975-7.4482 6.6526-3.334-0.85547-10.189 7.1201 17.286-17.288 0.25586-13.67-3.0167-4.2904-12.79 10.353-15.938-0.28515-2.5694 4.0464-2.9069-2.0244-4.4688 5.7871-6.6286-5.875-21.483-13.674-31.033-22.453-11.632-8.5293-22.859-17.745-34.25-25.828-10.576-7.9906-21.429-15.649-31.74-23.994-7.4532 2.0686-3.4412 19.283 1.0293 18.619-6.4965 0.99501 3.7794 21.107-6.7305 16.631 0.65751 6.8052-6.3362 22.885-11.971 13.111-8.4038-3.7588-14.798-8.6632-20.633 2.4316-3.476 1.1074-3.0504-8.7381 1.6133-3.8281-0.73038-3.3005 1.0361-13.643-5.4023-8.2188-0.50419-11.613-9.8101-21.235-8.5957-33.045-3.3336 3.3748-4.133 4.1017-9.9726 1.416-8.0328 8.0314-15.396-6.2579-17.357-5.4531-7.1208-5.6338-21.596-16.713-29.713-3.7461-9.9167 2.9111-32.625-7.9634-29.875 10.148 7.0121 7.7432 7.6864 17.136 6.4199 25.523 7.2564-4.2934 3.5456 9.8129 9.7031 14.381 2.7999 12.957-15.758 29.955 5.0449 35.424 16.228 7.1388 23.038 27.606 20.01 44.156-2.0477 15.689-17.375 22.164-25.613 33.32 10.276 8.979 10.605 22.991 16.807 34.191 9.9172 8.8342-0.09667 21.309 5.1133 29.713-5.9527-5.578-9.7299-5.5605-9.9668 3.3496-11.789 3.8254-19.3-14.408-29.682-19.58-11.708-9.5868-7.2486-25.112-14.066-37.381 2.7662-12.573-6.7966-19.415-18.965-15.58-12.201 7.7142-23.509-9.5281-33.023-4.7012-0.09259-1.1139-0.18411-2.2279-0.27734-3.3418-14.707-0.86545-19.427-20.014-34.242-20.553-12.013-8.4799-25.029-6.25-37.178-0.21875 8.6563-11.01-2.807-28.17-6.1133-36.77-16.261 3.0878-13.854-15.784-13.809-26.477 3.1427-11.398 7.5043-23.715 13.822-33.215 0.41511-1.6702-0.50171-2.2363-1.2051-2.4492 0.40162 0.07546 0.83582 0.15948 2.0547 0.17578-0.99469-5.6771 11.517-8.9123 1.3144-12.039 3.0755 1.0125 9.8603 5.6665 6.7871-1.3398 7.1368 4.9868-4.1689-6.6959 4.75-1.8008 4.7073-1.7156-8.7177-8.8058 3.9375-5.4863 12.605 1.0813 9.0733-13.384 2.2969-16.729 7.4598 1.565 14.264-0.32895 13.85-10.873 12.856 10.232 25.641-13.445 21.943-23.492-10.764 2.7534-18.929-3.5826-26.062-11.352 10.515-4.1391 21.629 20.176 29.836 4.0723 5.1018-6.5465 6.4539-14.099-0.96484-17.107 5.8266-11.64 17.402 10.329 17.834 0.01953 12.4 10.076-1.2446-18.797-5.8438-7.9707 3.9894-14.985 13.601 17.244 19.473 1.8008 15.052-11.12 5.2485-26.89-3.5469-37.215 0.71725-3.2689-3.2816-9.8708 2.0156-7.6113-2.2817 14.395 12.923-5.2508 0.95312-3.209 9.0037-6.8603-10.585-9.4967-8.6113-14.539-11.438-4.8236-28.163 1.2517-14.49 13.689 6.6838 7.483-10.362 8.0765-4.5938 16.99-0.18179 8.1238-7.7692 33.496-14.084 16.271-10.993-10.086 5.1952-18.458-5.4121-28.646-12.19-16.51-8.3578 17.607-15.365 11.527 2.9642-7.4685-8.9209-16.434-0.33007-21.303-5.7568-3.6496-17.902 1.5075-13.713-9.4805 3.24-2.2891-1.7098-4.3889 5.3711-5.5274-11.147-5.619-6.1743-30.899-17.844-29.971-6.6983-7.7357 10.42-10.413 3.9199-21.199-2.4857-2.5044 18.871 1.9264 14.336-10.336 7.0405-6.2788 8.2952-20.336-3.8594-17.09-5.2349-5.4469-23.737-1.2849-14.379 7.3672-11.504-3.8719-5.8125 18.138-5.0254 24.42 2.423 8.1487-3.3664 19.775-5.3457 22.824-10.273 3.0253 0.6876 17.575-5.8047 24.129 1.8329 13.446 19.485 11.375 24.686 19.285-3.0342 9.3593-1.0152-7.12-6.8008 0.41797 0.71341-10.778-10.966 17.704-0.51758 6.7715 3.391-4.8786 1.8712 12.998-5.3144 14.205-10.891 2.5151-7.2052 12.334-7.5195 19.369-11.229-0.95337-5.5613-11.282-4.2422-20.104-6.2353 6.793-3.6047-6.9281-12.654-7.2949-5.6126 0.41834-8.5848 12.229-0.63672 11.674 10.353 0.63608-2.7997 12.946-3.4648 0.38868-5.1138-8.8306 0.09579 6.8341-8.3516 1.4551-11.788-2.4563-25.298 1.1706-32.408-11.277-14.742 1.5645-6.0029-25.327-23.172-19.117-8.3596-2.2289-18.279 12.128-6.5898 9.5234 3.1041-1.4691 11.535-0.82039 16.781-4.0156-4.4622 9.8057-26.325 6.4084-19.479 22.297 2.9266 5.9457-1.8372 9.9111-2.7598 7.334-2.1372 6.6214 1.5276 15.686-2.459 3.8945-1.3377-2.8787-6.1865-11.768 1.1367-6.9004 0.15222-2.9432-2.5152-15.278-5.5137-7.8457 1.0065-18.723-17.826-10.73-29.492-15.715-6.713-2.0315-22.707-11.409-7.6387-14.408 13.959 0.96567-0.69613-20.564-9.3691-18.301-11.186-8.0511-18.072-20.393-25.164-31.527-6.0984-11.432-18.501 9.107-19.268-3.1894 4.2954-4.7468 5.6458-17.219 1.8789-9.9922-4.3464 2.256-7.008 5.4158-10.334 8.2227-10.089-7.6528 5.208-21.777-3.9219-29.633-0.67929 11.174-13.835 9.9186-20.207 6.0801-4.874-0.99448-11.586 6.6804-8.6113-0.90234-7.4374-2.3925-15.149 2.0316-17.611 4.6289-10.651-7.6404 12.793-7.3168 16.422-6.9668 11.187 5.6764 24.982-5.5643 6.8223-5.5117-6.3364-2.9706-27.524 5.489-21.334-7.5742-3.0888-1.9797-6.4043 2.0022-11.52-0.89844-8.8474-0.43081-5.0045 17.919-9.3633 4.8906-11.364-10.294-3.4791-26.231-15.225-36.014zm359.02 560.86c-0.27836 0.58167-0.59259 1.0811-0.83789 1.6836 0.98326-0.8245 1.0624-1.318 0.83789-1.6836zm-107.85-558.11c-14.659 7.6442 9.1932 13.256 0 0zm48.508 1.8125c-17.784 3.7559-2.348 29.237 7.6699 16.705-0.37203-6.0136-0.69115-14.392-7.6699-16.705zm-117.77 23.711c-13.941-0.10706-25.275 7.3352-33.535 15.953-8.2168 6.2801 8.5709 11.011 0.63867 13.059 5.5534 2.0336 25.312 5.8644 8.748 5.5742-15.193-5.8207-19.221 13.821-3.0332 14.662 13.205 6.5356-10.701 6.8322-13.734 10.057-5.658 16.319 19.405 15.017 18.025 28.088-4.0052 16.139 19.61 13.266 29.57 13.705 8.0494 1.8927 20.929-7.9524 22.412-7.4394 6.7014 9.2739 14.656 18.401 28.754 14.658 8.5229-5.4478-1.1574-14.373-5.0801-8.0762-0.68322-8.3657-2.4848-7.8413 4.9746-5.7617-1.1811-8.5742 9.2552-0.69549 8.9473-2.0137 4.679 5.7406 5.2706-11.561-1.9453-10.562-10.166-7.1118-17.866-19.359-12.326-30.934-3.042-12.729 4.4962-33.534-12.719-37.631-10.713 6.1708 2.9998 26.69-9.4043 31.643-0.79285-9.9345 3.6314-25.663-8.3809-30.049 9.1671 9.0009-8.4089 11.734-9.6562 9.6133 11.309-6.3786-5.4014-20.629-11.191-8.7871-10.111 0.99479 9.8876-9.7904 1.7598-15.635-0.9524-0.07613-1.8948-0.11591-2.8242-0.12304zm51.961 6.8164c-11.42-0.3166 2.5974 27.624 5.6113 12.352 3.8444-4.7706 2.845-12.43-4.4238-12.23-0.42256-0.07142-0.8191-0.11089-1.1875-0.1211zm35.025 1.9492c-1.8966 3.2555-9.7608 1.8058-4.3398 8.8066-7.0092-4.4197-5.3105 3.3524 0.73633 4.7578-2.4028 1.3133 1.479 10.874-1.1445 5.1035-1.3472 15.943-13.634-12.837-14.436 3.9297 5.9518 10.411 14.961 19.248 19.189 31.051 10.068 4.6324 0.0599-15.39 8.543-5.1856 11.238-0.36587 11.985-20.939 5.5176-22.291 2.027-10.284-12.09-2.3182-4.502-8.3106 10.388-9.5481 7.6408-18.495-7.0352-14.043-1.5708-0.54391-2.4938-2.2209-2.5293-3.8184zm124.87 0.1875c-8.7844-0.09895-21.674 3.7145-10.137 13.107 5.929 11.468 17.328 1.6252 25.314-0.49804-1.7069-5.5661-8.6508-11.016-14.34-12.588-0.27386-0.01127-0.55452-0.01829-0.83789-0.02148zm-20.744 2.4727c-7.1548 0.50853-19.084 10.352-12.846 15.371-3.7754-0.28915-7.4532 2.4983-1.5195 3.7637-12.426-1.2217-1.5144 12.331 3.0762 15.562-8.9658-5.125-8.5306 13.054 0.38867 11.895 1.5014 6.173-0.81378 12.412-7.457 10.861-5.3979 1.5853 9.028-6.2801 2.2129-10.301-6.6674-6.9852-11.749-15.945-9.834-25.9 0.25495-6.4394 12.743-20.03-0.2207-19.838-10.743 1.3-15.017 12.652-17.27 21.777-1.6865 8.8299-2.4367 17.981-2.2363 26.912 1.5871 6.8186 18.323 4.5172 15.801 9.6055-10.092-2.2977-13.637 8.2481-4.3105 12.709 3.5945 3.8565 13.101-0.04225 12.945-0.68165 0.52921 11.278 13.76 2.785 20.529 6.5898 8.9841 4.1169 9.7512-2.677 9.3652-4.4141 3.867 3.3922 11.924 6.0832 7.873-0.22657 4.873-0.0954 20.473 3.4464 14.643-5.7715-8.2111-3.0238 0.40651-9.7061 3.8887-2.9492 6.0082 4.8104 9.0997 10.394 16.502 12.115 3.392 4.1411 10.707 7.597 2.6406 12.018 0.18935 8.2302 8.5006-1.173 11.166-6.7246-2.1941 7.9745 10.419 8.7506 13.98 14 6.674 5.902 15.802 12.976 13.951 23.031-2.4644 9.0554-14.443 22.539-1.582 28.957 1.5585 8.1255-14.284 11.09-21.314 12.27-12.078-2.985-13.552 21.527-2.3184 22.871 7.8631-1.0156 18.062-8.8178 22.395-11.566-2.2636-4.2264 0.20435-4.7297 2.4394-1.2402 1.9734-4.9592 6.117 6.9955 6.623-1.4473 2.1635 5.4082 1.5264-2.9316 3.3359 2.3633 4.5716 7.5329 13.562 9.2046 20.309 10.309 3.9737 5.8168-7.44 5.5338 0.42773 7.9316 9.1864 4.0378 19.694 2.5932 28.963 6.5644 8.845 1.5735 20.54 4.8992 27.857-1.7344-0.92579-10.032-15.56-10.1-23.018-13.836-4.2897-0.65473-16.394-9.4708-6.4766-9.248 3.715 3.8883 4.5616 1.4844 4.959-1.6758 6.8132 7.2378 17.883 3.9068 26.193 8.1113 4.5864 1.5721 2.3462-5.7078 2.2852-8.5762-3.3523-2.4095-12.002-13.481-3.4453-6.4902 6.757 3.1086-2.9564-8.1504-5.6465-9.3027-5.7357-3.0632-10.217-14.13-16.707-9.9199 0.0194 1.8684-2.5464-4.3947-5.8203-1.707-5.2105-6.4055-14.339-10.233-20.607-16.42-3.3717-1.7369 11.863 3.1068 6.9609-3.1621-3.9776-1.1356-7.292-7.6089-0.70508-5.0664-7.9423-5.7366 8.0461-5.3621 8.0332 0.45508 2.9307-0.77893 6.3052-6.0512 4.2344 0.04101 4.6999 6.9481 8.7955-13.528 8.2422-2.7656-7.4053 6.6587 6.3954 12.534 8.6934 14.797 1.7985-5.444 7.1655 5.4475 9.2812-2.498 2.3573-4.8586-11.336-13.849-0.02149-10.961 2.6145-3.2336-0.20512-10.463 0.06641-11.246-6.656-2.4446-1.8976-5.6232 2.0586-6.4004-0.11195-2.165-5.1838-6.704 0.14844-5.6719-2.0127-9.7293-15.043-1.8459-12.307 1.1504-3.6819-3.6478-5.402 5.3968-5.1816-1.8809 0.0431-4.1056-2.039-4.3192-3.2695-2.3711-3.4438-0.71682-8.474 7.722-4.6797 0.55078-7.4884 4.6618 3.7704-8.6703-5.4102-7.5957-4.225 0.78327-5.3031 0.86628-7.2012-2.7305-3.4267 2.5627 1.3598 7.3352-3.4766 2.7305-3.2012 2.2686 0.59237 6.2292-3.8086 1.5195-4.5515-0.97849-9.1798-4.0208-10.605-2.7539-0.2809-0.93627-0.62518-1.5045-0.98633-1.8613 1.8933-5.3522-10.852 0.49985-11.207-3.6328-7.8577-0.22031-0.04081-2.5391 1.4629-3.9024-2.1759-4.022 0.24184-6.1405-5.4844-3.7324-0.04051-0.95557 0.78123-2.3096 0.88868-3.084 5.8805 0.10425 15.548-4.5096 5.8476-6.7969-4.4979-0.63666-20.023 6.9429-9.7461 0.32227 9.519-1.0348 7.4235-17.365-1.3262-11.764-0.8975 3.0354-5.7211 13.427-6.0059 9.5781 3.8814-6.213 0.29902-9.6739-4.3711-3.3965 3.5076-4.5683 10.742-14.187-0.44922-13.133-3.7542-0.51092-6.1638 4.6242-6.7168 0.76562-1.7667 1.4091-3.6227 5.9232-4.1445 9.0293-0.71356-0.77178-1.7076-0.49131-2.373 0.08984 1.2386-5.1372 4.7706-15.492-0.62891-9.6309-0.69361 7.7993-12.87 2.3102-4.4883-2.2363 9.4286-9.3192-15.999-13.032-9.1582-0.87304-0.59858 1.1091-2.2489 0.91203-3.0977 1.3242-0.49556-2.0603-1.822-4.0293-2.8184-4.082-0.3195-3.8163-6.5292-5.4803-5.5684 1.1152-0.06194 5.8973-1.2966-3.8415-2.791-2.6152 3.3872-4.257 3.3033-13.963-3.2598-7.5547-1.596 4.3684-2.0853 4.2461-2.4121-0.13868-7.464 5.9937 7.1942-5.925-1.5781-8.3848-6.7392-6.032-24.428-0.25643-13.746 8.6797-1.8373-0.27175-7.0326-0.65634-2.9238 3.3438 2.858 4.443 4.4656 5.2409-0.33008 0.94531-1.7072-0.22444-1.988 0.88163-1.9297 1.7773-0.10902-0.44939-0.14635-0.73073-0.54297-1.8555-3.8173-8.6184-10.125-2.3719-11.068 3.6172 0.20302-2.6515 0.83861-9.179-2.3652-7.0996 4.3579-4.5594-0.29903-15.01-4.4688-19.986-1.4215-2.1352-2.8771-4.2589-4.0254-6.5586-0.42775-0.05327-0.88434-0.06125-1.3613-0.02734zm-100.41 81.309c-4.6713 2.2397-1.138 10.272-4.0098 8.0215-1.9736 6.6731-14.831 9.6537-2.3106 13.25 4.3222 8.9759 23.918 10.244 21.838 0.78124-6.626-3.6672-1.5408-11.344-10.908-15.76-1.4208-2.1463-1.9721-5.211-4.6094-6.293zm162.53 18.758c-17.413 2.5172-4.2569 36.483 7.7383 18.031 2.5788-6.0651 0.40641-17.924-7.7383-18.031zm-67.141 61.715c-11.981 12.769 4.497 33.482-9.0605 43.076-4.9332 13.688 14.781-6.9099 13.15 8.1309 4.29 14.885 14.55-9.2994 17.807-14.617 1.1845-6.9028 8.3419 3.3416 9.2422 2.5117 5.4683 12.271 29.353-1.8695 12.906-6.7129-12.546 7.3083-4.9095-11.867-17.182-13.33-8.2601-2.7984-16.051-11.316-21.922-7.9141-1.8645-3.7803-0.56861-8.414-4.9414-11.145zm73.592 38.658c-18.208 3.0436 14.645 11.89 0 0zm-141.04 3.7969c-0.41027-0.24455 0.70152-0.13949 4.625 0.41602 2.9422 2.1568 6.9328 4.1682 10.959 5.4394-1.8098 0.03688-3.7105 0.90856-5.5234 3.0996 6.109-4.3372-8.8297-8.2214-10.061-8.9551zm101.73 12.908c-13.442-0.31795-16.043 27.688-1.6465 14.471 3.5347-2.0048 10.216-13.788 2.9824-14.35-0.45595-0.07154-0.90233-0.11084-1.3359-0.12109zm27.703 7.4199c-12.976 2.0552 3.9402 26.084 3.1641 9.2793 1.5423-3.1515 0.81325-8.4268-3.1641-9.2793zm-577.28 23.664c-6.4625 4.225-7.2887 17.321-4.7676 22.316 7.0703 1.1286 13.947-7.4523 15.939-11.041-7.21-2.7798-7.3354-6.0361-11.172-11.275zm-8.4551 21.582c3.6538 7.1177-3.4852 24.503 4.7539 25.088-3.5394-7.6665 0.091249-18.874 4.0117-21.895-2.5618-1.9382-6.4892-0.73583-8.7656-3.1934zm914.73 56.883c-10.637 5.7051-10.849 19.55-9.4102 30.031 1.2467 8.0466 2.1132 17.452 3.707 24.457-4.1846 4.5739 9.6713 8.7118 0.52734 11.023-1.8196 0.20226 2.2846 8.5878-1.8164 11.865-4.4949 3.4328 10.039-4.277 5.5469 3.8398-10.823 6.0926 4.5313 22.899 9.1602 10.07 6.5043-6.0605 15.917-8.4639 23.141-12.719 5.0492-1.4209 10.337-14.472 9.2422-3.5508 5.5343-0.96658 9.873-9.8429 8.8359-13.939 2.2504 4.9754 5.3982 9.4135 0.81055 15.004-3.5664 3.9903-1.0449 12.775 3.3828 5.2852 5.6564-7.1042 0.46222-22.89 10.17-25.639 5.1887 3.0616 2.0074 16.024 8.0821 14.945 0.6717-3.5898 1.7198-10.769 4.5664-3.4902 6.9687 8.684 11.412-9.6816 5.1133-13.213-0.6972-5.3597-6.4578-10.098-5.0118-2.2363-7.4202 5.4319-6.3345-16.354-9.123-4.0078 0.6447 5.6826-0.1162 11.246-4.8477 4.3203-1.87-1.1257-2.6097-2.3732-2.7343-3.6875 0.7607-0.52844 1.5182-1.8288 1.8184-4.3086-0.31517 0.10503-0.60495 0.21713-0.875 0.33203 1.4821-3.3491 3.7605-6.7836-0.06445-9.5547-2.9683 2.5131-9.0574 14.459-6.9941 4.0254-3.9381-1.6753-8.514-2.3587-3.9102-7.2461 1.473-9.6412-13.944-3.617-16.549 1.4668-1.1147 3.825-4.3906 10.347-5.2207 2.1973-4.2734 4.9623-15.716 5.404-10.986-3.3418 2.1521-6.2198-10.455 1.601-9.3887 5.8262-1.3498 7.0101 5.1556 19.301 5.2012 21.912-3.501-10.494-7.7182-20.924-9.918-31.74 1.0301-7.2032-0.33903-16.976-3.2656-21.479 2.4014-1.512 4.9233-4.9504 0.81055-6.4492zm-301.01 9.082a7.1033 9.9537 0 0 0-7.1035 9.9531 7.1033 9.9537 0 0 0 7.1035 9.9551 7.1033 9.9537 0 0 0 7.1035-9.9551 7.1033 9.9537 0 0 0-7.1035-9.9531zm-595.92 3.9219c-10.112 6.6946 15.444 12.992-0.87695 10.188-5.4707 8.4573 10.004 7.7924 4.0117 15.725 0.64721 0.22532 1.273 0.5516 1.8652 0.94336-6.5476 6.8317 4.4527 6.9727 2.7422 2.6777 2.2229 3.1356 2.3604 7.0592-2.6289 7.5918 10.972 5.2296-0.29039 14.681 11.68 17.6 12.757-0.1262-8.9379 1.408 0.68945 9.373 2.0393 8.4488 19.859 16.411 14.881 8.9902 2.8386-7.635-3.1534-8.1332 0.70703-12.801-6.4301-9.1518-7.9638-17.409-6.4336-27.854-5.9415-12.002-17.056-24.715-26.637-32.434zm517.25 61.461c1.2643 15.058 2.257 30.177 3.7461 45.189-1.3324-15.056-2.5248-30.124-3.7461-45.189zm312.22 7.1777c-8.181 0.11622-26.322 6.3026-10.398 7.6797 8.1335 3.949 31.366 3.9383 28.873-5.7051-5.3204-1.4364-10.898-0.9384-16.303-1.8047-0.58437-0.12997-1.3256-0.18195-2.1719-0.16993zm67.701 47.102c-5.5419 7.7489-0.22351 12.735 1.4102 2.6836l-0.85352-1.2773-0.55664-1.4062zm-24.713 8.4844c-0.30418 0.25229-0.56408 0.52306-0.78711 0.80664 0.27979-0.25796 0.54402-0.52555 0.78711-0.80664zm-0.78711 0.80664c-6.198 5.7144-20.884 6.0102-21.191 12.254 6.1042 5.2747 10.284-5.8894 16.209 0.57226 6.2914-1.7518 1.7819-8.7567 4.9824-12.826zm-30.104 1.4531c-12.192 8.0946 16.132 16.319 4.3125 6.5703-1.7426-1.8797-4.192-3.7409-4.3125-6.5703zm-5.7949 6.5391s0.01533 0.06315 0.04493 0.18945c-0.0296-0.1263-0.04493-0.18945-0.04493-0.18945zm-236.85 90.191c-2.7167 3.7514-11.713 2.3135-9.8086 3.8164-16.997-1.5048 5.9358 5.7265 11.398 4.1875 2.644-2.0319-0.33474 3.1983 3.0176-3.668 1.3129-4.278-2.9382 3.5942-4.6074-4.3359zm81.973 25.539s-0.0184 0.01784-0.0586 0.05469c0.0402-0.03685 0.0586-0.05469 0.0586-0.05469z" fill="#000"/></svg>