<svg xmlns="http://www.w3.org/2000/svg" xmlns:xlink="http://www.w3.org/1999/xlink" viewBox="0 0 100 100"><g><g><path d="M0,0L100,0L100,100L0,100Z" fill="rgb(255,255,255)"/></g></g><g transform="rotate(0,10,50)"><g><path d="M0,0L20,0L20,100L0,100Z" fill="rgb(254,0,0)"/></g></g><g transform="rotate(0,90,50)"><g><path d="M80,0L100,0L100,100L80,100Z" fill="rgb(254,0,0)"/></g></g><g transform="rotate(0,50.000003814697266,51.57000160217285)"><g><g><g transform="translate(24.685000000000002,24.229799999999994) scale(0.12929009999105356,0.12948236225573112)"><path d="M195.9,0c-11.4,21.1-22.9,42.1-34.3,63.2c-1.5,3.5-4.7,5.9-8.3,6.3c-4.4,0.5-7.5-2.2-8-2.7  c-8.7-4.4-17.3-8.9-26-13.3c6.3,34.1,12.7,68.2,19,102.3c1.4,4.2-0.6,8.7-4.3,10.3c-4.1,1.8-9.2-0.2-11-4.7  c-14.3-16.2-28.7-32.4-43-48.7c-1.9,6.8-3.8,13.6-5.7,20.3c-1,5.2-4.5,9.3-9,10.3c-3.1,0.7-5.8-0.1-7-0.7  c-16.6-3.8-33.1-7.6-49.7-11.3c5.7,20.6,11.3,41.1,17,61.7c0.2,0.6,0.9,2.4,0.3,4.7c-0.6,2.3-2.2,3.6-2.7,4  c-7.7,3.6-15.5,7.1-23.2,10.7c31.2,25.3,62.3,50.7,93.5,76c0.9,0.5,4.1,2.7,5.3,7c0.8,2.8,0.3,5.2,0,6.3c-2.8,8.9-5.6,17.8-8.3,26.7  c30.6-4.2,61.1-8.4,91.7-12.7c0.5-0.1,3.2-0.5,5.7,1.3c2.9,2.2,3,5.6,3,6c-0.8,33.1-1.6,66-2.3,99.3H203  c-0.8-33.1-1.6-66.2-2.3-99.3c0-0.4,0.1-3.8,3-6c2.5-1.8,5.2-1.4,5.7-1.3c30.6,4.2,61.1,8.4,91.7,12.7c-2.8-8.9-5.6-17.8-8.3-26.7  c-0.3-1.1-0.8-3.5,0-6.3c1.2-4.3,4.5-6.5,5.3-7c31.2-25.3,62.3-50.7,93.5-76c-7.7-3.6-15.5-7.1-23.2-10.7c-0.5-0.4-2.1-1.7-2.7-4  c-0.6-2.3,0.1-4.1,0.3-4.7c5.7-20.6,11.3-41.1,17-61.7c-16.6,3.8-33.1,7.6-49.7,11.3c-1.2,0.5-3.9,1.4-7,0.7c-4.5-1.1-8-5.1-9-10.3  c-1.9-6.8-3.8-13.6-5.7-20.3c-14.3,16.2-28.7,32.4-43,48.7c-1.8,4.5-6.9,6.5-11,4.7c-3.8-1.7-5.8-6.2-4.3-10.3  c6.3-34.1,12.7-68.2,19-102.3c-8.7,4.4-17.3,8.9-26,13.3c-0.5,0.4-3.6,3.2-8,2.7c-3.6-0.4-6.8-2.8-8.3-6.3  C218.6,42.1,207.1,21.1,195.7,0L195.9,0z" fill="rgb(254,0,0)"/></g></g></g></g></svg>