<?xml version="1.0" encoding="utf-8"?>
<svg version="1.1" xmlns="http://www.w3.org/2000/svg" xmlns:xlink="http://www.w3.org/1999/xlink" viewBox="0 0 48 56" stroke-width="0" fill="url(#gradient)">
    <rect x="24" y="0" width="6" height="6" />
    <rect x="16" y="8" width="6" height="6" />
    <rect x="24" y="8" width="6" height="6" />
    <rect x="32" y="8" width="6" height="6" />
    <rect x="40" y="8" width="6" height="6" />
    
    <rect x="0" y="16" width="6" height="6" />
    <rect x="8" y="16" width="6" height="6" />
    <rect x="16" y="16" width="6" height="6" />
    <rect x="24" y="16" width="6" height="6" />
    <rect x="32" y="16" width="6" height="6" />
    <rect x="40" y="16" width="6" height="6" />
    
    <rect x="8" y="24" width="6" height="6" />
    <rect x="16" y="24" width="6" height="6" />
    <rect x="24" y="24" width="6" height="6" />
    <rect x="32" y="24" width="6" height="6" />
    
    <rect x="16" y="32" width="6" height="6" />
    <rect x="24" y="32" width="6" height="6" />
    <rect x="32" y="32" width="6" height="6" />
    
    <rect x="8" y="40" width="6" height="6" />
    <rect x="16" y="40" width="6" height="6" />
    <rect x="24" y="40" width="6" height="6" />
    <rect x="32" y="40" width="6" height="6" />
    <rect x="40" y="40" width="6" height="6" />
    
    <rect x="8" y="48" width="6" height="6" />
    <rect x="16" y="48" width="6" height="6" />
    <rect x="24" y="48" width="6" height="6" />

    <defs>
    <linearGradient id="gradient" x1="0" y1="0" x2="0" y2="56" gradientUnits="userSpaceOnUse"> 
    <stop offset="0%" style="stop-color:rgb(235,218,0);stop-opacity:1"></stop>
    <stop offset="33%" style="stop-color:rgb(255,42,0);stop-opacity:1"></stop>
    <stop offset="67%" style="stop-color:rgb(255,5,251);stop-opacity:1"></stop>
    <stop offset="100%" style="stop-color:rgb(34,3,128);stop-opacity:1"></stop>
    </linearGradient>
    </defs>
</svg>