<?xml version="1.0" encoding="utf-8"?>
<svg version="1.1" xmlns="http://www.w3.org/2000/svg" xmlns:xlink="http://www.w3.org/1999/xlink" viewBox="0 0 48 56" stroke-width="0" stroke="black" fill="black">
    <rect x="24" y="0" width="7" height="7" />
    <rect x="16" y="8" width="7" height="7" />
    <rect x="24" y="8" width="7" height="7" />
    <rect x="32" y="8" width="7" height="7" />
    <rect x="40" y="8" width="7" height="7" />
    
    <rect x="0" y="16" width="7" height="7" />
    <rect x="8" y="16" width="7" height="7" />
    <rect x="16" y="16" width="7" height="7" />
    <rect x="24" y="16" width="7" height="7" />
    <rect x="32" y="16" width="7" height="7" />
    <rect x="40" y="16" width="7" height="7" />
    
    <rect x="8" y="24" width="7" height="7" />
    <rect x="16" y="24" width="7" height="7" />
    <rect x="24" y="24" width="7" height="7" />
    <rect x="32" y="24" width="7" height="7" />
    
    <rect x="16" y="32" width="7" height="7" />
    <rect x="24" y="32" width="7" height="7" />
    <rect x="32" y="32" width="7" height="7" />
    
    <rect x="8" y="40" width="7" height="7" />
    <rect x="16" y="40" width="7" height="7" />
    <rect x="24" y="40" width="7" height="7" />
    <rect x="32" y="40" width="7" height="7" />
    <rect x="40" y="40" width="7" height="7" />
    
    <rect x="8" y="48" width="7" height="7" />
    <rect x="16" y="48" width="7" height="7" />
    <rect x="24" y="48" width="7" height="7" />
</svg>