<svg version="1.1" viewBox="0 0 1589.1 1618.5" xmlns="http://www.w3.org/2000/svg">
 <path d="m904.21 0c-32.947 14.491-72.859 9.5599-102.37 32.41-15.244 13.209-12.175 35.163-12.117 53.184-0.0936 19.54 0.0914 39.618-5.271 58.454-1.1844 6.674 14.213 18.697 8.0448 19.131-14.901-2.8207-19.429 17.454-29.582 24.949-13.453 15.635-32.752 24.866-52.83 28.428-20.2 4.7714-41.969 6.3668-59.479 18.622-9.05 5.4146-18.142 11.179-28.45 13.877-8.6911 11.078-17.119 25.55-12.374 40.055 4.7239 14.974 33.918 6.5446 35.087 9.4846-11.598 2.7726-24.172 1.958-34.065 9.9279-13.811 8.9458-29.403 21.68-46.983 15.868-15.812-4.7222-31.121-16.01-48.388-11.378-17.115 0.64186-31.84-15.255-49.222-9.4949-5.2552 6.0952-11.802 6.2858-12.703-2.6377-7.6812-13.297-16.273-30.962-5.235-44.459-0.20246-14.569-20.511-17.309-30.699-11.334-12.204 10.295-26.336 0.86847-37.784-5.3267-11.142-7.2323-19.089 3.9331-8.3201 11.56 5.2257 8.7159 0.51667 19.547 1.3661 29.239-1.0384 11.072 4.5358 21.19 12.99 27.979 8.7936 12.05 16.372 26.715 12.852 41.987-1.1409 14.437 8.8373 26.241 1.4359 40.53-4.0738 10.982-2.3438 22.773 3.7395 32.63 1.7274 6.5167 16.733 15.539 17.065 14.024-17.572-4.0672-35.354 9.9405-52.458 1.6318-5.6864-5.8922-6.7382-23.28-18.191-12.776-11.493 5.5452-6.2819 20.696-3.4197 26.555-2.0368-8.8325-7.6122-27.758-19.268-16.643-5.4909 6.8354-11.748 2.3467-13.755-3.7727-10.079 7.8516-1.1598-13.209-13.653-6.9604-14.04 2.7944-22.12 15.611-34.001 22.047-13.873 2.9198-17.735-15.663-24.884-24.111-7.3937-11.793-13.493-24.821-23.867-34.23-5.6149-11.8-13.902 2.8383-22.159-4.428-10.714 7.8606-24.474-0.48331-36.245 4.0819-4.3507 7.6701-3.6709 30.11-18.914 19.064-7.4548-4.8493-23.496-4.9664-21.841 7.5744-10.873-1.8419-14.965-22.079-27.529-11.126-11.207 3.8762-24.192 8.8619-34.618 2.7948-13.94 1.0534-25.114 11.854-38.21 13.098-14.947 2.3972-21.096 24.728-15.773 37.601 11.636 12.306 32.017 1.1447 46.342-1.8056 12.74-3.9156-17.042 8.3915 0.15382 12.065 4.4935 3.6016 13.589-5.2511 8.8029 1.7874 2.3824 4.6526 13.93 8.3453 2.6588 6.1351-10.621-1.2708-29.768 4.0795-31.356-11.494-7.0749 3.599-12.672 16.905-2.06 19.814-5.4022 7.3637 3.2906 11.203 6.8776 3.7611 13.52-10.758 34.336 16.66 15.653 23.111-13.008 0.77107-26.832-3.6986-39.101 2.968-11.422 9.7444 13.591 8.5845 18.018 14.143 13.675 7.8353 15.039 24.279 18.236 37.885 5.4041 9.3077 28.462 1.0385 19.101-9.8274 7.1154 0.11572 17.348 1.483 21.293 3.7177 11.052-12.954 14.593 13.481 24.946 14.47 11.858-0.58004 23.438 1.5618 32.312 10.173 7.6489 5.8793 16.307 14.613 23.536 3.9546 6.7418-1.46-4.9721 12.035 4.5259 12.484 9.1863 7.375 16.166-1.975 19.503-9.1879 6.0248 7.6534-10.997 9.8014-5.6395 19.844 3.6314 7.8202 3.9085 20.257 6.2745 25.852 1.2261-7.7336-1.2929-21.638 12.297-17.02 4.4836-0.07 13.916 7.7088 9.7422-2.2226-3.5134-14.346 8.9431 13.49 13.587-1.414 11.429-9.3436 27.506 12.503 7.5331 10.872-8.0455-2.0599-20.618 0.90192-8.9639 9.1056 12.038 8.1705 26.239-4.9361 39.195-0.67034 6.0374-0.76716 12.522 6.7192 4.667 10.009 3.4626 4.2187 10.474 14.644-0.72459 11.713-15.188 2.3749 4.6338 17.26 0.84713 18.801-13.577 4.233 9.4661 7.371 13.931 9.0731 13.144 6.7753 22.624-6.7202 35.265-6.6511 13.248-1.0344 27.386 5.3647 33.704 17.383-12.016-5.2556-23.168-18.699-37.456-14.015-7.5687 5.6572-15.557 22.18-9.5782 29.104 12.812 2.1537 21.864 15.122 16.459 27.697-4.2883 11.439-22.192 15.335-12.245 30.094 7.8393 15.889 26.36 24.285 30.457 42.429 1.3831 11.871 5.5627 21.685 17.235 26.236 11.251 9.4386 27.975 12.352 36.176 25.623 11.175-3.003 21.154 18.144 29.7 5.2308 16.893 7.1777-8.5441 20.06-4.4351 30.381 8.5875 7.9204 17.513 16.696 12.364 29.512 2.293 12.792-10.169 21.735-8.3117 33.916 0.21304 7.2901 15.647 17.041 4.0018 7.0574-7.957-11.546-25.754-2.4772-17.108 10.122 7.8635 11.073 23.534 12.419 30.99 24.016 9.6924 10.055 22.294 18.019 26.894 32.101 6.3181 14.95 7.8576 31.402 7.867 47.484-5.5269 14.347 12.153 21.838 19.188 29.72-5.3087 0.359-10.312 0.4696-3.7045 5.5397 2.543 4.1255-0.6723 16.715-1.5893 5.4783-6.6496-14.218-17.7-26.511-19.659-42.672-1.8569-13.826-2.1566-29.249-12.918-39.652-9.6027-11.349-21.964-20.142-30.664-32.291-15.594 18.622-6.8235 44.672-14.998 65.946-7.447 33.576-11.076 67.832-17.314 101.63 5.5629-9.388 17.095-31.218 26.787-12.512 4.653 15.964-16.81 9.4332-22.749 17.425-5.106 13.412-2.6974 28.628-6.8072 42.533-8.9477 49.518-22.933 97.961-35.874 146.51-7.2797 17.201-23.402 29.861-41.338 34.423 5.8958 9.7681 13.209 22.809 26.212 22.781 11.25-7.0112 25.687 3.9071 22.358 16.659-3.1013 8.907-18.08 28.934 1.8469 27.018 7.3389-0.4378 9.9768-18.422 11.76-5.8457 8.8663 11.637 25.702 10.375 36.642 19.196 10.264 9.2915 25.085 3.6571 36.294 10.07 6.306 11.612 15.58 26.282 30.584 28.557 14.045 0.486 31.564-12.788 42.238 1.8743 9.9839 6.7371 16.614 21.28 30.098 20.854 10.363-5.4156 21.604-10.218 31.672-1.379 12.399 1.6277 23.836-0.554 36.129 3.7111 11.602 2.4097 24.791-4.8047 18.129-17.699-0.2142-15.647 20.934-13.125 29.212-5.2482 15.747 3.7717 30.626 10.668 44.75 18.684 15.307-3.4568 26.273 9.9046 34.734 21.602 9.0024-11.501 26.649-5.2651 36.639 1.6239 4.1591 9.0645-3.9766 21.391 11.358 24.439 10.658 3.0249 22.016 7.8618 25.084 19.41 13.287 5.0561 22.792-11.305 35.5-12.002 15.681-1.1496 22.638 17.719 38.553 17.726 16.799 5.5085 21.531-14.905 36.707-16.747 14.916-5.6426 33.197-9.3069 47.161 0.7252 15.872-8.9959-8.0671-20.843-9.8216-31.588-6.5263-12.041 7.8721-25.348 0.0992-35.776-9.9125-4.391-10.208-13.955-1.538-19.892 6.4348-3.5205-1.9091-15.13 1.0118-13.35 13.058-1.2611 2.4907-22.292 6.0101-25.237 6.777 10.769 9.5211-10.951 15.518-13.956 10.267-13.37 26.901-18.11 41.483-24.902 8.6311-7.6045 16.34-16.561 27.158-21.574 6.8957-3.8676 23.276-14.609 19.836-18.868-5.923 1.6883-16.16 14.644-16.646 12.836 8.935-11.745 21.062-22.522 36.413-23.732 0.7628 1.5013-13.962 6.2628-1.3115 4.9791 10.164 0.3725 14.546 12.313 24.34 15.332 10.582 6.2059 23.767 7.325 35.048 2.3959 14.842-1.3596 14.188 20.957 28.056 21.32 13.151 3.5892 19.55-8.7563 8.4356-16.618-3.544-4.5972-3.82-20.466-3.1506-19.063 1.7365 9.62 3.571 30.639 16.752 28.068 5.8141-7.8587 14.046-11.116 22.734-5.6789 12.563-2.0663-7.6818-32.164 10.388-20.654 5.9206 5.2748 25.432 11.209 9.4075 16.221-11.302-1.9948-27.031 14.08-10.309 18.502 12.132 0.9645 27.752-10.153 36.937 2.4507 4.8018 7.4791-3.8025 16.874 9.0967 17.147 16.496 4.8511 35.868 3.8279 49.224 16.263-1.2009 13.633 20.425 15.605 19.518 1.2788 10.552-3.1104 23.694 1.7883 28.137 11.817 8.1046-1.9436 7.2253-23.292 20.062-14.976 14.882 11.559 19.931-19.955 36.431-12.261 11.211 3.2064 26.078-14.581 13.421-20.694-12.643-1.0755 4.509-6.5183 4.5703-13.042 4.4562-10.682 16.435-14.012 24.7-17.371 7.8324-11.903 17.751-25.206 33.002-27.02-3.3621-15.505 14.46-21.917 25.999-25.842 10.171-6.0795 25.933-12.623 22.184-27.18-3.6917-13.398 8.2429-19.153 15.872-26.875 6.7582-9.4746 7.8606-25.401-1.9671-33.071-12.988-4.3992-22.296 13.967-36.071 8.0444-14.29-2.6277-26.053-12.432-40.353-15.03-14.121-5.899-28.385-20.467-24.581-36.892-4.8485-11.138-7.6916-22.773 1.4518-32.955 3.6972-12.092 22.804-15.73 12.724-30.233-4.0368-9.4372-6.5569-17.67-18.155-15.259-12.105-1.5245-24.6-11.585-23.129-24.725-6.3374-7.1206-19.928-15.436-7.4532-24.868 8.1479-9.1545 21.944 3.2482 27.994-7.2245 9.7603-7.9183 25.392-11.046 28.846-24.816 1.5863-13.204 4.0168-29.22-11.923-34.749-15.432-7.5788-8.0292-27.329-22.865-34.162-13.427-6.2769-20.172-27.55-1.1152-31.073 13.57-2.115 19.47-18.143 11.596-28.993-4.4422-10.743-19.328-8.5021-18.556-20.032-7.4-6.4131-16.282-15.754-5.7083-23.49 0.6952-10.819-9.2589-21.848-5.6625-31.531-15.397-13.236-38.337-7.2755-53.86 2.5695-9.1314 4.4895-23.494 13.784-12.401 24.263 2.7003 15.003-13.442 24.367-26.08 26.926-13.676 6.7781-13.199-17.446-1.8144-18.184 12.665-2.063 12.187-17.386 8.4122-26.648-3.6156-8.9181-7.7917-20.128-0.7246-28.532 6.4477-16.491 19.266-30.157 34.78-38.526 8.6271-12.49 0.16-29.767 10.058-41.731 13.586-5.1184 24.237-15.289 31.896-27.388 9.0541-11.914 18.836-22.726 25.987-35.685 8.6227-6.2246 4.7937-17.014-5.8734-13.458-11.051-4.1741 6.2009-17.821 10.316-23.602 13.546-8.475 21.982 14.833 35.625 11.078 15.897-4.5426 24.472-20.887 29.556-35.242-4.796-13.319-10.819-26.661-5.0512-41.21 6.3206-14.994 4.6949-29.005 1.7698-44.282 0.34-17.84 8.5092-34.231 16.596-49.714 1.7292-25.434 2.7339-53.903 21.483-73.447 11.421-13.076 23.81-27.038 25.911-44.991-5.6672-11.976-23.638-7.4372-33.982-13.876-14.88-3.8713-32.119 3.7265-45.157-6.9612-5.337-11.096-17.264-16.673-28.169-8.3632-9.9264 6.8809-22.609 7.7427-33.534 2.7118-2.9101-11.605-21.418-21.159-26.661-5.0266-12.957 7.6539-18.528-13.275-24.224-21.273-6.7857-13.723-15.52-30.839-32.703-32.374-12.212-1.0078-25.24-6.3617-35.956 2.7884-14.91 8.7147-22.098-9.4325-34.601-12.044-13.248-4.253-26.177 9.4394-38.436 3.3786-3.3624-13.625-17.118-19.906-27.065-28.395-14.273-3.5905-24.159-19.193-40.002-18.685-15.066-4.4339-2.5283-25.123-13.864-34.008-3.8305-9.9278 16.146-27.309 0.7436-30.94-16.68 1.1269-15.417 20.002-23.285 29.744-13.241 11.157-31.683 7.5713-47.42 5.9813-17.522-3.3758 2.3036-21.013-5.4474-29.16-12.674-6.5394 11.88-29.589-8.1866-31.242-6.9525-12.025-21.04-11.612-32.614-11.141-8.1612 2.779-24.426 6.7046-20.987-7.6664 0.7025-12.396-11.009-21.447-20.274-20.843-7.6183-6.9558-28.574 8.6422-26.203-9.6766-0.07575-15.441-5.0126-33.511-19.683-41.147-14.476-5.4905-24.159 22.871-37.711 7.6812-6.8115-11.01-23.731-17.215-20.696-31.343-0.49136-11.715-4.2635-22.989-8.721-33.732zm-499.34 330.84 0.76572 0.35985zm3.3711 35.619 0.047 0.0352zm-187.88 32.908c2.0244-1.4608-0.2207 1.9943 0 0zm-148.58 148.93c0.71214 4.6527 0.50104 3.2735 0 0zm174.14 66.129c2.1236 0.4849-0.72819 2.8311 0 0zm-17.018 3.459c-9.8384 6.789 4.2365 10.328 0 0zm5.5547 0.35938c-9.1562 4.5253 6.9008 5.3527 0 0zm49.074 22.572c-1.3352 2.6029-5.3381-1.5438 0 0zm-109.09 12.65c-10.415 10.405 9.7948 24.919 18.697 17.021-2.0551-7.9109-12.257-12.643-18.697-17.021zm168.25 33.469c0.56094 10.188 11.292 4.3426 0 0zm-52.812 42.172c-1.0515 8.9784 11.694 23.019 17.5 18.59-3.0641-7.5199-6.7927-20.965-17.5-18.59zm92.402 148.74c-12.05 11.132 13.183 16.998 21.555 18.863 14.934-3.6521-9.7626-12.923-16.465-12.679-2.7087-0.81882-5.2759-3.1438-5.0902-6.1843zm9.082 38.688c1.2915 17.596 13.592 31.363 24.038 44.555 11.458-17.833-8.3074-38.382-24.038-44.555zm813.61 510.02c1.0244 7.759 7.5546-3.5383 0 0zm226.46 45.754c-9.2441-0.6219-7.0744 15.216-0.8226 4.9417 0.5908-1.5769 0.7881-3.269 0.8226-4.9417zm-35.195 7.7539c-9.9685-0.9796-6.196 14.11 0.4855 5.4154 0.5842-1.7952 0.1342-3.7068-0.4855-5.4154zm21.756 0.8457c-9.2499 0.8579 3.2268 6.5982 0 0zm-448.29 39.428c-8.2032 4.6529 6.7236 15.256 1.2052 3.3303-0.36483-1.1237-0.77739-2.2293-1.2052-3.3303zm-151.32 68.883c11.032 9.4365-10.676 10.268 0 0z"/>
</svg>
