<svg version="1.1" viewBox="0 0 36 24" xmlns="http://www.w3.org/2000/svg" fill="url(#gradient)">
 <rect x="30" width="2.3" height="2.3"/>
 <rect x="3" y="3" width="2.3" height="2.3"/>
 <rect x="15" y="6" width="2.3" height="2.3"/>
 <rect x="18" y="6" width="2.3" height="2.3"/>
 <rect x="21" y="6" width="2.3" height="2.3"/>
 <rect x="21" y="3" width="2.3" height="2.3"/>
 <rect x="24" y="3" width="2.3" height="2.3"/>
 <rect x="27" y="3" width="2.3" height="2.3"/>
 <rect x="27" y="-2.3842e-8" width="2.3" height="2.3"/>
 <rect x="30" y="3" width="2.3" height="2.3"/>
 <rect x="30" y="6" width="2.3" height="2.3"/>
 <rect x="33" y="6" width="2.3" height="2.3"/>
 <rect y="6" width="2.3" height="2.3"/>
 <rect x="3" y="6" width="2.3" height="2.3"/>
 <rect x="6" y="6" width="2.3" height="2.3"/>
 <rect x="9" y="6" width="2.3" height="2.3"/>
 <rect x="12" y="6" width="2.3" height="2.3"/>
 <rect x="24" y="6" width="2.3" height="2.3"/>
 <rect x="27" y="6" width="2.3" height="2.3"/>
 <rect x="33" y="3" width="2.3" height="2.3"/>
 <rect x="3" y="9" width="2.3" height="2.3"/>
 <rect x="6" y="9" width="2.3" height="2.3"/>
 <rect x="9" y="9" width="2.3" height="2.3"/>
 <rect x="3" y="12" width="2.3" height="2.3"/>
 <rect x="6" y="12" width="2.3" height="2.3"/>
 <rect x="9" y="12" width="2.3" height="2.3"/>
 <rect x="3" y="15" width="2.3" height="2.3"/>
 <rect y="15" width="2.3" height="2.3"/>
 <rect x="6" y="15" width="2.3" height="2.3"/>
 <rect x="9" y="15" width="2.3" height="2.3"/>
 <rect x="12" y="9" width="2.3" height="2.3"/>
 <rect x="15" y="9" width="2.3" height="2.3"/>
 <rect x="18" y="9" width="2.3" height="2.3"/>
 <rect x="21" y="9" width="2.3" height="2.3"/>
 <rect x="24" y="9" width="2.3" height="2.3"/>
 <rect x="27" y="9" width="2.3" height="2.3"/>
 <rect x="30" y="9" width="2.3" height="2.3"/>
 <rect x="30" y="12" width="2.3" height="2.3"/>
 <rect x="30" y="15" width="2.3" height="2.3"/>
 <rect x="12" y="12" width="2.3" height="2.3"/>
 <rect x="15" y="12" width="2.3" height="2.3"/>
 <rect x="12" y="15" width="2.3" height="2.3"/>
 <rect x="15" y="15" width="2.3" height="2.3"/>
 <rect x="18" y="12" width="2.3" height="2.3"/>
 <rect x="21" y="12" width="2.3" height="2.3"/>
 <rect x="24" y="12" width="2.3" height="2.3"/>
 <rect x="27" y="12" width="2.3" height="2.3"/>
 <rect x="18" y="15" width="2.3" height="2.3"/>
 <rect x="21" y="15" width="2.3" height="2.3"/>
 <rect x="24" y="15" width="2.3" height="2.3"/>
 <rect x="27" y="15" width="2.3" height="2.3"/>
 <rect x="27" y="18" width="2.3" height="2.3"/>
 <rect x="18" y="18" width="2.3" height="2.3"/>
 <rect x="15" y="18" width="2.3" height="2.3"/>
 <rect x="12" y="18" width="2.3" height="2.3"/>
 <rect x="9" y="18" width="2.3" height="2.3"/>
 <rect x="6" y="18" width="2.3" height="2.3"/>
 <rect x="21" y="18" width="2.3" height="2.3"/>
 <rect x="24" y="18" width="2.3" height="2.3"/>
 <rect x="15" y="21" width="2.3" height="2.3"/>
 <rect x="12" y="21" width="2.3" height="2.3"/>
 <rect x="9" y="21" width="2.3" height="2.3"/>
<defs>
<linearGradient id="gradient" x1="0" y1="0" x2="0" y2="24" gradientUnits="userSpaceOnUse"> 
<stop offset="0%" style="stop-color:rgb(235,218,0);stop-opacity:1"></stop>
<stop offset="33%" style="stop-color:rgb(255,42,0);stop-opacity:1"></stop>
<stop offset="67%" style="stop-color:rgb(255,5,251);stop-opacity:1"></stop>
<stop offset="100%" style="stop-color:rgb(34,3,128);stop-opacity:1"></stop>
</linearGradient>
</defs>
</svg>
