<svg width="1e3" height="606.29" fill="#eeeeee" stroke-linecap="round" stroke-linejoin="round" version="1.1" viewBox="23 190 1e3 606.29" xml:space="preserve" xmlns="http://www.w3.org/2000/svg">
<path d="m803.49 190c-4.4018 1.1033-6.7797 6.6041-12.018 4.2677-6.5157 0.21289-7.7353 10.866-14.345 6.3633-5.9265-1.5857-10.452 2.7988-15.506 4.8153-2.5302 2.154-3.5397 5.969-6.1232 1.6314-4.6648-4.4657-11.374-4.6097-17.27-3.1208-6.4423 0.80715-6.7841-10.734-14.065-5.8756-4.4929 0.0689-6.778-6.967-12.434-4.2621-8.4717 1.8918-17.198 2.9055-25.249 6.3955-5.5513 3.8058-12.24 1.873-18.052 4.7117-4.8081 3.7952-0.2001 10.93-5.8909 14.849-6.489 6.0443-8.4745 14.278-10.616 22.477-2.5825 6.8757-6.4139 13.762-11.796 18.646-4.2728-1.3567-9.4683-3.9295-12.557 1.5634-3.7748 5.0706-12.446-2.0903-13.902 6.8091-1.2568 4.6323-6.479 9.239-10.832 11.95-6.0465-1.5543-10.658 4.163-14.87 7.4273-2.8688-4.422-8.041-7.1823-13.557-5.3732-5.0677 0.85907-2.637-7.1294-8.0454-7.8217-5.5208-3.8731-12.636 2.6361-15.562-5.2221-5.434-7.2317-13.551 0.34685-18.33 4.3535-8.449 1.7709-7.4779 11.779-10.289 18.238-0.094 4.5797-2.8515 6.3715-6.5818 5.9752-7.7069 4.1643-17.733-1.7818-24.788 4.4195-5.7614 5.6574-13.85 0.98697-20.76 1.376-6.4468 0.30238-12.322 1.7148-18.841 0.9306-4.8509 4.0259-11.973 1.0032-17.438 4.1209-6.8464-1.0638-12.911 4.9162-10.632 11.696-3.2151 2.5464-11.15 2.804-7.5929 9.2334 0.7303 6.7304-2.8555 13.951 0.8643 20.293 0.8938 3.1778 9.6601 4.7534 7.4762 6.2508-7.6696-1.5485-12.46 5.2526-16.823 10.167-6.5041 6.407-14.833-0.0572-22.151 2.4012-6.7797 2.4956-13.493-3.0383-19.666 2.5472-6.8508 2.8142-14.337 3.9779-21.701 2.3753-5.7019-0.1423-11.497 0.0334-16.952-1.9978-5.6079-1.9391-11.607-2.3959-17.405-1.0605-5.0107-0.16842-8.595-2.3144-13.126 1.2427-6.9492 1.2303-14.009 1.9707-20.991 0.88881-6.9786-1.9469-13.939-4.6748-17.97-11.112-2.9856-4.6555-8.7955-5.7625-13.05-6.2323-1.9485-6.176-7.1272-9.6501-13.04-10.389-6.0024-5.2621-7.9222-13.799-14.703-18.447-3.5791-6.582-10.723-6.1087-16.378-8.6198-4.6351-4.5221-12.227-3.5068-17.488-0.61589-3.9713 3.363-11.82 6.0172-12.28 11.488 4.2352 1.1888 0.7137 7.1929 2.4675 11.065-0.044 7.4999-17.658 2.8646-12.376 12.501 4.1712 3.0764 7.6838 7.5643 4.2789 12.604-0.5386 5.3934 7.4687 15.459-2.2726 15.565-6.2598 1.4075-14.401 4.7154-19.824 0.31295-4.8628-10.439-11.937 8.8846-18.322 1.7718-0.8572-7.3675-7.9226-11.321-14.366-12.004-5.2378-4.357-14.52-4.2277-19.352 0.43801-0.513 5.5056-3.4185 8.8846-8.9716 9.3661-4.8713 0.39854-6.902 5.6486-11.193 5.0987 0.61288 7.3239 9.1399 10.002 15.285 11.357 6.8929 1.3356 12.389 7.9598 19.667 4.2424 4.5137 2.3205 0.359 10.594 5.6258 13.579 6.2732 4.6743-4.485 4.393-5.8856 7.4803 1.1284 4.7773 2.1609 11.264-4.0042 12.662-4.628 5.5617-11.903 4.5899-17.94 5.3846-5.8278-2.1246-10.473 2.0982-9.0242 8.0256-2.3971 5.1607-1.5504 9.5459 3.1898 12.911 4.315 5.1037 0.8058 10.81-4.9871 11.991-0.98075 4.2124-0.47248 8.7787-3.0044 12.949 0.96635 4.3879 7.7331 4.9028 5.1826 10.779 0.33403 4.2778 11.59 3.2924 3.6381 6.5125-6.8044 3.2193 3.5667 11.725-3.0195 12.492-5.8551 2.1832-2.3907 8.6876-0.97699 8.9195-5.998-0.31016-11.74-1.6839-17.811-1.688-3.6548-2.4098-7.6762-4.1305-9.0607 1.798-0.18399 6.5132-6.0824 8.0562-9.8447 11.949-5.2596 1.9364-7.1082 10.392-12.795 13.311-5.6092 7.1415 6.2979 12.755 11.694 7.761 6.5543-3.9316 14.13-1.8294 18.57 3.6274 1.0809 5.5437-9.8155 6.6216-4.0629 12.41-1.7094 5.6235 5.6188 7.267 6.0477 12.626 3.0948 3.123 2.7698 8.4261 7.8502 6.2983 5.9528 2.4405-4.9103 2.8747-2.9998 7.498-0.19565 8.4048 10.169 8.7156 12.387 15.348 1.382 4.919 7.1854 4.3076 6.1901 10.003 1.2308 5.7168 5.304 11.206 11.212 12.555 5.5625 2.9313 11.065 5.5284 13.918 11.329 4.2118 4.6646 9.192 10.352 16.131 9.7639 4.95 1.8041 12.145 5.0422 10.944 11.462 0.2946 7.4841 7.1461 11.968 11.512 17.221 4.9364 5.0063 12.422 5.6306 18.215 10.349 5.3061 4.4634 16.399 5.1412 16.323 13.862-3.2077 5.1739 1.8973 5.9849 5.6889 6.1601 2.6062 2.6565-0.039 10.309 6.0478 9.4528-0.8755 3.0671-1.182 5.9875 0.8146 7.3487 0.062 4.4883 6.4456 4.896 7.7513 8.6627 2.3339-0.20566 7.9459-2.0232 4.1943 2.0001-2.9722 6.841 6.5951 6.5629 9.6433 9.3338 5.8894 1.7076 8.5279-7.0852 13.975-2.5838 7.583 0.50694 17.516 1.3115 19.726 10.284 1.5042 8.0885 9.1282 11.721 16.357 13.436 7.0704 2.589 13.908 4.7805 18.784 11.04 5.2006 4.0711 9.3337-6.1407 15.247-2.572 7.236-1.3746 13.953 2.904 20.373 5.3773 5.4351-0.0934 8.3044-6.8348 13.896-3.4674 6.8759-3.3714 9.3655 6.186 15.998 4.6956 5.6813-0.70221 11.266 5.9625 15.487-1.2224 2.6559 5.3908 12.932 7.9785 13.974 0.25959 4.9182 0.67108 4.8549-2.4316 5.1005-5.9709 5.1083 1.0986 9.8136-0.4897 13.354-4.4793 4.1583-4.1559 6.389-9.8232 10.609-13.924-0.189-6.7938 6.2055-10.131 11.084-4.9283 4.5675 2.6405 13.444 9.8698 14.943 0.34296 2.6653-1.9051 8.0849-3.1543 11.098-6.6044 5.5846-1.541 15.436 4.7029 17.861-4.249-0.9945-5.501 12.143 0.18566 10.473-7.5494-4.9771-4.4733 4.2434-15.513 5.3495-5.7206 4.2139 7.552 14.152 1.8065 20.951 3.6281 3.4919-0.16176 11.268 1.6593 12.034 0.35574-4.9783-2.8328-7.1855-10.144 0.2556-11.225 6.8442 4.8869 14.036-1.4505 17.932-7.5251 2.1295-5.8151 11.323-6.2086 10.864-13.329 0.6242-3.7642 8.0437-8.0046 12.717-6.3814 5.3495-1.424 12.534-4.0438 15.886 2.1392 5.0461 4.7802 13.102 8.235 19.124 3.1406 5.8136-2.1241 10.563-6.0767 16.589-7.4832 6.9998-2.0175 8.3128 10.748 16.079 5.9065 3.2529-6.246 6.4173 0.68103 10.561 1.0376 5.0799-3.993 9.5012 0.0167 12.793 3.8156 7.6291 2.6734 11.606-7.0405 18.294-8.5438 5.9693 1.6141 14.644 6.7172 20.232 1.0958 2.0572-4.4409 7.0387-7.7025 10.782-3.0683 5.0188 2.3557 11.243 11.55 16.556 4.9085 7.718-1.1053 11.23-8.1764 13.825-14.318 7.0798-3.3818-2.7426-12.402 5.8486-13.727 4.8565-2.1524 11.416-3.5318 15.359 1.8225 5.8581-2.0985 11.001 0.52084 17.153-0.13562 4.6987 3.6266 11.482 3.7101 15.138-1.7892 1.4619-3.7894 2.3891-8.1448 7.8103-7.2291 6.7336-1.7593 3.9487-11.203 6.5046-16.413-1.2629-6.1008 4.0916-8.89 9.3499-6.1363 3.8154 1.5877 5.2606 0.55196 4.339-3.3086 2.4452-5.2997 7.0254-10.208 0.8966-14.906-7.3178-1.9828-5.618-11.998 0-16.073 3.8543-3.1033 1.2073-8.561 1.4913-11.414 5.2512-3.0743 14.013 1.3326 16.373-6.1383 5.096-1.3576 1.6603-10.497 7.3344-8.0514 4.2628-2.5068 8.1655-8.3406 7.096-13.446-1.8182-3.72-7.4545-5.3906-2.8243-9.8638 0.6437-4.7168-0.4558-11.02 6.115-12.327 6.5323-1.7856 10.362-10.87 5.4167-16.093 8.0199 0.0111 11.392-8.4392 11.282-15.2 2.4563-3.5897-2.7165-8.3915-1.8466-9.2934 5.6825-3.9513 6.3501-13.499 14.951-13.249 6.5757-3.8045 1.9365-13.672 9.1359-16.89 7.6391-4.2882-2.4518-11.468 3.369-16.493 3.179-6.1736 2.6687-13.808 7.2267-19.743 1.737-7.5619 11.81-2.0486 14.056-8.6065 3.8993-7.7835-1.438-15.52-3.2217-22.89 0.3946-5.4853 9.9002-5.4184 8.0059-11.787 6.1016-0.1045 7.4262-8.6055 14.065-8.2096 5.1894-4.3377 4.3451-12.007 7.4351-17.623 2.9916-3.8911 5.7052-7.0054 7.7235-11.432 3.921-0.83617 6.2161-6.4864 10.404-2.864 8.5095 1.8686 12.887-6.0638 14.613-12.609 7.2711-0.91365 11.799 9.7678 20.022 5.6682 7.4379-1.3168 14.869-5.34 16.392-13.298 2.8449-3.8737 12.141-1.1202 9.3444-9.0692-3.2512-7.8395 9.071-6.2633 11.714-11.931 5.6581-5.4976 3.1323-14.975-1.891-17.477 1.9989-4.1662 5.8582-11.949 3.9866-14.84-6.7086 0.73044-6.8814-8.4313-11.326-11.828-6.8731-1.9071-15.071-0.92116-20.855 3.4299-5.2189 4.7718-13.727-0.36464-10.751-7.1012-0.1445-4.0584-5.3112-3.4126-5.3234-8.1381-3.0172-5.7634-8.3661-9.1504-12.96-13.334-5.7147-1.7595-11.506 1.6286-17.39 0.22735-3.2895-4.2578-4.9871-10.301-7.0476-15.494 2.0611-8.2073-14.184-4.4878-8.7258-12.62-1.0717-5.5006-10.685-7.5337-15.393-5.758-5.0254 4.7325-10.348 12.078-18.316 8.23-6.7514-1.7222-12.566 2.8316-19.405 3.4275-5.0899 3.2494-10.988 1.6433-14.67 7.4248-6.6552 2.3499-12.3-2.3812-15.304-8.2792-5.8009-3.3437-7.534-11.607-11.08-17.42 2.0128-7.8497-7.5023-9.1291-12.638-8.8934-3.4874-3.7967-4.5569-10.978-10.951-10.346-1.7843-1.4508-3.8087-2.9897-6.22-2.9779z" fill="#000"/></svg>
