<svg version="1.1" viewBox="0 0 36 24" xmlns="http://www.w3.org/2000/svg">
 <rect x="30" width="2.7" height="2.7"/>
 <rect x="3" y="3" width="2.7" height="2.7"/>
 <rect x="15" y="6" width="2.7" height="2.7"/>
 <rect x="18" y="6" width="2.7" height="2.7"/>
 <rect x="21" y="6" width="2.7" height="2.7"/>
 <rect x="21" y="3" width="2.7" height="2.7"/>
 <rect x="24" y="3" width="2.7" height="2.7"/>
 <rect x="27" y="3" width="2.7" height="2.7"/>
 <rect x="27" y="-2.3842e-8" width="2.7" height="2.7"/>
 <rect x="30" y="3" width="2.7" height="2.7"/>
 <rect x="30" y="6" width="2.7" height="2.7"/>
 <rect x="33" y="6" width="2.7" height="2.7"/>
 <rect y="6" width="2.7" height="2.7"/>
 <rect x="3" y="6" width="2.7" height="2.7"/>
 <rect x="6" y="6" width="2.7" height="2.7"/>
 <rect x="9" y="6" width="2.7" height="2.7"/>
 <rect x="12" y="6" width="2.7" height="2.7"/>
 <rect x="24" y="6" width="2.7" height="2.7"/>
 <rect x="27" y="6" width="2.7" height="2.7"/>
 <rect x="33" y="3" width="2.7" height="2.7"/>
 <rect x="3" y="9" width="2.7" height="2.7"/>
 <rect x="6" y="9" width="2.7" height="2.7"/>
 <rect x="9" y="9" width="2.7" height="2.7"/>
 <rect x="3" y="12" width="2.7" height="2.7"/>
 <rect x="6" y="12" width="2.7" height="2.7"/>
 <rect x="9" y="12" width="2.7" height="2.7"/>
 <rect x="3" y="15" width="2.7" height="2.7"/>
 <rect y="15" width="2.7" height="2.7"/>
 <rect x="6" y="15" width="2.7" height="2.7"/>
 <rect x="9" y="15" width="2.7" height="2.7"/>
 <rect x="12" y="9" width="2.7" height="2.7"/>
 <rect x="15" y="9" width="2.7" height="2.7"/>
 <rect x="18" y="9" width="2.7" height="2.7"/>
 <rect x="21" y="9" width="2.7" height="2.7"/>
 <rect x="24" y="9" width="2.7" height="2.7"/>
 <rect x="27" y="9" width="2.7" height="2.7"/>
 <rect x="30" y="9" width="2.7" height="2.7"/>
 <rect x="30" y="12" width="2.7" height="2.7"/>
 <rect x="30" y="15" width="2.7" height="2.7"/>
 <rect x="12" y="12" width="2.7" height="2.7"/>
 <rect x="15" y="12" width="2.7" height="2.7"/>
 <rect x="12" y="15" width="2.7" height="2.7"/>
 <rect x="15" y="15" width="2.7" height="2.7"/>
 <rect x="18" y="12" width="2.7" height="2.7"/>
 <rect x="21" y="12" width="2.7" height="2.7"/>
 <rect x="24" y="12" width="2.7" height="2.7"/>
 <rect x="27" y="12" width="2.7" height="2.7"/>
 <rect x="18" y="15" width="2.7" height="2.7"/>
 <rect x="21" y="15" width="2.7" height="2.7"/>
 <rect x="24" y="15" width="2.7" height="2.7"/>
 <rect x="27" y="15" width="2.7" height="2.7"/>
 <rect x="27" y="18" width="2.7" height="2.7"/>
 <rect x="18" y="18" width="2.7" height="2.7"/>
 <rect x="15" y="18" width="2.7" height="2.7"/>
 <rect x="12" y="18" width="2.7" height="2.7"/>
 <rect x="9" y="18" width="2.7" height="2.7"/>
 <rect x="6" y="18" width="2.7" height="2.7"/>
 <rect x="21" y="18" width="2.7" height="2.7"/>
 <rect x="24" y="18" width="2.7" height="2.7"/>
 <rect x="15" y="21" width="2.7" height="2.7"/>
 <rect x="12" y="21" width="2.7" height="2.7"/>
 <rect x="9" y="21" width="2.7" height="2.7"/>
</svg>
