<svg viewBox="0 0 351.26 360.69" xmlns="http://www.w3.org/2000/svg">
 <g transform="translate(21.251 8.4191)" stroke-linecap="round" stroke-linejoin="round">
  <g transform="matrix(1.2141 0 0 1.1079 -15.303 -17.549)" fill="none" stroke-width="22.568">
   <path d="m136.03 305.83h-129.64" stroke="#fdbb30"/>
   <path d="m265.67 162.68v143.15h-129.64" stroke="#6ab023"/>
   <path d="m136.03 19.525h129.64v143.15" stroke="#0087dc"/>
   <path d="m6.3847 162.68v-143.15h129.64" stroke="#dc241f"/>
   <path d="m6.3847 305.83v-143.15" stroke="#fdbb30"/>
  </g>
  <path d="m309.85 352.27q11.569-10.015 16.909-24.519 5.6363-14.85 1.4832-29.354-0.5933-10.706-4.4497-20.375-4.1531-10.015-9.7893-18.994-5.933-8.9788-12.756-16.922-6.8229-7.9428-12.756-14.85-1.1866-4.1441-4.1531-7.2522-2.9665-3.1081-6.2296-5.8708-3.5598-3.1081-6.8229-6.5615-3.5598-3.4534-5.6363-7.9428 1.1866-4.8348 3.8564-9.6696 2.6698-4.8348 5.9329-9.6695 3.2631-4.8348 6.8229-9.6695 3.5598-4.8348 6.5262-10.015 0.29665-1.7267 2.3732-1.036 1.7799 0.69069 2.6698-0.34535-0.5933-5.5254 2.0765-11.742 2.3732-6.5615 6.5262-11.051-1.4832-4.1441-2.6698-10.706-1.4832-6.5615 0.5933-14.159 0.29664-3.4534-0.5933-6.5615-1.1866-3.1081-2.3732-5.8708-1.1866-2.7627-1.7799-5.1801-0.59331-2.7627 0.29665-5.5255-4.4497-0.69068-8.0095 0.69068-3.8564 1.036-6.8229 2.7627-3.2631 1.3814-5.9329 2.4174-2.9665 1.036-5.6363-0.34533 0.59328 2.072 0.29664 3.1081-0.5933 0.69068-1.1866 1.3814-0.88993 0.34535-1.4832 0.69069-0.88995 0.34533-0.88995 1.7267-5.6363 2.072-12.163 8.9789-6.8229 6.9068-13.052 15.195-6.2296 8.2882-11.273 16.576-5.043 7.9428-7.4162 12.432-8.6028-6.2161-18.392-14.85-10.086-8.6335-20.469-17.612-10.679-8.9789-21.359-16.922-10.976-8.2882-21.359-13.123-5.9329 3.1081-9.196 7.9428-3.5598 4.8348-5.6363 10.36-2.3732 5.1801-4.1531 10.706-2.0765 5.1801-5.3396 9.3242 2.9665 6.9068 6.2296 11.742 3.2631 4.4894 4.7464 11.051 7.4162 3.4534 17.799 11.051 8.8994 6.5615 22.545 17.958 13.646 11.396 32.335 30.045-4.4497 5.8708-7.1195 11.051-2.9665 5.1801-4.7464 8.9789-2.0765 4.4894-3.2631 8.2882-3.2631 2.7627-5.3397 6.5615-2.0765 3.7987-3.8564 7.9428-2.0765 3.7987-4.4497 7.2521-2.3732 3.4534-6.2296 5.5255-1.1866 6.2161-2.9665 11.742-1.7799 5.1801-3.2631 10.36-1.7799 5.1801-2.6698 10.36-1.1866 4.8348-0.88995 10.015 2.3732 9.3242 7.1195 15.54 4.7464 6.2161 6.8229 12.778 3.2631 1.036 6.5262 2.4174 2.9665 1.036 5.043 3.4534l20.172-16.576q5.3396-20.72 15.426-39.714 10.086-18.994 19.579-32.807 14.239 12.778 27.292 28.318 13.052 15.54 23.732 33.153 0.59329 8.6335 1.7799 14.504 1.1866 5.5255 3.8564 9.3242 2.6698 3.7988 6.8229 6.5615 4.153 2.7627 10.383 5.5254z" stroke-width=".22656" />
  <g stroke-width="10">
   <path d="m44.653 90.066q-7.1402 0-11.331-2.5612-4.1134-2.6388-5.8208-7.2954-1.7074-4.7343-1.7074-11.098v-22.662q0-6.5193 1.7074-11.176 1.7074-4.7343 5.8208-7.2954 4.191-2.5612 11.331-2.5612 6.985 0 10.866 2.3283 3.9582 2.2507 5.588 6.3641 1.6298 4.1134 1.6298 9.4686v5.4328h-13.582v-6.2865q0-1.8627-0.23283-3.5701-0.15522-1.7074-1.0866-2.794-0.93133-1.1642-3.1821-1.1642-2.1731 0-3.2597 1.1642-1.0089 1.1642-1.3194 2.9492-0.23283 1.7074-0.23283 3.6477v29.57q0 2.0955 0.31044 3.8806 0.38806 1.7074 1.397 2.794 1.0866 1.0089 3.1044 1.0089 2.1731 0 3.1044-1.0866 0.93133-1.1642 1.1642-2.9492 0.23283-1.7851 0.23283-3.6477v-6.5969h13.582v5.4328q0 5.3552-1.6298 9.6238-1.5522 4.191-5.5104 6.6746-3.8806 2.4059-10.943 2.4059zm25.689-0.93133v-62.865h17.307q6.3641 0 11.021 1.397 4.6567 1.397 7.2178 5.0447 2.6388 3.5701 2.6388 10.167 0 3.8806-0.62089 6.9074t-2.3283 5.2776q-1.6298 2.1731-4.7343 3.6477l8.6148 30.424h-14.358l-6.9074-28.173h-3.9582v28.173zm13.892-36.167h3.8806q2.9492 0 4.5791-1.0089 1.6298-1.0866 2.2507-3.0268 0.6985-2.0179 0.6985-4.8119 0-4.0358-1.4746-6.2865-1.4746-2.2507-5.4328-2.2507h-4.5014zm50.059 37.098q-7.0626 0-11.176-2.4836t-5.8984-7.1402q-1.7851-4.6567-1.7851-11.098v-23.361q0-6.5193 1.7851-11.098 1.785-4.5791 5.8984-6.985 4.1134-2.4836 11.176-2.4836 7.1402 0 11.254 2.4836 4.191 2.4059 5.976 6.985 1.7851 4.5791 1.7851 11.098v23.361q0 6.4417-1.7851 11.098-1.785 4.6567-5.976 7.1402-4.1134 2.4836-11.254 2.4836zm0-9.8566q2.1731 0 3.182-1.0866 1.009-1.0866 1.3194-2.794 0.31045-1.7074 0.31045-3.4925v-30.268q0-1.8627-0.31045-3.4925-0.31044-1.7074-1.3194-2.794-1.0089-1.0866-3.182-1.0866-2.0179 0-3.0268 1.0866-1.009 1.0866-1.3194 2.794-0.31045 1.6298-0.31045 3.4925v30.268q0 1.7851 0.23284 3.4925 0.31044 1.7074 1.2418 2.794 1.009 1.0866 3.1821 1.0866zm44.161 9.8566q-5.8984 0-9.8566-2.0955-3.9582-2.0955-5.976-6.4417-2.0179-4.4238-2.2507-11.409l11.874-1.7851q0.0776 4.0358 0.6985 6.5193 0.6985 2.4836 1.8627 3.5701 1.2418 1.0866 2.9492 1.0866 2.1731 0 2.794-1.4746 0.6985-1.4746 0.6985-3.1044 0-3.8806-1.8627-6.5193-1.8627-2.7164-5.0447-5.4328l-5.4328-4.7343q-3.5701-3.0268-6.0537-6.8298-2.4059-3.8806-2.4059-9.5462 0-7.9939 4.7343-12.185 4.7343-4.2686 12.883-4.2686 5.0447 0 8.0716 1.7074 3.1044 1.7074 4.6567 4.5014 1.6298 2.7164 2.1731 5.8208 0.62089 3.0268 0.6985 5.8208l-11.952 1.4746q-0.0776-2.794-0.38806-4.8119-0.23283-2.0955-1.0866-3.1821-0.85372-1.1642-2.6388-1.1642-1.9403 0-2.8716 1.6298-0.85372 1.6298-0.85372 3.2597 0 3.4925 1.6298 5.7432 1.7074 2.1731 4.4238 4.5791l5.2 4.5791q4.1134 3.4925 6.9074 7.9163 2.8716 4.4238 2.8716 10.943 0 4.4238-2.0179 8.0716-2.0179 3.5701-5.7432 5.6656-3.6477 2.0955-8.6924 2.0955zm38.573 0q-5.8984 0-9.8566-2.0955-3.9582-2.0955-5.976-6.4417-2.0179-4.4238-2.2507-11.409l11.874-1.7851q0.0776 4.0358 0.6985 6.5193 0.6985 2.4836 1.8627 3.5701 1.2418 1.0866 2.9492 1.0866 2.1731 0 2.794-1.4746 0.6985-1.4746 0.6985-3.1044 0-3.8806-1.8627-6.5193-1.8627-2.7164-5.0447-5.4328l-5.4328-4.7343q-3.5701-3.0268-6.0537-6.8298-2.4059-3.8806-2.4059-9.5462 0-7.9939 4.7343-12.185 4.7343-4.2686 12.883-4.2686 5.0447 0 8.0716 1.7074 3.1044 1.7074 4.6567 4.5014 1.6298 2.7164 2.1731 5.8208 0.62088 3.0268 0.6985 5.8208l-11.952 1.4746q-0.0776-2.794-0.38806-4.8119-0.23283-2.0955-1.0866-3.1821-0.85373-1.1642-2.6388-1.1642-1.9403 0-2.8716 1.6298-0.85372 1.6298-0.85372 3.2597 0 3.4925 1.6298 5.7432 1.7074 2.1731 4.4238 4.5791l5.1999 4.5791q4.1134 3.4925 6.9074 7.9163 2.8716 4.4238 2.8716 10.943 0 4.4238-2.0179 8.0716-2.0179 3.5701-5.7432 5.6656-3.6477 2.0955-8.6924 2.0955z" aria-label="CROSS
"/>
   <path d="m27.381 148.81v-51.435h11.366v51.435zm19.05 0v-51.435h8.001l10.541 24.765v-24.765h9.398v51.435h-7.6835l-10.541-26.67v26.67z" aria-label="IN"/>
   <path d="m31.953 206.64v-42.99h-7.747v-8.4455h26.86v8.4455h-7.6835v42.99zm23.812 0v-51.435h11.366v20.828h8.001v-20.828h11.366v51.435h-11.366v-22.479h-8.001v22.479zm38.545 0v-51.435h23.114v7.747h-11.748v12.764h8.9535v7.874h-8.9535v15.367h11.874v7.6835z" aria-label="THE"/>
   <path d="m27.381 299.68v-85.725h22.331q5.5033 0 10.372 0.84667 4.9742 0.84666 8.7841 3.2808 3.81 2.3283 5.9266 6.7733 2.2225 4.3392 2.2225 11.536 0 5.1858-1.5875 8.7841-1.4817 3.4925-4.3392 5.6092-2.7517 2.1167-6.6675 2.8575 4.9742 0.635 8.3608 3.2808 3.3867 2.54 5.08 6.8792 1.7992 4.3392 1.7992 10.477 0 6.6675-1.7992 11.536-1.6933 4.7625-4.9742 7.8316-3.2808 3.0692-8.1491 4.5508-4.7625 1.4817-11.007 1.4817zm18.944-13.229h4.0217q6.2441 0 8.5725-3.175 2.4342-3.175 2.4342-9.3133 0-4.8683-1.0583-7.7258-1.0583-2.8575-3.4925-4.1275-2.4342-1.3758-6.5616-1.3758h-3.9158zm0-38.206h3.7042q4.3392 0 6.5616-1.27 2.2225-1.3758 2.9633-3.9158 0.84666-2.54 0.84666-6.1383 0-3.3866-1.27-5.6091-1.1642-2.3283-3.5983-3.4925-2.3283-1.1642-5.9266-1.1642h-3.2808zm67.839 52.705q-9.6308 0-15.24-3.3867-5.6091-3.3866-8.0433-9.7366t-2.4342-15.134v-31.856q0-8.89 2.4342-15.134 2.4342-6.2442 8.0433-9.525 5.6092-3.3867 15.24-3.3867 9.7366 0 15.346 3.3867 5.715 3.2808 8.1491 9.525 2.4342 6.2441 2.4342 15.134v31.856q0 8.7841-2.4342 15.134-2.4342 6.35-8.1491 9.7366-5.6092 3.3867-15.346 3.3867zm0-13.441q2.9633 0 4.3392-1.4817 1.3758-1.4817 1.7992-3.81 0.42333-2.3283 0.42333-4.7625v-41.275q0-2.54-0.42333-4.7625-0.42333-2.3283-1.7992-3.81t-4.3392-1.4817q-2.7517 0-4.1275 1.4817t-1.7992 3.81q-0.42333 2.2225-0.42333 4.7625v41.275q0 2.4342 0.3175 4.7625 0.42333 2.3283 1.6933 3.81 1.3758 1.4817 4.3392 1.4817z" aria-label="BOX"/>
  </g>
 </g>
</svg>