<svg version="1.1" viewBox="0 0 106.04 39.081" xml:space="preserve" xmlns="http://www.w3.org/2000/svg"><g transform="translate(-54.864 -88.635)"><path d="m54.867 124.5h106.04z" color="#000000" fill="#fff" stroke="#ececee"/><path d="m55.241 97.101h105.29c0.2071 0 0.37383 0.16673 0.37383 0.37383v26.389c0 0.2071-0.16673 0.37383-0.37383 0.37383h-105.29c-0.2071 0-0.37383-0.16673-0.37383-0.37383v-26.389c0-0.2071 0.16673-0.37383 0.37383-0.37383z" fill="#fff" stroke-width=".18471"/><path d="m55.039 88.635h105.7c0.0952 0 0.17183 0.07664 0.17183 0.17184l-1.3e-4 12.302h-106.04c-6e-3 -3.9941 1e-6 -8.2344 1e-6 -12.302 0-0.0952 0.07664-0.17184 0.17183-0.17184z" fill="#fbfbfc" stroke-width=".12523"/><path d="m54.867 101.21h106.04z" color="#000000" fill="#fff" stroke="#f0f0f0" stroke-width=".33"/><g fill="#eee"><rect x="58.658" y="92.085" width="79.036" height="5.3613" ry=".42207"/><rect x="58.658" y="106.71" width="79.036" height="5.3613" ry=".42207"/><rect x="58.658" y="113.7" width="49.601" height="5.3613" ry=".42207"/></g></g></svg>
