<svg width="71" height="95" fill="#000" stroke="#000" stroke-width="0" version="1.1" viewbox="0 0 48 56" xmlns="http://www.w3.org/2000/svg">
 <rect x="40" y="16" width="7" height="7"/>
 <rect x="40" y="8" width="7" height="7"/>
 <rect x="32" y="8" width="7" height="7"/>
 <rect x="32" width="7" height="7"/>
 <rect x="40" y="24" width="7" height="7"/>
 <rect x="48" y="24" width="7" height="7"/>
 <rect x="56" y="24" width="7" height="7"/>
 <rect x="56" y="16" width="7" height="7"/>
 <rect x="48" y="32" width="7" height="7"/>
 <rect x="56" y="32" width="7" height="7"/>
 <rect x="64" y="40" width="7" height="7"/>
 <rect x="48" y="40" width="7" height="7"/>
 <rect x="56" y="40" width="7" height="7"/>
 <rect x="48" y="48" width="7" height="7"/>
 <rect x="40" y="48" width="7" height="7"/>
 <rect x="56" y="48" width="7" height="7"/>
 <rect x="16" y="72" width="7" height="7"/>
 <rect x="24" y="72" width="7" height="7"/>
 <rect x="48" y="56" width="7" height="7"/>
 <rect x="56" y="56" width="7" height="7"/>
 <rect x="8" y="80" width="7" height="7"/>
 <rect x="8" y="88" width="7" height="7"/>
 <rect y="88" width="7" height="7"/>
 <rect x="16" y="80" width="7" height="7"/>
 <rect x="48" y="64" width="7" height="7"/>
 <rect x="40" y="64" width="7" height="7"/>
</svg>
