<svg xmlns="http://www.w3.org/2000/svg" xmlns:xlink="http://www.w3.org/1999/xlink" viewBox="0 0 100 100"><g><g><path d="M0,0L100,0L100,100L0,100Z" fill="rgb(1,33,105)"/></g></g><g transform="rotate(0,57.5,63.85999870300293)"><g><path d="M57.5,64.53L57.50,57.51L59.08,62.36L64.18,62.36L60.05,65.36L61.63,70.21L57.50,67.21L53.37,70.21L54.95,65.36L50.82,62.36L55.92,62.36L57.50,57.51L59.08,62.36" fill="rgb(255,255,255)"/></g></g><g transform="rotate(0,90,60.16499900817871)"><g><path d="M90,60.76L90.00,54.52L91.40,58.83L95.93,58.83L92.27,61.50L93.67,65.81L90.00,63.14L86.33,65.81L87.73,61.50L84.07,58.83L88.60,58.83L90.00,54.52L91.40,58.83" fill="rgb(255,255,255)"/></g></g><g transform="rotate(0,75,86.75500106811523)"><g><path d="M75,87.5L75.00,79.71L76.75,85.09L82.41,85.09L77.83,88.42L79.58,93.80L75.00,90.48L70.42,93.80L72.17,88.42L67.59,85.09L73.25,85.09L75.00,79.71L76.75,85.09" fill="rgb(255,255,255)"/></g></g><g transform="rotate(0,75,49.329999923706055)"><g><path d="M75,50L75.00,42.98L76.58,47.83L81.68,47.83L77.55,50.83L79.13,55.68L75.00,52.68L70.87,55.68L72.45,50.83L68.32,47.83L73.42,47.83L75.00,42.98L76.58,47.83" fill="rgb(255,255,255)"/></g></g><g transform="rotate(0,37.5,18.700000762939453)"><g><g><g transform="translate(0,0) scale(0.0625,0.062289732294929866)"><polygon fill="#fff" points="1199.74,67 1199.74,0 1064.74,0 645.74,210 912.74,211 "/><polygon fill="#fff" points="0,67 0,0 135,0 554,210 287,211 "/><polygon fill="#fff" points="1199.74,533.42 1199.74,600.42 1064.74,600.42 665,400 933.69,400 "/><polygon fill="#fff" points="0,533.42 0,600.42 135,600.42 534.74,400 266.04,400 "/><polygon fill="#cf142b" points="0,0 400.28,200.12 310.39,200.12 0,45 "/><polygon fill="#cf142b" points="1199.74,600.42 799.46,400.3 889.35,400.3 1199.74,555.42 "/><polyline fill="#cf142b" points="0,600.42 398.51,401.08 487,401.08 89,600.42 "/><polyline fill="#cf142b" points="1199.74,0 801.23,199.34 712.74,199.34 1110.74,0 "/><rect fill="#fff" x="0" y="200" width="1200" height="201"/><rect fill="#fff" x="500" width="200" height="600"/><rect fill="#cf142b" x="540" width="120" height="600"/><rect fill="#cf142b" x="0" y="240" width="1200" height="120"/></g></g></g></g><g transform="rotate(0,75,86.97999954223633)"><g><path d="M75,87.5L75.00,82.08L76.22,85.82L80.15,85.83L76.97,88.14L78.19,91.88L75.00,89.57L71.81,91.88L73.03,88.14L69.85,85.83L73.78,85.82L75.00,82.08L76.22,85.82" fill="rgb(200,16,46)"/></g></g><g transform="rotate(0,90,60.38999938964844)"><g><path d="M90,60.76L90.00,56.89L90.87,59.56L93.68,59.56L91.41,61.22L92.27,63.89L90.00,62.24L87.73,63.89L88.59,61.22L86.32,59.56L89.13,59.56L90.00,56.89L90.87,59.56" fill="rgb(200,16,46)"/></g></g><g transform="rotate(0,57.5,64.08499908447266)"><g><path d="M57.5,64.53L57.50,59.89L58.54,63.10L61.91,63.10L59.19,65.08L60.23,68.28L57.50,66.30L54.77,68.28L55.81,65.08L53.09,63.10L56.46,63.10L57.50,59.89L58.54,63.10" fill="rgb(200,16,46)"/></g></g><g transform="rotate(0,75,49.55500030517578)"><g><path d="M75,50L75.00,45.36L76.04,48.57L79.41,48.57L76.69,50.55L77.73,53.75L75.00,51.77L72.27,53.75L73.31,50.55L70.59,48.57L73.96,48.57L75.00,45.36L76.04,48.57" fill="rgb(200,16,46)"/></g></g></svg>