<svg width="4361.6" height="6286.2" version="1.2" viewBox="0 0 4361.6 6286.2" xml:space="preserve" xmlns="http://www.w3.org/2000/svg">
    <path d="m2226.2 0c-39.891 29.78-93.479 10.885-134.02 27.109-11.669 41.656 56.462 59.523 71.005 97.274 39.378 51.493 79.248 103.21 111.96 159.21 26.563 39.78 12.324 87.053-26.63 108.32 12.616 27.29 50.976 41.47 46.708 75.438 16.633 8.5161 31.758-31.155 17.942 2.0768-9.0993 38.351 64.591 101.14 62.147 32.336 0.9193-25.269 36.873-10.056 31.479-25.182 37.173 18.075 26.649-25.801 26.674-34.659-2.4651 20.985 43.88 12.647 8.8837 25.461-14.564 39.301-80.83 29.61-71.566 85.707 2.7129 40.399 40.042 64.894 60.249 97.114 52.026 66.871 102.92 134.75 148.92 205.95 35.459 28.314 17.352 89.524 59.427 111.41 44.409 14.104 51.423-43.607 17.725-63.132-25.197-17.994-14.298-56.962 12.726-26.099 9.1581 20.266 58.578 33.292 41.952 1.0964-11.616-6.849-34.802-45.515-6.2112-28.568-2.5582 31.918 38.088 29.901 45.966 29.17-2.6199 23.599-51.8 37.484-10.618 47.368 16.87-2.1692 74.62-36.179 33.884-6.1133-20.409 13.659-88.767 4.853-54.828 43.986 20.113 2.0419 42.95 13.155 52.947-9.2436 0.323 36.173 8.3727 74.226 2.2007 110.79-23.619 41.323-26.955-39.557-50.062-48.273-15.93-21.088-48.478-42.289-46.91 1.2671 10.575 45.043 59.052 67.842 72.109 112.23 18.667 41.243 33.435 84.896 37.297 130.24 28.668 58.075 78.7-46.433 102.12-20.577-1.978 40.492 60.307 35.379 67.249 64.995-18.587-29.916-43.77 20.109-63.138 10.71-13.924 12.968-13.218 70.354-24.59 24.224 14.509-36.133-43.738-89.181-52.058-33.394 9.352 43.526 43.39 77.336 49.742 122.29 13.596 49.378 28.55 98.851 39.976 148.53-1.9016 30.132 23.916 84.229 58.774 52.734-80.906-31.966-82.297 157.66-32.094 99.382-4.1942 18.841-59.684 57.495-9.1523 48.202 40.165 0.094-20.895 54.891-31.903 19.318-57.393 1.4195 1.576 74.922-30.625 104.67-23.462 42.781-27.675 90.529-27.175 138.2-1.4697 59.087-17.45 123.37-68.256 159.5-39.966 37.468-99.409 7.429-139.94 43.443-32.714 30.091-82.896 36.274-107.78 74.886-27.219 38.867-17.056 92.902 15.816 125.16 29.911 46.298 83.695 58.896 133.68 69.752 44.214 9.9012 65.45 51.373 96.431 79.521 34.808 33.848 81.474 52.884 129.65 55.865 47.943 7.5875 76.635 49.989 104.89 84.979 49.845 65.006 51.632 152.62 32.117 229.03-7.7973 50.297-25.741 98.321-54.686 140.44-26.933 45.078-48.507 92.721-83.823 132.62-16.53 41.33-76.735 56.33-77.363 104.67 0.3976 46.434 103.45 20.942 57.178-10.327 5.006-29.233 61.842-21.318 26.542 9.4112-22.435 42.85 37.406 79.433 65.273 41.699 60.436-10.467 57.396 67.908 68.062 102.31 50.68 25.591 93.878-32.454 134.41-54.997 61.18-41.594 122.31-86.422 163.14-149.43 22.643-34.769 34.488-75.4 61.186-107.83 30.709-46.148 45.416-101.7 84.202-142.92 33.756-38.673 86.172-61.758 94.256-119.16 13.712-51.959 66.873-78.37 88.434-126.33 11.951-29.344 17.616-60.022 33.848-87.801 15.477-32.542 23.696-68.915 39.865-100.54 26.156-38.654-61.129-34.197-45.021-79.023-15.062-41.881-10.286-98.602 32.61-121.97 25.068-44.257 66.102-79.4 117.44-87.053 63.295-16.983 131.81-19.201 195.21-2.2321 34.185 16.672-21.276 83.33 23.312 82.431 21.059-23.003 56.48-64.699 14.238-81.298-18.423-51.595 16.708-100.92 19.016-151.95 9.517-53.889 76.077-16.598 99.795-61.164 38.002-39.715 64.603-92.893 61.891-148.93 3.5155-73.998 15.344-149.36 48.245-216.32 32.94-27.456 69.578-94.25 3.2035-105.31-29.371-1.0425-42.593-34.086-55.16-44.582-38.507 1.7165-86.392-24.294-117.43 8.4883-23.419 33.294-71.059 33.461-101.91 57.874-27.068 20.851-33.746 57.627-59.145 80.543-29.332 35.719-75.666 53.611-121.42 48.741-18.606-5.3453-85.719 23.884-56.088-8.8463-39.064-17.475-78.553-39.78-121.04-49.92-42.038-7.289-75.479-34.443-107.42-60.346-41.076-24.978-92.331-35.509-124.06-74.078-7.3372 15.188 31.523 52.117-4.0509 43.956 16.94-39.524-46.377-14.264-53.575-40.702-42.772-13.564-21.336-64.13-20.009-87.849 5.7721-46.537-35.649-99.79-26.69-152.19 4.3661-49.112-0.5392-102.16-23.807-146.51-20.548-25.48-62.477 37.831-39.256-11.726 20.871-14.025 69.611-61.124 13.395-53.084-20.874 16.261-52.76 26.735-54.89-11.522-13.856-41.188-35.143-107.3-88.179-102.62-41.742 38.118 39.588 54.067 29.022 93.978-2.4849 26.381-4.4887 53.831 15.549 58.756-48.756 34.632-1.1084 86.851 14.177 126.28 17.468 43.501-35.126 108-75.356 65.277-27.347-35.85 2.3465-105.86-49.397-124.01-19.689-4.5936-54.41 10.064-47.486-20.837-20.568-28.551-49.085 19.288-57.4-15.077-28.887-14.632-65.348-28.105-61.343-65.346-18.905-19.816-12.396-57.867 17.81-60.899-36.793 15.252-52.94-21.819-39.16-50.297-1.4281-19.445 1.5892-47.15 7.3998-12.178 28.771 6.1371 2.3043-51.562 5.0883-41.532 38.483 7.8088 34.086-25.781 15.118-33.54 25.992-46.378-63.761-51.56-57.573-100.79-21.921-36.036-83.894-64.296-55.68-113.89 10.746-46.159-48.988-22.323-59.305-36.225-2.6458-53.387 55.231-3.3955 72.559 12.562 41.844 29.718 19.309-46.06 4.5079-55.998-22-2.6286 13.663-46.537 3.7707-59.16-21.678-30.205-28.794-68.241-61.942-87.477-12.043-7.1245-23.894-37.222 1.3416-25.356-22.668-21.735-28.745-69.46-21.719-83.416-6.8362 18.489-48.512 7.2777-33.772 12.176 12.202 28.585-29.911 21.433-44.613 25.029-5.0501 23.088 56.832 20.896 16.251 22.024-38.345 39.04-15.597-59.438-58.812-55.853 12.35-7.7375-12.507-35.554 15.452-13.305 31.835 22.857 27.881-44.161-5.9513-25.335-44.651 2.0184-44.003-76.641-94.911-55.753-32.75-3.0831-73.053-62.014-99.359-24.715-11.93 47.194-74.078 8.0797-59.232-27.374 10.964-13.858 37.802-28.567 11.738-43.898-40.545 0.87073-54.348 48.209-36.171 79.194-24.897 33.308-51.954-7.9457-31.499-35.066 5.3227-28.067-60.235-22.693-44.516-49.603 20.712 0.46051-17.461-40.454-28.536-51.285-27.646-9.9357-18.698-71.719-36.056-67.219 1.2 26.327 0.5966 21.276-13.587 6.1929 7.7316-10.57-41.256-13.095-10.159-18.065-7.1772-43.427 28.149 14.047 39.715-20.392 6.4655-11.739 16.424-38.851-0.7749-45.924zm-30.055 43.527 0.1469 0.0716zm328.55 227.46c-3.9205 17.094 20.688 1.126 0 0zm69.463 8.998c-17.652 40.097 30.713 7.9955 0 0zm-30.471 2.1894c-14.719 9.0913 13.754 10.95 0 0zm-121.76 17.674c10.09 5.7431-7.1859 3.8738 0 0zm75.947 5.8652c21.812 20.242-42.264 25.229-3.6476 7.7453 3.1712-1.4525 2.7651-4.9373 3.6476-7.7453zm80.699 1.2539c-19.177 11.808 19.168 3.7906 0 0zm71.789 62.068c-12.346 5.1279 7.0083 8.0268 0 0zm-10.785 22.027c-28.987-4.7675 0.3165 23.251 0 0zm35.504 7.4609c-22.374 1.3096 14.112 14.872 0 0zm8.9258 6.6621c-6.3691 6.4973 11.542 0.48749 0 0zm-25.381 0.4336c-0.6155 13.274 13.261-5.0242 0 0zm32.4 0.47461 0.068 0.30078zm-57.91 20.588c-7.7481 5.2439 8.8284 2.7823 0 0zm136.7 73.598c-26.652 4.3744 13.435 6.0113 0 0zm1.4122 6.6348c-8.7924 1.829 7.5434 4.5299 0 0zm18.635 36.891c-7.9375 3.0709 8.4465 3.6824 0 0zm18.834 47.746c-7.7933 5.7615 9.3589 2.4293 0 0zm-26.611 13.869c3.2732 11.167-22.551-7.9144 0 0zm-41.086 81.381c-8.6738 4.5063 8.8458 3.4762 0 0zm6.7071 1.6055c-9.1706 3.2573 9.2007 4.5445 0 0zm31.848 1.7715c-9.0056 4.6775 7.6846 5.222 0 0zm95.316 35.182c16.237 17.922 32.755-8.184 0 0zm156.94 10.457c-22.904 1.7249 2.0523 17.695 0 0zm11.084 16.734c-12.762 9.747 13.712 4.8127 0 0zm-176.68 5.5723c3.5851 33.78 31.863-10.463 0 0zm277.67 40.906c-34.522 16.795-29.022 65.921-33.112 86.552-17.284 25.515 56.736 25.931 51.562 59.34 31.117 21.625 40.109-21.029 15.995-36.732-1.2236-38.85-34.094-59.713-34.08-97.144l-0.4801-5.974zm-345.62 14.414c3.747-3.9745 1.5633 2.5643 0 0zm22.676 21.402c6.732 9.3579-10.757 5.706 0 0zm336.71 4.123c-9.9324 3.1204 8.2528 4.4669 0 0zm19.961 4.4902c-27.485 19.408 24.256 11.132 0 0zm-73.742 10.355c-10.596 4.9389 10.405 3.7825 0 0zm-9.9043 8.8438c-2.3058 14.964 14.614-4.3277 0 0zm-76.232 1.0879c-44.123 11.738 36.955 42.547 6.2173 3.3217zm97.217 1.2461c-32.863-4.8776 11.488 31.205 0 0zm60.498 28.84c-8.293 3.2235 8.8246 3.6234 0 0zm-48.6 14.672c-8.6158 3.6902 9.7498 4.5264 0 0zm-441.23 46.156c-25.459 22.988 28.14 19.223 0 0zm232.48 16.701c-33.801 46.456 52.709 20.32 0 0zm-18.102 10.316c-8.3814 1.5999 7.5311 4.5153 0 0zm0.2422 4.2598c-9.8476 4.3892 9.6595 3.6848 0 0zm-231.3 6.9961c-1.4514 6.2921-1.1558 5.0104 0 0zm261.57 7.5489c-8.2282 3.5534 8.9825 3.2427 0 0zm-24.367 6.5507c-22.878-2.5293-2.3929 17.679 0 0zm-4.3653 14.965c-20.263 3.0697 5.8804 17.357 0 0zm-50.037 37.223c-0.5483 16.158-7.4143 4.2633 0 0zm81.266 8.0723c-9.8637 17.051 19.921 2.502 0 0zm352.71 2.0274c-35.068 7.9836 30.167 50.681 6.2161 13.419l-3.85-6.3763zm-548.48 6.3183c0.3359 4.1971 0.2036 2.5446 0 0zm455.22 0.3184c-6.8475 4.5009 8.6288 1.9815 0 0zm150.33 13.869c-13.176 12.344 16.88 5.4983 0 0zm-13.414 2.3028c-5.4433 10.579 11.298-3.1574 0 0zm-6.5918 5.7031c-13.337 11.64 16.387 7.6043 0 0zm-201.14 2.4102c-4.6181 9.0186 10.684 0.2535 0 0zm186.3 8.0312c-13.757 6.809 11.882 4.9587 0 0zm-174.74 2.2637c-18.675 11.014 18.69 7.575 0 0zm-3.0567 9.9004c-13.67 11.06 16.055 8.4235 0 0zm-173.53 4.3144c-21.806 16.06 20.772 14.168 0 0zm-12.272 10.096c-30.444 23.792 32.505 28.493 0 0zm99.274 6.0664c-7.4797 27.536-92.632 5.7714-49.856 41.556 24.201 24.114 76.105-12.991 49.856-41.556zm89.438 2.0996c-16.768 12.67 17.399 0.2912 0 0zm7.2441 6.0938c-14.089 8.7181 11.745 15.199 0 0zm-214.73 1.168c-60.738 21.465 45.454 31.264 0 0zm226.99 2.6562c-9.4596 2.9882 8.4462 3.8418 0 0zm-88.057 12.564c-8.5322 3.7888 8.0246 3.8557 0 0zm-13.273 1.2031c-7.8054 8.1101 11.348 1.7615 0 0zm-98.881 1.5057c-14.242 21.901 26.929 7.6512 0 0zm-100.41 2.2383c43.94 22.829-30.052 27.825 0 0zm201.09 3.5996c-13.184 11.532 16.147 11.152 0 0zm-166.8 3.0157c20.062 12.049-14.019 15.094 0 0zm48.742 3.8886c-8.3593 7.4735 10.4 1.6279 0 0zm199.96 1.918c-6.7037 8.138 10.808 2.8336 0 0zm-79.016 1.6328c-34.396-2.019 9.1703 52.495 0.7993 7.7136 0.479-2.6831 0.1189-5.1753-0.7993-7.7136zm82.523 7.8125c-6.0094 6.2737 9.0395 0.1177 0 0zm-99.393 27.723c-22.078 6.1732 8.3038 16.077 0 0zm-2.9316 9.3672c-13.276 6.6378 12.61 4.6702 0 0zm289.18 40.059c-14.868 9.1445 14.866 7.7969 0 0zm13.469 23.892c-24.434 15.616 20.773 16.327 0 0zm-3.8789 12.631c-14.074 1.5112 5.3883 10.099 0 0zm-391.37 6.9394 0.5829 0.4319zm-76.627 26.881c25.544-7.4052 17.772 25.158 0 0zm482.72 163.52c0.6499 28.625 33.661 96.23 54.263 70.261-20.456-21.58-31.496-50.674-54.263-70.261zm-487.41 18.084c-9.0012 0.7727 6.0846 4.974 0 0zm542.19 11.09c-12.299 5.2883 10.879 3.6459 0 0zm107.74 39.281c-30.578 30.098 27.77 19.194 0 0zm-129.41 10.894c-24.514 1.0472 4.1114 18.929 0 0zm24.887 4.3594c-8.1104 5.3508 10.371 2.7076 0 0zm931.77 66.168c-9.7737 3.4756 8.2862 4.1745 0 0zm-620.12 44.375c-13.784 17.173 20.438 1.4853 0 0zm-816.06 114.93c6.5102-2.0257-1.8826 7.4388 0 0zm1350.5 19.682c-8.616 1.6296 6.0949 4.6789 0 0zm-21.346 85.262c-14.845 8.0249 12.783 1.6159 0 0zm-2.9747 48.856c-6.4623 3.3967 6.8982 2.3414 0 0zm-21.111 88.812c-8.3388 1.7271 6.0026 4.4571 0 0zm-98.279 77.557c-8.2449 3.2515 8.7337 3.5854 0 0zm-82.244 272.05c-19.699 14.12 15.363 21.494 0 0zm-1944.6 541c-32.384-4.1871-41.834 45.267-27.59 42.154-39.917 14.366-79.794 27.643-102.31 65.807-34.56 28.523-84.529 56.282-83.057 107.63 0.6722 65.283 8.6368 132.25-7.4572 196.22-19.504 43.401-49.073 81.409-71.42 123.39-24.09 39.53-66.232 75.642-115.68 67.118-56.672 7.9984-24.674 81.682-51.864 116.72-18.158 42.425-30.704 87.516-33.42 133.61-14.07 50.301-41.218 96.006-56.042 145.91-31.352 53.646-78.024 96.742-107.95 151.25-32.973 37.651-75.221 68.63-123.84 82.268-24.703 34.155-95.051 46.768-92.242 91.775 23.737-16.846-26.64 21.97-35.137 29.022-31.664 38.318-72.455 65.367-110.46 96.664-25.175 39.235-55.235 75.987-104.21 85.673-77.56 25.695-125.95 95.9-187.27 145.37-31.057 52.85-94.595 35.754-140.44 49.926-55.671 8.0449-71.454 60.656-100.38 97.336-20.187 13.122-56.107 36.366-32.075 63.108-47.236 27-98.187 73.362-89.148 133.29-9.8296 17.785-45.772 4.1723-52.597 35.736-14.305 21.366-32.828 23.804-36.492 50.122-38.009 20.879-79.164 60.175-44.07 103.86 5.8113 28.423-6.3751-44.5-31.584-33.652-33.514 4.0903-65.86 56.274-30.447 80.55 40.41 10.017-28.45-21.978-39.13 3.9399-22.385 12.607-16.21 46.586-0.11718 55.865-45.817-28.055-38.805 40.754-19.092 62.536 0.21215 31.528 32.562 48.313 44.005 70.526-1.8489-34.302-58.434-15.042-48.156-5.0567 33.387-21.677-6.0178-38.414-19.91-49.525 38.608-6.8465 4.9944-79.322-15.469-60.865 9.5766 43.782-38.949 66.072-38.94 107.56-9.8994 24.963-47.174 97.862 5.2937 89.174 25.293-4.6866 45.853-45.757 53.487-14.921 4.387 0.57-44.134 2.785-53.559 21.047-31.57 20.088-81.115 4.3987-92.313 54.32-9.3131 38.194 32.432-19.156 20.852 9.6796 28.105 36.537 70.575 8.9989 69.708-30.465 4.2305-16.359 65.095-12.104 27.097-8.3953-45.063 2.5303-18.188 69.449 12.878 42.894-22.167-19.928 50.597-6.2898 14.295 0.6064-17.956 16.382-49.041 20.002-60.656 6.3994-27.687 31.073-89.777 22.24-95.263 77.445-10.88 61.123 71.172 67.024 81.769 10.76 6.0813-34.102-16.356 21.307 15.044 18.28 4.6482-2.3614-40.606 19.912-35.27 43.884-4.7403 45.078 52.104-21.627 40.476 9.4379 19.362-8.0935 22.796-60.186 43.031-49.812-19.304 31.693-91.666 91.496-37.964 117.92 46.035 5.537 93.123-9.1337 137.5 10.921 39.669 6.8993 86.832-10.775 100.83-51.014 46.678-23.92 102.22 22.639 105.01 70.392 13.206 44.111 85.864 15.851 99.234 10.4 14.131-30.773 73.988 3.7938 75.284 36.678 18.122 35.356 44.258-18.508 40.398 1.7249 13.94 26.571-63.725 40.905-17.461 67.239 31.997 24.739-0.89339-31.087 24.155-16.149 13.82 48.244 60.794 13.594 86.621 0.029 33.051-3.6441 77.556 4.4134 91.378 40.51 41.993 11.983 83.494-16.316 125.45-17.444 40.508-7.1613 66.57-43.848 108.38-45.46 31.064-10.376 43.044-41.528 67.229-60.01-25.64-50.66 43.37-71.722 74.872-98.125 44.843-25.174 45.538-81.414 70.672-120.73 26.832-36.175 79.642-34.514 104.69-72.615 15.853-18.016 50.299-42.509 14.867-57.739-9.366-44.77 43.328-76.697 55.596-118.18 28.506-39.698 1.4984-88.178 21.938-129.82 25.253-64.909 96.902-107.01 99.176-181.37 3.2333-39.312-4.2326-78.343-6.9516-117.44 26.656-54.365 19.93-126.4 69.728-167.88 87.622-79.452 193.16-135.74 298.27-188.16 46.031-16.509 94.787-23.123 142.7-31.613 29.206-1.2745 89.419 58.646 95.843 12.125-12.349-14.27 9.1697-56.661 2.5024-19.372 5.7964 56.16 83.942 20.144 68.178-25.498-1.1051-40.877-56.43-67.699-76.59-55.538 0.4192-30.718-31.205 0.013-45.309-12.351-14.811 7.663-48.061 9.2845-15.469-3.5734 35.778-0.3233 3.3084-31.695 0.6755-30.982 6.2715-24.076-19.085-55.123-2.8078-83.396 2.2271-65.552-69.43-45.063-110.66-55.355-24.697-2.2189-109.44-9.5336-71.244-45.679 39.539-3.6702 81.219-41.471 32.303-70.505-24.996-13.696-28.591-42.857-24.992-63.95-29.534-18.444-71.932-16.467-87.482-51.848-26.199-4.1049-56.081-33.785-16.927-48.34 53.115-22.358 77.955-75.214 117.57-111.4 46.919-27.578 74.296-73.897 106.44-115.71 18.02-38.577 55.424-61.451 76.45-97.319 19.523-39.765 28.317-85.304 59.183-118.87 24.624-33.048 50.244-65.339 74.928-98.342 52.586-12.606 36.415-70.121 73.26-99.129 27.532-37.364 68.943-66.07 85.004-110.56 8.2387-24.54-15.122-31.536-22.884-6.3383-38.277 23.035-81.234 37.581-103.12 80.095-18.208 24.747-28.628 5.9543-35.861-11.048-25.296-5.8315-3.418 32.263-15.982 0.5966-28.761-44.428-46.539-97.836-20.568-147.79 12.464-35.306-17.642-95.954-54.731-60.672-70.659 12.044-115.42-95.907-59.26-139.48 21.433-31.363 76.842 14.973 85.562-2.8013-33.595-17.57-72.896-6.5257-108.5-15.192zm828.14 162.75c-31.993 0.7045-4.5569 55.824 2.9752 11.227 4.6375-3.7347 5.3468-13.018-2.9752-11.227zm472.19 52.674c-11.72 5.5277 6.8256 7.8911 0 0zm-1160.9 14.373c-17.474 7.8445 9.9376 14.202 0 0zm628.29 55.949c-20.89 13.239 17.904 10.981 0 0zm-752.99 1110.4c-7.7666 1.3014 5.2568 4.4445 0 0zm-46.768 35.295c13.284 5.7759 4.543 18.323 0 0zm13.252 32.93c8.7938 4.6013-7.7099 1.6404 0 0zm19.1 1.2149c3.7382 2.4132-4.4027 3.4574 0 0zm-15.666 6.8378c14.847 8.065-14.373 9.1626 0 0zm24.508 36.016c-18.206 10.033 17.158 7.0658 0 0zm-1135 23.772c-8.5016 0.8014 7.0183 4.9991 0 0zm-194.67 125.94c-11.551 2.9106 9.3263 5.3807 0 0zm-234.69 168.99c-7.9313 1.8805 6.4188 4.4477 0 0zm-100.31 220.16c24.934-6.1954 19.591 39.239 0 0zm-108.05 93.764c-3.136 34.48-13.8 17.97 0 0zm-129.45 106.39c-9.7616 2.9586 8.6402 4.8241 0 0zm-1.1953 41.453c25.389 4.6367-3.4267 34.454 0 0zm-80.23 82.039c-5.9567 7.0213 9.41 2.4847 0 0zm99.34 1.3067c14.231 36.148-42.084 5.1645 0 0zm-50.742 25.201c-6.8774 3.4026 7.0489 2.6057 0 0zm-43.201 50.5c21.015 20.32-28.35-2.2296-1.1982-0.1681zm76.779 28.5c4.1758 8.7961-18.236 4.7811 0 0zm-148.4 58.174c-18.552 11.91 18.922 10.869 0 0zm1341.5 3.1094c8.2917 16.62-15.265 6.4461 0 0zm-1318 5.1191c-14.555 3.5983 10.916 9.0542 0 0zm-9.0156 5.8008-0.16173 0.2886zm1376 9.5605c-0.7233 27.413-84.231 47.532-35.557 66.861 31.215-1.1961 54.158-40.138 35.557-66.861zm-32.662 26.561c1.2589 4.1537 0.8825 2.9117 0 0zm-1383.8 26.691c-7.0115 4.0994 8.4368 2.3181 0 0zm-7.6816 5.2949c-41.386 45.417 57.168 10.204 0 0zm27.16 16.254c-23.914-1.3316 5.1747 19.246 0 0zm5.793 5.5469c-8.2978 5.7328 9.5072 2.6565 0 0zm1278 8.3242c-5.2929 4.8205 7.598 0.4159 0 0zm-1223.9 25.297c15.693 2.9646 8.0702 5.3187 0 0zm1168.8 27.865c-11.846 4.3 10.766 5.3717 0 0zm-1120.8 10.23c0.33193 16.587-16.675-4.6159 0 0zm-80.285 14.81c-11.239-5.2786-0.99699 9.7977 0 0zm-36.203 26.477c-24.471 9.193 19.651 17.93 0 0zm17.355 6.332c-8.6305 4.3915 8.019 4.0218 0 0zm-24.756 5.0098c-20.899 25.153 32.302 5.2497 0 0zm59.184 9.6719c-20.057 2.9093 1.1584 17.029 0 0zm-6.8516 12.213c-16.476 5.7403 12.856 12.423 0 0zm-11.744 3.709c-38.521 20.918 28.306 22.535 0 0zm1080.2 48.147-2.095 1.0264zm-1023.2 11.059c-8.4691 3.8809 8.2418 3.5819 0 0zm361.38 80.65c-16.257 12.235 17.587 6.3053 0 0zm544.42 35.94c-9.201 2.5411 7.8777 4.0648 0 0zm-342.88 10.205c31.279-7.9116 17.338 25.534 0 0zm-186.09 67.566c-61.297-4.8444-60.642 70.324-32.004 103.33-3.3552 39.137-24.052 73.209-50.258 97.15 0.76569 33.712-19.114 57.119-34.007 82.565 21.255 39.441 79.1-5.4623 74.494-40.623 26.189 28.051 73.771-19.544 104.8-31.335 48.087 8.7171 77.409-48.421 54.897-86.888-19.902 5.3896-25.784 21.113-38.938 0.039-16.393-1.6625-61.581 1.4086-29.575-21.615 45.076 27.934 60.125-36.038 11.272-45.701-18.447-20.355-28.51-54.969-60.678-56.921zm222.42 11.713c-35.441 4.6584 16.917 45.954 3.9636 5.7197-0.26777-2.7701-1.6536-4.3667-3.9636-5.7197zm7.6953 7.6133c-10.199 3.0113 8.3454 4.1716 0 0zm7.4434 5.4317c-20.054 5.5185 15.181 11.694 0 0zm-319.92 13.303c-18.427 37.022 40.35 1.4574 0 0zm-7.0859 0.9745c-6.652 3.1684 6.8439 2.5358 0 0zm304.86 5.5723c-13.62 1.8957 9.7688 6.7683 0 0zm-12.268 7.3632c-22.382 8.9031 22.306-0.4458 2.7181 1.6034zm-75.988 4.1348c-7.4069 3.8995 8.601 3.4344 0 0zm2.3418 2.8359c-11.671 4.3313 9.6481 4.9512 0 0zm-8.7559 3.752c-12.18 9.4229 13.016 8.6707 0 0zm-1.0938 8.7031c-15.569 0.3503 8.4873 9.0309 0 0zm5.5488 8.2696c-15.393 3.366 11.762 8.5225 0 0zm4.8008 17.809c-13.868 16.907 21.314 2.593 0 0zm-28.656 6.6231c-11.305 8.0676 12.244 6.4974 0 0zm-8.8867 7.291c-7.3292 18.966 20.764-6.037 0 0zm3.0605 11.701c-8.0459 13.465 15.218 1.0096 0 0zm-148.9 4.8222c-19.583 10.532 14.122 23.462 0 0zm180.36 46.457c-9.8456 2.3335 8.6095 5.3115 0 0zm2.8438 5.6015c-18.222 3.9844 13.931 6.5906 0 0zm-7.0449 15.223c-9.9836 12.969 15.968 7.2619 0 0zm-64.631 18.854c-7.21 2.321 6.302 3.4763 0 0zm-157.24 11.69c-14.852 7.5383 13.667 4.2607 0 0zm146.65 3.6757c-8.5581 1.5708 7.6759 4.6076 0 0zm-182.12 0.3711c-20.203 4.2659 10.371 18.661 0 0zm79.729 28.041c1.1811 26.118-39.671 10.285-4.6763 1.9586 1.5588-0.6529 3.1175-1.3057 4.6763-1.9586zm-86.596 7.3847c-22.76 10.556 19.971 9.8365 0 0zm15.355 3.1719c-43.641 12.987 10.144 33.904 0 0zm-33.713 1.7871c-18.504 5.3264 10.937 14.2 0 0zm13.686 3.7637c-15.635-5.6638 3.9039 10.165 0 0zm9.5644 17.246c-10.8 3.1185 8.8203 6.0741 0 0z"/><path d="m2569.8 3041.9-0.2957 0.346zm2.4147 0.2248c3.7445 21.539-37.235 66.939-36.764 22.822-28.578 12.864-2.6826 58.544-30.749 65.9-0.9854 37.181 30.105 24.844 38.768 0.6118 20.822-24.102 37.438-56.795 28.745-89.334zm-47.924 29.708-0.1104 0.9145zm114.55 62.376 0.4736 0.3351zm-13.984 0.5429c-7.9091 9.4193 12.586 3.5846 0 0zm-45.34 2.2089c-21.352 38.641-77.755 30.112-101.02 65.536 22.161 29.14-24.515 40.766-36.038 27.032-9.8796 54.249-61.626 85.461-89.976 129.49-33.491 20.589-19.248 76.743-59.878 87.332-42.15 28.182-55.603 82.421-95.325 113.14-33.084 48.624-37.958 114.32-85.375 153.45-42.332 46.436-68.077 106.81-116.22 147.84-39.774 22.492-63.506 61.454-92.862 94.79-19.005 29.849-99.685 36.82-61.572 83.712 29.093 36.223 81.377 41.534 110.49 74.794-21.156 45.708 76.967 64.302 32.79 103.18-23.832-0.091-83.824 38.462-36.988 50.305 48.213 10.858 96.754 20.935 146.02 25.553 49.344-11.212 47.452-81.395 96.552-93.891 61.898-24.454 123.84-61.75 151.94-125.1 19.047-41.937 38.434-84.086 53.664-127.47-1.7549-51.477 49.181-59.061 73.799-90.42 11.561-42.174 50.563-61.59 75.848-93.646 20.568-34.909 17.635-81.171 54.898-107.26 25.059-26.769 53.054-53.343 67.683-86.606 2.7967-35.371-29.891-52.854-28.551-88.76-19.012-37.986-65.341-83.132-23.06-123.37 11.82-23.719 24.369-9.4573 36.42-4.7286 20.966-4.1884 55.156-58.845 12.77-37.737-32.565-5.5862-74.274 11.9-99.179 0.1895 27.484-26.576 105.34-9.271 82.006-67.434 23.276 28.072 62.829-63.396 23.491-28.449-32.014 10.043 7.3191-52.902-33.834-27.773-24.266 39.664-52.905-37.304-67.01 11.093 3.111 15.869 44.007-8.425 29.272 23.86-5.3999 22.043-32.724 35.566-32.015 6.0462-34.457 17.787-33.769 76.437 13.572 44.426 21.114-8.4085 48.477 8.9269 10.504 9.2037-32.701-4.9582-57.021 44.931-83.57 34.072 21.749-15.485 42.302-42.683 5.4167-56.093 23.579-3.0719 56.628-58.334 13.903-42.809-27.575 25.563-28.491 0.017-16.214-22.163 35.324 8.3689 53.168-32.202 82.742-48-4.9216-3.4282-20.127-3.7584-15.101-13.334zm-381.84 423.44-0.1155 0.5564zm421.11-422.67c-14.29 1.085-7.6284 16.148 0 0zm-79.791 2.7711 0.496 0.4901zm77.634 21.883c-24.586 18.221 9.022 32.181 0 0zm-63.884 36.131c-24.086-5.7692 0.8217 22.14 0 0zm135.9 34.314c-9.3213 3.5658 7.0736 11.136 0 0zm36.617 2.6957c-32.364 12.738-3.062 33.501-13.906 34.019-14.191 6.0368-78.455 35.314-32.2 32.721 28.357-7.2174 62.33-33.995 46.107-66.74zm-146.7 7.75-1.5109 1.4766zm117.51 0.3371c-13.04 0.8404-4.0412 14.996 0 0zm-10.033 23.606c-1.3717 10.581 10.017-4.4719 0 0zm-14.284 1.011c-21.138 15.352 18.986 16.021 0 0zm-192.08 607.55c-4.2942-2.4364 0.8368 4.205 0 0zm-15.838 4.1372 0.1369 0.5188zm-43.693 14.901 0.4113 0.2989zm-173.27 289.47 0.5365 0.9234z"/>
</svg>
