<svg xmlns="http://www.w3.org/2000/svg" xmlns:xlink="http://www.w3.org/1999/xlink" viewBox="0 0 100 100"><g><g><path d="M0,0L100,0L100,100L0,100Z" fill="rgb(0,36,125)"/></g></g><g transform="rotate(0,50,49.99999237060547)"><g><g><g transform="translate(0,0) scale(0.08333333333333333,0.16655008635007987)"><polygon fill="#FFF" points="1199.74,67 1199.74,0 1064.74,0 645.74,210 912.74,211 "/><polygon fill="#FFF" points="0,67 0,0 135,0 554,210 287,211 "/><polygon fill="#FFF" points="1199.74,533.42 1199.74,600.42 1064.74,600.42 665,400 933.69,400 "/><polygon fill="#FFF" points="0,533.42 0,600.42 135,600.42 534.74,400 266.04,400 "/><polygon fill="rgb(207,20,43)" points="0,0 400.28,200.12 310.39,200.12 0,45 "/><polygon fill="rgb(207,20,43)" points="1199.74,600.42 799.46,400.3 889.35,400.3 1199.74,555.42 "/><polyline fill="rgb(207,20,43)" points="0,600.42 398.51,401.08 487,401.08 89,600.42 "/><polyline fill="rgb(207,20,43)" points="1199.74,0 801.23,199.34 712.74,199.34 1110.74,0 "/><rect fill="#FFF" x="0" y="200" width="1200" height="201"/><rect x="500" width="200" height="600"/><rect fill="rgb(207,20,43)" x="0" y="240" width="1200" height="120"/></g></g></g></g><g transform="rotate(0,50,16.666666030883796)"><g><path d="M33.333335000000005,7.105427357601002e-15L66.666665,7.105427357601002e-15L66.666665,33.33333300000001L33.333335000000005,33.33333300000001Z" fill="rgb(255,255,255)"/></g></g><g transform="rotate(0,50,83.33333206176758)"><g><path d="M33.333335000000005,66.66666699999996L66.666665,66.66666699999996L66.666665,100L33.333335000000005,100Z" fill="rgb(255,255,255)"/></g></g><g transform="rotate(0,50,50)"><g><path d="M40,0L60,0L60,100L40,100Z" fill="rgb(207,20,43)"/></g></g></svg>