<svg width="36.661" height="55" version="1.1" viewBox="0 0 36.661 55" xmlns="http://www.w3.org/2000/svg">
 <defs>
  <style>.cls-1{fill:#039;}.cls-2{fill:#fc0;}</style>
 </defs>
 <title>United Kingdom</title>
 <path d="m17.422 1.8e-4c-1.9656 1.6408-5.1734-0.27707-6.8059 1.598-0.50664 1.4898-0.04116 3.5871-2.0286 3.9456-1.2808 1.8301 1.5525 3.7306-0.24515 5.4582-1.6351 1.7495 0.9971 3.733 2.102 1.4968-1.2172 1.7516-1.412 4.0876-1.6365 6.2517-0.82115 0.88459 0.48582 2.9488 0.79181 1.0914 0.15638-0.74025 0.19666-4.1902 0.76087-2.3494 1.1402 0.28797 2.1103-1.4843 1.6081 0.57931-0.17586 1.5191 1.1113 2.8835-0.40999 4.2254-1.4659 1.3924-0.41948 3.3727 1.4793 2.4499 1.6927 0.33072 3.1533-1.0588 4.5661-0.8244-1.5998 1.6156-0.93517 4.8322 1.5188 5.1628-0.26034 1.5422 0.11371 4.0181-1.0621 4.8594-1.8074 0.20963-5.1539 0.64312-4.8084 3.0248 2.8465 0.22216 1.8011 4.4922-0.58176 4.7729-2.4886 0.06375-2.3048 4.203 0.38332 2.7014 1.9509 0.02857 3.4418 2.545 5.4544 1.6181 0.59359-0.14231 2.5083-2.3181 1.5486-0.54048-0.98824 2.4759-3.7837 1.7742-5.585 2.4802-1.9346 1.5117-2.2471 4.438-4.5494 5.5773-1.3523 1.3017 1.1237 2.1336 1.4704 0.57169 1.4044-2.0648 4.4662 0.30409 5.622-1.762 0.44993-1.9737 2.2424-1.8514 3.6737-1.0609 2.2678 0.29035 4.1463-1.7876 6.4242-1.2245 2.0396 0.19148 4.3043 0.48214 6.1167-0.7062 2.4852-0.1605 1.9364-3.9039-0.51682-2.8257-0.77512-0.53218 1.1499-3.3593 0.61202-1.6706 0.97412-1.9198 3.5561-2.9363 3.321-5.4561 0.06072-2.6406-2.7626-3.7576-4.8441-2.635-2.3523-0.16465 0.85624-3.1786-1.4729-4.0287-0.60959-0.63803-2.2348-1.0296-0.56873-1.1523 0.15908-1.3807-0.81394-3.028-1.393-4.2703-2.0962-1.1657-3.9723-2.7695-4.0148-5.3878-0.41428-2.225-1.8279-4.9884-4.4368-4.9251-0.80214-0.01182-3.0502 0.10828-2.9222-0.12991 1.5472 0.03469 3.1141-1.4325 2.4514-2.7576 1.764-1.2926 2.4358-3.4326 3.3769-5.2726 0.9905-2.3838-1.5269-3.11-3.3414-2.7191-1.5721-0.21973-4.0832 0.8309-4.9569 0.68721 0.1822-1.8738 1.1491-3.2447 2.8385-4.0222 0.84671-0.6939 2.0212-2.7058 0.0603-2.8314zm-3.63 0.68886c-0.13778-0.33365-0.0591 0.22544 0 0zm-7.2257 0.30779c-1.3435 0.68465-4.2699 3.3308-2.0672 4.2057 1.3347-0.84709 2.4669-2.5803 2.0672-4.2057zm4.0599 0.79146c-0.28168-0.40849-0.03546 0.23072 0 0zm-0.30778 0.78168c-0.3607 0.077419 0.18733 0.097754 0 0zm-0.65956 1.3875-0.01203 0.00563zm0.12213 0.15634c-0.32384 0.17809 0.27913 0.03103 0 0zm-0.09283 0.058612c-0.08605-0.34172-0.1152 0.16846 0 0zm-4.8758 0.058612c-0.28599 0.16658 0.2468 0.00788 0 0zm1.1383 0.00978c-0.0063-0.35435-0.14899 0.15409 0 0zm4.0599 0.068392c-0.24587 0.019561 0.16095 0.091063 0 0zm-0.32732 0.18565c-0.04602-0.30647-0.11799 0.24836 0 0zm-0.2736 0c-0.3047-0.081676 0.10891 0.15499 0 0zm1.1237 0.12214c0.05172-0.37411-0.17712 0.14856 0 0zm-6.7714 0.16122c-0.58553-0.15485 0.27495 0.46812 0 0zm2.5014 0.097712c-0.05432 0.14577 0.12532-0.10435 0 0zm-0.09771 0.019561c-0.33388 0.14907 0.25818 0.044469 0 0zm3.3808 0.039051c-0.20133 0.15077 0.23943-0.024064 0 0zm-4.6168 0.12214c-0.1969 0.42893 0.32859-0.18285 0 0zm3.9817 0.19054c-0.18299 0.31574 0.28362-0.12128 0 0zm-5.9896 0.4055c-0.90624-0.14355 0.266 0.27796 0 0zm0.58137 0.073289c-0.24858 0.077701 0.21887 0.049605 0 0zm-0.024416 0.15634c-0.20723 0.21151 0.2094-0.052068 0 0zm-0.29313 0.058612c-0.5344-0.18956 0.24351 0.45533 0 0zm5.1396 0.024416c0.04693-0.3406-0.16753 0.16463 0 0zm-5.6086 0.097712c-0.31376 0.040318 0.24167 0.10732 0 0zm3.6592 0.078165c-0.86792 1.0007-2.0621 2.5526-0.18843 3.1477 0.70545 0.97366 3.1261 0.50431 1.2612-0.53733-0.70176-0.71556-0.30079-1.9347-1.0727-2.6103zm-3.2928 0.068391c-1.713 0.1361 1.2718 1.6858 0.057345 0.061989zm-0.7426 0.1661c-0.051435-0.43889-0.16529 0.27471 0 0zm0.39084 0.024416c0.076856-0.30777-0.27265 0.1119 0 0zm0.88427 0.024416c-0.21321 0.0622 0.1921 0.042569 0 0zm-0.49343 0.15633c-0.054742 0.18856 0.13072-0.12679 0 0zm0.21496 0.12703c-0.16276 0.078397 0.15506 0.010765 0 0zm4.3237 0.23939c-0.41281 0.22284 0.42013 0.15822 0 0zm-5.4767 0.078172c-0.25495 0.19962 0.23104-0.00922 0 0zm0.11725 0.12702c-0.2972 0.38009 0.45422-0.034055 0 0zm5.2275 0.21009c0.1145 0.16151 7e-3 -0.26049 0 0zm0.02934 0.063537c-1.0031 0.4476 0.73656 0.86604 0 0zm-4.5728 0.00493c-0.34291-0.30168 0.055938 0.29938 0 0zm0.23939 0.014635c0.15757 0.072227-0.088333-0.27182 0 0zm-0.092822 0.00493c-0.45194 0.041162 0.3061 0.16631 0 0zm4.3139 0.048827c-0.30512-0.17275 0.12116 0.23936 0 0zm-4.9735 0.00493c-0.094848 0.8034 0.69803-0.33817 0 0zm0.31268 0.073282c-0.068955 0.18127 0.14958-0.12031 0 0zm0.16612 0.15634c0.10887 0.025682-0.092336-0.14127 0 0zm-0.50322 0.27359c-0.2025-0.076786 0.11368 0.17474 0 0zm0.64 0.024416c-0.4294-0.096889 0.23769 0.27205 0 0zm-0.5423 0.058607c-1.3866 0.50232 1.1934 1.7964 0.25697 0.28936zm5.6086 0.3175c-0.21013 0.20827 0.25275-0.081114 0 0zm-2.4672 0.048831c-0.20943-0.31471-0.05214 0.21052 0 0zm-2.7896 0.097712c-0.15651-0.052983 0.069096 0.081149 0 0zm4.7048 0.029341c-0.32479 0.29047 0.42694-0.040177 0 0zm0.48855 0.2736c-0.22764-0.25066-0.05523 0.20922 0 0zm-1.324 0.74749c-0.40157-0.37656 0.06199 0.39819 0 0zm1.5976 0.087939c0.03532-0.22408-0.11613 0.069096 0 0zm-5.589 0.38596c-0.42613-0.13761 0.22936 0.32224 0 0zm2.8531 0.1368c-0.32435-0.35246-0.0413 0.45505 0 0zm-3.2831 0.05376c-0.35357 0.07297 0.23328 0.08997 0 0zm3.9622 0.01464c-0.69456 0.60414 0.82139 0.13842 0 0zm-4.1576 0.0098c-0.96611 0.49061 0.83368 0.63071 0 0zm3.5371 0.01956c0.10001 0.23076 0.14567-0.39075 0 0zm-3.1072 0.18077c-0.1638 0.11891 0.19858-0.03384 0 0zm-0.078172 0.03905c-0.047776 0.241 0.16822-0.20114 0 0zm-0.097705 0.11726c0.030326 0.14844 0.074971-0.19269 0 0zm-0.70352 0.3371c-0.29373 0.43629 0.41349-0.13179 0 0zm5.3252 0.0342c-0.5143 0.23051 0.49815 0.20216 0 0zm-4.8757 0.12702c-0.15702-0.30176-0.06417 0.18716 0 0zm-0.32245 0.12702c-0.3532 0.23298 0.26395 0.0318 0 0zm-0.19053 0.26379c-0.1505-0.3324-0.13326 0.17218 0 0zm4.9197 0.10748c-0.17584 0.34386 0.24004-0.11879 0 0zm-5.0956 0.09282c-0.47062-0.03828 0.30878 0.29315 0 0zm6.5564 0.14168c-0.33431 0.48497 0.33027-0.15999 0 0zm-6.6003 0.11726c0.024204-0.30947-0.20259 0.14775 0 0zm4.3628 0.62535c-1.11-0.0063 0.36432 1.0781 0 0zm1.3093 0.22472c-1.6371 1.2381 1.6774 3.6114 1.2711 0.97053-0.23863-0.52932-0.93348-0.53806-1.2711-0.97053zm2.7701 0.37618c-0.27364 0.03743 0.22864 0.09393 0 0zm-4.9979 0.18077c0.06466-0.28623-0.20776 0.15406 0 0zm4.8269 0.0342c-0.78381-0.13788 0.17327 0.85082 0 0zm-4.9735 0.03905c-1.0992-0.24169 0.17895 1.1642 0 0zm5.0663 0.11726c0.12726-0.34964-0.27233 0.10962 0 0zm-2.5698 0.43969c0.08436-0.39969-0.22962 0.1069 0 0zm-0.24917 0.15146c-0.09346-0.32578-0.08457 0.23944 0 0zm2.4623 0.12702c-0.46209-0.06593 0.23955 0.37662 0 0zm-3.3271 0.48855c-0.45436-0.03975 0.29995 0.3231 0 0zm0.06354 0.30291c-0.35736-0.22896 0.06368 0.2363 0 0zm2.7457 0.20519c-0.4196 0.29047 0.48516 0.14276 0 0zm0.11236 0.0342c-0.2738-0.2062 0.04257 0.20276 0 0zm0.01956 0.21985c-0.43494 0.13499 0.3425 0.11697 0 0zm-0.32244 0.1954c-0.60113-0.19478 0.27362 0.51008 0 0zm0.60091 0.2003c-0.26854-0.16859 0.10679 0.2509 0 0zm-0.66444 0.11726c-1.2938-0.39566-0.68514 2.4708-0.21997 0.6793l0.09336-0.3452zm0.54718 0.04883c-0.18956-0.17621 0.04489 0.19051 0 0zm-2.2083 0.07328c-0.9478 0.08041 0.56633 0.74737 0 0zm-0.26871 0.66444c-0.32571-0.41109 0.0042 0.41468 0 0zm0.35665 0.57154c-2.1238-0.45368 0.01675 3.4756 0.24226 0.94351-0.01949-0.3264-0.10936-0.64582-0.24226-0.94351zm3.5371 0.08306c-0.49886 1.2472 1.4759 0.30539 0 0zm0.08794 0.77192c-0.25895 0.22293 0.32078-0.01872 0 0zm0.9233 0.08306c-0.63028 0.13253 0.47936 0.36029 0 0zm-0.09283 0.36153c-0.32841-0.11051 0.13814 0.20118 0 0zm-2.941 0.03904c-0.41434 0.13339 0.35973 0.24048 0 0zm1.7099 0.04883c-1.614 0.70516 1.7856 1.768 0.20923 0.15264zm-3.2732 0.62045c0.06987-0.27628-0.17609 0.13092 0 0zm3.9719 0.5423c-0.13805 0.26193 0.24789-0.12906 0 0zm-4.3676 1.4461c-0.14385 0.49464 0.41163-0.22806 0 0zm-0.88918 0.38596c-2.4733 0.71651-4.4342 2.7831-5.7105 4.9205-0.38862 2.2234 2.5084 2.5203 3.742 1.3053 1.5373 0.84886 3.5423 2.6195 4.8374 0.20843 1.7336-1.7945-0.46485-3.3749-0.98656-5.1168-0.35845-0.72064-1.0378-1.322-1.8823-1.3174zm3.1561 4.6803c-0.32048-0.01358 0.2114 0.15015 0 0zm-0.08793 0.90871c-0.19644-0.09634 0.03068 0.1202 0 0zm9.0382 1.4315c-0.41689 0.50379 0.61966 0.26149 0 0zm10.123 2.946c0.16742 0.21788-0.01027-0.27376 0 0zm-14.534 1.6513c-1.7685 1.3484 2.3786 1.5841 0.43403 0.20902-0.10384-0.15727-0.27991-0.15958-0.43403-0.20902zm-0.9429 0.67909c-0.1951 0.78331 0.78778-0.2024 0 0zm21.169 9.6879c-0.35242-0.39874-0.0786 0.40657 0 0zm-0.88917 0.48366c-0.25253 0.07979 0.17851 0.04883 0 0zm0.2052 0.01956c0.29433-0.27951-0.24732-0.03764 0 0zm-20.578 0.53253c-0.01801 0.2651 0.12684-0.1904 0 0zm19.742 0.63512c-0.24845 0.42347 0.34434-0.15037 0 0zm0.29313 0.04883c0.19972 0.06389-0.14416-0.23914 0 0zm0.42993 0.5765c-0.08832 0.87989 0.74802-0.38497 0 0zm-6.444 3.9035c-0.49929 0.19397 0.44449 0.24711 0 0zm-1.2849 0.42504c-1.3372 1.2891 1.9746 0.39294 0 0zm-2.5014 0.4397c-0.31439 0.16296 0.19045 0.02941 0 0z" stroke-width=".021261"/>
</svg>
