<svg fill="url(#gradient)" version="1.1" viewBox="0 0 80 64" xmlns="http://www.w3.org/2000/svg">
 <g transform="scale(.9186 1)">
  <rect x="8" width="14" height="6"/>
  <rect x="24" width="6" height="14"/>
  <rect x="32" width="14" height="6"/>
  <rect x="80" width="6" height="14"/>
  <rect y="8" width="14" height="6"/>
  <rect x="16" y="8" width="6" height="14"/>
  <rect x="32" y="8" width="6" height="14"/>
  <rect x="56" y="8" width="6" height="14"/>
  <rect x="72" y="8" width="6" height="14"/>
  <rect y="16" width="6" height="14"/>
  <rect x="8" y="16" width="6" height="14"/>
  <rect x="24" y="16" width="6" height="14"/>
  <rect x="32" y="16" width="6" height="6"/>
  <rect x="48" y="16" width="6" height="14"/>
  <rect x="40" y="16" width="6" height="14"/>
  <rect x="64" y="16" width="6" height="14"/>
  <rect x="16" y="24" width="6" height="14"/>
  <rect x="32" y="24" width="6" height="14"/>
  <rect x="56" y="24" width="6" height="14"/>
  <rect y="32" width="14" height="6"/>
  <rect x="24" y="32" width="6" height="14"/>
  <rect x="40" y="32" width="14" height="6"/>
  <rect x="64" y="32" width="14" height="6"/>
  <rect x="8" y="40" width="14" height="6"/>
  <rect x="32" y="40" width="14" height="6"/>
  <rect x="48" y="40" width="14" height="6"/>
  <rect x="64" y="40" width="6" height="14"/>
  <rect x="32" y="48" width="14" height="6"/>
  <rect x="72" y="48" width="6" height="14"/>
 </g>
   <defs>
    <linearGradient id="gradient" x1="0" y1="0" x2="0" y2="62" gradientUnits="userSpaceOnUse"> 
        <stop offset="0%" style="stop-color:rgb(235,218,0);stop-opacity:1"></stop>
        <stop offset="33%" style="stop-color:rgb(255,42,0);stop-opacity:1"></stop>
        <stop offset="67%" style="stop-color:rgb(255,5,251);stop-opacity:1"></stop>
        <stop offset="100%" style="stop-color:rgb(34,3,128);stop-opacity:1"></stop>
    </linearGradient>
  </defs>
</svg>
