<svg width="910.95" height="574.5" version="1.1" viewBox="0 0 910.95 574.5" xmlns="http://www.w3.org/2000/svg">
 <style>.usa-presidential-2012-geo path, .usa-presidential-2012-geo ellipse, .usa-presidential-2012-dc{
    cursor:pointer; transition: fill 1000ms, opacity 500ms;
  }
  .usa-presidential-2012-geo-borders{stroke:#FFFFFF; stroke-width:1}</style>
 <path d="m73.583 0.18684c-0.7179 3.7779 3.414-1.1816 0 0zm5.4004 1.3008c-2.7058 4.4094 2.23 11.641-3.9685 13.673-1.3423 3.2949 1.9348 11.886 1.4345 3.9701 1.9119-6.8493 1.1117 5.5915 2.3352 0.82094 0.91118 7.4235-3.2067 18.812-10.728 20.372-4.9026-2.0623 6.7189-3.3698 4.5935-8.6815 6.9874-8.3053-9.862-2.0791-5.5064 2.9954-7.8883-4.2264 12.905-9.5272 2.5465-15.366-8.061-1.992-14.559-7.3404-21.991-9.7264-4.4916 6.4684-0.38536 15.679-0.73063 23.206 1.5596 5.4014 0.83102 12.201-0.40759 16.998-2.8442-1.0236-5.218-2.0125-2.638 2.6102 6.8785 4.8402-4.4295 6.4795-3.2562 13.163-6.0181 18.136-13.125 36.162-23.411 52.37-5.4853 8.5671-5.9358 18.824-5.0112 28.6-0.41127 9.9433-4.193 20.199-12.032 26.658-1.693 10.43 7.4541 20.505 2.3547 30.709-1.6506 8.5874 3.7219 16.437 5.5224 24.572 0.8805 4.9415 4.3314 10.198 9.1615 7.1008 3.6124 3.334 0.54977 15.14-2.9451 7.3374-7.4024 6.0346 0.5476 14.145 2.9808 20.486 1.9938 6.8136-3.8056 13.786 1.7647 20.191 2.14 7.4315 7.464 13.551 9.1262 21.055-3.404 8.0844 1.3365 17.052 9.5662 19.732 14.463 7.5378 24.853 20.575 36.492 31.642 2.7511 8.0148 2.3606 20.316 12.231 23.138 7.6713 0.33836 15.3 0.48294 22.908 1.857 6.5236 1.1798 14.499-0.86381 14.431 7.6451 6.783 8.6159 19.151 8.9725 27.194 16.079 8.4918 5.4223 17.109 10.894 25.86 15.986 11.884 6.9633 26.071 5.9853 39.172 8.6029 6.4474 0.035 17.286 4.3871 20.925 1.5316 0.4607-10.276 13.248-8.9287 20.035-6.237 8.0252-0.19121 15.262 3.415 20.045 9.8096 5.8622 6.526 11.537 13.331 18.484 18.724 6.6742 8.4575 3.3045 21.86 12.874 28.567 5.8329 5.9277 16.913 13.913 24.488 6.6652 2.9115-6.4107 7.6235-12.857 15.566-12.208 15.011 3e-3 26.038 13.36 30.646 26.469 2.4313 8.092 6.9045 15.422 13.212 21.071 7.0217 9.6983 5.1394 25.015 16.728 31.432 9.2883 5.4934 19.798 9.2359 30.645 9.6691-1.1621-11.034-6.8323-22.765-1.0756-33.458 1.0996-7.5913 5.2609-14 12.569-16.805 5.2198-2.4745 3.0683-14.375 10.422-7.6454 0.26635 3.8507-2.1264 3.5536 2.2162 1.467 8.1679-4.3234 17.751-7.4424 23.163-15.457-0.9386-3.5559-0.29638-15.025 3.9814-7.5149 4.8987 6.0273 11.879-5.5898 19.097-3.794 9.4059-1.3474 18.765 1.0145 27.775 3.3742 5.6474 0.93503 8.5969-1.3255 4.6258-4.9225 9.5045-1.9084 13.153 9.6296 20.714 12.826 5.1918 1.5874 10.133-6.0154 15.404-0.70451 2.3572-5.7568 6.4091-8.0033 11.725-3.2078 3.0508 4.4125 13.485 1.9991 5.9775-2.3157-8.8663-0.88186-8.0036-8.7423-3.5614-13.873-3.064-1.1571-11.76 1.957-5.6403-4.1415 6.9566-8.0129 19.353-2.4748 26.934-8.5314 5.6376-7.5168 8.6759 10.692 16.556 2.376 9.5716-5.3125 22.167-3.8661 31.668 1.1998 6.1302 3.3358 10.515 11.725 17.639 4.6982 6.9327-5.8532 19.2-11.582 24.709-0.92634 5.3216 7.5884 16.589 9.8826 19.204 19.63 0.97645 6.3914-4.8378 17.375 2.3204 20.763 3.3501-10.513 2.7823 5.6763 2.5268 9.5161 3.7786 4.4878 7.3857 9.9339 11.335 14.076-3.3168-5.387 2.5912-6.0913 2.2113-0.0721 2.9551 7.0314 9.2916 11.634 15.611 15.369 5.84 4.1352 9.0104 16.824 17.848 9.597 6.4362-6.0863 8.6809-16.277 6.3387-24.737 0.73752-12.688-6.8586-23.664-13.614-33.703-4.603-21.563-25.686-35.741-27.841-58.228-2.44-17.569 6.1777-34.892 19.056-46.45 5.579-5.8156 12.709-10.608 13.235-19.188 3.3916-8.1444 10.865-13.709 18.511-17.59 3.7983-9.0272 11.17-16.434 20.596-19.398 4.2269-0.5737 9.9017-8.947 2.7475-6.4536-7.4335-4.1501-1.3229-9.4556 4.0957-9.9063 6.589-4.4694 2.5507-18.213-6.1896-13.634-10.25 2.6096 3.6459-2.4962 6.0646-4.941-1.7742-5.1097-3.3813-17.153-11.806-14.428-3.8646 3.4786-12.715-8.6966-4.0405-3.1014 7.2674 0.8145-6.968-5.8992 2.364-7.4089 0.17328-5.9321-14.694-8.1564-4.0956-6.7953 6.0375-7.294-9.4786-9.1762-14.519-11.275-5.2381-5.7594 8.0549 3.5733 11.733 2.3 4.4796-4.6367-6.1648-11.09-2.9522-17.729-1.3794-4.4626 5.7792-14.991 3.6616-4.8082-1.2259 6.5683 0.0789 16.618 7.5261 18.881 7.1773 3.2016 6.3423 12.132 3.7542 18.012 4.1568 8.3078 6.5537-7.1746 7.4278-11.042 0.0639-6.9243 5.2456-4.095 4.1284-11.566 0.29255-9.1601-11.237-17.744-11.9-23.662 4.6062 2.6971 12.764 11.923 15.868 2.6819 4.4226-8.8531 6.2451-19.262 2.6153-28.736-4.6846-8.9935 5.4428-15.311 11.391-20.119 6.4245-6.7071 19.362-3.1636 22.916-12.189 0.9032-3.9057 2.369-5.2186 4.4818-1.9734 3.2671-1.0347 8.6665-7.9509 7.9015-1.4707 5.5861-1.02 16.89-12.606 6.6923-14.326 3.9709 9.5235-11.774 3.2833-12.844-2.6148 0.20332-8.1307-2.2987-16.235 0.54863-24.23 1.4178-7.4244 6.1352-14.669 13.699-16.835 4.5379-4.6477 1.3293-15.66 11.092-12.519 3.5731-5.7502 14.01-7.2461 16.22-16.483 2.9802-7.8206-9.7832-8.691-11.809-15.132-6.8831-5.2394-7.4888-14.169-9.2954-21.883-1.3164-7.7033-9.9062-15.597-16.884-8.6097-5.208 3.4499-10.018-3.6984-11.787 4.6874-4.8727 10.616-5.1799 22.532-5.1758 34.008-1.5705 8.5185-6.1577 15.751-14.022 19.292-11.7 10.353-28.818 6.7774-42.266 13.154-12.103 0.6984-16.757 13.41-22.84 21.901-2.9559 6.6259 5.5238 14.943-3.4761 20.355-7.354 7.5591-17.984 4.2037-27.142 4.8805-9.8016 1.2922-10.378 12.232-8.2721 19.759-4.2821 5.4443-10.603 8.8114-15.538 13.606-7.2365 5.2825-15.174 8.9026-21.208 15.509-7.3841 4.6038-16.73 7.5929-24.775 2.786-9.612-3.6061-1.0058-11.757 1.7251-17.286 3.9844-7.5577 7.649-17.325 2.5376-25.259 8e-3 -9.0171-9.9278-13.967-15.734-5.8684-6.0106 5.874-6.5217 0.17168-3.4326-4.8385 3.4949-8.7626 5.9936-21.212-2.9603-27.564-6.7126-3.243-18.301-11.302-23.391-1.8771 0.88764 5.0617-4.6448 8.8393-6.0607 14.374-3.0886-7.4149-8.7582 4.0894-10.084 8.5725-3.8433 11.18-2.7943 23.87 2.9366 34.197 4.394 11.46 0.4859 27.164-11.46 32.266-9.8649-1.9728-11.557-13.504-12.541-21.811-3.3478-15.366 0.0963-31.04 3.7235-46.016 4.3762-1.7381 4.118-15.225-0.43473-6.7243-1.3249 6.735-12.557 11.465-6.2568 1.7929 4.3757-5.6886 5.4132-13.72 11.389-18.109 8.4563 1.5459 12.552-10.173 22.463-8.3907 6.1579-1.4529 19.544 3.2085 20.745-3.7436-0.69351-6.7076-7.8262-10.117-13.047-7.7317-6.2752-6.623-14.187-4.221-20.839 0.0712-8.2192 4.3999-18.571 4.8503-25.104-2.5524-3.3973-4.2453-14.057 2.0951-8.2539-5.228 4.1374-1.6527 8.4322-10.499 0.68397-7.2528-6.8076 4.9774-12.328 11.7-20.119 15.444-7.2269 4.1048-16.951 8.2384-21.057-1.3925-3.6428 0.88528-10.421 9.1698-13.436 1.8846 5.1504-6.3427 10.998-12.939 18.117-17.312 3.7818-3.2511 13.786-6.3974 13.042-10.391-11.82-3.3359-24.979 2.5245-36.138-3.8654-8.361-8.0475-20.761-4.4317-31.048-5.7635-7.577-0.81156-6.6362-18.889-14.708-11.665-7.6971 8.1201-20.923 1.7735-30.942 3.0414-46.487-0.03489-92.918-3.6899-139.1-8.8094-77.132-8.968-153.71-23.79-228.24-45.646zm737.9 293.2c-0.40999 3.8952 9.3811 14.17 3.9638 5.9623-1.326-1.9842-2.7031-3.9351-3.9638-5.9623zm-744.6-288.7c-1.2404 2.8291 2.6229-0.35937 0 0zm-1.7988 0.19922c-0.69356 2.728 3.2504-0.63117 0 0zm2.9004 1.1016c-4.2038 4.2563 5.0836 2.388 0 0zm1.5 0.19922c-1.8696 4.1654 4.5442-0.28171 0 0zm-3.8008 0.69922c-4.2028 3.1345 4.4563 2.6544 0 0zm3.1992 2.2012c-3.9734 1.8955 2.7305 2.9014 0 0zm-1.0996 19.6c-2.6945 3.0835 3.3128 1.0021 0 0zm0.09961 4.9004c-4.3285 2.6801 2.9717 3.9555 0 0zm-5 4.2988c-2.9937 1.4349 1.692 1.878 0 0zm822.6 59.102c-4.7379 5.0523 6.6989 2.098 0 0zm3.7988 0.69922c-3.3471 4.2647 4.6816-0.5611 0 0zm-5.7988 1.9004c-5.5017 5.9107 7.2583 3.2277 0 0zm4.0996 0.69922c-3.3133 2.2513 3.374 2.2073 0 0zm-5.5 63.9c-7.8561 4.6159 6.4168 4.5111 0 0zm-9.0996 0.80078c-11.63 6.9656 8.8416 3.3762 0 0zm-14.201 9.6992c-3.5129 2.0904 3.649 2.1456 0 0zm-6.1992 0.59961c-2.1893-0.92151-0.70829 2.6137 0 0zm-3.9004 2.9004c-4.9081 7.8842-15.42 8.0296-22.478 12.833-4.373 5.8259 3.547 9.4654 6.7758 3.5676 5.831-2.0826 11.112-5.5158 15.881-10.016 7.2062-6.8394-7.5557 2.7342-2.2095-3.1158l1.1215-1.5747zm-27.5 19.4c-6.8251 0.59218 2.5686 6.5989 0 0zm-20.199 59.699c-3.2767 3.3857 4.4401 2.2552 0 0zm0.79883 4c-2.731 3.1523 3.0307 1.1219 0 0zm7.4004 16.6c-2.5876 1.4034 1.4215 2.9127 0 0zm7.5 27.4c-0.59489 5.4837 6.3148 0.65728 0 0zm4.1992 2.7012c6.7508 3.5646-2.4412 13.491-0.9366 14.627 4.9495-3.19 5.0822-10.726 0.9366-14.627zm-789.8 22.5c-0.99094 5.8729 11.333 0.79802 0 0zm-5.9004 0.0996c0.40892 6.7716 8.3023-1.5269 0 0zm27 18.5c-4.3614 4.5591 8.5692 5.3318 1.1263 0.70948zm-3.0996 10.199c-1.9679 4.4484 6.0114 4.4907 0 0zm521.2 104.4c6.957-1.4167 9.176 8.2637 1.2378 7.3017-4.9474 0.39774-4.7844-5.455-1.2378-7.3017zm-4.5 0.69922c4.124 3.9597-5.6298 1.8673 0 0zm-115 47c-10.618 5.6869-17.269 17.708-18.058 29.488 0.0475 3.9767 3.1753 15.44 3.5159 14.549-4.2794-12.469-3.4938-28.409 7.6595-37.125 2.3185-2.2796 4.6484-4.5492 6.8824-6.9126zm326.4 34.602c-0.98554 3.3168-6.986 16.494-1.4964 7.5159 1.149-2.308 1.8453-4.926 1.4964-7.5159zm-8.3008 15.699c-4.3426 0.12455-0.13308 5.0933 0 0zm-3.7988 2.9004c-3.9955-0.0755-3.201 4.472 0 0zm-8 1.9004c-5.4159-1.1367-6.9863 7.7821-0.88597 3.3114 1.2839-0.43515 2.7808-2.4906 0.88597-3.3114zm-15.5 5.6992c-3.8627 0.68382 2.3864 1.8831 0 0z"/>
</svg>
