<svg fill="url(#gradient)" stroke="url(#gradient)" stroke-width="0" version="1.1" viewBox="0 0 80 64" xmlns="http://www.w3.org/2000/svg">
  <rect x="8" width="7" height="7"/>
  <rect x="16" width="7" height="7"/>
  <rect x="24" width="7" height="7"/>
  <rect x="32" width="7" height="7"/>
  <rect x="40" width="7" height="7"/>
  <rect x="72" width="7" height="7"/>
  <rect y="8" width="15" height="23" stroke-width="0"/>
  <rect x="16" y="8" width="7" height="7"/>
  <rect x="24" y="8" width="7" height="7"/>
  <rect x="32" y="8" width="7" height="15" stroke-width="0"/>
  <rect x="48" y="8" width="7" height="7"/>
  <rect x="64" y="8" width="7" height="15" stroke-width="0"/>
  <rect x="72" y="8" width="7" height="7"/>
  <rect x="16" y="16" width="7" height="7"/>
  <rect x="24" y="16" width="7" height="7"/>
  <rect x="40" y="16" width="7" height="7"/>
  <rect x="48" y="16" width="7" height="7"/>
  <rect x="56" y="16" width="7" height="15" stroke-width="0"/>
  <rect x="8" y="24" width="7" height="15" stroke-width="0"/>
  <rect x="16" y="24" width="7" height="7"/>
  <rect x="24" y="24" width="7" height="7"/>
  <rect x="32" y="24" width="7" height="7"/>
  <rect x="40" y="24" width="7" height="7"/>
  <rect x="48" y="24" width="7" height="15" stroke-width="0"/>
  <rect x="16" y="32" width="7" height="7"/>
  <rect x="24" y="32" width="7" height="7"/>
  <rect x="32" y="32" width="7" height="15" stroke-width="0"/>
  <rect x="40" y="32" width="7" height="7"/>
  <rect x="56" y="32" width="15" height="7" stroke-width="0"/>
  <rect x="16" y="40" width="7" height="7"/>
  <rect x="24" y="40" width="7" height="7"/>
  <rect x="32" y="40" width="15" height="15" stroke-width="0"/>
  <rect x="48" y="40" width="7" height="7"/>
  <rect x="56" y="40" width="7" height="7"/>
  <rect x="56" y="48" width="15" height="7" stroke-width="0"/>
  <rect x="64" y="48" width="7" height="15" stroke-width="0"/>
    <defs>
    <linearGradient id="gradient" x1="0" y1="0" x2="0" y2="63" gradientUnits="userSpaceOnUse"> 
        <stop offset="0%" style="stop-color:rgb(235,218,0);stop-opacity:1"></stop>
        <stop offset="33%" style="stop-color:rgb(255,42,0);stop-opacity:1"></stop>
        <stop offset="67%" style="stop-color:rgb(255,5,251);stop-opacity:1"></stop>
        <stop offset="100%" style="stop-color:rgb(34,3,128);stop-opacity:1"></stop>
    </linearGradient>
    </defs>
</svg>
