<svg version="1.1" xmlns="http://www.w3.org/2000/svg" xmlns:xlink="http://www.w3.org/1999/xlink" viewBox="0 0 80 64" stroke-width="0" width="100%" height="100%" stroke="url(#gradient)" fill="url(#gradient)">
    <rect x="8" y="0" width="7" height="7"></rect>
    <rect x="16" y="0" width="7" height="7"></rect>
    <rect x="24" y="0" width="7" height="7"></rect>
    <rect x="32" y="0" width="7" height="7"></rect>
    <rect x="40" y="0" width="7" height="7"></rect>
    <rect x="72" y="0" width="7" height="7"></rect>
    
    <rect x="0" y="8" width="7" height="7"></rect>
    <rect x="8" y="8" width="7" height="7"></rect>
    <rect x="16" y="8" width="7" height="7"></rect>
    <rect x="24" y="8" width="7" height="7"></rect>
    <rect x="32" y="8" width="7" height="7"></rect>
    <rect x="48" y="8" width="7" height="7"></rect>
    <rect x="64" y="8" width="7" height="7"></rect>
    <rect x="72" y="8" width="7" height="7"></rect>
    
    <rect x="0" y="16" width="7" height="7"></rect>
    <rect x="8" y="16" width="7" height="7"></rect>
    <rect x="16" y="16" width="7" height="7"></rect>
    <rect x="24" y="16" width="7" height="7"></rect>
    <rect x="32" y="16" width="7" height="7"></rect>
    <rect x="40" y="16" width="7" height="7"></rect>
    <rect x="48" y="16" width="7" height="7"></rect>
    <rect x="56" y="16" width="7" height="7"></rect>
    <rect x="64" y="16" width="7" height="7"></rect>
    
    <rect x="0" y="24" width="7" height="7"></rect>
    <rect x="8" y="24" width="7" height="7"></rect>
    <rect x="16" y="24" width="7" height="7"></rect>
    <rect x="24" y="24" width="7" height="7"></rect>
    <rect x="32" y="24" width="7" height="7"></rect>
    <rect x="40" y="24" width="7" height="7"></rect>
    <rect x="48" y="24" width="7" height="7"></rect>
    <rect x="56" y="24" width="7" height="7"></rect>
    
    <rect x="8" y="32" width="7" height="7"></rect>
    <rect x="16" y="32" width="7" height="7"></rect>
    <rect x="24" y="32" width="7" height="7"></rect>
    <rect x="32" y="32" width="7" height="7"></rect>
    <rect x="40" y="32" width="7" height="7"></rect>
    <rect x="48" y="32" width="7" height="7"></rect>
    <rect x="56" y="32" width="7" height="7"></rect>
    <rect x="64" y="32" width="7" height="7"></rect>
    
    <rect x="16" y="40" width="7" height="7"></rect>
    <rect x="24" y="40" width="7" height="7"></rect>
    <rect x="32" y="40" width="7" height="7"></rect>
    <rect x="40" y="40" width="7" height="7"></rect>
    <rect x="48" y="40" width="7" height="7"></rect>
    <rect x="56" y="40" width="7" height="7"></rect>
    
    <rect x="32" y="48" width="7" height="7"></rect>
    <rect x="40" y="48" width="7" height="7"></rect>
    <rect x="56" y="48" width="7" height="7"></rect>
    <rect x="64" y="48" width="7" height="7"></rect>
    
    <rect x="64" y="56" width="7" height="7"></rect>
    <defs>
        <linearGradient id="gradient" x1="0" y1="0" x2="0" y2="63" gradientUnits="userSpaceOnUse"> 
            <stop offset="0%" style="stop-color:rgb(235,218,0);stop-opacity:1"></stop>
            <stop offset="33%" style="stop-color:rgb(255,42,0);stop-opacity:1"></stop>
            <stop offset="67%" style="stop-color:rgb(255,5,251);stop-opacity:1"></stop>
            <stop offset="100%" style="stop-color:rgb(34,3,128);stop-opacity:1"></stop>
        </linearGradient>
    </defs>
</svg>