<?xml version="1.0" encoding="UTF-8" standalone="no"?>
<svg
   fill="#000000"
   stroke="#000000"
   stroke-width="0"
   version="1.1"
   viewBox="0 0 80 64"
   id="svg29"
   sodipodi:docname="usa-cartographic-senate-icon.svg"
   width="80"
   height="64"
   inkscape:version="1.3.2 (091e20e, 2023-11-25)"
   xmlns:inkscape="http://www.inkscape.org/namespaces/inkscape"
   xmlns:sodipodi="http://sodipodi.sourceforge.net/DTD/sodipodi-0.dtd"
   xmlns="http://www.w3.org/2000/svg"
   xmlns:svg="http://www.w3.org/2000/svg">
  <defs
     id="defs29" />
  <sodipodi:namedview
     id="namedview29"
     pagecolor="#ffffff"
     bordercolor="#000000"
     borderopacity="0.25"
     inkscape:showpageshadow="2"
     inkscape:pageopacity="0.0"
     inkscape:pagecheckerboard="0"
     inkscape:deskcolor="#d1d1d1"
     inkscape:zoom="4.9785447"
     inkscape:cx="45.997378"
     inkscape:cy="36.75773"
     inkscape:window-width="1512"
     inkscape:window-height="945"
     inkscape:window-x="0"
     inkscape:window-y="37"
     inkscape:window-maximized="0"
     inkscape:current-layer="svg29" />
  <g
     id="g29"
     transform="scale(0.90804598,1)">
    <rect
       x="8"
       width="15"
       height="7"
       id="rect1"
       y="0" />
    <rect
       x="24"
       width="7"
       height="15"
       id="rect2"
       y="0" />
    <rect
       x="32"
       width="15"
       height="7"
       id="rect3"
       y="0" />
    <rect
       x="80"
       width="7"
       height="15"
       id="rect4"
       y="0" />
    <rect
       y="8"
       width="15"
       height="7"
       id="rect5"
       x="0" />
    <rect
       x="16"
       y="8"
       width="7"
       height="15"
       id="rect6" />
    <rect
       x="32"
       y="8"
       width="7"
       height="15"
       id="rect7" />
    <rect
       x="56"
       y="8"
       width="7"
       height="15"
       id="rect8" />
    <rect
       x="72"
       y="8"
       width="7"
       height="15"
       id="rect9" />
    <rect
       y="16"
       width="7"
       height="15"
       id="rect10"
       x="0" />
    <rect
       x="8"
       y="16"
       width="7"
       height="15"
       id="rect11" />
    <rect
       x="24"
       y="16"
       width="7"
       height="15"
       id="rect12" />
    <rect
       x="32"
       y="16"
       width="7"
       height="7"
       id="rect13" />
    <rect
       x="48"
       y="16"
       width="7"
       height="15"
       id="rect14" />
    <rect
       x="40"
       y="16"
       width="7"
       height="15"
       id="rect15" />
    <rect
       x="64"
       y="16"
       width="7"
       height="15"
       id="rect16" />
    <rect
       x="16"
       y="24"
       width="7"
       height="15"
       id="rect17" />
    <rect
       x="32"
       y="24"
       width="7"
       height="15"
       id="rect18" />
    <rect
       x="56"
       y="24"
       width="7"
       height="15"
       id="rect19" />
    <rect
       y="32"
       width="15"
       height="7"
       id="rect20"
       x="0" />
    <rect
       x="24"
       y="32"
       width="7"
       height="15"
       id="rect21" />
    <rect
       x="40"
       y="32"
       width="15"
       height="7"
       id="rect22" />
    <rect
       x="64"
       y="32"
       width="15"
       height="7"
       id="rect23" />
    <rect
       x="8"
       y="40"
       width="15"
       height="7"
       id="rect24" />
    <rect
       x="32"
       y="40"
       width="15"
       height="7"
       id="rect25" />
    <rect
       x="48"
       y="40"
       width="15"
       height="7"
       id="rect26" />
    <rect
       x="64"
       y="40"
       width="7"
       height="15"
       id="rect27" />
    <rect
       x="32"
       y="48"
       width="15"
       height="7"
       id="rect28" />
    <rect
       x="72"
       y="48"
       width="7"
       height="15"
       id="rect29" />
  </g>
</svg>
