<svg fill="#000000" stroke="#000000" stroke-width="0" version="1.1" viewBox="0 0 87 64" xmlns="http://www.w3.org/2000/svg">
  <rect x="8" width="15" height="7"/>
  <rect x="24" width="7" height="15"/>
  <rect x="32" width="15" height="7"/>
  <rect x="80" width="7" height="15"/>
  <rect y="8" width="15" height="7"/>
  <rect x="16" y="8" width="7" height="15"/>
  <rect x="32" y="8" width="7" height="15"/>
  <rect x="56" y="8" width="7" height="15"/>
  <rect x="72" y="8" width="7" height="15"/>
  <rect y="16" width="7" height="15"/>
  <rect x="8" y="16" width="7" height="15"/>
  <rect x="24" y="16" width="7" height="15"/>
  <rect x="32" y="16" width="7" height="7"/>
  <rect x="48" y="16" width="7" height="15"/>
  <rect x="40" y="16" width="7" height="15"/>
  <rect x="64" y="16" width="7" height="15"/>
  <rect x="16" y="24" width="7" height="15"/>
  <rect x="32" y="24" width="7" height="15"/>
  <rect x="56" y="24" width="7" height="15"/>
  <rect y="32" width="15" height="7"/>
  <rect x="24" y="32" width="7" height="15"/>
  <rect x="40" y="32" width="15" height="7"/>
  <rect x="64" y="32" width="15" height="7"/>
  <rect x="8" y="40" width="15" height="7"/>
  <rect x="32" y="40" width="15" height="7"/>
  <rect x="48" y="40" width="15" height="7"/>
  <rect x="64" y="40" width="7" height="15"/>
  <rect x="32" y="48" width="15" height="7"/>
  <rect x="72" y="48" width="7" height="15"/>
</svg>
