<svg xmlns="http://www.w3.org/2000/svg" xmlns:xlink="http://www.w3.org/1999/xlink" fill="#FFF" viewBox="0 0 100 100"><g><g><path d="M0,0L100,0L100,100L0,100Z"/></g></g><g transform="rotate(0,50,3.8450000286102295)"><g><path d="M0,0L100,0L100,7.69L0,7.69Z" fill="rgb(191,10,48)"/></g></g><g transform="rotate(0,50,19.22499990463257)"><g><path d="M0,15.38L100,15.38L100,23.07L0,23.07Z" fill="rgb(191,10,48)"/></g></g><g transform="rotate(0,50,34.614999771118164)"><g><path d="M0,30.77L100,30.77L100,38.46L0,38.46Z" fill="rgb(191,10,48)"/></g></g><g transform="rotate(0,50,49.9950008392334)"><g><path d="M0,46.15L100,46.15L100,53.839999999999996L0,53.839999999999996Z" fill="rgb(191,10,48)"/></g></g><g transform="rotate(0,50,65.38500213623047)"><g><path d="M0,61.54L100,61.54L100,69.23L0,69.23Z" fill="rgb(191,10,48)"/></g></g><g transform="rotate(0,50,80.76499938964844)"><g><path d="M0,76.92L100,76.92L100,84.61L0,84.61Z" fill="rgb(191,10,48)"/></g></g><g transform="rotate(0,50,96.15499877929688)"><g><path d="M0,92.31L100,92.31L100,100L0,100Z" fill="rgb(191,10,48)"/></g></g><g transform="rotate(0,30,26.924999237060547)"><g><path d="M0,0L60,0L60,53.85L0,53.85Z" fill="rgb(0,40,104)"/></g></g><g transform="rotate(0,3.3300000727176666,5.0849997997283936)"><g><path d="M3.3300000000000005,5.380000000000002L3.33,2.30L4.51,3.76L6.26,4.43L5.23,6.00L5.14,7.87L3.33,7.38L1.52,7.87L1.43,6.00L0.40,4.43L2.15,3.76L3.33,2.30L4.51,3.76"/></g></g><g transform="rotate(0,14,5.0849997997283936)"><g><path d="M14.000711556398151,5.380000000000002L14.00,2.30L15.18,3.76L16.93,4.43L15.90,6.00L15.81,7.87L14.00,7.38L12.19,7.87L12.10,6.00L11.07,4.43L12.83,3.76L14.00,2.30L15.18,3.76"/></g></g><g transform="rotate(0,24.670000076293945,5.0849997997283936)"><g><path d="M24.67071155639815,5.380000000000002L24.67,2.30L25.85,3.76L27.60,4.43L26.57,6.00L26.48,7.87L24.67,7.38L22.86,7.87L22.77,6.00L21.74,4.43L23.50,3.76L24.67,2.30L25.85,3.76"/></g></g><g transform="rotate(0,35.329999923706055,5.0849997997283936)"><g><path d="M35.33071155639815,5.380000000000002L35.33,2.30L36.51,3.76L38.26,4.43L37.23,6.00L37.14,7.87L35.33,7.38L33.52,7.87L33.43,6.00L32.40,4.43L34.16,3.76L35.33,2.30L36.51,3.76"/></g></g><g transform="rotate(0,46,5.0849997997283936)"><g><path d="M46.00071155639815,5.380000000000002L46.00,2.30L47.18,3.76L48.93,4.43L47.90,6.00L47.81,7.87L46.00,7.38L44.19,7.87L44.10,6.00L43.07,4.43L44.83,3.76L46.00,2.30L47.18,3.76"/></g></g><g transform="rotate(0,56.670000076293945,5.0849997997283936)"><g><path d="M56.67071155639815,5.380000000000002L56.67,2.30L57.85,3.76L59.60,4.43L58.57,6.00L58.48,7.87L56.67,7.38L54.86,7.87L54.77,6.00L53.74,4.43L55.50,3.76L56.67,2.30L57.85,3.76"/></g></g><g transform="rotate(0,8.670000076293945,10.475000143051147)"><g><path d="M8.67071155639815,10.77L8.67,7.69L9.85,9.15L11.60,9.82L10.57,11.39L10.48,13.26L8.67,12.77L6.86,13.26L6.77,11.39L5.74,9.82L7.50,9.15L8.67,7.69L9.85,9.15"/></g></g><g transform="rotate(0,19.329999923706055,10.475000143051147)"><g><path d="M19.33071155639815,10.77L19.33,7.69L20.51,9.15L22.26,9.82L21.23,11.39L21.14,13.26L19.33,12.77L17.52,13.26L17.43,11.39L16.40,9.82L18.16,9.15L19.33,7.69L20.51,9.15"/></g></g><g transform="rotate(0,30,10.475000143051147)"><g><path d="M30.00071155639815,10.77L30.00,7.69L31.18,9.15L32.93,9.82L31.90,11.39L31.81,13.26L30.00,12.77L28.19,13.26L28.10,11.39L27.07,9.82L28.83,9.15L30.00,7.69L31.18,9.15"/></g></g><g transform="rotate(0,40.670000076293945,10.475000143051147)"><g><path d="M40.67071155639815,10.77L40.67,7.69L41.85,9.15L43.60,9.82L42.57,11.39L42.48,13.26L40.67,12.77L38.86,13.26L38.77,11.39L37.74,9.82L39.50,9.15L40.67,7.69L41.85,9.15"/></g></g><g transform="rotate(0,51.329999923706055,10.475000143051147)"><g><path d="M51.33071155639815,10.77L51.33,7.69L52.51,9.15L54.26,9.82L53.23,11.39L53.14,13.26L51.33,12.77L49.52,13.26L49.43,11.39L48.40,9.82L50.16,9.15L51.33,7.69L52.51,9.15"/></g></g><g transform="rotate(0,3.3300000727176666,15.854999542236328)"><g><path d="M3.3300000000000005,16.15L3.33,13.07L4.51,14.53L6.26,15.20L5.23,16.77L5.14,18.64L3.33,18.15L1.52,18.64L1.43,16.77L0.40,15.20L2.15,14.53L3.33,13.07L4.51,14.53"/></g></g><g transform="rotate(0,14,15.854999542236328)"><g><path d="M14.000711556398151,16.15L14.00,13.07L15.18,14.53L16.93,15.20L15.90,16.77L15.81,18.64L14.00,18.15L12.19,18.64L12.10,16.77L11.07,15.20L12.83,14.53L14.00,13.07L15.18,14.53"/></g></g><g transform="rotate(0,24.670000076293945,15.854999542236328)"><g><path d="M24.67071155639815,16.15L24.67,13.07L25.85,14.53L27.60,15.20L26.57,16.77L26.48,18.64L24.67,18.15L22.86,18.64L22.77,16.77L21.74,15.20L23.50,14.53L24.67,13.07L25.85,14.53"/></g></g><g transform="rotate(0,35.329999923706055,15.854999542236328)"><g><path d="M35.33071155639815,16.15L35.33,13.07L36.51,14.53L38.26,15.20L37.23,16.77L37.14,18.64L35.33,18.15L33.52,18.64L33.43,16.77L32.40,15.20L34.16,14.53L35.33,13.07L36.51,14.53"/></g></g><g transform="rotate(0,46,15.854999542236328)"><g><path d="M46.00071155639815,16.15L46.00,13.07L47.18,14.53L48.93,15.20L47.90,16.77L47.81,18.64L46.00,18.15L44.19,18.64L44.10,16.77L43.07,15.20L44.83,14.53L46.00,13.07L47.18,14.53"/></g></g><g transform="rotate(0,56.670000076293945,15.854999542236328)"><g><path d="M56.67071155639815,16.15L56.67,13.07L57.85,14.53L59.60,15.20L58.57,16.77L58.48,18.64L56.67,18.15L54.86,18.64L54.77,16.77L53.74,15.20L55.50,14.53L56.67,13.07L57.85,14.53"/></g></g><g transform="rotate(0,8.670000076293945,21.244999885559082)"><g><path d="M8.67071155639815,21.54L8.67,18.46L9.85,19.92L11.60,20.59L10.57,22.16L10.48,24.03L8.67,23.54L6.86,24.03L6.77,22.16L5.74,20.59L7.50,19.92L8.67,18.46L9.85,19.92"/></g></g><g transform="rotate(0,19.329999923706055,21.244999885559082)"><g><path d="M19.33071155639815,21.54L19.33,18.46L20.51,19.92L22.26,20.59L21.23,22.16L21.14,24.03L19.33,23.54L17.52,24.03L17.43,22.16L16.40,20.59L18.16,19.92L19.33,18.46L20.51,19.92"/></g></g><g transform="rotate(0,30,21.244999885559082)"><g><path d="M30.00071155639815,21.54L30.00,18.46L31.18,19.92L32.93,20.59L31.90,22.16L31.81,24.03L30.00,23.54L28.19,24.03L28.10,22.16L27.07,20.59L28.83,19.92L30.00,18.46L31.18,19.92"/></g></g><g transform="rotate(0,40.670000076293945,21.244999885559082)"><g><path d="M40.67071155639815,21.54L40.67,18.46L41.85,19.92L43.60,20.59L42.57,22.16L42.48,24.03L40.67,23.54L38.86,24.03L38.77,22.16L37.74,20.59L39.50,19.92L40.67,18.46L41.85,19.92"/></g></g><g transform="rotate(0,51.329999923706055,21.244999885559082)"><g><path d="M51.33071155639815,21.54L51.33,18.46L52.51,19.92L54.26,20.59L53.23,22.16L53.14,24.03L51.33,23.54L49.52,24.03L49.43,22.16L48.40,20.59L50.16,19.92L51.33,18.46L52.51,19.92"/></g></g><g transform="rotate(0,3.3300000727176666,26.625)"><g><path d="M3.3300000000000005,26.92L3.33,23.84L4.51,25.30L6.26,25.97L5.23,27.54L5.14,29.41L3.33,28.92L1.52,29.41L1.43,27.54L0.40,25.97L2.15,25.30L3.33,23.84L4.51,25.30"/></g></g><g transform="rotate(0,14,26.625)"><g><path d="M14.000711556398151,26.92L14.00,23.84L15.18,25.30L16.93,25.97L15.90,27.54L15.81,29.41L14.00,28.92L12.19,29.41L12.10,27.54L11.07,25.97L12.83,25.30L14.00,23.84L15.18,25.30"/></g></g><g transform="rotate(0,24.670000076293945,26.625)"><g><path d="M24.67071155639815,26.92L24.67,23.84L25.85,25.30L27.60,25.97L26.57,27.54L26.48,29.41L24.67,28.92L22.86,29.41L22.77,27.54L21.74,25.97L23.50,25.30L24.67,23.84L25.85,25.30"/></g></g><g transform="rotate(0,35.329999923706055,26.625)"><g><path d="M35.33071155639815,26.92L35.33,23.84L36.51,25.30L38.26,25.97L37.23,27.54L37.14,29.41L35.33,28.92L33.52,29.41L33.43,27.54L32.40,25.97L34.16,25.30L35.33,23.84L36.51,25.30"/></g></g><g transform="rotate(0,46,26.625)"><g><path d="M46.00071155639815,26.92L46.00,23.84L47.18,25.30L48.93,25.97L47.90,27.54L47.81,29.41L46.00,28.92L44.19,29.41L44.10,27.54L43.07,25.97L44.83,25.30L46.00,23.84L47.18,25.30"/></g></g><g transform="rotate(0,56.670000076293945,26.625)"><g><path d="M56.67071155639815,26.92L56.67,23.84L57.85,25.30L59.60,25.97L58.57,27.54L58.48,29.41L56.67,28.92L54.86,29.41L54.77,27.54L53.74,25.97L55.50,25.30L56.67,23.84L57.85,25.30"/></g></g><g transform="rotate(0,8.670000076293945,32.01499938964844)"><g><path d="M8.67071155639815,32.31L8.67,29.23L9.85,30.69L11.60,31.36L10.57,32.93L10.48,34.80L8.67,34.31L6.86,34.80L6.77,32.93L5.74,31.36L7.50,30.69L8.67,29.23L9.85,30.69"/></g></g><g transform="rotate(0,19.329999923706055,32.01499938964844)"><g><path d="M19.33071155639815,32.31L19.33,29.23L20.51,30.69L22.26,31.36L21.23,32.93L21.14,34.80L19.33,34.31L17.52,34.80L17.43,32.93L16.40,31.36L18.16,30.69L19.33,29.23L20.51,30.69"/></g></g><g transform="rotate(0,30,32.01499938964844)"><g><path d="M30.00071155639815,32.31L30.00,29.23L31.18,30.69L32.93,31.36L31.90,32.93L31.81,34.80L30.00,34.31L28.19,34.80L28.10,32.93L27.07,31.36L28.83,30.69L30.00,29.23L31.18,30.69"/></g></g><g transform="rotate(0,40.670000076293945,32.01499938964844)"><g><path d="M40.67071155639815,32.31L40.67,29.23L41.85,30.69L43.60,31.36L42.57,32.93L42.48,34.80L40.67,34.31L38.86,34.80L38.77,32.93L37.74,31.36L39.50,30.69L40.67,29.23L41.85,30.69"/></g></g><g transform="rotate(0,51.329999923706055,32.01499938964844)"><g><path d="M51.33071155639815,32.31L51.33,29.23L52.51,30.69L54.26,31.36L53.23,32.93L53.14,34.80L51.33,34.31L49.52,34.80L49.43,32.93L48.40,31.36L50.16,30.69L51.33,29.23L52.51,30.69"/></g></g><g transform="rotate(0,3.3300000727176666,37.39500045776367)"><g><path d="M3.33,37.69L3.33,34.61L4.51,36.07L6.26,36.74L5.23,38.31L5.14,40.18L3.33,39.69L1.52,40.18L1.43,38.31L0.40,36.74L2.15,36.07L3.33,34.61L4.51,36.07"/></g></g><g transform="rotate(0,14,37.39500045776367)"><g><path d="M14.000711556398151,37.69L14.00,34.61L15.18,36.07L16.93,36.74L15.90,38.31L15.81,40.18L14.00,39.69L12.19,40.18L12.10,38.31L11.07,36.74L12.83,36.07L14.00,34.61L15.18,36.07"/></g></g><g transform="rotate(0,24.670000076293945,37.39500045776367)"><g><path d="M24.670711556398146,37.69L24.67,34.61L25.85,36.07L27.60,36.74L26.57,38.31L26.48,40.18L24.67,39.69L22.86,40.18L22.77,38.31L21.74,36.74L23.50,36.07L24.67,34.61L25.85,36.07"/></g></g><g transform="rotate(0,35.329999923706055,37.39500045776367)"><g><path d="M35.33071155639815,37.69L35.33,34.61L36.51,36.07L38.26,36.74L37.23,38.31L37.14,40.18L35.33,39.69L33.52,40.18L33.43,38.31L32.40,36.74L34.16,36.07L35.33,34.61L36.51,36.07"/></g></g><g transform="rotate(0,46,37.39500045776367)"><g><path d="M46.00071155639815,37.69L46.00,34.61L47.18,36.07L48.93,36.74L47.90,38.31L47.81,40.18L46.00,39.69L44.19,40.18L44.10,38.31L43.07,36.74L44.83,36.07L46.00,34.61L47.18,36.07"/></g></g><g transform="rotate(0,56.670000076293945,37.39500045776367)"><g><path d="M56.67071155639815,37.69L56.67,34.61L57.85,36.07L59.60,36.74L58.57,38.31L58.48,40.18L56.67,39.69L54.86,40.18L54.77,38.31L53.74,36.74L55.50,36.07L56.67,34.61L57.85,36.07"/></g></g><g transform="rotate(0,8.670000076293945,42.78499984741211)"><g><path d="M8.67071155639815,43.08L8.67,40.00L9.85,41.46L11.60,42.13L10.57,43.70L10.48,45.57L8.67,45.08L6.86,45.57L6.77,43.70L5.74,42.13L7.50,41.46L8.67,40.00L9.85,41.46"/></g></g><g transform="rotate(0,19.329999923706055,42.78499984741211)"><g><path d="M19.33071155639815,43.08L19.33,40.00L20.51,41.46L22.26,42.13L21.23,43.70L21.14,45.57L19.33,45.08L17.52,45.57L17.43,43.70L16.40,42.13L18.16,41.46L19.33,40.00L20.51,41.46"/></g></g><g transform="rotate(0,30,42.78499984741211)"><g><path d="M30.000711556398144,43.08L30.00,40.00L31.18,41.46L32.93,42.13L31.90,43.70L31.81,45.57L30.00,45.08L28.19,45.57L28.10,43.70L27.07,42.13L28.83,41.46L30.00,40.00L31.18,41.46"/></g></g><g transform="rotate(0,40.670000076293945,42.78499984741211)"><g><path d="M40.67071155639815,43.08L40.67,40.00L41.85,41.46L43.60,42.13L42.57,43.70L42.48,45.57L40.67,45.08L38.86,45.57L38.77,43.70L37.74,42.13L39.50,41.46L40.67,40.00L41.85,41.46"/></g></g><g transform="rotate(0,51.329999923706055,42.78499984741211)"><g><path d="M51.33071155639815,43.08L51.33,40.00L52.51,41.46L54.26,42.13L53.23,43.70L53.14,45.57L51.33,45.08L49.52,45.57L49.43,43.70L48.40,42.13L50.16,41.46L51.33,40.00L52.51,41.46"/></g></g><g transform="rotate(0,3.3300000727176666,48.165000915527344)"><g><path d="M3.3300000000000005,48.46L3.33,45.38L4.51,46.84L6.26,47.51L5.23,49.08L5.14,50.95L3.33,50.46L1.52,50.95L1.43,49.08L0.40,47.51L2.15,46.84L3.33,45.38L4.51,46.84"/></g></g><g transform="rotate(0,14,48.165000915527344)"><g><path d="M14.000711556398151,48.46L14.00,45.38L15.18,46.84L16.93,47.51L15.90,49.08L15.81,50.95L14.00,50.46L12.19,50.95L12.10,49.08L11.07,47.51L12.83,46.84L14.00,45.38L15.18,46.84"/></g></g><g transform="rotate(0,24.670000076293945,48.165000915527344)"><g><path d="M24.670711556398146,48.46L24.67,45.38L25.85,46.84L27.60,47.51L26.57,49.08L26.48,50.95L24.67,50.46L22.86,50.95L22.77,49.08L21.74,47.51L23.50,46.84L24.67,45.38L25.85,46.84"/></g></g><g transform="rotate(0,35.329999923706055,48.165000915527344)"><g><path d="M35.33071155639815,48.46L35.33,45.38L36.51,46.84L38.26,47.51L37.23,49.08L37.14,50.95L35.33,50.46L33.52,50.95L33.43,49.08L32.40,47.51L34.16,46.84L35.33,45.38L36.51,46.84"/></g></g><g transform="rotate(0,46,48.165000915527344)"><g><path d="M46.00071155639815,48.46L46.00,45.38L47.18,46.84L48.93,47.51L47.90,49.08L47.81,50.95L46.00,50.46L44.19,50.95L44.10,49.08L43.07,47.51L44.83,46.84L46.00,45.38L47.18,46.84"/></g></g><g transform="rotate(0,56.670000076293945,48.165000915527344)"><g><path d="M56.67071155639815,48.46L56.67,45.38L57.85,46.84L59.60,47.51L58.57,49.08L58.48,50.95L56.67,50.46L54.86,50.95L54.77,49.08L53.74,47.51L55.50,46.84L56.67,45.38L57.85,46.84"/></g></g></svg>