<svg version="1.1" viewBox="0 0 100 100" xmlns="http://www.w3.org/2000/svg">
 <path d="m0 0h100v100h-100z" fill="#fff"/>
 <g transform="matrix(.046183 0 0 .046183 70.159 48.184)">
  <g fill="#fedd00" stroke="#000" stroke-miterlimit="10" stroke-width="2px">
   <path d="m104.77-445.1h7.79a4.58 4.58 0 0 0 1.34 2.86 12 12 0 0 0 4.47 2.94c2.13 0.81 2.85 4.68 2 6.28s-11.95-1.19-15.57-1.19-14.72 2.79-15.61 1.21-0.16-5.47 2-6.28a12 12 0 0 0 4.47-2.94 4.58 4.58 0 0 0 1.34-2.88z"/>
   <polygon transform="translate(-236,-502)" points="39.37 313.67 58.61 291.17 17.16 272.99"/>
   <path d="m-168-183.81c-6.68 6.67-12.92 16.69-21.49 16.69s-13.64-8-13.64-15.53 16.8-33.55 31.89-33.55 16.41 17.73 15.68 21.65-12.44 10.74-12.44 10.74z"/>
  </g>
  <ellipse transform="rotate(-33.42)" cx="29.163" cy="79.153" rx="9.96" ry="6.58" fill="#c8102e" stroke="#000" stroke-miterlimit="10" stroke-width="2px"/>
  <path d="m247.73 165.83s3.92-3.07 11.55-3.59a5.63 5.63 0 0 1 5.29 2.34 5 5 0 0 1 4.78-1.53c3 0.61 6.3 3.56 6.3 11.29s-4.17 18.91-4.17 18.91l-19.48 21.66s-3.55 1.83-13.42 1.83-15.66-3.77-15.66-15c-0.04-14.04 24.81-35.91 24.81-35.91z" fill="#fedd00" stroke="#000" stroke-miterlimit="10" stroke-width="2px"/>
  <g fill="#c8102e" stroke="#000" stroke-miterlimit="10" stroke-width="2px">
   <ellipse transform="rotate(-70.25)" cx="-187.99" cy="322.73" rx="10.81" ry="7.14"/>
   <ellipse transform="rotate(-70.25)" cx="-188.84" cy="308.57" rx="10.81" ry="7.14"/>
   <ellipse transform="rotate(-87.27)" cx="-261.46" cy="230.13" rx="10.81" ry="7.14"/>
   <ellipse transform="rotate(-87.27)" cx="-251.2" cy="218.55" rx="10.81" ry="7.14"/>
   <ellipse transform="rotate(-87.27)" cx="-239.24" cy="208.43" rx="10.81" ry="7.14"/>
   <ellipse transform="rotate(-87.27)" cx="-229.51" cy="197.12" rx="10.81" ry="7.14"/>
   <ellipse transform="rotate(-87.27)" cx="-214.97" cy="187.74" rx="10.81" ry="7.14"/>
   <ellipse transform="rotate(-87.27)" cx="-204.07" cy="179.56" rx="10.81" ry="7.14"/>
   <ellipse transform="rotate(-87.27)" cx="-189.92" cy="169.6" rx="10.81" ry="7.14"/>
   <ellipse transform="rotate(-87.27)" cx="-174.8" cy="162.51" rx="10.81" ry="7.14"/>
   <ellipse transform="rotate(-87.27)" cx="-160.28" cy="153.27" rx="10.81" ry="7.14"/>
   <ellipse transform="rotate(-87.27)" cx="-143.35" cy="145.29" rx="10.81" ry="7.14"/>
   <ellipse transform="rotate(-87.27)" cx="-126.63" cy="137.33" rx="10.81" ry="7.14"/>
   <ellipse transform="rotate(-50.93)" cx="-207.86" cy="335.61" rx="7.14" ry="10.81"/>
   <ellipse transform="rotate(-50.93)" cx="-216.97" cy="325.37" rx="7.14" ry="10.81"/>
   <ellipse transform="rotate(-42.68)" cx="-179.02" cy="345.72" rx="7.14" ry="10.81"/>
   <ellipse transform="rotate(-22.48)" cx="-62.382" cy="377.78" rx="7.14" ry="10.81"/>
   <ellipse transform="rotate(-22.48)" cx="-73.979" cy="369.61" rx="7.14" ry="10.81"/>
  </g>
  <g stroke="#000" stroke-miterlimit="10" stroke-width="2px">
   <polygon transform="translate(-236,-502)" points="585.43 433.98 585.43 457.16 594.88 449.68 605.67 464.15 606.89 489.66 572.43 520.93 523.62 477.88 528.54 416.73 609.69 343.09 632.65 369.23 632.65 392.65 638.9 398.9 651.41 386.89 671.52 408.72 671.52 435.57 625.53 472 609.69 460.22 609.69 434.35 597.82 441.34" fill="#fedd00"/>
   <polyline transform="translate(-236,-502)" points="605.67 464.15 570.92 493.56 525.53 454.16" fill="none"/>
   <line x1="334.93" x2="336.43" y1="-8.44" y2="18.93" fill="none"/>
   <polygon transform="translate(-236,-502)" points="96.06 433.98 96.06 457.16 86.62 449.68 75.83 464.15 74.6 489.66 109.06 520.93 157.87 477.88 152.95 416.73 71.8 343.09 48.84 369.23 48.84 392.65 42.59 398.9 30.08 386.89 9.97 408.72 9.97 435.57 55.96 472 71.8 460.22 71.8 434.35 83.67 441.34" fill="#c1c6c8"/>
   <polyline transform="translate(-236,-502)" points="75.83 464.15 110.57 493.56 155.96 454.16" fill="none"/>
   <line x1="-125.43" x2="-126.94" y1="-8.44" y2="18.93" fill="none"/>
   <path d="m83.81-132.37s4.83 37-2.9 73.21-25.73 57.54-25.73 57.54l-38.93-33.59s10.94-2.45 20.59-31.79 4.16-74.38 4.16-74.38z" fill="#fff"/>
   <path d="m-173.86-190.31c-10.4 8.17-8.71 21-8.71 21s108.8 101.31 121.5 112.21 190.36 163.82 190.36 163.82l-11.29 10.89s18.6 11.8 33.35 26.32 32.42 31.78 43.33 39.09 26.52 18.1 44 5.33 15.74-32.47 6.07-42.75-18.75-19.98-35.14-35.6-30.37-31.37-33.61-35.5a40 40 0 0 1-4.58-7s-7.25 10.83-10.94 10.71-7.59-2.68-15.63-9-189.29-169.33-202.65-181.21-97.61-85.36-97.61-85.36-6.95-1.98-18.45 7.05z" fill="#c1c6c8"/>
  </g>
  <g fill="#c8102e" stroke="#000" stroke-miterlimit="10" stroke-width="2px">
   <ellipse cx="129.43" cy="71.81" rx="6.58" ry="9.96"/>
   <ellipse transform="rotate(-83.71)" cx="-46.369" cy="144.09" rx="9.96" ry="6.58"/>
   <ellipse transform="rotate(-80.85)" cx="-25.214" cy="153.23" rx="9.96" ry="6.58"/>
   <ellipse transform="rotate(-68.63)" cx="16.012" cy="160.4" rx="9.96" ry="6.58"/>
   <ellipse transform="rotate(-80.85)" cx="-93.597" cy="116.21" rx="10.81" ry="7.14"/>
   <ellipse cx="-28.51" cy="290.55" rx="7.14" ry="10.81"/>
   <ellipse cx="-15.95" cy="285.18" rx="7.14" ry="10.81"/>
   <ellipse cx="-3.82" cy="275.2" rx="7.14" ry="10.81"/>
   <ellipse cx="7.15" cy="266.05" rx="7.14" ry="10.81"/>
   <ellipse cx="17.66" cy="254.07" rx="7.14" ry="10.81"/>
   <ellipse cx="27.47" cy="241.62" rx="7.14" ry="10.81"/>
   <ellipse cx="36.83" cy="227.54" rx="7.14" ry="10.81"/>
   <ellipse cx="45.34" cy="212.89" rx="7.14" ry="10.81"/>
   <ellipse transform="rotate(-6.43)" cx="31.343" cy="204.06" rx="7.14" ry="10.81"/>
   <ellipse transform="rotate(-6.43)" cx="40.871" cy="192.02" rx="7.14" ry="10.81"/>
   <ellipse transform="rotate(-16.08)" cx="19.116" cy="184.02" rx="7.14" ry="10.81"/>
   <ellipse transform="rotate(-16.08)" cx="30.656" cy="176.28" rx="7.14" ry="10.81"/>
   <ellipse transform="rotate(-37.94)" cx="-25.757" cy="168.25" rx="7.14" ry="10.81"/>
   <ellipse transform="rotate(-37.94)" cx="-14.014" cy="162.94" rx="7.14" ry="10.81"/>
   <ellipse transform="rotate(-64.92)" cx="-156.08" cy="374.2" rx="7.14" ry="10.81"/>
   <ellipse transform="rotate(-70.46)" cx="-308.02" cy="36.446" rx="10.81" ry="7.14"/>
   <ellipse transform="rotate(-42.68)" cx="-1.6065" cy="173.12" rx="10.81" ry="7.14"/>
   <ellipse transform="rotate(-42.68)" cx="-8.5212" cy="183.95" rx="10.81" ry="7.14"/>
   <ellipse transform="rotate(-42.68)" cx="-19.245" cy="193.61" rx="10.81" ry="7.14"/>
   <ellipse transform="rotate(-42.68)" cx="-28.524" cy="204.23" rx="10.81" ry="7.14"/>
   <ellipse transform="rotate(-42.68)" cx="-37.743" cy="214.23" rx="10.81" ry="7.14"/>
   <ellipse transform="rotate(-42.68)" cx="-47.256" cy="224.54" rx="10.81" ry="7.14"/>
   <ellipse transform="rotate(-42.68)" cx="-57.039" cy="234.59" rx="10.81" ry="7.14"/>
   <ellipse transform="rotate(-42.68)" cx="-211.78" cy="401.5" rx="10.81" ry="7.14"/>
   <ellipse transform="rotate(-42.68)" cx="-200.06" cy="388.78" rx="10.81" ry="7.14"/>
   <ellipse transform="rotate(-42.68)" cx="-189.05" cy="376.85" rx="10.81" ry="7.14"/>
   <ellipse transform="rotate(-42.68)" cx="-177.99" cy="364.86" rx="10.81" ry="7.14"/>
   <ellipse transform="rotate(-42.68)" cx="-167.21" cy="353.17" rx="10.81" ry="7.14"/>
   <ellipse transform="rotate(-42.68)" cx="-155.93" cy="340.94" rx="10.81" ry="7.14"/>
   <ellipse transform="rotate(-42.68)" cx="-145.36" cy="329.48" rx="10.81" ry="7.14"/>
   <ellipse transform="rotate(-42.68)" cx="-133.87" cy="317" rx="10.81" ry="7.14"/>
   <ellipse transform="rotate(-42.68)" cx="-121.57" cy="305.15" rx="10.81" ry="7.14"/>
   <ellipse transform="rotate(-42.68)" cx="-111.8" cy="293.09" rx="10.81" ry="7.14"/>
   <ellipse transform="rotate(-42.68)" cx="-99.73" cy="280.87" rx="10.81" ry="7.14"/>
   <ellipse transform="rotate(-42.68)" cx="-89.42" cy="268.81" rx="10.81" ry="7.14"/>
   <ellipse transform="rotate(-42.68)" cx="-78.069" cy="256.72" rx="10.81" ry="7.14"/>
   <ellipse transform="rotate(-42.68)" cx="-67.806" cy="244.96" rx="10.81" ry="7.14"/>
   <ellipse transform="rotate(-42.68)" cx="-1.4197" cy="159.68" rx="10.81" ry="7.14"/>
  </g>
  <line x1="104.77" x2="104.77" y1="-488.74" y2="-462.62" fill="none" stroke="#000" stroke-miterlimit="10" stroke-width="4px"/>
  <path d="m104.77-195.64 86.07 9.13 19-29.47-20.38-23.61 18.54-69.1s-16-14.31-25.12-32.45c-7-13.86-7.16-31.35-9.68-37.7-5.81-14.65-16.44-28.44-23.2-36.33s-23.93-20-45.23-20-38.49 12.11-45.24 20-17.39 21.68-23.2 36.33c-2.16 5.44-0.42 27.65-6.3 39.43-9.95 19.93-28.5 30.72-28.5 30.72l18.57 69.1-20.38 23.59 19 29.47z" fill="#fff" stroke="#000" stroke-miterlimit="10" stroke-width="3px"/>
  <g fill="#fedd00" stroke="#000" stroke-miterlimit="10" stroke-width="2px">
   <path d="m80-216.21c-1.14 7.82 9.51 10.69 12.14 11.42s7.17 0 7.17 0v-13.76s-5.27-9.22-8.49-8.93-9.82 4.25-10.82 11.27z"/>
   <path d="m129.51-216.21c1.14 7.82-9.51 10.69-12.14 11.42s-7.17 0-7.17 0v-13.76s5.27-9.22 8.49-8.93 9.8 4.25 10.82 11.27z"/>
   <path d="m104.77-243.17s13.69 3.86 13.69 11.43-9.2 9.3-13.69 9.3-13.7-1.74-13.7-9.3 13.7-11.43 13.7-11.43z"/>
   <path d="m86.28-283.63s-10.58-10.37-10.58-18.14 23.78-15 23.78-15v32.51z"/>
   <path d="m123.25-283.63s10.58-10.38 10.58-18.14-23.78-15-23.78-15v32.51z"/>
   <path d="m104.77-330.7a65.58 65.58 0 0 1 9.13 4.89 10.17 10.17 0 0 1 4.66 11.13c-0.57 2.16-13.79 8.64-13.79 8.64s-13.23-6.48-13.8-8.64a10.17 10.17 0 0 1 4.66-11.13 65.28 65.28 0 0 1 9.14-4.89z"/>
   <path d="m110.24-387s10.13 0.36 12.88-0.48 5.61-4.8 5.61-8.77-4.29-8.47-9.24-8.47-9.25 4.18-9.25 4.18z"/>
  </g>
  <path d="m-38.23 165.83s-3.93-3.07-11.56-3.59a5.63 5.63 0 0 0-5.29 2.34 5 5 0 0 0-4.78-1.53c-3 0.61-6.3 3.56-6.3 11.29s4.16 18.91 4.16 18.91l19.52 21.66s3.56 1.83 13.42 1.83 15.66-3.77 15.66-15c0.01-14.04-24.83-35.91-24.83-35.91z" fill="#c1c6c8" stroke="#000" stroke-miterlimit="10" stroke-width="2px"/>
  <path d="m-94.26 270.23a32.23 32.23 0 1 1-32.23 32.22" fill="none" stroke="#dd12ad" stroke-miterlimit="10"/>
  <path d="m-27.9 263.14a103.55 103.55 0 1 1-103.55-103.55 103.55 103.55 0 0 1 103.55 103.55zm-103.62-84.75c-6.48 0-16.48 3.61-16.48 3.61s2.2 1.51 10 7.44 6.58 10.5 6.58 10.5h0.07s-1.17-4.57 6.58-10.5 10-7.44 10-7.44-10.27-3.65-16.53-3.65zm-86.87 86.94c0 6.47 3.65 16.53 3.65 16.53s1.51-2.19 7.44-10 10.5-6.58 10.5-6.58v-0.07s-4.56 1.17-10.5-6.58-7.44-9.95-7.44-9.95-3.65 10.32-3.65 16.58zm87 86.84c6.47 0 16.54-3.65 16.54-3.65s-2.2-1.5-10-7.44-6.58-10.5-6.58-10.5h-0.06s1.17 4.57-6.59 10.5-10 7.44-10 7.44 10.28 3.65 16.54 3.65zm-37.28-81.91a32.23 32.23 0 1 0 32.22 32.22l9.93 0.17a32.23 32.23 0 1 0 32.22-32.22v-10.1a32.23 32.23 0 1 0-32.22-32.22h-9.93a32.23 32.23 0 1 0-32.22 32.22zm124.09-4.83c0-6.26-3.65-16.54-3.65-16.54s-1.5 2.2-7.44 10-10.5 6.58-10.5 6.58v0.06s4.57-1.17 10.5 6.59 7.44 9.95 7.44 9.95 3.65-10.07 3.65-16.54z" fill="#fedd00"/>
  <path d="m-131.45 367.69a104.55 104.55 0 1 1 104.55-104.55 104.67 104.67 0 0 1-104.55 104.55zm0-207.1a102.55 102.55 0 1 0 102.55 102.55 102.66 102.66 0 0 0-102.55-102.55zm0 192.58h-0.06c-6.36 0-16.45-3.56-16.87-3.71l-1.86-0.65 1.62-1.12s2.29-1.57 9.91-7.4c5-3.84 6.05-7 6.22-8.52a6.19 6.19 0 0 1 0-1l-0.26-1.2h2.53l-0.25 1.21a5.64 5.64 0 0 1 0 1c0.18 1.51 1.22 4.67 6.22 8.5 7.62 5.83 9.89 7.39 9.91 7.4l1.61 1.11-1.83 0.66c-0.44 0.16-10.29 3.72-16.86 3.72zm-14.43-5c3.21 1 9.91 3 14.37 3h0.06c4.6 0 11.21-1.95 14.37-3-1.45-1.07-4-3-8.39-6.32a20 20 0 0 1-6-6.73 20.15 20.15 0 0 1-6 6.73c-4.32 3.34-6.92 5.27-8.38 6.34zm51.55-12.31a33.28 33.28 0 0 1-33.21-32.25l-7.95-0.13a33.23 33.23 0 1 1-34.21-34.23v-7.95a33.23 33.23 0 1 1 34.21-34.21h8a33.22 33.22 0 1 1 34.2 34.21v8.12a33.23 33.23 0 0 1-1 66.44zm-43.12-34.39 11.93 0.2v1a31.23 31.23 0 1 0 31.22-31.22h-1v-12.1h1a31.23 31.23 0 1 0-31.22-31.22v1h-11.93v-1a31.23 31.23 0 1 0-31.22 31.22h1v11.93h-1a31.23 31.23 0 1 0 31.22 31.22zm89.5-17.27-1.1-1.6s-1.58-2.29-7.41-9.91c-3.84-5-7-6.05-8.52-6.22a6.19 6.19 0 0 1-1 0l-1.2 0.26v-2.52l1.22 0.25a5.26 5.26 0 0 1 1 0c1.51-0.18 4.68-1.21 8.51-6.22 5.83-7.62 7.39-9.89 7.41-9.91l1.11-1.62 0.65 1.85c0.16 0.43 3.71 10.51 3.71 16.87v0.06c0 6.57-3.56 16.46-3.71 16.88zm-13.65-18.74a20.15 20.15 0 0 1 6.73 6c3.32 4.34 5.25 6.94 6.32 8.4 1-3.17 3-9.77 3-14.38v-0.06c0-4.46-1.95-11.16-3-14.36-1.06 1.45-3 4-6.31 8.38a20 20 0 0 1-6.74 6.02zm-153.4 18.54-0.66-1.84c-0.15-0.41-3.71-10.3-3.71-16.87v-0.07c0-6.35 3.56-16.44 3.71-16.87l0.66-1.85 1.11 1.62s1.57 2.29 7.4 9.91c3.84 5 7 6 8.52 6.22a6.3 6.3 0 0 1 1 0l1.19-0.27v2.53l-1.22-0.21a6.45 6.45 0 0 1-1 0c-1.51 0.18-4.67 1.21-8.51 6.22-5.83 7.62-7.39 9.89-7.4 9.91zm0.61-33.14c-1 3.21-3 9.91-3 14.36v0.07c0 4.6 1.95 11.2 3 14.37 1.07-1.45 3-4.05 6.33-8.4a19.91 19.91 0 0 1 6.73-6 20.08 20.08 0 0 1-6.73-6c-3.35-4.26-5.28-6.9-6.35-8.36zm83-49.92h-1.29l0.25-1.21a6.45 6.45 0 0 1 0-1c-0.18-1.51-1.21-4.68-6.22-8.51-7.62-5.83-9.88-7.39-9.91-7.4l-1.6-1.11 1.83-0.66c0.42-0.15 10.31-3.71 16.87-3.71h0.07c6.36 0 16.44 3.56 16.87 3.71l1.85 0.66-1.62 1.11s-2.29 1.57-9.91 7.4c-5 3.84-6 7-6.22 8.52a6.19 6.19 0 0 1 0 1l0.27 1.2zm-14.5-18.58c1.46 1.07 4 3 8.4 6.33a20 20 0 0 1 6 6.73 19.91 19.91 0 0 1 6-6.73c4.34-3.32 6.93-5.25 8.39-6.32-3.21-1-9.9-3-14.36-3h-0.07c-4.59 0.02-11.19 1.97-14.36 2.99z"/>
  <g fill="#fedd00" stroke="#000" stroke-miterlimit="10" stroke-width="2px">
   <circle cx="-131.48" cy="235.62" r="11.4"/>
   <circle cx="-131.45" cy="294.98" r="11.4"/>
   <circle cx="-161.23" cy="265.49" r="11.4"/>
   <circle cx="-101.87" cy="265.46" r="11.4"/>
  </g>
  <g fill="#c1c6c8" stroke="#000" stroke-miterlimit="10" stroke-width="2px">
   <circle cx="-211.64" cy="179.12" r="14.1"/>
   <circle cx="-215.47" cy="343.33" r="14.1"/>
   <polygon transform="translate(-236,-502)" points="642.13 313.67 622.89 291.17 664.33 272.99"/>
  </g>
  <g fill="none" stroke="#000" stroke-miterlimit="10" stroke-width="2px">
   <polyline transform="translate(-236,-502)" points="632.65 392.65 620.91 380.92 632.65 369.23"/>
   <line x1="389.8" x2="389.53" y1="-54.15" y2="-30"/>
   <polyline transform="translate(-236,-502)" points="585.14 458.51 572.73 445.66 585.43 433.98 571.97 423.23 586.85 408.72 597.88 420.6 609.06 411.3 622.08 424.11 609.69 434.35 625.8 447.85 671.52 408.72"/>
   <line x1="361.88" x2="361.88" y1="-61.29" y2="-81.4"/>
   <line x1="373.06" x2="373.06" y1="-67.65" y2="-90.7"/>
   <line x1="350.85" x2="350.85" y1="-93.28" y2="-67.18"/>
  </g>
  <g stroke="#000" stroke-miterlimit="10" stroke-width="2px">
   <path d="m377.53-183.81c6.68 6.67 12.92 16.69 21.49 16.69s13.64-8 13.64-15.53-16.84-33.55-31.93-33.55-16.41 17.73-15.68 21.65 12.48 10.74 12.48 10.74z" fill="#c1c6c8"/>
   <path d="m125.68-132.37s-4.82 37 2.9 73.21 25.74 57.54 25.74 57.54l38.93-33.59s-10.94-2.45-20.6-31.79-4.18-74.38-4.18-74.38z" fill="#fff"/>
   <path d="m168.71-43.38s-6.15 1.5-9 2.25a60.15 60.15 0 0 0-6.46 2.25 72.35 72.35 0 0 1-8-15 106 106 0 0 1-4.2-14l-14 0.52-2.05-17.47h14.79v-17.11h15v15.16s7.06-0.6 9.16-0.9a28.54 28.54 0 0 0 4.27-1l3 16.56-15 1.73s3.31 11.86 6 15.91 6.49 11.1 6.49 11.1z" fill="#fedd00"/>
  </g>
  <path d="m303.76 270.23a32.23 32.23 0 1 0 32.24 32.22" fill="none" stroke="#dd12ad" stroke-miterlimit="10"/>
  <path class="vatican-cls-10" d="m340.94 159.59a103.55 103.55 0 1 1-103.54 103.55 103.55 103.55 0 0 1 103.54-103.55zm0 18.8c-6.26 0-16.53 3.65-16.53 3.65s2.2 1.51 10 7.44 6.58 10.5 6.58 10.5h0.01s-1.17-4.57 6.58-10.5 9.95-7.44 9.95-7.44-10.06-3.65-16.53-3.65zm86.94 86.87c0-6.26-3.65-16.53-3.65-16.53s-1.5 2.2-7.44 9.95-10.5 6.58-10.5 6.58v0.07s4.57-1.17 10.5 6.58 7.44 10 7.44 10 3.65-10.06 3.65-16.53zm-86.88 86.91c6.26 0 16.53-3.65 16.53-3.65s-2.2-1.5-10-7.44-6.58-10.5-6.58-10.5h-0.07s1.17 4.57-6.58 10.5-10 7.44-10 7.44 10.06 3.65 16.53 3.65zm37.18-91.84a32.23 32.23 0 1 0-32.22-32.22h-9.96a32.23 32.23 0 1 0-32.22 32.22v10.1a32.23 32.23 0 1 0 32.22 32.22l9.93-0.17a32.23 32.23 0 1 0 32.22-32.22zm-124.09 5.16c0 6.47 3.65 16.54 3.65 16.54s1.51-2.2 7.44-9.95 10.5-6.59 10.5-6.59v-0.06s-4.57 1.17-10.5-6.58-7.44-10-7.44-10-3.65 10.28-3.65 16.54z" fill="#c1c6c8"/>
  <path d="m340.94 367.69a104.55 104.55 0 1 1 104.55-104.55 104.67 104.67 0 0 1-104.55 104.55zm0-207.1a102.55 102.55 0 1 0 102.55 102.55 102.66 102.66 0 0 0-102.55-102.55zm0 192.58h-0.07c-6.57 0-16.46-3.56-16.88-3.71l-1.83-0.66 1.61-1.11s2.29-1.57 9.91-7.4c5-3.84 6-7 6.22-8.52a6.19 6.19 0 0 1 0-1l-0.27-1.2h2.53l-0.16 1.23a6.3 6.3 0 0 1 0 1c0.18 1.51 1.21 4.68 6.22 8.51 7.62 5.83 9.89 7.39 9.91 7.4l1.62 1.12-1.85 0.65c-0.48 0.13-10.57 3.69-16.9 3.69zm-14.44-5c3.16 1 9.77 3 14.37 3h0.13c4.45 0 11.15-2 14.36-3-1.46-1.07-4.05-3-8.39-6.31a20.15 20.15 0 0 1-6-6.73 20.1 20.1 0 0 1-6 6.73c-4.38 3.34-6.97 5.27-8.43 6.34zm-22.75-12.32a33.23 33.23 0 0 1-1-66.44v-8.12a33.23 33.23 0 1 1 34.25-34.18h8a33.23 33.23 0 1 1 34.21 34.21v7.95a33.23 33.23 0 1 1-34.21 34.23l-8 0.13a33.27 33.27 0 0 1-33.21 32.25zm0-64.45a31.23 31.23 0 1 0 31.25 31.25v-1l11.93-0.2v1a31.23 31.23 0 1 0 31.22-31.22h-1v-11.9h1a31.23 31.23 0 1 0-31.22-31.22v1h-11.93v-1a31.23 31.23 0 1 0-31.22 31.22h1v12.1zm-46.31 12.8-0.66-1.83c-0.15-0.42-3.71-10.31-3.71-16.88v-0.06c0-6.36 3.56-16.44 3.71-16.87l0.66-1.85 1.11 1.62s1.57 2.29 7.4 9.91c3.84 5 7 6 8.52 6.22a4.43 4.43 0 0 1 1 0l1.2-0.27v2.53l-1.22-0.25a6.3 6.3 0 0 1-1 0c-1.51 0.18-4.67 1.21-8.51 6.22-5.83 7.62-7.39 9.88-7.4 9.91zm0.61-33.13c-1 3.21-3 9.9-3 14.36v0.06c0 4.61 1.95 11.21 3 14.38 1.07-1.46 3-4.06 6.33-8.4a20 20 0 0 1 6.73-6 19.85 19.85 0 0 1-6.73-6c-3.33-4.35-5.26-6.95-6.33-8.4zm166.46 33-1.1-1.61s-1.58-2.29-7.41-9.91c-3.84-5-7-6-8.51-6.22a6.3 6.3 0 0 1-1 0l-1.2 0.27v-2.53l1.21 0.25a6.57 6.57 0 0 1 1 0c1.51-0.18 4.67-1.21 8.5-6.22 5.83-7.62 7.39-9.89 7.41-9.91l1.11-1.62 0.65 1.85c0.15 0.43 3.71 10.52 3.71 16.87v0.07c0 6.57-3.56 16.46-3.71 16.87zm-13.66-18.77a20 20 0 0 1 6.74 6c3.32 4.35 5.25 6.94 6.32 8.4 1-3.17 3-9.77 3-14.37v-0.07c0-4.46-2-11.15-3-14.36-1.06 1.46-3 4.05-6.31 8.39a20.18 20.18 0 0 1-6.75 6.01zm-69.85-64.3h-1.29l0.25-1.22a6.3 6.3 0 0 1 0-1c-0.18-1.51-1.21-4.67-6.22-8.51-7.62-5.83-9.89-7.39-9.91-7.4l-1.62-1.11 1.85-0.66c0.43-0.15 10.52-3.71 16.87-3.71h0.07c6.57 0 16.46 3.56 16.88 3.71l1.83 0.66-1.61 1.11s-2.29 1.57-9.91 7.4c-5 3.84-6 7-6.22 8.52a6.19 6.19 0 0 1 0 1l0.27 1.2zm-14.43-18.61c1.46 1.07 4 3 8.39 6.32a20 20 0 0 1 6 6.73 19.91 19.91 0 0 1 6-6.73c4.35-3.33 6.95-5.26 8.4-6.33-3.16-1-9.77-3-14.37-3h-0.07c-4.43 0.01-11.13 1.97-14.34 2.99z"/>
  <g fill="#c1c6c8" stroke="#000" stroke-miterlimit="10" stroke-width="2px">
   <circle cx="340.98" cy="235.62" r="11.4"/>
   <circle cx="340.94" cy="294.98" r="11.4"/>
   <circle cx="370.73" cy="265.49" r="11.4"/>
   <circle cx="311.37" cy="265.46" r="11.4"/>
  </g>
  <circle cx="421.13" cy="179.12" r="14.1" fill="#fedd00" stroke="#000" stroke-miterlimit="10" stroke-width="2px"/>
  <circle cx="424.96" cy="343.33" r="14.1" fill="#fedd00" stroke="#000" stroke-miterlimit="10" stroke-width="2px"/>
  <g fill="none" stroke="#000" stroke-miterlimit="10" stroke-width="2px">
   <polyline transform="translate(-236,-502)" points="48.84 392.65 60.58 380.92 48.84 369.23"/>
   <line x1="-180.31" x2="-180.04" y1="-54.15" y2="-30"/>
   <polyline transform="translate(-236,-502)" points="96.35 458.51 108.76 445.66 96.06 433.98 109.53 423.23 94.64 408.72 83.61 420.6 72.43 411.3 59.41 424.11 71.8 434.35 55.69 447.85 9.97 408.72"/>
   <line x1="-152.39" x2="-152.39" y1="-61.29" y2="-81.4"/>
   <line x1="-163.57" x2="-163.57" y1="-67.65" y2="-90.7"/>
   <line x1="-141.36" x2="-141.36" y1="-93.28" y2="-67.18"/>
  </g>
  <g stroke="#000" stroke-miterlimit="10" stroke-width="2px">
   <path d="m-106.5-154.6s-0.13 14.37 1.26 21.83 10 30.42 11 37.36 0.6 8.62 0.6 8.62l-23.7-21.92s-3.88-13.53-6.49-26-6-40.24-6-40.24z" fill="#fedd00"/>
   <path d="m383.36-190.31c10.39 8.17 8.7 21 8.7 21s-108.79 101.31-121.5 112.21-190.36 163.82-190.36 163.82l11.35 10.89s-18.61 11.8-33.36 26.32-32.42 31.78-43.33 39.07-26.52 18.1-44 5.33-15.74-32.47-6.07-42.75 18.67-20 35.09-35.61 30.36-31.37 33.6-35.5a40 40 0 0 0 4.58-7s7.25 10.83 10.94 10.71 7.59-2.68 15.63-9 189.3-169.3 202.67-181.18 97.61-85.36 97.61-85.36 6.95-1.98 18.45 7.05z" fill="#fedd00"/>
   <path d="m316-154.6s0.13 14.37-1.25 21.83-10 30.42-11 37.36-0.6 8.62-0.6 8.62l23.7-21.92s3.88-13.53 6.5-26 6-40.24 6-40.24z" fill="#c1c6c8"/>
   <path d="m301.91-142.3 37.41-3.88c21-2.17 29.93-1.93 29.93-1.93l-21.6 20.11s-20 0.14-30.66 0.68-33.79 1.44-33.79 1.44z" fill="#c1c6c8"/>
   <path d="m178.76 21.88s5.14 4.79 17.77 9.45 24.49 4.28 34.4 0 21.69-8 28.82-10.88 23.69-18.74 29.78-28.89c6.47-10.79 8.85-17.17 9.41-44.27 0.56-27.28-1.48-41.64-6.85-57.92s-3.15-6.8-9.83-23.09-10-23.5-14.62-31.43-9-21.56-8.1-32.36 5.46-21.91 5.46-21.91 11.1-1.06 19.74 2.82 17.44 9 21.67 12.15 7.75 6.17 7.75 6.17l25.16-37.88s-26-23.79-59.34-23.79-47.83 14.75-54 27.05-11.18 34.4-4.89 64.6 6.16 23.66 15.05 46 18.65 34.94 24.47 58.23 6.28 32.12 6.28 37.24a87.66 87.66 0 0 1-0.49 9.26s-13.56 17.52-32.56 17.52-21.62-6.84-21.62-6.84z" fill="#fff"/>
   <path d="m-92.42-142.3-37.41-3.88c-21-2.17-29.93-1.93-29.93-1.93l21.61 20.11s20 0.14 30.66 0.68 33.79 1.44 33.79 1.44z" fill="#fedd00"/>
   <path d="m30.73 21.88s-5.14 4.79-17.77 9.45-24.49 4.28-34.4 0-21.69-8-28.82-10.88-23.69-18.74-29.74-28.89c-6.47-10.79-8.85-17.17-9.41-44.27-0.59-27.29 1.41-41.64 6.81-57.92s3.15-6.8 9.84-23.09 10-23.5 14.61-31.43 9-21.56 8.1-32.36-5.46-21.91-5.46-21.91-11.1-1.06-19.73 2.82-17.45 9-21.68 12.15-7.75 6.17-7.75 6.17l-25.16-37.88s26-23.79 59.34-23.79 47.83 14.75 54 27.05 11.19 34.4 4.9 64.6-6.17 23.66-15.06 46-18.64 34.94-24.47 58.23-6.28 32.12-6.28 37.24a85.92 85.92 0 0 0 0.5 9.26s13.55 17.52 32.56 17.52 21.61-6.84 21.61-6.84z" fill="#fff"/>
   <path d="m222.35-162.44s-1.32-22.94 13.06-39.87c12.59-14.87 20.52-17.11 29.59-17.11" fill="none"/>
   <path d="m314.16-198.28s-8.65-7.15-13.35-9.88-9.67-5.37-9.67-5.37l24.1-38.05s9.72 5.09 11.77 6.41 12.31 9 12.31 9z" fill="#fedd00"/>
   <line x1="327.01" x2="300.81" y1="-245.17" y2="-208.16" fill="none"/>
   <path d="m218.22-194.16s4.7-19.59 16-28.82 13.71-9 19.42-10.4 15.55-1.9 15.55-1.9l-9.13 16.15s6-0.55 9.13-0.42 7.08 0.57 7.08 0.57l8.15-13.76 14.66 6.62 7.79-12.32-16.17-7.56 7.45-11.7s-7.19-1.8-9.86-1.8-7.11-0.47-7.11-0.47l-6.24 12.28s-17.77-1.27-29.09 4.23a50.91 50.91 0 0 0-23 23c-3.92 8.19-4.63 26.3-4.63 26.3z" fill="#fedd00"/>
   <path d="m195.47-46.24s7.82 0.39 17.17 9.41a48.69 48.69 0 0 1 12.32 19s9.71 3.4 12.21-2.27-5.84-20.87-13.52-29.05-19.36-11.68-22.7-9.18-5.48 12.09-5.48 12.09z" fill="#c1c6c8"/>
   <path d="m217.6-66.93s7.82 0.39 17.16 9.4a48.69 48.69 0 0 1 12.32 19s9.72 3.41 12.22-2.27-5.84-20.86-13.52-29-19.36-11.69-22.7-9.18-5.48 12.05-5.48 12.05z" fill="#c1c6c8"/>
   <path d="m226.75 32.87s21.41-6.78 30.68-21.52 9.38-34.09 9.38-34.09" fill="none"/>
   <path d="m44 74.94a32.82 32.82 0 0 1 0.94 14.13c-1.21 7.84-12.67 21.59-12.67 21.59s11.7 1.93 15.44 4.34 5.79 6.87-3.62 14.23-21 11.82-24.48 11.82-12.3-5.06-16.4-4.94-5.91 4.94 1 4.94 11.1 4.34 11.1 10.49-7.48 6.76-18.45 6.76-11.2-3.24-16.58 4.61-4.13 12.54 6.34 12.54 10.29-6.58 10.29-8.56c0-1.21-0.05-8.59-0.05-8.59" fill="none"/>
   <path d="m14-46.24s-7.82 0.39-17.17 9.41a48.73 48.73 0 0 0-12.31 19s-9.72 3.4-12.22-2.27 5.84-20.87 13.52-29.05 19.36-11.68 22.7-9.18 5.48 12.09 5.48 12.09z" fill="#fedd00"/>
   <path d="m-8.11-66.93s-7.81 0.39-17.16 9.4a48.69 48.69 0 0 0-12.32 19s-9.72 3.41-12.22-2.27 5.84-20.86 13.52-29 19.36-11.69 22.7-9.18 5.48 12.05 5.48 12.05z" fill="#fedd00"/>
   <path d="m165.46 74.94a32.82 32.82 0 0 0-0.94 14.13c1.21 7.84 12.67 21.59 12.67 21.59s-11.7 1.93-15.44 4.34-5.79 6.87 3.62 14.23 21 11.82 24.48 11.82 12.3-5.06 16.4-4.94 5.91 4.94-1 4.94-11.1 4.34-11.1 10.49 7.48 6.76 18.46 6.76 11.19-3.24 16.57 4.61 4.13 12.54-6.34 12.54-10.28-6.58-10.29-8.56c0-1.21 0.06-8.59 0.06-8.59" fill="none"/>
   <polyline transform="translate(-236,-502)" points="394.61 621.31 369.46 608.82 365.29 608.72" fill="none"/>
   <path d="m40.78-43.38s6.15 1.5 9 2.25a60.5 60.5 0 0 1 6.45 2.25 72.35 72.35 0 0 0 8-15 106 106 0 0 0 4.2-14l14.05 0.52 2.09-17.49h-14.81v-17.09h-15v15.16s-7.06-0.6-9.16-0.9a28.54 28.54 0 0 1-4.27-1l-3 16.56 15.05 1.73s-3.3 11.86-6 15.91-6.6 11.1-6.6 11.1z" fill="#fedd00"/>
   <circle cx="426.67" cy="-229.01" r="12.82" fill="#c1c6c8"/>
  </g>
  <circle cx="-217.18" cy="-229.01" r="12.82" fill="#fedd00"/>
  <path d="m-217.18-215.2a13.82 13.82 0 1 1 13.82-13.8 13.83 13.83 0 0 1-13.82 13.8zm0-25.63a11.82 11.82 0 1 0 11.82 11.83 11.83 11.83 0 0 0-11.82-11.83z"/>
  <g fill="#fedd00" stroke="#000" stroke-miterlimit="10" stroke-width="2px">
   <path d="m35-390.86a16.1 16.1 0 0 1-8.25-6.53c-2.8-4.83-9.18-15.72-5.91-17.9s5.13 4.67 9.33 7 6.54 7.93 7.32 12.29-2.49 5.14-2.49 5.14z"/>
   <path d="m31.76-371.49-5.11-5.41v-11.74h13.24s3.31 7.07 5.71 7.68 9.63-1.21 9.63-1.21l0.91 6.47z"/>
   <path d="m37.63-387.88s-5.35 2.1-8.84 2.1-6.35-1.58-6.35-5.08 4-3.92 6.35-3.92 8.21 2.27 8.84 6.9z"/>
   <path d="m48.76-390.28c0 4.35-6 6-10.06 6s-5.73-3.94-5.73-6.61 0.45-6 7.9-6 7.89 6.61 7.89 6.61z"/>
   <path d="m50.12-376s0.9-5.22 4.66-8.25 5.72-3.33 8.13-3.18 4.06 2.25 5.11 3.91 2.86 4.81 2.86 4.81z"/>
   <ellipse cx="63.66" cy="-392.4" rx="6.02" ry="4.93"/>
   <path d="m99.29-387s-10.13 0.36-12.88-0.48-5.61-4.8-5.61-8.77 4.29-8.47 9.24-8.47 9.25 4.18 9.25 4.18z"/>
   <path d="m104.77-390.86c-1.13 0-5.48-0.3-8.23 2.22s-6.5 9.91-6.5 9.91h29.45s-3.74-7.38-6.5-9.91-7.1-2.22-8.22-2.22"/>
   <path d="m102.65-477.63s-3.32-6.8-11.1-6.24-8.1 5.59-8.1 7.46 2.14 5.59 7.71 5.59 11.49-6.81 11.49-6.81z"/>
   <path d="m104.77-263.09c2.54 0 85.83 10.22 87.56 11.45s11.63 16.13 14.28 20.32 4.71 7.09 1.73 9.8-7.09-1.17-9.12-3.21-7.52-5.42-23.05-11.34-31.73-10.47-46.57-10.47a102.13 102.13 0 0 0-24.83 2.77 102.27 102.27 0 0 0-24.84-2.77c-14.84 0-31.05 4.56-46.57 10.47s-21 9.31-23.05 11.34-6.13 5.91-9.12 3.21-0.92-5.61 1.73-9.8 12.56-19.08 14.28-20.32 85.02-11.45 87.57-11.45z"/>
   <path d="m104.77-267.18s92.51 13.61 93.79 12.69 9.21-5.45 9.21-10.74c0-3.71-4.07-5.34-6-8.36a60.66 60.66 0 0 1-4.23-9s-2.26 10-9.92 10-16.25-11.25-18.46-14.27-4.29-9.29-4.29-9.29-2.9 7.78-10.91 10.45-16.83 3.71-22.74 2.09-10.33-5.8-15.21-7.43-8.12-2.32-11.19-2.32-6.33 0.7-11.2 2.32-9.29 5.8-15.21 7.43-14.73 0.58-22.74-2.09-10.91-10.45-10.91-10.45-2.09 6.27-4.29 9.29-10.8 14.27-18.46 14.27-9.92-10-9.92-10a60.66 60.66 0 0 1-4.23 9c-2 3-6.05 4.65-6.05 8.36 0 5.29 7.94 9.81 9.21 10.74s93.75-12.69 93.75-12.69z"/>
   <path d="m104.77-273.76s5.18-4.54 9.67-4.54 11.32 2.37 16.06 4.34 20.94 3.16 38.91 6.52a163.64 163.64 0 0 1 32.3 9.68v18.17s-25.19-8.69-36.28-12.24-38.49-7.31-60.66-7.31-49.59 3.75-60.67 7.31-36.28 12.24-36.28 12.24v-18.17a163.64 163.64 0 0 1 32.3-9.68c18-3.36 34.17-4.54 38.91-6.52s11.57-4.34 16.06-4.34 9.68 4.54 9.68 4.54z"/>
   <path d="m174.51-390.86a16.1 16.1 0 0 0 8.25-6.53c2.8-4.83 9.18-15.72 5.91-17.9s-5.13 4.67-9.33 7-6.54 7.94-7.34 12.29 2.51 5.14 2.51 5.14z"/>
   <path d="m177.77-371.49 5.11-5.41v-11.74h-13.24s-3.31 7.07-5.71 7.68-9.63-1.21-9.63-1.21l-0.91 6.47z"/>
   <path d="m171.9-387.88s5.35 2.1 8.84 2.1 6.35-1.58 6.35-5.08-4-3.92-6.35-3.92-8.23 2.27-8.84 6.9z"/>
   <path d="m160.77-390.28c0 4.35 6 6 10.06 6s5.73-3.94 5.73-6.61-0.45-6-7.9-6-7.89 6.61-7.89 6.61z"/>
   <path d="m159.41-376s-0.9-5.22-4.66-8.25-5.72-3.33-8.13-3.18-4.06 2.25-5.11 3.91-2.86 4.81-2.86 4.81z"/>
   <ellipse cx="145.87" cy="-392.4" rx="6.02" ry="4.93"/>
   <path d="m104.77-381.73c54.88 0 81.76 11.89 83.83 14.71s-1.51 14.31-1.51 14.31l-82.32-12.62-82.33 12.62s-3.58-11.49-1.51-14.31 28.95-14.71 83.84-14.71z"/>
  </g>
  <g stroke="#000" stroke-miterlimit="10" stroke-width="2px">
   <path d="m-12.86-162.44s1.32-22.94-13.06-39.87c-12.63-14.87-20.52-17.11-29.59-17.11" fill="none"/>
   <path d="m-104.67-198.28s8.65-7.15 13.35-9.88 9.67-5.37 9.67-5.37l-24.1-38.05s-9.72 5.09-11.77 6.41-12.31 9-12.31 9z" fill="#fedd00"/>
   <polygon transform="translate(-236,-502)" points="516.9 402.39 505.21 409.46 490.6 379.79 475.12 386.69 468.61 371.11 484.45 363.64 476.15 346.88 487.68 341.34 495.75 357.95 511.07 351.42 518.25 368.29 503.37 373.79" fill="#fedd00"/>
   <line x1="-117.52" x2="-91.32" y1="-245.17" y2="-208.16" fill="none"/>
  </g>
  <g fill="#fedd00" stroke="#000" stroke-miterlimit="10" stroke-width="2px">
   <path d="m-8.72-194.16s-4.71-19.59-16.05-28.82-13.71-9-19.42-10.4-15.55-1.9-15.55-1.9l9.13 16.15s-6-0.55-9.13-0.42-7.08 0.57-7.08 0.57l-8.18-13.76-14.65 6.62-7.8-12.32 16.24-7.56-7.45-11.7s7.19-1.8 9.86-1.8 7.11-0.47 7.11-0.47l6.24 12.28s17.77-1.27 29.09 4.23a50.81 50.81 0 0 1 23 23c3.92 8.19 4.64 26.3 4.64 26.3z"/>
   <path d="m104.77-369.28c9.33 0 34.7 0.19 47.12 2.82s33.51 7.91 35.2 9 7.53 3.95 8.33 10.73-10.92 14.87-10.92 14.87l-79.73-15.81-79.77 15.85s-11.73-8.1-10.93-14.87 6.63-9.6 8.33-10.73 22.78-6.4 35.2-9 37.83-2.86 47.17-2.86z"/>
   <path d="m104.77-338c22.32 0 38.47 2.26 54.64 4.89s25 8.85 29.19 12.27 10.73 9.75 15.48 7.51-3.43-14.51-5.88-17.34-4.52-2.06-6.21-3-1.53-3.22-1.53-3.22-2.24-0.74-18.56-6.38-49.18-8.47-67.13-8.47-50.82 2.82-67.14 8.47-18.56 6.38-18.56 6.38 0.17 2.28-1.53 3.22-3.76 0.17-6.21 3-10.64 15.1-5.88 17.34 11.34-4.09 15.48-7.51 13-9.63 29.19-12.27 32.32-4.89 54.65-4.89z"/>
  </g>
  <path d="m-17.26 32.87s-21.41-6.78-30.68-21.52-9.38-34.09-9.38-34.09" fill="none" stroke="#000" stroke-miterlimit="10" stroke-width="2px"/>
  <g fill="#fedd00">
   <g stroke="#000" stroke-miterlimit="10" stroke-width="2px">
    <path d="m104.77-401.77s12-7.39 12-11.69c0-3.89-7.61-8.67-12-8.67s-12 4.78-12 8.67c-0.05 4.3 12 11.69 12 11.69z"/>
    <path d="m104.77-390.3c4.3 0 9.87-1.39 9.87-7s-4-7.37-9.87-7.37-9.88 1.73-9.88 7.37 5.57 7 9.88 7z"/>
    <path d="m104.77-465.45s1.69 1.42 3.32 3.05 6.91 3.4 8.72 5.19a6.29 6.29 0 0 1 1.25 6.1c-0.51 1.33-5.49 5.8-5.49 5.8h-15.51a0.19 0.19 0 0 1-0.16-0.06c-0.6-0.53-5-4.5-5.43-5.74a6.29 6.29 0 0 1 1.25-6.1c1.8-1.83 7.09-3.56 8.72-5.19s3.33-3.05 3.33-3.05z"/>
    <path d="m106.88-477.63s3.32-6.8 11.1-6.24 8.1 5.59 8.1 7.46-2.14 5.59-7.71 5.59-11.49-6.81-11.49-6.81z"/>
    <path d="m104.77-468.86s6-1.47 6-6.13-6-7.61-6-7.61-6 2.94-6 7.61 6 6.13 6 6.13z"/>
   </g>
   <path d="m104.77-487.74s6.05-5.3 6-7.81-6-5.45-6-5.45-6 2.93-6 5.45 6 7.81 6 7.81z"/>
  </g>
  <path d="m104.77-486.41-0.66-0.57c-1.07-0.94-6.4-5.75-6.39-8.58 0-3 5.51-5.8 6.61-6.34l0.2-0.1h0.23c0.78 0 7 3.37 7.05 6.44 0 2.83-5.32 7.64-6.39 8.58zm0-13.47c-2.51 1.29-5 3.23-5 4.33s2.5 4.13 5 6.47c2.54-2.34 5.05-5.3 5-6.47s-2.77-3.17-5-4.33z"/>
  <g fill="#fedd00" stroke="#000" stroke-miterlimit="10" stroke-width="2px">
   <path d="m182.66-170.08 14.13-12.26v-20.34h-10.58s-6.45 11-8.46 11-13.75-5-15.65-6.88-3.56-9.72-3.56-9.72h-4s-1.19 6.21-10.8 8.66c-11.08 2.81-17.65 1.66-20.61 0.59s-4-3.24-5.73-5.76l-12.6-8-12.61 8c-1.73 2.52-2.76 4.69-5.73 5.76s-9.53 2.22-20.61-0.59c-9.61-2.45-10.8-8.66-10.8-8.66h-4s-1.66 7.83-3.56 9.72-13.63 6.88-15.65 6.88-8.46-11-8.46-11h-10.64v20.34l14.13 12.26"/>
   <path d="m104.77-189.81c6 0 11.55-1.7 20-1.7s20.24 1.84 36.5 4.81a64.38 64.38 0 0 1 27 11.76l-9.55 20.49-73.94-12.16-73.94 12.16-9.56-20.49a64.38 64.38 0 0 1 27-11.76c16.27-3 28-4.81 36.5-4.81s13.99 1.7 19.99 1.7z"/>
   <path d="m104.77-170.59s13.11-1.18 19.46-1.18c23.61 0 55.81 13.09 58.43 15.23s-1.1 14.44-1.1 14.44l-76.79-9.9-76.77 9.9s-3.73-12.3-1.1-14.44 34.82-15.23 58.43-15.23c6.32 0 19.44 1.18 19.44 1.18z"/>
  </g>
  <path d="m104.77-120.28c11.73 0 77.89-4.31 77.89-23.07s-56.27-20.58-77.89-20.58-77.9 1.82-77.9 20.58 66.13 23.07 77.9 23.07z" fill="#fff" stroke="#000" stroke-miterlimit="10" stroke-width="2px"/>
  <g fill="#fedd00" stroke="#000" stroke-miterlimit="10" stroke-width="2px">
   <path d="m3.35-204.39s-5.48-8.66-7.59-10.88-7.17-5.48-2.11-8.12 9.39 1.16 10.76 2.53 7.59 11.74 7.59 11.74z"/>
   <ellipse cx="52.03" cy="-212.84" rx="7.94" ry="6.39"/>
   <ellipse cx="7.82" cy="-203.39" rx="6.28" ry="7.75"/>
   <circle cx="21.27" cy="-204.39" r="9.23"/>
   <path d="m206.18-204.39s5.48-8.66 7.59-10.88 7.17-5.48 2.11-8.12-9.39 1.16-10.76 2.53-7.63 11.74-7.63 11.74z"/>
   <ellipse cx="157.5" cy="-212.84" rx="7.94" ry="6.39"/>
   <polygon transform="translate(-236,-502)" points="164.59 402.39 176.28 409.46 190.89 379.79 206.38 386.69 212.88 371.11 197.04 363.64 205.34 346.88 193.81 341.34 185.74 357.95 170.42 351.42 163.24 368.29 178.13 373.79"/>
   <ellipse cx="201.71" cy="-203.39" rx="6.28" ry="7.75"/>
   <circle cx="188.26" cy="-204.39" r="9.23"/>
   <path d="m104.77-222.94c2.61 0 9.67 1 9.67 6.15s-2.25 9.21-9.67 9.21-9.68-4-9.68-9.21 7.06-6.15 9.68-6.15z"/>
   <path d="m-8.72-284.23c2.06 7 11.77 1.59 15.75-5.26s3.5-16.88 0-21.82-8.76-9.56-15-9.56-4 7.17 2.39 12.74 5.58 14 3.19 15.14-8.86 0.16-6.33 8.76z"/>
   <path d="m13.08-300.91c12.59 0 11.95 10.15 11.95 11.1s-3.66 11.51-13.22 11.51-8.61-9.35-8.61-11.31 1.6-11.3 9.88-11.3z"/>
   <path d="m45-292s-8.62-5.88-8.62-10.71 2.87-6 7.18-6a6.36 6.36 0 0 1 6.4 6.6c-0.05 3.11-4.96 10.11-4.96 10.11z"/>
   <path d="m218.25-284.23c-2.06 7-11.76 1.59-15.75-5.26s-3.5-16.88 0-21.82 8.76-9.56 15-9.56 4 7.17-2.39 12.74-5.58 14-3.19 15.14 8.86 0.16 6.33 8.76z"/>
   <path d="m196.45-300.91c-12.59 0-11.95 10.15-11.95 11.1s3.66 11.51 13.22 11.51 8.61-9.35 8.61-11.31-1.6-11.3-9.88-11.3z"/>
   <path d="m104.77-292.91c5 0 11.4-3.82 11.4-9.72s-11.4-8.64-11.4-8.64-11.41 2.73-11.41 8.64 6.38 9.72 11.41 9.72z"/>
   <path d="m164.58-292s8.62-5.88 8.62-10.71-2.87-6-7.18-6a6.36 6.36 0 0 0-6.4 6.6c0 3.11 4.96 10.11 4.96 10.11z"/>
   <path d="m107.49 498.87s-4-6.09-3.75-12.17 4.21-19.43 13.11-19.43 12.87 10.07 12.4 23.4-21.76 8.2-21.76 8.2z"/>
  </g>
  <path class="vatican-cls-11" d="m106.08 508.69s-2.11-11.93 0.94-14.51 8-2.34 12.63-1.63 16.85 5.15 18.72 25.27-2.1 40-2.1 40-13.57 3.27-22.7 3.27-7.49-52.4-7.49-52.4z" fill="#c8102e" stroke="#000" stroke-miterlimit="10" stroke-width="3px"/>
  <path d="m82.68 507.76a18.85 18.85 0 0 1-4.21-11.7c0-7 4-16.15 13.34-16.15s13.55 11.37 13.56 16.44-4.55 11.41-4.55 11.41z" fill="#fedd00" stroke="#000" stroke-miterlimit="10" stroke-width="2px"/>
  <path class="vatican-cls-12" d="m91.92 498.63c13.68 0 25.75 13.79 25.75 44.49 0 24.43-4.55 29.13-4.55 29.13a37.68 37.68 0 0 1-21.2 6.9c-12.32 0-23-6.9-23-6.9a144.51 144.51 0 0 1-3.44-30.07c0.03-15.82 4.15-43.55 26.44-43.55z" fill="#c8102e"/>
  <path d="m91.92 580.65c-12.62 0-23.33-6.85-23.78-7.14l-0.51-0.32-0.14-0.58a148.1 148.1 0 0 1-3.48-30.43c0-6.24 0.64-18.2 5-28.3 4.69-11 12.62-16.75 22.94-16.75 13.17 0 27.25 12.08 27.25 46 0 24.34-4.46 29.65-5 30.18l-0.16 0.14a39 39 0 0 1-22.12 7.2zm-21.65-9.35c2.22 1.31 11.41 6.35 21.65 6.35a36.69 36.69 0 0 0 20.17-6.49c0.42-0.61 4.08-6.35 4.08-28 0-31.69-12.53-43-24.25-43-23.12 0-24.91 32.19-24.91 42.05a145.44 145.44 0 0 0 3.26 29.09z"/>
  <g fill="none" stroke="#000" stroke-linecap="round" stroke-miterlimit="10" stroke-width="3px">
   <path class="vatican-cls-13" d="m136.27 557.84a52.69 52.69 0 0 0-7.64-3.72c-3.27-1.13-11-0.51-11-0.51"/>
   <path class="vatican-cls-13" d="m128.63 554.12s3.89-4.53 4-16.08-6.41-24.63-6.41-24.63"/>
   <path class="vatican-cls-13" d="m113.12 572.25s-5.27-4.69-21.2-4.69-23 4.69-23 4.69"/>
   <path class="vatican-cls-13" d="m81.62 568.29s-6-5.25-6.26-21.33 3.11-19 3.11-19"/>
   <path class="vatican-cls-13" d="m94.09 567.59s-4.53-4.55-5.91-16.11a110.51 110.51 0 0 1 0-23.12"/>
  </g>
  <g stroke="#000" stroke-miterlimit="10" stroke-width="2px">
   <circle cx="92.6" cy="469.42" r="10.18" fill="#fedd00"/>
   <circle cx="116.51" cy="457.09" r="10.18" fill="#fedd00"/>
   <ellipse transform="rotate(-47.32)" cx="-101.91" cy="221.28" rx="7.14" ry="10.81" fill="#c8102e"/>
   <ellipse transform="rotate(-47.32)" cx="-113.22" cy="229.17" rx="7.14" ry="10.81" fill="#c8102e"/>
   <polyline transform="translate(-236,-502)" points="286.88 621.31 312.04 608.82 316.2 608.72" fill="none"/>
  </g>
  <g fill="#c8102e" stroke="#000" stroke-miterlimit="10" stroke-width="2px">
   <ellipse transform="rotate(-47.32)" cx="-269.64" cy="371.96" rx="7.14" ry="10.81"/>
   <ellipse transform="rotate(-47.32)" cx="-256.07" cy="360.92" rx="7.14" ry="10.81"/>
   <ellipse transform="rotate(-47.32)" cx="-244.16" cy="349.94" rx="7.14" ry="10.81"/>
   <ellipse transform="rotate(-47.32)" cx="-231.46" cy="338.22" rx="7.14" ry="10.81"/>
   <ellipse transform="rotate(-47.32)" cx="-218.1" cy="326.63" rx="7.14" ry="10.81"/>
   <ellipse transform="rotate(-47.32)" cx="-204.87" cy="314.43" rx="7.14" ry="10.81"/>
   <ellipse transform="rotate(-47.32)" cx="-192.57" cy="304.32" rx="7.14" ry="10.81"/>
   <ellipse transform="rotate(-47.32)" cx="-181.08" cy="293.73" rx="7.14" ry="10.81"/>
   <ellipse transform="rotate(-47.32)" cx="-168.77" cy="282.93" rx="7.14" ry="10.81"/>
   <ellipse transform="rotate(-47.32)" cx="-157.37" cy="271.85" rx="7.14" ry="10.81"/>
   <ellipse transform="rotate(-47.32)" cx="-145.78" cy="260.68" rx="7.14" ry="10.81"/>
   <ellipse transform="rotate(-47.32)" cx="-133.8" cy="250.68" rx="7.14" ry="10.81"/>
   <ellipse transform="rotate(-47.32)" cx="-122.04" cy="239.84" rx="7.14" ry="10.81"/>
   <ellipse transform="rotate(-47.32)" cx="-90.233" cy="207.97" rx="7.14" ry="10.81"/>
   <ellipse transform="rotate(-47.32)" cx="-77.389" cy="199.32" rx="7.14" ry="10.81"/>
   <ellipse transform="rotate(-47.32)" cx="-65.186" cy="188.07" rx="7.14" ry="10.81"/>
   <ellipse transform="rotate(-47.32)" cx="-52.823" cy="176.67" rx="7.14" ry="10.81"/>
   <ellipse transform="rotate(-47.32)" cx="-41.099" cy="165.86" rx="7.14" ry="10.81"/>
   <ellipse transform="rotate(-47.32)" cx="-27.196" cy="158.27" rx="7.14" ry="10.81"/>
   <ellipse transform="rotate(-33.42)" cx="54.671" cy="133.99" rx="6.58" ry="9.96"/>
   <ellipse transform="rotate(-42.68)" cx="15.226" cy="149.18" rx="10.81" ry="7.14"/>
   <ellipse transform="rotate(-50.93)" cx="-171.65" cy="366.74" rx="7.14" ry="10.81"/>
   <ellipse transform="rotate(-50.93)" cx="-183.97" cy="355.1" rx="7.14" ry="10.81"/>
   <ellipse transform="rotate(-50.93)" cx="-195.49" cy="345.73" rx="7.14" ry="10.81"/>
   <ellipse transform="rotate(-22.48)" cx="-86.007" cy="360.78" rx="7.14" ry="10.81"/>
   <ellipse transform="rotate(-22.48)" cx="-98.301" cy="353.02" rx="7.14" ry="10.81"/>
   <ellipse transform="rotate(-22.48)" cx="-110.69" cy="345.15" rx="7.14" ry="10.81"/>
   <ellipse transform="rotate(-22.48)" cx="-123.77" cy="336.51" rx="7.14" ry="10.81"/>
   <ellipse transform="rotate(-22.48)" cx="-136.48" cy="327.48" rx="7.14" ry="10.81"/>
   <ellipse transform="rotate(-22.48)" cx="-147.75" cy="315.37" rx="7.14" ry="10.81"/>
   <ellipse transform="rotate(-8.85)" cx="-81.718" cy="332.78" rx="7.14" ry="10.81"/>
  </g>
  <circle cx="-57.42" cy="352.17" r="14.1" fill="#c1c6c8" stroke="#000" stroke-miterlimit="10" stroke-width="2px"/>
  <g fill="#c8102e" stroke="#000" stroke-miterlimit="10" stroke-width="2px">
   <ellipse transform="rotate(-8.85)" cx="-93.069" cy="326.77" rx="7.14" ry="10.81"/>
   <ellipse transform="rotate(-70.46)" cx="-332.99" cy="59.422" rx="10.81" ry="7.14"/>
   <ellipse transform="rotate(-70.46)" cx="-333" cy="46.429" rx="10.81" ry="7.14"/>
   <ellipse transform="rotate(-70.46)" cx="-322.99" cy="37.295" rx="10.81" ry="7.14"/>
   <ellipse transform="rotate(-50.93)" cx="-159.57" cy="374.65" rx="7.14" ry="10.81"/>
   <ellipse transform="rotate(-55.19)" cx="-173.86" cy="371.83" rx="7.14" ry="10.81"/>
   <ellipse transform="rotate(-55.19)" cx="-161.04" cy="381.28" rx="7.14" ry="10.81"/>
   <ellipse transform="rotate(-55.19)" cx="-148.47" cy="390.58" rx="7.14" ry="10.81"/>
  </g>
  <circle cx="266.91" cy="352.17" r="14.1" fill="#fedd00" stroke="#000" stroke-miterlimit="10" stroke-width="2px"/>
  <g fill="#c8102e" stroke="#000" stroke-miterlimit="10">
   <g stroke-width="2px">
    <ellipse transform="rotate(-55.19)" cx="-135.5" cy="399.1" rx="7.14" ry="10.81"/>
    <ellipse transform="rotate(-60)" cx="-154.84" cy="396.12" rx="7.14" ry="10.81"/>
    <ellipse transform="rotate(-55.19)" cx="-108.3" cy="417.95" rx="7.14" ry="10.81"/>
    <ellipse transform="rotate(-64.92)" cx="-163.94" cy="391.13" rx="7.14" ry="10.81"/>
    <ellipse cx="131.56" cy="102.27" rx="10.81" ry="7.14"/>
    <ellipse transform="rotate(-45)" cx="33.495" cy="163.25" rx="6.9" ry="10.43"/>
    <ellipse transform="rotate(-45)" cx="46.208" cy="165.15" rx="6.58" ry="9.96"/>
    <ellipse transform="rotate(-45)" cx="59.131" cy="162.86" rx="6.58" ry="9.96"/>
    <ellipse transform="rotate(-87.27)" cx="-65.62" cy="51.341" rx="9.96" ry="6.58"/>
    <ellipse transform="rotate(-68.63)" cx="-51.53" cy="80.65" rx="9.96" ry="6.58"/>
    <ellipse transform="rotate(-64.32)" cx="-49.076" cy="97.428" rx="10.81" ry="7.14"/>
    <ellipse transform="rotate(-80.85)" cx="-84.704" cy="103.94" rx="10.81" ry="7.14"/>
    <ellipse transform="rotate(-87.27)" cx="-91.301" cy="82.724" rx="10.81" ry="7.14"/>
    <ellipse transform="rotate(-64.32)" cx="-33.668" cy="132.69" rx="9.96" ry="6.58"/>
    <ellipse transform="rotate(-20.15)" cx="64.272" cy="106.01" rx="9.96" ry="6.58"/>
    <ellipse transform="rotate(-20.15)" cx="56.948" cy="95.268" rx="9.96" ry="6.58"/>
    <ellipse transform="rotate(-26.53)" cx="38.453" cy="88.443" rx="9.96" ry="6.58"/>
   </g>
   <g stroke-width="2.0057px">
    <ellipse transform="rotate(-80.819)" cx="-48.547" cy="123.58" rx="5.6962" ry="9.9883"/>
    <ellipse transform="rotate(-80.819)" cx="-36.19" cy="118.88" rx="5.6962" ry="9.9883"/>
    <ellipse transform="rotate(-80.819)" cx="-23.388" cy="116.86" rx="5.6962" ry="9.9883"/>
   </g>
   <g stroke-width="2px">
    <ellipse transform="rotate(-87.27)" cx="-25.255" cy="109.7" rx="5.68" ry="11.12"/>
    <ellipse cx="103.28" cy="18.81" rx="9.96" ry="5.68"/>
    <ellipse transform="rotate(-64.32)" cx="-46.698" cy="158.78" rx="10.81" ry="7.14"/>
   </g>
  </g>
 </g>
 <g transform="rotate(0 25 50)">
  <path d="m0 0h50v100h-50z" fill="#fedd00"/>
 </g>
</svg>
