<svg data-src="/maps/Vatican.svg" src="" class="injected-svg" viewBox="0 34 230 200" version="1.1" xmlns="http://www.w3.org/2000/svg">
    <path xmlns="http://www.w3.org/2000/svg" d="m37.5 225.71c-7.78 0-14.84 0.82-20.29 2.30-2.73 0.74-5.07 1.63-6.92 2.81-1.85 1.18-3.29 2.81-3.29 4.68v2.57h11.12v60.06h38.76v-60.06h11.12v-2.57c0-1.86-1.43-3.49-3.29-4.68-1.85-1.18-4.20-2.07-6.92-2.81-5.45-1.47-12.50-2.30-20.29-2.30z" fill="#000"></path>        
    <g xmlns="http://www.w3.org/2000/svg" name="smoke-group" fill="url(#gradient)" stroke="#FFF" stroke-width="5"><rect x="9.66" y="185" width="30" height="30"></rect><rect x="36.47" y="184.19" width="30" height="30"></rect><rect x="2.26" y="183.47" width="30" height="30"></rect><rect x="14.20" y="181.14" width="30" height="30"></rect><rect x="22.84" y="180.02" width="30" height="30"></rect><rect x="17.81" y="178.92" width="30" height="30"></rect><rect x="13.82" y="178.03" width="30" height="30"></rect><rect x="32.25" y="175.61" width="30" height="30"></rect><rect x="9.05" y="177.35" width="30" height="30"></rect><rect x="11.39" y="174.94" width="30" height="30"></rect><rect x="43.97" y="178.12" width="30" height="30"></rect><rect x="37.53" y="170.75" width="30" height="30"></rect><rect x="7.93" y="175.11" width="30" height="30"></rect><rect x="16.36" y="172.07" width="30" height="30"></rect><rect x="16.01" y="169.23" width="30" height="30"></rect><rect x="43.07" y="168.15" width="30" height="30"></rect><rect x="44.22" y="173.75" width="30" height="30"></rect><rect x="29.25" y="171.10" width="30" height="30"></rect><rect x="32.74" y="160.97" width="30" height="30"></rect><rect x="52.30" y="163.82" width="30" height="30"></rect><rect x="39.36" y="163.48" width="30" height="30"></rect><rect x="55.04" y="164.64" width="30" height="30"></rect><rect x="66.87" y="170.04" width="30" height="30"></rect><rect x="65.87" y="165.58" width="30" height="30"></rect><rect x="70.24" y="161.67" width="30" height="30"></rect><rect x="34.32" y="161.15" width="30" height="30"></rect><rect x="41.38" y="167.53" width="30" height="30"></rect><rect x="79.41" y="157.30" width="30" height="30"></rect><rect x="43.59" y="147.49" width="30" height="30"></rect><rect x="45.00" y="155.98" width="30" height="30"></rect><rect x="69.32" y="156.87" width="30" height="30"></rect><rect x="50.34" y="155.15" width="30" height="30"></rect><rect x="33.99" y="153.92" width="30" height="30"></rect><rect x="80.80" y="152.21" width="30" height="30"></rect><rect x="54.28" y="152.66" width="30" height="30"></rect><rect x="40.58" y="153.58" width="30" height="30"></rect><rect x="23.20" y="139.66" width="30" height="30"></rect><rect x="43.27" y="156.11" width="30" height="30"></rect><rect x="62.51" y="147.05" width="30" height="30"></rect><rect x="11.08" y="146.38" width="30" height="30"></rect><rect x="39.28" y="138.59" width="30" height="30"></rect><rect x="44.06" y="155.67" width="30" height="30"></rect><rect x="56.25" y="135.15" width="30" height="30"></rect><rect x="61.81" y="136.34" width="30" height="30"></rect><rect x="78.93" y="127.94" width="30" height="30"></rect><rect x="21.30" y="153.81" width="30" height="30"></rect><rect x="57.08" y="125.99" width="30" height="30"></rect><rect x="104.67" y="141.45" width="30" height="30"></rect><rect x="38.95" y="126.57" width="30" height="30"></rect><rect x="91.83" y="139.10" width="30" height="30"></rect><rect x="52.89" y="125.15" width="30" height="30"></rect><rect x="90.29" y="147.83" width="30" height="30"></rect><rect x="86.60" y="136.41" width="30" height="30"></rect><rect x="43.59" y="131.02" width="30" height="30"></rect><rect x="113.17" y="116.35" width="30" height="30"></rect><rect x="114.77" y="114.05" width="30" height="30"></rect><rect x="18.53" y="126.11" width="30" height="30"></rect><rect x="75.79" y="143.12" width="30" height="30"></rect><rect x="55.56" y="117.25" width="30" height="30"></rect><rect x="17.98" y="138.00" width="30" height="30"></rect><rect x="99.57" y="117.98" width="30" height="30"></rect><rect x="56.80" y="126.72" width="30" height="30"></rect><rect x="14.44" y="132.32" width="30" height="30"></rect><rect x="21.12" y="116.81" width="30" height="30"></rect><rect x="43.85" y="114.65" width="30" height="30"></rect><rect x="55.88" y="129.74" width="30" height="30"></rect><rect x="24.28" y="100.83" width="30" height="30"></rect><rect x="132.13" y="114.05" width="30" height="30"></rect><rect x="24.29" y="136.72" width="30" height="30"></rect><rect x="145.88" y="124.39" width="30" height="30"></rect><rect x="143.05" y="115.41" width="30" height="30"></rect><rect x="112.02" y="89.04" width="30" height="30"></rect><rect x="58.30" y="133.33" width="30" height="30"></rect><rect x="65.47" y="102.70" width="30" height="30"></rect><rect x="114.63" y="96.82" width="30" height="30"></rect><rect x="52.97" y="115.05" width="30" height="30"></rect><rect x="84.89" y="90.74" width="30" height="30"></rect><rect x="93.93" y="85.13" width="30" height="30"></rect><rect x="83.88" y="112.23" width="30" height="30"></rect><rect x="146.24" y="117.42" width="30" height="30"></rect><rect x="75.98" y="93.97" width="30" height="30"></rect><rect x="21.48" y="123.26" width="30" height="30"></rect><rect x="114.77" y="85.78" width="30" height="30"></rect><rect x="144.69" y="80.38" width="30" height="30"></rect><rect x="134.84" y="78.58" width="30" height="30"></rect><rect x="134.44" y="70.39" width="30" height="30"></rect><rect x="67.80" y="120.77" width="30" height="30"></rect><rect x="109.24" y="97.52" width="30" height="30"></rect><rect x="148.58" y="90.73" width="30" height="30"></rect><rect x="74.46" y="94.13" width="30" height="30"></rect><rect x="140.34" y="83.14" width="30" height="30"></rect><rect x="114.47" y="66.01" width="30" height="30"></rect><rect x="154.86" y="116.85" width="30" height="30"></rect><rect x="150.37" y="105.67" width="30" height="30"></rect><rect x="77.45" y="120.49" width="30" height="30"></rect><rect x="137.46" y="82.89" width="30" height="30"></rect><rect x="182.51" y="113.02" width="30" height="30"></rect><rect x="156.91" y="71.34" width="30" height="30"></rect><rect x="86.76" y="115.19" width="30" height="30"></rect><rect x="26.74" y="61.87" width="30" height="30"></rect><rect x="50.01" y="91.52" width="30" height="30"></rect><rect x="165.19" y="62.43" width="30" height="30"></rect><rect x="198.21" y="67.79" width="30" height="30"></rect><rect x="147.72" y="50.93" width="30" height="30"></rect><rect x="116.24" y="112.84" width="30" height="30"></rect><rect x="149.84" y="106.02" width="30" height="30"></rect><rect x="178.65" y="98.97" width="30" height="30"></rect><rect x="70.56" y="87.46" width="30" height="30"></rect><rect x="191.11" y="70.21" width="30" height="30"></rect><rect x="109.74" y="91.13" width="30" height="30"></rect><rect x="93.78" y="51.16" width="30" height="30"></rect><rect x="188.03" y="64.60" width="30" height="30"></rect><rect x="160.96" y="86.33" width="30" height="30"></rect><rect x="70.79" y="97.09" width="30" height="30"></rect><rect x="175.64" y="36.25" width="30" height="30"></rect></g>
    <defs>
    <linearGradient id="gradient" x1="230" y1="0" x2="20" y2="0" gradientUnits="userSpaceOnUse"> 
        <stop offset="0%" style="stop-color:rgb(235,218,0);stop-opacity:1"></stop>
        <stop offset="33%" style="stop-color:rgb(255,42,0);stop-opacity:1"></stop>
        <stop offset="67%" style="stop-color:rgb(255,5,251);stop-opacity:1"></stop>
        <stop offset="100%" style="stop-color:rgb(34,3,128);stop-opacity:1"></stop>
    </linearGradient>
    </defs>
</svg>