<?xml version="1.0" standalone="no"?>
<!DOCTYPE svg PUBLIC "-//W3C//DTD SVG 20010904//EN"
 "http://www.w3.org/TR/2001/REC-SVG-20010904/DTD/svg10.dtd">
<svg version="1.0" xmlns="http://www.w3.org/2000/svg"
 width="2000.000000pt" height="2000.000000pt" viewBox="0 0 2000.000000 2000.000000"
 preserveAspectRatio="xMidYMid meet">
<metadata>
Created by potrace 1.14, written by Peter Selinger 2001-2017
</metadata>
<g transform="translate(0.000000,2000.000000) scale(0.100000,-0.100000)"
fill="#000000" stroke="none">
<path d="M2480 19984 c-58 -8 -136 -21 -175 -29 -38 -8 -80 -17 -92 -19 -121
-24 -370 -114 -515 -187 -80 -40 -252 -145 -307 -186 -25 -19 -59 -44 -75 -56
-96 -73 -224 -194 -318 -302 -38 -44 -78 -89 -87 -100 -10 -11 -52 -69 -94
-130 -229 -335 -371 -736 -404 -1140 -7 -98 -7 -14463 1 -14555 43 -503 237
-970 559 -1346 234 -273 492 -464 842 -624 77 -36 302 -112 380 -129 28 -6 61
-14 75 -17 14 -3 61 -12 105 -19 44 -7 100 -17 125 -21 47 -8 5710 -18 5710
-10 0 2 -22 38 -49 78 -114 172 -216 366 -306 579 -83 196 -184 508 -208 639
-3 14 -8 36 -11 50 -14 63 -22 394 -11 510 10 120 16 178 21 215 14 109 73
409 119 601 15 60 28 116 30 124 11 49 204 676 270 880 53 161 121 389 129
433 17 95 71 332 87 383 11 35 33 93 49 130 17 36 30 68 30 70 0 2 -733 4
-1628 4 l-1628 0 1 4745 0 4745 30 1 c17 0 174 1 349 2 272 2 320 4 327 17 4
8 14 31 22 50 126 305 232 530 303 641 13 21 24 41 24 44 0 3 8 18 19 33 10
15 51 77 91 137 174 262 352 469 516 601 27 21 56 45 64 53 38 37 206 154 312
219 263 160 434 215 678 215 149 0 288 -27 415 -80 97 -41 377 -179 470 -233
48 -28 89 -50 91 -50 7 0 303 -179 366 -222 31 -21 60 -38 64 -38 3 0 29 -17
57 -37 28 -21 65 -47 83 -58 51 -31 309 -212 359 -252 6 -4 71 -53 145 -108
74 -55 140 -104 146 -110 7 -5 24 -19 39 -30 70 -50 623 -486 661 -520 6 -5
28 -23 49 -40 21 -16 93 -75 160 -131 l122 -101 1257 0 c1139 0 1258 1 1274
16 9 9 44 47 77 86 56 65 84 97 144 164 63 70 342 359 399 414 101 97 114 108
183 167 106 92 194 158 312 237 105 70 114 79 147 141 92 172 183 280 331 392
139 104 323 184 474 205 22 3 53 8 69 11 16 4 74 6 128 6 96 -1 146 9 203 40
82 45 170 85 345 153 82 33 392 128 450 139 14 3 48 9 75 15 135 26 469 36
627 18 195 -22 365 -80 522 -181 72 -46 98 -68 181 -151 161 -162 261 -353
311 -595 4 -19 8 -116 9 -215 l2 -180 88 -215 c122 -298 169 -475 191 -715 8
-88 8 -340 0 -395 -2 -19 -8 -57 -11 -85 -4 -27 -15 -81 -26 -120 -44 -161
-44 -237 2 -462 40 -197 50 -238 106 -420 47 -153 62 -255 58 -398 -4 -131 -6
-145 -36 -255 -51 -187 -107 -288 -278 -499 -65 -80 -108 -160 -172 -321 l-42
-105 -3 -160 c-3 -226 -38 -385 -120 -548 -104 -207 -288 -384 -528 -507 -55
-28 -68 -42 -126 -128 -36 -54 -124 -178 -196 -277 -245 -338 -400 -566 -528
-778 -42 -70 -79 -133 -82 -141 -5 -14 83 -107 211 -221 172 -154 206 -185
355 -333 85 -84 182 -187 215 -228 33 -41 65 -81 71 -87 32 -37 135 -205 194
-320 38 -73 87 -152 108 -177 22 -25 98 -112 168 -195 71 -82 141 -163 155
-180 15 -16 82 -95 150 -175 68 -80 126 -147 129 -150 31 -28 379 -464 475
-597 33 -45 63 -82 67 -83 3 0 6 2445 6 5433 0 5600 0 5534 -37 5719 -6 29
-13 67 -16 85 -10 60 -73 269 -111 364 -83 213 -235 472 -364 624 -221 259
-444 442 -719 589 -188 100 -428 188 -616 225 -27 6 -61 13 -75 16 -14 3 -45
7 -70 10 -25 3 -61 9 -80 12 -19 4 -3293 8 -7275 9 -6126 2 -7256 0 -7345 -12z"/>
<path d="M17200 16399 c-148 -16 -413 -103 -600 -199 -41 -21 -145 -66 -230
-100 -85 -34 -164 -66 -175 -71 -79 -37 -221 -38 -309 -4 -21 9 -40 14 -42 12
-2 -2 1 -31 7 -65 6 -34 8 -77 5 -95 -9 -45 -65 -101 -136 -137 -39 -19 -65
-40 -75 -60 -8 -16 -15 -32 -15 -35 0 -3 0 -9 0 -15 0 -5 -39 -28 -87 -51 -88
-42 -219 -122 -301 -185 -170 -129 -556 -518 -770 -774 -11 -14 -30 -36 -42
-50 -12 -14 -38 -45 -58 -69 -21 -25 -60 -72 -87 -105 -260 -313 -722 -973
-950 -1357 -13 -23 -66 -108 -120 -194 -25 -38 -54 -86 -65 -105 -11 -19 -31
-53 -45 -75 -14 -22 -29 -49 -35 -60 -6 -11 -21 -38 -35 -60 -13 -22 -47 -82
-75 -132 -28 -51 -54 -93 -58 -93 -4 0 -19 9 -32 19 -14 11 -81 61 -150 113
-175 131 -352 271 -515 406 -116 96 -246 208 -430 367 -121 104 -265 228 -320
275 -55 47 -105 89 -111 95 -11 10 -35 31 -234 201 -63 54 -120 103 -126 109
-6 5 -35 30 -64 55 -29 25 -58 50 -64 55 -6 6 -76 66 -156 135 -80 68 -147
127 -150 130 -3 3 -59 50 -125 105 -66 55 -129 107 -140 117 -24 19 -164 134
-185 151 -851 685 -1342 1041 -1795 1299 -193 111 -444 238 -467 238 -10 0
-36 -11 -58 -25 -22 -14 -42 -25 -45 -25 -3 0 -11 -5 -18 -10 -7 -6 -52 -38
-101 -72 -202 -142 -400 -386 -562 -693 -96 -181 -263 -587 -389 -945 -55
-156 -175 -380 -286 -533 -56 -78 -57 -68 3 -197 122 -262 184 -376 339 -615
135 -210 209 -374 263 -585 l22 -85 139 -73 c261 -137 622 -365 890 -562 181
-133 372 -276 380 -284 6 -6 37 -31 70 -56 80 -59 580 -460 725 -580 415 -346
493 -411 565 -475 44 -38 111 -97 149 -130 37 -33 78 -69 90 -80 12 -11 62
-56 111 -100 49 -44 116 -105 149 -136 85 -78 208 -191 227 -209 8 -8 51 -48
95 -89 152 -142 431 -411 678 -654 l250 -244 -53 -71 c-171 -232 -250 -359
-510 -832 -79 -144 -178 -346 -230 -470 -29 -69 -59 -138 -66 -155 -7 -16 -28
-74 -46 -128 -32 -93 -38 -103 -102 -165 -69 -67 -168 -189 -220 -270 -37 -56
-193 -363 -241 -472 -61 -138 -219 -405 -337 -570 -48 -67 -133 -158 -185
-197 -83 -64 -105 -80 -146 -104 -41 -24 -46 -31 -52 -75 -25 -166 -105 -467
-214 -804 -39 -118 -85 -262 -102 -320 -18 -58 -52 -168 -75 -245 -86 -279
-101 -335 -141 -545 -8 -41 -16 -86 -19 -100 -36 -168 -47 -276 -46 -445 0
-115 4 -142 31 -235 103 -347 226 -603 415 -861 183 -250 293 -445 379 -673
25 -65 47 -119 48 -120 2 -1 47 -16 100 -33 252 -84 425 -163 515 -235 35 -27
63 -53 63 -56 0 -4 9 -13 20 -20 19 -12 34 -2 164 105 78 65 160 132 182 150
21 17 53 43 69 57 17 13 138 113 270 221 132 109 254 209 271 224 18 14 47 38
65 53 19 14 44 35 55 45 12 10 60 50 107 88 74 61 87 76 97 115 41 159 169
593 190 645 4 11 18 52 30 90 36 114 190 530 225 610 7 17 27 64 43 105 28 70
114 265 177 405 274 605 898 1705 1363 2403 l135 202 51 -47 c28 -25 100 -92
161 -147 115 -106 656 -643 785 -781 42 -44 118 -127 170 -184 52 -58 109
-119 125 -136 17 -18 53 -58 80 -90 28 -32 60 -70 73 -84 135 -150 505 -598
657 -796 39 -49 73 -94 78 -100 70 -90 281 -380 439 -605 122 -175 398 -596
398 -609 0 -5 4 -11 8 -13 5 -1 28 -37 52 -78 24 -41 55 -89 68 -107 17 -23
24 -48 27 -95 5 -79 15 -185 20 -218 2 -14 6 -56 10 -95 3 -38 7 -81 9 -95 3
-14 10 -67 16 -119 12 -90 51 -320 65 -371 3 -14 8 -35 11 -47 11 -56 80 -237
120 -317 68 -136 138 -230 264 -357 125 -126 223 -201 400 -304 141 -83 427
-227 493 -249 25 -8 334 303 469 472 169 211 275 377 399 617 34 66 66 126 71
133 6 6 7 12 3 12 -4 0 -3 6 3 13 9 11 68 153 122 292 53 140 116 365 144 525
22 123 23 130 31 201 3 35 8 82 10 104 6 51 6 370 0 410 -2 17 -7 59 -10 95
-3 36 -7 76 -10 90 -3 14 -7 41 -10 60 -7 45 -21 110 -50 235 -13 55 -27 145
-30 200 -4 55 -8 106 -10 115 -1 8 -6 42 -10 75 -4 32 -9 68 -11 80 -3 11 -7
38 -10 60 -37 269 -148 636 -288 957 -74 170 -199 435 -226 478 -5 8 -18 34
-30 56 -18 37 -98 181 -157 285 -179 313 -584 875 -863 1199 -27 30 -80 93
-120 140 -40 47 -84 99 -99 115 -14 17 -51 59 -81 95 -30 36 -57 67 -60 70 -3
3 -30 34 -60 70 -30 36 -58 67 -61 70 -4 3 -49 55 -100 116 -52 61 -133 155
-181 210 -75 87 -91 112 -126 199 -90 228 -207 368 -577 695 -239 211 -517
488 -616 615 -51 65 -134 196 -174 274 -11 23 -15 45 -10 70 8 48 75 253 86
265 5 6 9 17 9 25 0 51 270 531 447 796 43 65 83 125 88 134 17 27 49 75 58
86 4 6 76 107 159 225 84 118 156 220 160 225 5 6 26 35 48 65 22 30 43 60 47
65 71 91 324 498 338 543 14 47 64 54 160 24 38 -12 90 -6 117 12 18 13 20 25
20 138 0 196 33 349 130 603 97 253 207 450 344 617 l63 76 -25 79 c-14 43
-27 85 -29 93 -2 8 -15 62 -30 120 -15 58 -29 113 -31 123 -2 9 -6 27 -9 40
-3 12 -7 36 -10 52 -3 17 -10 53 -15 80 -6 28 -12 61 -15 75 -3 14 -7 36 -10
50 -11 54 -14 73 -21 153 -15 165 -5 348 27 502 6 28 13 61 15 74 3 13 11 49
18 80 13 60 14 175 2 281 -9 78 -40 179 -97 315 -22 55 -57 138 -76 185 -121
294 -150 446 -116 607 9 47 10 69 3 73 -10 6 -35 8 -155 14 -22 1 -69 -2 -105
-5z"/>
<path d="M13920 4194 c-25 -43 -50 -87 -57 -99 -7 -11 -16 -27 -20 -35 -4 -8
-26 -48 -50 -88 -156 -263 -553 -1028 -553 -1064 0 -3 -20 -48 -44 -99 -162
-348 -365 -922 -511 -1452 -20 -70 -47 -153 -60 -184 -14 -30 -25 -57 -25 -59
0 -2 750 -4 1666 -4 l1665 0 -5 43 c-3 23 -10 71 -16 107 -6 36 -13 76 -15 90
-2 14 -13 95 -24 180 -17 133 -25 199 -35 305 -3 27 -15 49 -108 189 -43 65
-78 120 -78 121 0 9 -299 441 -414 600 -46 63 -96 131 -103 140 -4 6 -35 46
-68 90 -56 74 -219 285 -250 323 -8 9 -60 73 -116 142 -85 105 -246 296 -284
336 -16 18 -132 147 -152 170 -10 12 -64 70 -119 130 -56 60 -119 129 -140
152 l-39 44 -45 -78z"/>
</g>
</svg>
