<svg xmlns="http://www.w3.org/2000/svg" xmlns:xlink="http://www.w3.org/1999/xlink" viewBox="0 0 39 26" stroke-width="0.04" stroke="white" fill="#eee">
    <style>#canada-2015-svg rect{ cursor:pointer; transition: fill 1000ms, opacity 500ms }</style>
    <g id="canada-2015-svg">
        <!--Yukon, NW Territories, Nunavut-->
        <rect x="0" y="4" width="1" height="1" name="201560001"/>
        <rect x="1" y="4" width="1" height="1" name="201561001"/>
        <rect x="2" y="4" width="1" height="1" name="201562001"/>

        <!--Newfoundland and Labrador-->
        <rect x="34" y="0" width="1" height="1" name="201510005"/>
        <rect x="35" y="0" width="1" height="1" name="201510002"/>
        <rect x="30" y="1" width="1" height="1" name="201510004"/>
        <rect x="34" y="1" width="1" height="1" name="201510003"/>
        <rect x="35" y="1" width="1" height="1" name="201510001"/>
        <rect x="36" y="1" width="1" height="1" name="201510006"/>
        <rect x="37" y="1" width="1" height="1" name="201510007"/>

        <!--Prince Edward Island-->
        <rect x="34" y="3" width="1" height="1" name="201511003"/>
        <rect x="35" y="3" width="1" height="1" name="201511004"/>
        <rect x="36" y="3" width="1" height="1" name="201511001"/>
        <rect x="36" y="4" width="1" height="1" name="201511002"/>

        <!--Nova Scotia-->
        <rect x="38" y="5" width="1" height="1" name="201512010"/>
        <rect x="36" y="6" width="1" height="1" name="201512003"/>
        <rect x="37" y="6" width="1" height="1" name="201512002"/>
        <rect x="38" y="6" width="1" height="1" name="201512001"/>
        <rect x="36" y="7" width="1" height="1" name="201512007"/>
        <rect x="37" y="7" width="1" height="1" name="201512006"/>
        <rect x="38" y="7" width="1" height="1" name="201512008"/>
        <rect x="37" y="8" width="1" height="1" name="201512005"/>
        <rect x="38" y="8" width="1" height="1" name="201512004"/>
        <rect x="36" y="9" width="1" height="1" name="201512011"/>
        <rect x="37" y="9" width="1" height="1" name="201512009"/>

        <!--New Brunswick-->
        <rect x="32" y="5" width="1" height="1" name="201513005"/>
        <rect x="33" y="5" width="1" height="1" name="201513001"/>
        <rect x="34" y="5" width="1" height="1" name="201513007"/>
        <rect x="32" y="6" width="1" height="1" name="201513010"/>
        <rect x="33" y="6" width="1" height="1" name="201513003"/>
        <rect x="34" y="6" width="1" height="1" name="201513006"/>
        <rect x="35" y="6" width="1" height="1" name="201513002"/>
        <rect x="33" y="7" width="1" height="1" name="201513008"/>
        <rect x="34" y="7" width="1" height="1" name="201513009"/>
        <rect x="35" y="7" width="1" height="1" name="201513004"/>

        <!--British Columbia-->
        <rect x="0" y="5" width="1" height="1" name="201559028"/>
        <rect x="1" y="5" width="1" height="1" name="201559024"/>
        <rect x="2" y="5" width="1" height="1" name="202559015"/>
        <rect x="3" y="5" width="1" height="1" name="202559014"/>
        <rect x="4" y="5" width="1" height="1" name="202559007"/>
        <rect x="0" y="6" width="1" height="1" name="201559004"/>
        <rect x="1" y="6" width="1" height="1" name="202559022"/>
        <rect x="2" y="6" width="1" height="1" name="202559023"/>
        <rect x="3" y="6" width="1" height="1" name="202559016"/>
        <rect x="4" y="6" width="1" height="1" name="202559041"/>
        <rect x="0" y="7" width="1" height="1" name="201559034"/>
        <rect x="1" y="7" width="1" height="1" name="201559002"/>
        <rect x="2" y="7" width="1" height="1" name="201559023"/>
        <rect x="3" y="7" width="1" height="1" name="201559008"/>
        <rect x="4" y="7" width="1" height="1" name="201559006"/>
        <rect x="5" y="7" width="1" height="1" name="202559030"/>
        <rect x="0" y="8" width="1" height="1" name="201559039"/>
        <rect x="1" y="8" width="1" height="1" name="201559036"/>
        <rect x="2" y="8" width="1" height="1" name="201559035"/>
        <rect x="3" y="8" width="1" height="1" name="201559038"/>
        <rect x="4" y="8" width="1" height="1" name="202559037"/>
        <rect x="5" y="8" width="1" height="1" name="202559020"/>
        <rect x="6" y="8" width="1" height="1" name="202559018"/>
        <rect x="0" y="9" width="1" height="1" name="201559037"/>
        <rect x="1" y="9" width="1" height="1" name="201559042"/>
        <rect x="2" y="9" width="1" height="1" name="202559027"/>
        <rect x="3" y="9" width="1" height="1" name="202559028"/>
        <rect x="4" y="9" width="1" height="1" name="202559002"/>
        <rect x="5" y="9" width="1" height="1" name="201559032"/>
        <rect x="6" y="9" width="1" height="1" name="201559012"/>
        <rect x="7" y="9" width="1" height="1" name="201559022"/>
        <rect x="1" y="10" width="1" height="1" name="201559009"/>
        <rect x="2" y="10" width="1" height="1" name="201559010"/>
        <rect x="3" y="10" width="1" height="1" name="201559018"/>
        <rect x="4" y="10" width="1" height="1" name="201559011"/>
        <rect x="5" y="10" width="1" height="1" name="202559034"/>
        <rect x="6" y="10" width="1" height="1" name="201559007"/>
        <rect x="7" y="10" width="1" height="1" name="202559017"/>
        <rect x="3" y="11" width="1" height="1" name="201559026"/>
        <rect x="4" y="11" width="1" height="1" name="201559041"/>
        <rect x="5" y="11" width="1" height="1" name="201559027"/>
        <rect x="6" y="11" width="1" height="1" name="201559030"/>
        <rect x="7" y="11" width="1" height="1" name="202559001"/>

        <!--Alberta-->
        <rect x="5" y="5" width="1" height="1" name="202548026"/>
        <rect x="6" y="5" width="1" height="1" name="201548028"/>
        <rect x="7" y="5" width="1" height="1" name="201548015"/>
        <rect x="8" y="5" width="1" height="1" name="201548016"/>
        <rect x="9" y="5" width="1" height="1" name="202548036"/>
        <rect x="10" y="5" width="1" height="1" name="201548032"/>
        <rect x="11" y="5" width="1" height="1" name="201548023"/>
        <rect x="5" y="6" width="1" height="1" name="202548031"/>
        <rect x="6" y="6" width="1" height="1" name="202548019"/>
        <rect x="7" y="6" width="1" height="1" name="201548020"/>
        <rect x="8" y="6" width="1" height="1" name="201548014"/>
        <rect x="9" y="6" width="1" height="1" name="202548016"/>
        <rect x="10" y="6" width="1" height="1" name="201548019"/>
        <rect x="11" y="6" width="1" height="1" name="201548025"/>
        <rect x="6" y="7" width="1" height="1" name="201548034"/>
        <rect x="7" y="7" width="1" height="1" name="202548033"/>
        <rect x="8" y="7" width="1" height="1" name="202548034"/>
        <rect x="9" y="7" width="1" height="1" name="201548018"/>
        <rect x="10" y="7" width="1" height="1" name="202548021"/>
        <rect x="11" y="7" width="1" height="1" name="202548028"/>
        <rect x="7" y="8" width="1" height="1" name="202548001"/>
        <rect x="8" y="8" width="1" height="1" name="201548009"/>
        <rect x="9" y="8" width="1" height="1" name="201548013"/>
        <rect x="10" y="8" width="1" height="1" name="202548009"/>
        <rect x="11" y="8" width="1" height="1" name="201548002"/>
        <rect x="8" y="9" width="1" height="1" name="202548006"/>
        <rect x="9" y="9" width="1" height="1" name="201548005"/>
        <rect x="10" y="9" width="1" height="1" name="201548004"/>
        <rect x="11" y="9" width="1" height="1" name="202548007"/>
        <rect x="8" y="10" width="1" height="1" name="201548012"/>
        <rect x="9" y="10" width="1" height="1" name="201548007"/>
        <rect x="10" y="10" width="1" height="1" name="201548008"/>
        <rect x="11" y="10" width="1" height="1" name="201548011"/>
        <rect x="8" y="11" width="1" height="1" name="201548022"/>
        <rect x="9" y="11" width="1" height="1" name="201548026"/>
        <rect x="10" y="11" width="1" height="1" name="201548003"/>
        <rect x="11" y="11" width="1" height="1" name="201548027"/>

        <!--Saskatchewan-->
        <rect x="12" y="6" width="1" height="1" name="201547003"/>
        <rect x="12" y="7" width="1" height="1" name="202547001"/>
        <rect x="13" y="7" width="1" height="1" name="201547006"/>
        <rect x="12" y="8" width="1" height="1" name="201547011"/>
        <rect x="13" y="8" width="1" height="1" name="201547004"/>
        <rect x="12" y="9" width="1" height="1" name="201547012"/>
        <rect x="13" y="9" width="1" height="1" name="202547009"/>
        <rect x="12" y="10" width="1" height="1" name="201547005"/>
        <rect x="13" y="10" width="1" height="1" name="201547014"/>
        <rect x="12" y="11" width="1" height="1" name="201547007"/>
        <rect x="13" y="11" width="1" height="1" name="201547008"/>
        <rect x="12" y="12" width="1" height="1" name="202547013"/>
        <rect x="13" y="12" width="1" height="1" name="201547009"/>
        <rect x="13" y="13" width="1" height="1" name="201547013"/>

        <!--Manitoba-->
        <rect x="14" y="8" width="1" height="1" name="201546003"/>
        <rect x="14" y="9" width="1" height="1" name="202546007"/>
        <rect x="15" y="9" width="1" height="1" name="201546012"/>
        <rect x="16" y="9" width="1" height="1" name="201546006"/>
        <rect x="17" y="9" width="1" height="1" name="201546010"/>
        <rect x="14" y="10" width="1" height="1" name="202546014"/>
        <rect x="15" y="10" width="1" height="1" name="201546011"/>
        <rect x="16" y="10" width="1" height="1" name="201546005"/>
        <rect x="14" y="11" width="1" height="1" name="201546014"/>
        <rect x="15" y="11" width="1" height="1" name="202546008"/>
        <rect x="14" y="12" width="1" height="1" name="201546007"/>
        <rect x="15" y="12" width="1" height="1" name="201546013"/>
        <rect x="14" y="13" width="1" height="1" name="201546001"/>
        <rect x="15" y="13" width="1" height="1" name="201546008"/>

        <!--Ontario-->
        <rect x="18" y="9" width="1" height="1" name="201535105"/>
        <rect x="19" y="9" width="1" height="1" name="201535106"/>
        <rect x="20" y="9" width="1" height="1" name="202535044"/>
        <rect x="17" y="10" width="1" height="1" name="202535091"/>
        <rect x="18" y="10" width="1" height="1" name="202535104"/>
        <rect x="19" y="10" width="1" height="1" name="201535103"/>
        <rect x="20" y="10" width="1" height="1" name="201535070"/>
        <rect x="21" y="10" width="1" height="1" name="202535002"/>
        <rect x="22" y="10" width="1" height="1" name="202535081"/>
        <rect x="23" y="10" width="1" height="1" name="202535043"/>
        <rect x="24" y="10" width="1" height="1" name="201535079"/>
        <rect x="16" y="11" width="1" height="1" name="202535045"/>
        <rect x="17" y="11" width="1" height="1" name="201535082"/>
        <rect x="18" y="11" width="1" height="1" name="202535035"/>
        <rect x="19" y="11" width="1" height="1" name="202535040"/>
        <rect x="20" y="11" width="1" height="1" name="201535006"/>
        <rect x="21" y="11" width="1" height="1" name="201535044"/>
        <rect x="22" y="11" width="1" height="1" name="202535051"/>
        <rect x="23" y="11" width="1" height="1" name="201535064"/>
        <rect x="24" y="11" width="1" height="1" name="201535075"/>
        <rect x="16" y="12" width="1" height="1" name="201535100"/>
        <rect x="17" y="12" width="1" height="1" name="201535005"/>
        <rect x="18" y="12" width="1" height="1" name="202535004"/>
        <rect x="19" y="12" width="1" height="1" name="202535121"/>
        <rect x="20" y="12" width="1" height="1" name="202535086"/>
        <rect x="21" y="12" width="1" height="1" name="202535074"/>
        <rect x="22" y="12" width="1" height="1" name="202535052"/>
        <rect x="23" y="12" width="1" height="1" name="201535088"/>
        <rect x="24" y="12" width="1" height="1" name="201535077"/>
        <rect x="25" y="12" width="1" height="1" name="201535076"/>
        <rect x="26" y="12" width="1" height="1" name="202535088"/>
        <rect x="16" y="13" width="1" height="1" name="201535099"/>
        <rect x="17" y="13" width="1" height="1" name="202535008"/>
        <rect x="18" y="13" width="1" height="1" name="201535074"/>
        <rect x="19" y="13" width="1" height="1" name="202535097"/>
        <rect x="20" y="13" width="1" height="1" name="201535098"/>
        <rect x="21" y="13" width="1" height="1" name="201535096"/>
        <rect x="22" y="13" width="1" height="1" name="201535093"/>
        <rect x="23" y="13" width="1" height="1" name="201535054"/>
        <rect x="24" y="13" width="1" height="1" name="202535102"/>
        <rect x="16" y="14" width="1" height="1" name="202535069"/>
        <rect x="17" y="14" width="1" height="1" name="201535001"/>
        <rect x="18" y="14" width="1" height="1" name="201535114"/>
        <rect x="19" y="14" width="1" height="1" name="202535093"/>
        <rect x="20" y="14" width="1" height="1" name="201535104"/>
        <rect x="21" y="14" width="1" height="1" name="202535089"/>
        <rect x="22" y="14" width="1" height="1" name="201535056"/>
        <rect x="23" y="14" width="1" height="1" name="201535055"/>
        <rect x="24" y="14" width="1" height="1" name="202535094"/>
        <rect x="16" y="15" width="1" height="1" name="201535065"/>
        <rect x="17" y="15" width="1" height="1" name="201535115"/>
        <rect x="18" y="15" width="1" height="1" name="202535087"/>
        <rect x="19" y="15" width="1" height="1" name="201535007"/>
        <rect x="20" y="15" width="1" height="1" name="201535121"/>
        <rect x="21" y="15" width="1" height="1" name="201535118"/>
        <rect x="22" y="15" width="1" height="1" name="201535024"/>
        <rect x="23" y="15" width="1" height="1" name="201535108"/>
        <rect x="24" y="15" width="1" height="1" name="201535109"/>
        <rect x="16" y="16" width="1" height="1" name="201535003"/>
        <rect x="17" y="16" width="1" height="1" name="201535043"/>
        <rect x="18" y="16" width="1" height="1" name="201535020"/>
        <rect x="19" y="16" width="1" height="1" name="201535021"/>
        <rect x="20" y="16" width="1" height="1" name="201535029"/>
        <rect x="21" y="16" width="1" height="1" name="201535027"/>
        <rect x="22" y="16" width="1" height="1" name="202535122"/>
        <rect x="23" y="16" width="1" height="1" name="201535018"/>
        <rect x="24" y="16" width="1" height="1" name="201535090"/>
        <rect x="25" y="16" width="1" height="1" name="201535110"/>
        <rect x="18" y="17" width="1" height="1" name="201535111"/>
        <rect x="19" y="17" width="1" height="1" name="201535009"/>
        <rect x="20" y="17" width="1" height="1" name="201535058"/>
        <rect x="21" y="17" width="1" height="1" name="201535059"/>
        <rect x="22" y="17" width="1" height="1" name="201535028"/>
        <rect x="23" y="17" width="1" height="1" name="202535105"/>
        <rect x="24" y="17" width="1" height="1" name="202535100"/>
        <rect x="17" y="18" width="1" height="1" name="201535022"/>
        <rect x="18" y="18" width="1" height="1" name="201535008"/>
        <rect x="19" y="18" width="1" height="1" name="202535010"/>
        <rect x="20" y="18" width="1" height="1" name="201535011"/>
        <rect x="21" y="18" width="1" height="1" name="201535062"/>
        <rect x="22" y="18" width="1" height="1" name="202535060"/>
        <rect x="23" y="18" width="1" height="1" name="201535063"/>
        <rect x="24" y="18" width="1" height="1" name="201535060"/>
        <rect x="25" y="18" width="1" height="1" name="201535061"/>
        <rect x="17" y="19" width="1" height="1" name="201535014"/>
        <rect x="18" y="19" width="1" height="1" name="202535012"/>
        <rect x="19" y="19" width="1" height="1" name="201535012"/>
        <rect x="20" y="19" width="1" height="1" name="201535032"/>
        <rect x="21" y="19" width="1" height="1" name="202535115"/>
        <rect x="22" y="19" width="1" height="1" name="202535018"/>
        <rect x="23" y="19" width="1" height="1" name="202535076"/>
        <rect x="24" y="19" width="1" height="1" name="202535075"/>
        <rect x="18" y="20" width="1" height="1" name="201535112"/>
        <rect x="19" y="20" width="1" height="1" name="201535045"/>
        <rect x="20" y="20" width="1" height="1" name="202535032"/>
        <rect x="21" y="20" width="1" height="1" name="201535038"/>
        <rect x="22" y="20" width="1" height="1" name="201535035"/>
        <rect x="23" y="20" width="1" height="1" name="201535015"/>
        <rect x="17" y="21" width="1" height="1" name="201535046"/>
        <rect x="18" y="21" width="1" height="1" name="201535047"/>
        <rect x="19" y="21" width="1" height="1" name="201535016"/>
        <rect x="20" y="21" width="1" height="1" name="202535015"/>
        <rect x="21" y="21" width="1" height="1" name="201535037"/>
        <rect x="22" y="21" width="1" height="1" name="201535036"/>
        <rect x="17" y="22" width="1" height="1" name="201535083"/>
        <rect x="18" y="22" width="1" height="1" name="201535080"/>
        <rect x="19" y="22" width="1" height="1" name="201535068"/>
        <rect x="20" y="22" width="1" height="1" name="201535089"/>
        <rect x="21" y="22" width="1" height="1" name="202535070"/>
        <rect x="22" y="22" width="1" height="1" name="202535071"/>
        <rect x="16" y="23" width="1" height="1" name="202535090"/>
        <rect x="17" y="23" width="1" height="1" name="201535040"/>
        <rect x="18" y="23" width="1" height="1" name="202535059"/>
        <rect x="19" y="23" width="1" height="1" name="201535053"/>
        <rect x="20" y="23" width="1" height="1" name="202535053"/>
        <rect x="21" y="23" width="1" height="1" name="201535051"/>
        <rect x="16" y="24" width="1" height="1" name="201535117"/>
        <rect x="17" y="24" width="1" height="1" name="202535118"/>
        <rect x="18" y="24" width="1" height="1" name="202535027"/>
        <rect x="19" y="24" width="1" height="1" name="201535033"/>
        <rect x="16" y="25" width="1" height="1" name="201535026"/>
        <rect x="17" y="25" width="1" height="1" name="202535021"/>

        <!--Quebec-->
        <rect x="29" y="1" width="1" height="1" name="201524001"/>
        <rect x="29" y="2" width="1" height="1" name="201524035"/>
        <rect x="30" y="2" width="1" height="1" name="202524021"/>
        <rect x="29" y="3" width="1" height="1" name="201524070"/>
        <rect x="30" y="3" width="1" height="1" name="202524051"/>
        <rect x="31" y="3" width="1" height="1" name="201524032"/>
        <rect x="28" y="4" width="1" height="1" name="201524019"/>
        <rect x="29" y="4" width="1" height="1" name="202524020"/>
        <rect x="30" y="4" width="1" height="1" name="201524058"/>
        <rect x="31" y="4" width="1" height="1" name="201524022"/>
        <rect x="28" y="5" width="1" height="1" name="202524059"/>
        <rect x="29" y="5" width="1" height="1" name="201524008"/>
        <rect x="30" y="5" width="1" height="1" name="202524062"/>
        <rect x="31" y="5" width="1" height="1" name="202524024"/>
        <rect x="28" y="6" width="1" height="1" name="202524044"/>
        <rect x="29" y="6" width="1" height="1" name="201524044"/>
        <rect x="30" y="6" width="1" height="1" name="201524042"/>
        <rect x="31" y="6" width="1" height="1" name="201524010"/>
        <rect x="26" y="7" width="1" height="1" name="201524038"/>
        <rect x="27" y="7" width="1" height="1" name="201524012"/>
        <rect x="28" y="7" width="1" height="1" name="201524076"/>
        <rect x="29" y="7" width="1" height="1" name="202524009"/>
        <rect x="30" y="7" width="1" height="1" name="202524046"/>
        <rect x="31" y="7" width="1" height="1" name="201524007"/>
        <rect x="26" y="8" width="1" height="1" name="202524057"/>
        <rect x="27" y="8" width="1" height="1" name="202524029"/>
        <rect x="28" y="8" width="1" height="1" name="201524025"/>
        <rect x="29" y="8" width="1" height="1" name="201524061"/>
        <rect x="30" y="8" width="1" height="1" name="201524073"/>
        <rect x="25" y="9" width="1" height="1" name="201524002"/>
        <rect x="26" y="9" width="1" height="1" name="201524005"/>
        <rect x="27" y="9" width="1" height="1" name="202524039"/>
        <rect x="28" y="9" width="1" height="1" name="201524014"/>
        <rect x="29" y="9" width="1" height="1" name="202524066"/>
        <rect x="30" y="9" width="1" height="1" name="201524023"/>
        <rect x="25" y="10" width="1" height="1" name="201524027"/>
        <rect x="26" y="10" width="1" height="1" name="201524048"/>
        <rect x="27" y="10" width="1" height="1" name="201524063"/>
        <rect x="28" y="10" width="1" height="1" name="201524050"/>
        <rect x="29" y="10" width="1" height="1" name="201524075"/>
        <rect x="30" y="10" width="1" height="1" name="201524060"/>
        <rect x="25" y="11" width="1" height="1" name="201524030"/>
        <rect x="26" y="11" width="1" height="1" name="201524062"/>
        <rect x="27" y="11" width="1" height="1" name="202524074"/>
        <rect x="28" y="11" width="1" height="1" name="201524004"/>
        <rect x="29" y="11" width="1" height="1" name="201524029"/>
        <rect x="30" y="11" width="1" height="1" name="201524033"/>
        <rect x="27" y="12" width="1" height="1" name="201524065"/>
        <rect x="28" y="12" width="1" height="1" name="201524078"/>
        <rect x="29" y="12" width="1" height="1" name="201524015"/>
        <rect x="30" y="12" width="1" height="1" name="201524069"/>
        <rect x="25" y="13" width="1" height="1" name="201524056"/>
        <rect x="26" y="13" width="1" height="1" name="201524040"/>
        <rect x="27" y="13" width="1" height="1" name="201524003"/>
        <rect x="28" y="13" width="1" height="1" name="201524055"/>
        <rect x="29" y="13" width="1" height="1" name="202524026"/>
        <rect x="30" y="13" width="1" height="1" name="201524043"/>
        <rect x="25" y="14" width="1" height="1" name="201524036"/>
        <rect x="26" y="14" width="1" height="1" name="201524068"/>
        <rect x="27" y="14" width="1" height="1" name="201524054"/>
        <rect x="28" y="14" width="1" height="1" name="201524064"/>
        <rect x="29" y="14" width="1" height="1" name="201524039"/>
        <rect x="30" y="14" width="1" height="1" name="201524041"/>
        <rect x="25" y="15" width="1" height="1" name="201524024"/>
        <rect x="26" y="15" width="1" height="1" name="201524037"/>
        <rect x="27" y="15" width="1" height="1" name="201524052"/>
        <rect x="28" y="15" width="1" height="1" name="201524053"/>
        <rect x="29" y="15" width="1" height="1" name="201524077"/>
        <rect x="30" y="15" width="1" height="1" name="201524017"/>
        <rect x="26" y="16" width="1" height="1" name="202524076"/>
        <rect x="27" y="16" width="1" height="1" name="202524049"/>
        <rect x="28" y="16" width="1" height="1" name="201524011"/>
        <rect x="29" y="16" width="1" height="1" name="201524072"/>
        <rect x="25" y="17" width="1" height="1" name="202524007"/>
        <rect x="26" y="17" width="1" height="1" name="202524017"/>
        <rect x="27" y="17" width="1" height="1" name="202524032"/>
        <rect x="28" y="17" width="1" height="1" name="201524067"/>
        <rect x="29" y="17" width="1" height="1" name="201524016"/>
    </g>
    <!--Provincial borders-->
    <g style="pointer-events:none" stroke-width="0.16" fill="none">
        <path d="M0 5l1 0l0 -1"/>
        <path d="M1 5l1 0l0 -1"/>
        <path d="M2 5l1 0"/>
        <path d="M3 5l2 0l0 2l1 0l0 1l1 0l0 1l1 0l0 3"/>
        <path d="M5 5l7 0l0 8"/>
        <path d="M14 7l0 7"/>
        <path d="M18 9l0 1l-1 0l0 1l-1 0l0 6"/>
        <path d="M30 1l0 1l1 0"/>
        <path d="M36 6l0 2"/>
        <path d="M32 3l0 5"/>
        <path d="M25 9l0 3l2 0l0 1l-1 0l0 3l1 0l0 1l-1 0l0 2"/>
    </g>
</svg>