<?xml version="1.0" encoding="utf-8"?>
<svg version="1.1" xmlns="http://www.w3.org/2000/svg" xmlns:xlink="http://www.w3.org/1999/xlink" viewBox="-57.5 0 499.5 364" stroke-width="1" stroke="white" fill="#eee">
    <style>#france-1985-svg rect{ cursor:pointer; transition: fill 1000ms, fill-opacity 500ms }</style>
    <path d="m-31 130l56 0l0 26l26 0l0 29l-82 0l0 -56" fill="rgb(242,242,242)" stroke-width="0" />
    <path d="m0 260l26 0l0 78l-52 0l0 -52l26 0l0 -26" fill="rgb(242,242,242)" stroke-width="0" />
    <rect x="-31" y="21" width="87" height="164" fill="none" stroke="rgb(242,242,242)" stroke-width="1"/>
    <rect x="-57" y="229" width="139" height="113" fill="none" stroke="rgb(242,242,242)" stroke-width="1"/>
    
    <g id="france-1985-svg">
        <rect x="312" y="182" width="25" height="25" name="1985001"/><rect x="260" y="26" width="25" height="25" name="1985002"/><rect x="260" y="182" width="25" height="25" name="1985003"/><rect x="312" y="260" width="25" height="25" name="1985004"/><rect x="364" y="260" width="25" height="25" name="1985006"/><rect x="286" y="234" width="25" height="25" name="1985007"/><rect x="286" y="26" width="25" height="25" name="1985008"/><rect x="208" y="312" width="25" height="25" name="1985009"/><rect x="286" y="78" width="25" height="25" name="1985010"/><rect x="208" y="286" width="25" height="25" name="1985011"/><rect x="208" y="260" width="25" height="25" name="1985012"/><rect x="390" y="78" width="25" height="25" name="1985067"/><rect x="312" y="286" width="25" height="25" name="1985013"/><rect x="312" y="130" width="25" height="25" name="1985021"/><rect x="130" y="104" width="25" height="25" name="1985022"/><rect x="182" y="78" width="25" height="25" name="1985014"/><rect x="234" y="234" width="25" height="25" name="1985015"/><rect x="208" y="208" width="25" height="25" name="1985016"/><rect x="182" y="208" width="25" height="25" name="1985017"/><rect x="208" y="156" width="25" height="25" name="1985018"/><rect x="208" y="234" width="25" height="25" name="1985019"/><rect x="416" y="312" width="25" height="25" name="198502A"/><rect x="260" y="208" width="25" height="25" name="1985023"/><rect x="208" y="182" width="25" height="25" name="1985079"/><rect x="182" y="234" width="25" height="25" name="1985024"/><rect x="338" y="156" width="25" height="25" name="1985025"/><rect x="312" y="234" width="25" height="25" name="1985026"/><rect x="260" y="156" width="25" height="25" name="1985091"/><rect x="208" y="52" width="25" height="25" name="1985027"/><rect x="208" y="104" width="25" height="25" name="1985028"/><rect x="104" y="104" width="25" height="25" name="1985029"/><rect x="260" y="260" width="25" height="25" name="1985030"/><rect x="156" y="312" width="25" height="25" name="1985032"/><rect x="156" y="234" width="25" height="25" name="1985033"/><rect x="234" y="286" width="25" height="25" name="1985034"/><rect x="364" y="104" width="25" height="25" name="1985068"/><rect x="416" y="286" width="25" height="25" name="198502B"/><rect x="182" y="312" width="25" height="25" name="1985031"/><rect x="260" y="234" width="25" height="25" name="1985043"/><rect x="312" y="78" width="25" height="25" name="1985052"/><rect x="312" y="104" width="25" height="25" name="1985070"/><rect x="338" y="182" width="25" height="25" name="1985074"/><rect x="234" y="208" width="25" height="25" name="1985087"/><rect x="338" y="260" width="25" height="25" name="1985005"/><rect x="182" y="338" width="25" height="25" name="1985065"/><rect x="234" y="104" width="25" height="25" name="1985092"/><rect x="156" y="104" width="25" height="25" name="1985035"/><rect x="182" y="156" width="25" height="25" name="1985036"/><rect x="156" y="156" width="25" height="25" name="1985037"/><rect x="338" y="234" width="25" height="25" name="1985038"/><rect x="312" y="156" width="25" height="25" name="1985039"/><rect x="130" y="286" width="25" height="25" name="1985040"/><rect x="208" y="130" width="25" height="25" name="1985041"/><rect x="312" y="208" width="25" height="25" name="1985042"/><rect x="156" y="130" width="25" height="25" name="1985044"/><rect x="234" y="156" width="25" height="25" name="1985045"/><rect x="182" y="260" width="25" height="25" name="1985046"/><rect x="156" y="260" width="25" height="25" name="1985047"/><rect x="234" y="260" width="25" height="25" name="1985048"/><rect x="182" y="130" width="25" height="25" name="1985049"/><rect x="156" y="52" width="25" height="25" name="1985050"/><rect x="286" y="52" width="25" height="25" name="1985051"/><rect x="156" y="78" width="25" height="25" name="1985053"/><rect x="338" y="52" width="25" height="25" name="1985054"/><rect x="312" y="52" width="25" height="25" name="1985055"/><rect x="130" y="130" width="25" height="25" name="1985056"/><rect x="364" y="78" width="25" height="25" name="1985057"/><rect x="286" y="130" width="25" height="25" name="1985058"/><rect x="260" y="0" width="25" height="25" name="1985059"/><rect x="234" y="52" width="25" height="25" name="1985060"/><rect x="208" y="78" width="25" height="25" name="1985061"/><rect x="260" y="104" width="25" height="25" name="1985075"/><rect x="234" y="0" width="25" height="25" name="1985062"/><rect x="286" y="208" width="25" height="25" name="1985063"/><rect x="130" y="312" width="25" height="25" name="1985064"/><rect x="208" y="338" width="25" height="25" name="1985066"/><rect x="286" y="182" width="25" height="25" name="1985069"/><rect x="286" y="156" width="25" height="25" name="1985071"/><rect x="182" y="104" width="25" height="25" name="1985072"/><rect x="338" y="208" width="25" height="25" name="1985073"/><rect x="260" y="52" width="25" height="25" name="1985077"/><rect x="208" y="26" width="25" height="25" name="1985076"/><rect x="260" y="78" width="25" height="25" name="1985093"/><rect x="234" y="26" width="25" height="25" name="1985080"/><rect x="182" y="286" width="25" height="25" name="1985081"/><rect x="156" y="286" width="25" height="25" name="1985082"/><rect x="338" y="104" width="25" height="25" name="1985090"/><rect x="234" y="78" width="25" height="25" name="1985095"/><rect x="260" y="130" width="25" height="25" name="1985094"/><rect x="338" y="286" width="25" height="25" name="1985083"/><rect x="286" y="260" width="25" height="25" name="1985084"/><rect x="182" y="182" width="25" height="25" name="1985085"/><rect x="234" y="182" width="25" height="25" name="1985086"/><rect x="338" y="78" width="25" height="25" name="1985088"/><rect x="286" y="104" width="25" height="25" name="1985089"/><rect x="234" y="130" width="25" height="25" name="1985078"/>

        <rect x="-26" y="26" width="25" height="25" name="1985971"/>
        <rect x="-26" y="78" width="25" height="25" name="1985972"/>
        <rect x="26" y="130" width="25" height="25" name="1985973"/>

        <rect x="-52" y="234" width="25" height="25" name="1985976"/>

        <rect x="52" y="286" width="25" height="25" name="1985974"/>
    </g>
</svg>