<svg version="1.1" xmlns="http://www.w3.org/2000/svg" xmlns:xlink="http://www.w3.org/19.69.69.6/xlink" viewbox="0 0 290 100" stroke-width="0.4" stroke="#fff" fill="#eee">
    <style>#hungary-2014-svg rect{ cursor:pointer; transition: fill 1000ms, fill-opacity 500ms }</style>
    <g id="hungary-2014-svg">
        <rect x="110" y="0" width="9.6" height="9.6" name="2014BAZ3"/>
        <rect x="120" y="0" width="9.6" height="9.6" name="2014BAZ4"/>
        <rect x="130" y="0" width="9.6" height="9.6" name="2014BAZ5"/>

        <rect x="10" y="10" width="9.6" height="9.6" name="2014GMS5"/>
        <rect x="80" y="10" width="9.6" height="9.6" name="2014Pes4"/>
        <rect x="90" y="10" width="9.6" height="9.6" name="2014Nog2"/>
        <rect x="100" y="10" width="9.6" height="9.6" name="2014Nog1"/>
        <rect x="110" y="10" width="9.6" height="9.6" name="2014BAZ6"/>
        <rect x="120" y="10" width="9.6" height="9.6" name="2014SSB2"/>
        <rect x="130" y="10" width="9.6" height="9.6" name="2014SSB3"/>
        <rect x="140" y="10" width="9.6" height="9.6" name="2014SSB4"/>

        <rect x="0" y="20" width="9.6" height="9.6" name="2014GMS4"/>
        <rect x="10" y="20" width="9.6" height="9.6" name="2014GMS3"/>
        <rect x="20" y="20" width="9.6" height="9.6" name="2014GMS1"/>
        <rect x="30" y="20" width="9.6" height="9.6" name="2014GMS2"/>
        <rect x="40" y="20" width="9.6" height="9.6" name="2014KE3"/>
        <rect x="50" y="20" width="9.6" height="9.6" name="2014KE1"/>
        <rect x="60" y="20" width="9.6" height="9.6" name="2014KE2"/>
        <rect x="70" y="20" width="9.6" height="9.6" name="2014Pes3"/>
        <rect x="80" y="20" width="9.6" height="9.6" name="2014Bud12"/>
        <rect x="90" y="20" width="9.6" height="9.6" name="2014Pes5"/>
        <rect x="100" y="20" width="9.6" height="9.6" name="2014BAZ2"/>
        <rect x="110" y="20" width="9.6" height="9.6" name="2014BAZ1"/>
        <rect x="120" y="20" width="9.6" height="9.6" name="2014HB6"/>
        <rect x="130" y="20" width="9.6" height="9.6" name="2014SSB1"/>
        <rect x="140" y="20" width="9.6" height="9.6" name="2014SSB5"/>

        <rect x="0" y="30" width="9.6" height="9.6" name="2014Vas2"/>
        <rect x="10" y="30" width="9.6" height="9.6" name="2014Vas1"/>
        <rect x="20" y="30" width="9.6" height="9.6" name="2014Ves4"/>
        <rect x="30" y="30" width="9.6" height="9.6" name="2014Pes2"/>
        <rect x="40" y="30" width="9.6" height="9.6" name="2014Bud4"/>
        <rect x="50" y="30" width="9.6" height="9.6" name="2014Bud10"/>
        <rect x="60" y="30" width="9.6" height="9.6" name="2014Bud7"/>
        <rect x="70" y="30" width="9.6" height="9.6" name="2014Bud11"/>
        <rect x="80" y="30" width="9.6" height="9.6" name="2014Bud8"/>
        <rect x="90" y="30" width="9.6" height="9.6" name="2014Bud13"/>
        <rect x="100" y="30" width="9.6" height="9.6" name="2014Pes6"/>
        <rect x="110" y="30" width="9.6" height="9.6" name="2014BAZ7"/>
        <rect x="120" y="30" width="9.6" height="9.6" name="2014HB1"/>
        <rect x="130" y="30" width="9.6" height="9.6" name="2014SSB6"/>

        <rect x="10" y="40" width="9.6" height="9.6" name="2014Vas3"/>
        <rect x="20" y="40" width="9.6" height="9.6" name="2014Ves1"/>
        <rect x="30" y="40" width="9.6" height="9.6" name="2014Pes1"/>
        <rect x="40" y="40" width="9.6" height="9.6" name="2014Bud3"/>
        <rect x="50" y="40" width="9.6" height="9.6" name="2014Bud1"/>
        <rect x="60" y="40" width="9.6" height="9.6" name="2014Bud5"/>
        <rect x="70" y="40" width="9.6" height="9.6" name="2014Bud6"/>
        <rect x="80" y="40" width="9.6" height="9.6" name="2014Bud9"/>
        <rect x="90" y="40" width="9.6" height="9.6" name="2014Bud14"/>
        <rect x="100" y="40" width="9.6" height="9.6" name="2014Pes7"/>
        <rect x="110" y="40" width="9.6" height="9.6" name="2014Hev2"/>
        <rect x="120" y="40" width="9.6" height="9.6" name="2014HB2"/>
        <rect x="130" y="40" width="9.6" height="9.6" name="2014HB3"/>

        <rect x="10" y="50" width="9.6" height="9.6" name="2014Zal2"/>
        <rect x="20" y="50" width="9.6" height="9.6" name="2014Ves3"/>
        <rect x="30" y="50" width="9.6" height="9.6" name="2014Fej2"/>
        <rect x="40" y="50" width="9.6" height="9.6" name="2014Fej3"/>
        <rect x="50" y="50" width="9.6" height="9.6" name="2014Bud2"/>
        <rect x="60" y="50" width="9.6" height="9.6" name="2014Bud18"/>
        <rect x="70" y="50" width="9.6" height="9.6" name="2014Bud16"/>
        <rect x="80" y="50" width="9.6" height="9.6" name="2014Bud15"/>
        <rect x="90" y="50" width="9.6" height="9.6" name="2014Pes9"/>
        <rect x="100" y="50" width="9.6" height="9.6" name="2014Hev3"/>
        <rect x="110" y="50" width="9.6" height="9.6" name="2014Hev1"/>
        <rect x="120" y="50" width="9.6" height="9.6" name="2014HB5"/>
        <rect x="130" y="50" width="9.6" height="9.6" name="2014HB4"/>

        <rect x="0" y="60" width="9.6" height="9.6" name="2014Zal1"/>
        <rect x="10" y="60" width="9.6" height="9.6" name="2014Zal3"/>
        <rect x="20" y="60" width="9.6" height="9.6" name="2014Som3"/>
        <rect x="30" y="60" width="9.6" height="9.6" name="2014Ves2"/>
        <rect x="40" y="60" width="9.6" height="9.6" name="2014Fej1"/>
        <rect x="50" y="60" width="9.6" height="9.6" name="2014Pes8"/>
        <rect x="60" y="60" width="9.6" height="9.6" name="2014Pes11"/>
        <rect x="70" y="60" width="9.6" height="9.6" name="2014Bud17"/>
        <rect x="80" y="60" width="9.6" height="9.6" name="2014Pes10"/>
        <rect x="90" y="60" width="9.6" height="9.6" name="2014Pes12"/>
        <rect x="100" y="60" width="9.6" height="9.6" name="2014JNS2"/>
        <rect x="110" y="60" width="9.6" height="9.6" name="2014JNS3"/>
        <rect x="120" y="60" width="9.6" height="9.6" name="2014Bek2"/>
        <rect x="130" y="60" width="9.6" height="9.6" name="2014Bek3"/>

        <rect x="10" y="70" width="9.6" height="9.6" name="2014Som2"/>
        <rect x="20" y="70" width="9.6" height="9.6" name="2014Som1"/>
        <rect x="30" y="70" width="9.6" height="9.6" name="2014Som4"/>
        <rect x="40" y="70" width="9.6" height="9.6" name="2014Fej5"/>
        <rect x="50" y="70" width="9.6" height="9.6" name="2014Fej4"/>
        <rect x="60" y="70" width="9.6" height="9.6" name="2014BK1"/>
        <rect x="70" y="70" width="9.6" height="9.6" name="2014BK2"/>
        <rect x="80" y="70" width="9.6" height="9.6" name="2014BK4"/>
        <rect x="90" y="70" width="9.6" height="9.6" name="2014CC3"/>
        <rect x="100" y="70" width="9.6" height="9.6" name="2014JNS1"/>
        <rect x="110" y="70" width="9.6" height="9.6" name="2014JNS4"/>
        <rect x="120" y="70" width="9.6" height="9.6" name="2014Bek1"/>

        <rect x="20" y="80" width="9.6" height="9.6" name="2014Bar4"/>
        <rect x="30" y="80" width="9.6" height="9.6" name="2014Tol2"/>
        <rect x="40" y="80" width="9.6" height="9.6" name="2014Tol3"/>
        <rect x="50" y="80" width="9.6" height="9.6" name="2014Tol1"/>
        <rect x="60" y="80" width="9.6" height="9.6" name="2014BK3"/>
        <rect x="70" y="80" width="9.6" height="9.6" name="2014BK5"/>
        <rect x="80" y="80" width="9.6" height="9.6" name="2014CC2"/>
        <rect x="90" y="80" width="9.6" height="9.6" name="2014CC1"/>
        <rect x="100" y="80" width="9.6" height="9.6" name="2014CC4"/>
        <rect x="110" y="80" width="9.6" height="9.6" name="2014Bek4"/>

        <rect x="30" y="90" width="9.6" height="9.6" name="2014Bar2"/>
        <rect x="40" y="90" width="9.6" height="9.6" name="2014Bar1"/>
        <rect x="50" y="90" width="9.6" height="9.6" name="2014Bar3"/>
        <rect x="60" y="90" width="9.6" height="9.6" name="2014BK6"/>

        <g name="2014List">
        <rect x="190" y="0" width="9.6" height="9.6"/><rect x="200" y="0" width="9.6" height="9.6"/><rect x="210" y="0" width="9.6" height="9.6"/><rect x="220" y="0" width="9.6" height="9.6"/><rect x="230" y="0" width="9.6" height="9.6"/><rect x="240" y="0" width="9.6" height="9.6"/><rect x="250" y="0" width="9.6" height="9.6"/><rect x="260" y="0" width="9.6" height="9.6"/><rect x="270" y="0" width="9.6" height="9.6"/><rect x="280" y="0" width="9.6" height="9.6"/><rect x="190" y="10" width="9.6" height="9.6"/><rect x="200" y="10" width="9.6" height="9.6"/><rect x="210" y="10" width="9.6" height="9.6"/><rect x="220" y="10" width="9.6" height="9.6"/><rect x="230" y="10" width="9.6" height="9.6"/><rect x="240" y="10" width="9.6" height="9.6"/><rect x="250" y="10" width="9.6" height="9.6"/><rect x="260" y="10" width="9.6" height="9.6"/><rect x="270" y="10" width="9.6" height="9.6"/><rect x="280" y="10" width="9.6" height="9.6"/><rect x="190" y="20" width="9.6" height="9.6"/><rect x="200" y="20" width="9.6" height="9.6"/><rect x="210" y="20" width="9.6" height="9.6"/><rect x="220" y="20" width="9.6" height="9.6"/><rect x="230" y="20" width="9.6" height="9.6"/><rect x="240" y="20" width="9.6" height="9.6"/><rect x="250" y="20" width="9.6" height="9.6"/><rect x="260" y="20" width="9.6" height="9.6"/><rect x="270" y="20" width="9.6" height="9.6"/><rect x="280" y="20" width="9.6" height="9.6"/><rect x="190" y="30" width="9.6" height="9.6"/><rect x="200" y="30" width="9.6" height="9.6"/><rect x="210" y="30" width="9.6" height="9.6"/><rect x="220" y="30" width="9.6" height="9.6"/><rect x="230" y="30" width="9.6" height="9.6"/><rect x="240" y="30" width="9.6" height="9.6"/><rect x="250" y="30" width="9.6" height="9.6"/><rect x="260" y="30" width="9.6" height="9.6"/><rect x="270" y="30" width="9.6" height="9.6"/><rect x="280" y="30" width="9.6" height="9.6"/><rect x="190" y="40" width="9.6" height="9.6"/><rect x="200" y="40" width="9.6" height="9.6"/><rect x="210" y="40" width="9.6" height="9.6"/><rect x="220" y="40" width="9.6" height="9.6"/><rect x="230" y="40" width="9.6" height="9.6"/><rect x="240" y="40" width="9.6" height="9.6"/><rect x="250" y="40" width="9.6" height="9.6"/><rect x="260" y="40" width="9.6" height="9.6"/><rect x="270" y="40" width="9.6" height="9.6"/><rect x="280" y="40" width="9.6" height="9.6"/><rect x="190" y="50" width="9.6" height="9.6"/><rect x="200" y="50" width="9.6" height="9.6"/><rect x="210" y="50" width="9.6" height="9.6"/><rect x="220" y="50" width="9.6" height="9.6"/><rect x="230" y="50" width="9.6" height="9.6"/><rect x="240" y="50" width="9.6" height="9.6"/><rect x="250" y="50" width="9.6" height="9.6"/><rect x="260" y="50" width="9.6" height="9.6"/><rect x="270" y="50" width="9.6" height="9.6"/><rect x="280" y="50" width="9.6" height="9.6"/><rect x="190" y="60" width="9.6" height="9.6"/><rect x="200" y="60" width="9.6" height="9.6"/><rect x="210" y="60" width="9.6" height="9.6"/><rect x="220" y="60" width="9.6" height="9.6"/><rect x="230" y="60" width="9.6" height="9.6"/><rect x="240" y="60" width="9.6" height="9.6"/><rect x="250" y="60" width="9.6" height="9.6"/><rect x="260" y="60" width="9.6" height="9.6"/><rect x="270" y="60" width="9.6" height="9.6"/><rect x="280" y="60" width="9.6" height="9.6"/><rect x="190" y="70" width="9.6" height="9.6"/><rect x="200" y="70" width="9.6" height="9.6"/><rect x="210" y="70" width="9.6" height="9.6"/><rect x="220" y="70" width="9.6" height="9.6"/><rect x="230" y="70" width="9.6" height="9.6"/><rect x="240" y="70" width="9.6" height="9.6"/><rect x="250" y="70" width="9.6" height="9.6"/><rect x="260" y="70" width="9.6" height="9.6"/><rect x="270" y="70" width="9.6" height="9.6"/><rect x="280" y="70" width="9.6" height="9.6"/><rect x="190" y="80" width="9.6" height="9.6"/><rect x="200" y="80" width="9.6" height="9.6"/><rect x="210" y="80" width="9.6" height="9.6"/><rect x="220" y="80" width="9.6" height="9.6"/><rect x="230" y="80" width="9.6" height="9.6"/><rect x="240" y="80" width="9.6" height="9.6"/><rect x="250" y="80" width="9.6" height="9.6"/><rect x="260" y="80" width="9.6" height="9.6"/><rect x="270" y="80" width="9.6" height="9.6"/><rect x="280" y="80" width="9.6" height="9.6"/><rect x="190" y="90" width="9.6" height="9.6"/><rect x="200" y="90" width="9.6" height="9.6"/><rect x="210" y="90" width="9.6" height="9.6"/>
        </g>
    </g>
</svg>