<svg fill="#eee" stroke="#fff" stroke-width=".4" version="1.1" viewbox="0 0 280 107" xmlns="http://www.w3.org/2000/svg">
 <style>#hungary-2026-svg rect{ cursor:pointer; transition: fill 1000ms, fill-opacity 500ms }</style>
 <g id="hungary-2026-svg" transform="translate(.2 .2)">
  <rect x="80" y="67" width="9.6" height="9.6" name="2026Pes13"/>
  <rect x="90" y="67" width="9.6" height="9.6" name="2026Pes14"/>
  <rect x="110" y="7" width="9.6" height="9.6" name="2014BAZ3"/>
  <rect x="120" y="7" width="9.6" height="9.6" name="2014BAZ4"/>
  <rect x="130" y="7" width="9.6" height="9.6" name="2014BAZ5"/>
  <rect x="10" y="17" width="9.6" height="9.6" name="2014GMS5"/>
  <rect x="80" y="17" width="9.6" height="9.6" name="2026Pes4"/>
  <rect x="90" y="17" width="9.6" height="9.6" name="2014Nog2"/>
  <rect x="100" y="17" width="9.6" height="9.6" name="2014Nog1"/>
  <rect x="110" y="17" width="9.6" height="9.6" name="2014BAZ6"/>
  <rect x="120" y="17" width="9.6" height="9.6" name="2014SSB2"/>
  <rect x="130" y="17" width="9.6" height="9.6" name="2014SSB3"/>
  <rect x="140" y="17" width="9.6" height="9.6" name="2014SSB4"/>
  <rect y="27" width="9.6" height="9.6" name="2014GMS4"/>
  <rect x="10" y="27" width="9.6" height="9.6" name="2014GMS3"/>
  <rect x="20" y="27" width="9.6" height="9.6" name="2014GMS1"/>
  <rect x="30" y="27" width="9.6" height="9.6" name="2014GMS2"/>
  <rect x="40" y="27" width="9.6" height="9.6" name="2014KE3"/>
  <rect x="50" y="27" width="9.6" height="9.6" name="2014KE1"/>
  <rect x="60" y="27" width="9.6" height="9.6" name="2014KE2"/>
  <rect x="30" y="37" width="9.6" height="9.6" name="2026Pes3"/>
  <rect x="70" y="37" width="9.6" height="9.6" name="2026Bud12"/>
  <rect x="90" y="27" width="9.6" height="9.6" name="2026Pes5"/>
  <rect x="100" y="27" width="9.6" height="9.6" name="2014BAZ2"/>
  <rect x="110" y="27" width="9.6" height="9.6" name="2014BAZ1"/>
  <rect x="120" y="27" width="9.6" height="9.6" name="2014HB6"/>
  <rect x="130" y="27" width="9.6" height="9.6" name="2014SSB1"/>
  <rect x="140" y="27" width="9.6" height="9.6" name="2014SSB5"/>
  <rect y="37" width="9.6" height="9.6" name="2014Vas2"/>
  <rect x="10" y="37" width="9.6" height="9.6" name="2014Vas1"/>
  <rect x="20" y="37" width="9.6" height="9.6" name="2014Ves4"/>
  <rect x="30" y="47" width="9.6" height="9.6" name="2026Pes2"/>
  <rect x="40" y="37" width="9.6" height="9.6" name="2026Bud4"/>
  <rect x="50" y="57" width="9.6" height="9.6" name="2026Bud10"/>
  <rect x="80" y="37" width="9.6" height="9.6" name="2026Bud7"/>
  <rect x="70" y="27" width="9.6" height="9.6" name="2026Bud11"/>
  <rect x="70" y="47" width="9.6" height="9.6" name="2026Bud8"/>
  <rect x="80" y="27" width="9.6" height="9.6" name="2026Bud13"/>
  <rect x="90" y="37" width="9.6" height="9.6" name="2026Pes6"/>
  <rect x="110" y="37" width="9.6" height="9.6" name="2014BAZ7"/>
  <rect x="120" y="37" width="9.6" height="9.6" name="2014HB1"/>
  <rect x="130" y="37" width="9.6" height="9.6" name="2014SSB6"/>
  <rect x="10" y="47" width="9.6" height="9.6" name="2014Vas3"/>
  <rect x="20" y="47" width="9.6" height="9.6" name="2014Ves1"/>
  <rect x="50" y="67" width="9.6" height="9.6" name="2026Pes1"/>
  <rect x="40" y="47" width="9.6" height="9.6" name="2026Bud3"/>
  <rect x="50" y="47" width="9.6" height="9.6" name="2026Bud1"/>
  <rect x="50" y="37" width="9.6" height="9.6" name="2026Bud5"/>
  <rect x="60" y="37" width="9.6" height="9.6" name="2026Bud6"/>
  <rect x="60" y="57" width="9.6" height="9.6" name="2026Bud9"/>
  <rect x="80" y="47" width="9.6" height="9.6" name="2026Bud14"/>
  <rect x="100" y="47" width="9.6" height="9.6" name="2026Pes7"/>
  <rect x="110" y="47" width="9.6" height="9.6" name="2014Hev2"/>
  <rect x="120" y="47" width="9.6" height="9.6" name="2014HB2"/>
  <rect x="130" y="47" width="9.6" height="9.6" name="2014HB3"/>
  <rect x="10" y="57" width="9.6" height="9.6" name="2014Zal2"/>
  <rect x="20" y="57" width="9.6" height="9.6" name="2014Ves3"/>
  <rect x="30" y="57" width="9.6" height="9.6" name="2026Fej2"/>
  <rect x="40" y="57" width="9.6" height="9.6" name="2026Fej3"/>
  <rect x="60" y="47" width="9.6" height="9.6" name="2026Bud2"/>
  <rect x="70" y="57" width="9.6" height="9.6" name="2026Bud16"/>
  <rect x="90" y="47" width="9.6" height="9.6" name="2026Bud15"/>
  <rect x="70" y="67" width="9.6" height="9.6" name="2026Pes9"/>
  <rect x="100" y="57" width="9.6" height="9.6" name="2014Hev3"/>
  <rect x="110" y="57" width="9.6" height="9.6" name="2014Hev1"/>
  <rect x="120" y="57" width="9.6" height="9.6" name="2014HB5"/>
  <rect x="130" y="57" width="9.6" height="9.6" name="2014HB4"/>
  <rect y="67" width="9.6" height="9.6" name="2014Zal1"/>
  <rect x="10" y="67" width="9.6" height="9.6" name="2014Zal3"/>
  <rect x="20" y="67" width="9.6" height="9.6" name="2014Som3"/>
  <rect x="30" y="67" width="9.6" height="9.6" name="2014Ves2"/>
  <rect x="40" y="67" width="9.6" height="9.6" name="2026Fej1"/>
  <rect x="80" y="57" width="9.6" height="9.6" name="2026Pes8"/>
  <rect x="100" y="37" width="9.6" height="9.6" name="2026Pes11"/>
  <rect x="60" y="67" width="9.6" height="9.6" name="2026Pes10"/>
  <rect x="90" y="57" width="9.6" height="9.6" name="2026Pes12"/>
  <rect x="100" y="67" width="9.6" height="9.6" name="2014JNS2"/>
  <rect x="110" y="67" width="9.6" height="9.6" name="2014JNS3"/>
  <rect x="120" y="67" width="9.6" height="9.6" name="2014Bek2"/>
  <rect x="130" y="67" width="9.6" height="9.6" name="2014Bek3"/>
  <rect x="10" y="77" width="9.6" height="9.6" name="2014Som2"/>
  <rect x="20" y="77" width="9.6" height="9.6" name="2014Som1"/>
  <rect x="30" y="77" width="9.6" height="9.6" name="2014Som4"/>
  <rect x="40" y="77" width="9.6" height="9.6" name="2026Fej5"/>
  <rect x="50" y="77" width="9.6" height="9.6" name="2026Fej4"/>
  <rect x="60" y="77" width="9.6" height="9.6" name="2014BK1"/>
  <rect x="70" y="77" width="9.6" height="9.6" name="2014BK2"/>
  <rect x="80" y="77" width="9.6" height="9.6" name="2014BK4"/>
  <rect x="90" y="77" width="9.6" height="9.6" name="2026CC3"/>
  <rect x="100" y="77" width="9.6" height="9.6" name="2014JNS1"/>
  <rect x="110" y="77" width="9.6" height="9.6" name="2014JNS4"/>
  <rect x="120" y="77" width="9.6" height="9.6" name="2014Bek1"/>
  <rect x="20" y="87" width="9.6" height="9.6" name="2014Bar4"/>
  <rect x="30" y="87" width="9.6" height="9.6" name="2014Tol2"/>
  <rect x="40" y="87" width="9.6" height="9.6" name="2014Tol3"/>
  <rect x="50" y="87" width="9.6" height="9.6" name="2014Tol1"/>
  <rect x="60" y="87" width="9.6" height="9.6" name="2014BK3"/>
  <rect x="70" y="87" width="9.6" height="9.6" name="2014BK5"/>
  <rect x="80" y="87" width="9.6" height="9.6" name="2026CC2"/>
  <rect x="90" y="87" width="9.6" height="9.6" name="2026CC1"/>
  <rect x="100" y="87" width="9.6" height="9.6" name="2026CC4"/>
  <rect x="110" y="87" width="9.6" height="9.6" name="2014Bek4"/>
  <rect x="30" y="97" width="9.6" height="9.6" name="2014Bar2"/>
  <rect x="40" y="97" width="9.6" height="9.6" name="2014Bar1"/>
  <rect x="50" y="97" width="9.6" height="9.6" name="2014Bar3"/>
  <rect x="60" y="97" width="9.6" height="9.6" name="2014BK6"/>
  <g transform="translate(-10,7)" name="2014List">
   <rect x="190" width="9.6" height="9.6"/>
   <rect x="200" width="9.6" height="9.6"/>
   <rect x="210" width="9.6" height="9.6"/>
   <rect x="220" width="9.6" height="9.6"/>
   <rect x="230" width="9.6" height="9.6"/>
   <rect x="240" width="9.6" height="9.6"/>
   <rect x="250" width="9.6" height="9.6"/>
   <rect x="260" width="9.6" height="9.6"/>
   <rect x="270" width="9.6" height="9.6"/>
   <rect x="280" width="9.6" height="9.6"/>
   <rect x="190" y="10" width="9.6" height="9.6"/>
   <rect x="200" y="10" width="9.6" height="9.6"/>
   <rect x="210" y="10" width="9.6" height="9.6"/>
   <rect x="220" y="10" width="9.6" height="9.6"/>
   <rect x="230" y="10" width="9.6" height="9.6"/>
   <rect x="240" y="10" width="9.6" height="9.6"/>
   <rect x="250" y="10" width="9.6" height="9.6"/>
   <rect x="260" y="10" width="9.6" height="9.6"/>
   <rect x="270" y="10" width="9.6" height="9.6"/>
   <rect x="280" y="10" width="9.6" height="9.6"/>
   <rect x="190" y="20" width="9.6" height="9.6"/>
   <rect x="200" y="20" width="9.6" height="9.6"/>
   <rect x="210" y="20" width="9.6" height="9.6"/>
   <rect x="220" y="20" width="9.6" height="9.6"/>
   <rect x="230" y="20" width="9.6" height="9.6"/>
   <rect x="240" y="20" width="9.6" height="9.6"/>
   <rect x="250" y="20" width="9.6" height="9.6"/>
   <rect x="260" y="20" width="9.6" height="9.6"/>
   <rect x="270" y="20" width="9.6" height="9.6"/>
   <rect x="280" y="20" width="9.6" height="9.6"/>
   <rect x="190" y="30" width="9.6" height="9.6"/>
   <rect x="200" y="30" width="9.6" height="9.6"/>
   <rect x="210" y="30" width="9.6" height="9.6"/>
   <rect x="220" y="30" width="9.6" height="9.6"/>
   <rect x="230" y="30" width="9.6" height="9.6"/>
   <rect x="240" y="30" width="9.6" height="9.6"/>
   <rect x="250" y="30" width="9.6" height="9.6"/>
   <rect x="260" y="30" width="9.6" height="9.6"/>
   <rect x="270" y="30" width="9.6" height="9.6"/>
   <rect x="280" y="30" width="9.6" height="9.6"/>
   <rect x="190" y="40" width="9.6" height="9.6"/>
   <rect x="200" y="40" width="9.6" height="9.6"/>
   <rect x="210" y="40" width="9.6" height="9.6"/>
   <rect x="220" y="40" width="9.6" height="9.6"/>
   <rect x="230" y="40" width="9.6" height="9.6"/>
   <rect x="240" y="40" width="9.6" height="9.6"/>
   <rect x="250" y="40" width="9.6" height="9.6"/>
   <rect x="260" y="40" width="9.6" height="9.6"/>
   <rect x="270" y="40" width="9.6" height="9.6"/>
   <rect x="280" y="40" width="9.6" height="9.6"/>
   <rect x="190" y="50" width="9.6" height="9.6"/>
   <rect x="200" y="50" width="9.6" height="9.6"/>
   <rect x="210" y="50" width="9.6" height="9.6"/>
   <rect x="220" y="50" width="9.6" height="9.6"/>
   <rect x="230" y="50" width="9.6" height="9.6"/>
   <rect x="240" y="50" width="9.6" height="9.6"/>
   <rect x="250" y="50" width="9.6" height="9.6"/>
   <rect x="260" y="50" width="9.6" height="9.6"/>
   <rect x="270" y="50" width="9.6" height="9.6"/>
   <rect x="280" y="50" width="9.6" height="9.6"/>
   <rect x="190" y="60" width="9.6" height="9.6"/>
   <rect x="200" y="60" width="9.6" height="9.6"/>
   <rect x="210" y="60" width="9.6" height="9.6"/>
   <rect x="220" y="60" width="9.6" height="9.6"/>
   <rect x="230" y="60" width="9.6" height="9.6"/>
   <rect x="240" y="60" width="9.6" height="9.6"/>
   <rect x="250" y="60" width="9.6" height="9.6"/>
   <rect x="260" y="60" width="9.6" height="9.6"/>
   <rect x="270" y="60" width="9.6" height="9.6"/>
   <rect x="280" y="60" width="9.6" height="9.6"/>
   <rect x="190" y="70" width="9.6" height="9.6"/>
   <rect x="200" y="70" width="9.6" height="9.6"/>
   <rect x="210" y="70" width="9.6" height="9.6"/>
   <rect x="220" y="70" width="9.6" height="9.6"/>
   <rect x="230" y="70" width="9.6" height="9.6"/>
   <rect x="240" y="70" width="9.6" height="9.6"/>
   <rect x="250" y="70" width="9.6" height="9.6"/>
   <rect x="260" y="70" width="9.6" height="9.6"/>
   <rect x="270" y="70" width="9.6" height="9.6"/>
   <rect x="280" y="70" width="9.6" height="9.6"/>
   <rect x="190" y="80" width="9.6" height="9.6"/>
   <rect x="200" y="80" width="9.6" height="9.6"/>
   <rect x="210" y="80" width="9.6" height="9.6"/>
   <rect x="220" y="80" width="9.6" height="9.6"/>
   <rect x="230" y="80" width="9.6" height="9.6"/>
   <rect x="240" y="80" width="9.6" height="9.6"/>
   <rect x="250" y="80" width="9.6" height="9.6"/>
   <rect x="260" y="80" width="9.6" height="9.6"/>
   <rect x="270" y="80" width="9.6" height="9.6"/>
   <rect x="280" y="80" width="9.6" height="9.6"/>
   <rect x="190" y="90" width="9.6" height="9.6"/>
   <rect x="200" y="90" width="9.6" height="9.6"/>
   <rect x="210" y="90" width="9.6" height="9.6"/>
  </g>
 </g>
 <path d="m180 3.78v-3.78h1.1107q0.34066 0 0.55066 0.126 0.21467 0.126 0.31267 0.36867 0.10267 0.238 0.10267 0.57867 0 0.36867-0.126 0.59733-0.126 0.224-0.35467 0.32667-0.224 0.10267-0.532 0.10267h-0.37333v1.68zm0.69067-2.1653h0.26133q0.18667 0 0.28933-0.05133 0.10734-0.056 0.14467-0.17267 0.042-0.12133 0.042-0.322 0-0.20533-0.0327-0.33133-0.028-0.13067-0.13066-0.19133-0.098-0.06067-0.31267-0.06067h-0.26133zm2.0291 2.2073q-0.182 0-0.31733-0.09333-0.13067-0.098-0.20067-0.24267-0.07-0.14933-0.07-0.308 0-0.252 0.0933-0.42467t0.24734-0.28933q0.15866-0.11667 0.35-0.20067 0.196-0.08867 0.40133-0.15867v-0.23333q0-0.11667-0.0187-0.196-0.014-0.07933-0.0607-0.12133t-0.13534-0.042q-0.084 0-0.13533 0.03733-0.0467 0.03733-0.07 0.10733-0.0187 0.06533-0.0187 0.154l-9e-3 0.16333-0.60667-0.02333q0.0187-0.46667 0.23334-0.686 0.21466-0.224 0.658-0.224 0.406 0 0.59266 0.224 0.18667 0.224 0.18667 0.60667v1.246q0 0.14933 5e-3 0.27067 9e-3 0.12133 0.0187 0.21933 0.014 0.098 0.0233 0.17267h-0.574q-0.014-0.09333-0.0327-0.21-0.0187-0.12133-0.028-0.17733-0.0467 0.16333-0.17733 0.29867-0.13067 0.13067-0.35467 0.13067zm0.23333-0.47133q0.0607 0 0.112-0.028 0.0513-0.03267 0.0933-0.07467t0.0653-0.07467v-0.75133q-0.10733 0.06067-0.20067 0.12133-0.0887 0.06067-0.154 0.13533-0.0653 0.07-0.10266 0.154-0.0373 0.084-0.0373 0.196 0 0.14933 0.056 0.238 0.0607 0.084 0.168 0.084zm1.3627 0.42933v-2.6973h0.63467v0.41533q0.14-0.238 0.28-0.34067 0.14-0.10733 0.308-0.10733 0.028 0 0.0467 0.0047 0.0233 0 0.0513 0.0047v0.658q-0.056-0.02333-0.126-0.03733-0.0653-0.01867-0.13534-0.01867-0.126 0-0.22866 0.06067-0.10267 0.06067-0.196 0.20067v1.8573zm2.4173 0.03267q-0.25667 0-0.406-0.084-0.14467-0.084-0.20534-0.24267-0.0607-0.15867-0.0607-0.378v-1.6053h-0.27067v-0.42h0.27067v-0.80733h0.63933v0.80733h0.41067v0.42h-0.41067v1.5493q0 0.14 0.0607 0.20067 0.0607 0.056 0.182 0.056 0.0513 0 0.098-0.0047 0.0513-0.0047 0.098-0.0093v0.48533q-0.0793 0.0093-0.18667 0.01867-0.10267 0.014-0.21933 0.014zm0.77466 0.7v-0.45733q0.16334 0 0.266-0.01867 0.10267-0.01867 0.14934-0.06533 0.0467-0.04667 0.0467-0.13067 0-0.06067-0.0327-0.19133-0.028-0.13067-0.0653-0.28467l-0.59266-2.282h0.616l0.35 1.778 0.30333-1.778h0.61133l-0.63 2.8047q-0.0513 0.238-0.17266 0.37333-0.12134 0.13533-0.30334 0.19133-0.182 0.06067-0.42466 0.06067zm3.122-0.73267v-3.78h0.63v3.78zm1.1527 0v-2.6973h0.63467v2.6973zm0-3.1267v-0.52733h0.63467v0.52733zm1.8713 3.1687q-0.34067 0-0.56001-0.182-0.21933-0.182-0.31266-0.532l0.47133-0.182q0.056 0.21933 0.14933 0.336 0.0933 0.11667 0.24267 0.11667 0.112 0 0.168-0.056t0.056-0.154q0-0.112-0.07-0.20067-0.0653-0.09333-0.22867-0.22867l-0.32666-0.27533q-0.17734-0.154-0.28934-0.31267-0.10733-0.16333-0.10733-0.406 0-0.21933 0.098-0.37333 0.10267-0.15867 0.27533-0.24267 0.17734-0.08867 0.39201-0.08867 0.336 0 0.53666 0.196 0.20067 0.19133 0.26134 0.504l-0.42934 0.17733q-0.0233-0.112-0.07-0.20533-0.042-0.098-0.112-0.15867t-0.168-0.06067-0.15867 0.06067q-0.056 0.06067-0.056 0.154 0 0.07933 0.0653 0.16333 0.07 0.084 0.196 0.19133l0.33133 0.29867q0.10734 0.09333 0.20534 0.20067 0.098 0.10733 0.16333 0.24267 0.0653 0.13067 0.0653 0.30333 0 0.23333-0.10733 0.392-0.10267 0.15867-0.28467 0.24267-0.17733 0.07933-0.39666 0.07933zm1.918-0.0093q-0.25666 0-0.406-0.084-0.14466-0.084-0.20533-0.24267-0.0607-0.15867-0.0607-0.378v-1.6053h-0.27066v-0.42h0.27066v-0.80733h0.63934v0.80733h0.41066v0.42h-0.41066v1.5493q0 0.14 0.0607 0.20067 0.0607 0.056 0.182 0.056 0.0513 0 0.098-0.0047 0.0513-0.0047 0.098-0.0093v0.48533q-0.0793 0.0093-0.18666 0.01867-0.10267 0.014-0.21934 0.014zm2.24-0.03267-0.53667-2.6973h0.62067l0.27533 1.9367 0.27067-1.9367h0.61133l-0.53667 2.6973zm2.352 0.042q-0.294 0-0.48533-0.10733-0.19133-0.112-0.28933-0.322-0.0933-0.21-0.0933-0.50867v-0.90534q0-0.29867 0.0933-0.50867 0.098-0.21 0.28933-0.31733 0.19133-0.112 0.48533-0.112t0.48534 0.112q0.196 0.10733 0.28933 0.31733 0.098 0.21 0.098 0.50867v0.90533q0 0.29867-0.098 0.50867-0.0933 0.21-0.28933 0.322-0.19134 0.10733-0.48534 0.10733zm5e-3 -0.43867q0.10733 0 0.15867-0.06067 0.0513-0.06067 0.0653-0.16333 0.014-0.10733 0.014-0.23333v-0.98934q0-0.126-0.014-0.22867t-0.0653-0.16333q-0.0513-0.06533-0.15867-0.06533-0.10733 0-0.15867 0.06533-0.0513 0.06067-0.07 0.16333-0.014 0.10267-0.014 0.22867v0.98933q0 0.126 0.014 0.23333 0.0187 0.10267 0.07 0.16333 0.0513 0.06067 0.15867 0.06067zm2.086 0.42933q-0.25666 0-0.406-0.084-0.14466-0.084-0.20533-0.24267-0.0607-0.15867-0.0607-0.378v-1.6053h-0.27066v-0.42h0.27066v-0.80733h0.63934v0.80733h0.41066v0.42h-0.41066v1.5493q0 0.14 0.0607 0.20067 0.0607 0.056 0.182 0.056 0.0513 0 0.098-0.0047 0.0513-0.0047 0.098-0.0093v0.48533q-0.0793 0.0093-0.18666 0.01867-0.10267 0.014-0.21934 0.014zm1.5727 0.0093q-0.30333 0-0.49467-0.112-0.19133-0.11667-0.28467-0.336-0.0887-0.224-0.0887-0.53667v-0.812q0-0.322 0.0887-0.54133 0.0933-0.21933 0.28467-0.33133 0.196-0.112 0.49467-0.112 0.322 0 0.49933 0.12133 0.182 0.12133 0.25667 0.35467 0.0793 0.22867 0.0793 0.56v0.38267h-1.0733v0.532q0 0.13067 0.0233 0.21467 0.028 0.084 0.084 0.12133t0.13534 0.03733q0.084 0 0.13533-0.03733 0.0513-0.042 0.0747-0.11667 0.0233-0.07933 0.0233-0.196v-0.224h0.59267v0.182q0 0.41067-0.20534 0.63-0.20533 0.21933-0.62533 0.21933zm-0.238-1.6753h0.476v-0.25667q0-0.14-0.0233-0.224-0.0233-0.08867-0.0747-0.126-0.0513-0.042-0.14467-0.042-0.084 0-0.13533 0.042-0.0513 0.042-0.0747 0.14-0.0233 0.098-0.0233 0.28z" fill="#000" stroke="none" aria-label="Party list vote"/>
 <path d="m1.0733 3.8733q-0.41533 0-0.65333-0.16333-0.23333-0.16333-0.32667-0.44333-0.093333-0.28467-0.093333-0.65333v-1.3487q0-0.38733 0.093333-0.672t0.32667-0.43867q0.238-0.154 0.65333-0.154 0.392 0 0.61133 0.13533 0.224 0.13067 0.31733 0.378 0.093333 0.24733 0.093333 0.574v0.31733h-0.66267v-0.32667q0-0.15867-0.018667-0.28933-0.014-0.13067-0.088667-0.20533-0.07-0.079333-0.24733-0.079333t-0.26133 0.084q-0.079333 0.079333-0.10267 0.21933-0.023333 0.13533-0.023333 0.308v1.6427q0 0.20533 0.032667 0.34067 0.032667 0.13067 0.11667 0.20067 0.088667 0.065333 0.238 0.065333 0.17267 0 0.24267-0.079333 0.074667-0.084 0.093333-0.21933 0.018667-0.13533 0.018667-0.30333v-0.34067h0.66267v0.30333q0 0.336-0.088667 0.59733-0.088666 0.25667-0.31267 0.406-0.21933 0.14467-0.62067 0.14467zm2.2773-0.00933q-0.294 0-0.48533-0.10733-0.19133-0.112-0.28933-0.322-0.093333-0.21-0.093333-0.50867v-0.90533q0-0.29867 0.093333-0.50867 0.098-0.21 0.28933-0.31733 0.19133-0.112 0.48533-0.112t0.48533 0.112q0.196 0.10733 0.28933 0.31733 0.098 0.21 0.098 0.50867v0.90533q0 0.29867-0.098 0.50867-0.093333 0.21-0.28933 0.322-0.19133 0.10733-0.48533 0.10733zm0.00467-0.43867q0.10733 0 0.15867-0.060667 0.051333-0.060667 0.065333-0.16333 0.014-0.10733 0.014-0.23333v-0.98933q0-0.126-0.014-0.22867t-0.065333-0.16333q-0.051333-0.065333-0.15867-0.065333-0.10733 0-0.15867 0.065333-0.051333 0.060667-0.07 0.16333-0.014 0.10267-0.014 0.22867v0.98933q0 0.126 0.014 0.23333 0.018667 0.10267 0.07 0.16333 0.051333 0.060667 0.15867 0.060667zm1.302 0.39666v-2.6973h0.63467v0.27067q0.14467-0.14 0.30333-0.224 0.16333-0.088667 0.35-0.088667 0.168 0 0.266 0.084 0.098 0.079333 0.14467 0.21467 0.046667 0.13533 0.046667 0.294v2.1467h-0.63467v-2.0207q0-0.12133-0.037333-0.18667-0.037333-0.065333-0.14467-0.065333-0.065333 0-0.14467 0.037333-0.074667 0.037333-0.14933 0.093333v2.142zm2.9447 0.042q-0.34067 0-0.56-0.182t-0.31267-0.532l0.47133-0.182q0.056 0.21933 0.14933 0.336 0.093333 0.11667 0.24267 0.11667 0.112 0 0.168-0.056t0.056-0.154q0-0.112-0.07-0.20067-0.065333-0.093333-0.22867-0.22867l-0.32667-0.27533q-0.17733-0.154-0.28933-0.31267-0.10733-0.16333-0.10733-0.406 0-0.21933 0.098-0.37333 0.10267-0.15867 0.27533-0.24267 0.17733-0.088667 0.392-0.088667 0.336 0 0.53667 0.196 0.20067 0.19133 0.26133 0.504l-0.42933 0.17733q-0.023333-0.112-0.07-0.20533-0.042-0.098-0.112-0.15867-0.07-0.060667-0.168-0.060667t-0.15867 0.060667q-0.056 0.060667-0.056 0.154 0 0.079333 0.065333 0.16333 0.07 0.084 0.196 0.19133l0.33133 0.29867q0.10733 0.093333 0.20533 0.20067 0.098 0.10733 0.16333 0.24267 0.065333 0.13067 0.065333 0.30333 0 0.23333-0.10733 0.392-0.10267 0.15867-0.28467 0.24267-0.17733 0.079333-0.39667 0.079333zm1.918-0.00933q-0.25667 0-0.406-0.084-0.14467-0.084003-0.20533-0.24267-0.060667-0.15867-0.060667-0.378v-1.6053h-0.27067v-0.42h0.27067v-0.80733h0.63933v0.80733h0.41067v0.42h-0.41067v1.5493q0 0.14 0.060667 0.20067 0.060667 0.056 0.182 0.056 0.051333 0 0.098-0.00467 0.051333-0.00467 0.098-0.00933v0.48533q-0.079333 0.00933-0.18667 0.018667-0.10267 0.014-0.21933 0.014zm0.77467-0.03267v-2.6973h0.63467v2.6973zm0-3.1267v-0.52733h0.63467v0.52733zm1.9227 3.1593q-0.25667 0-0.406-0.084-0.14467-0.084-0.20533-0.24267-0.06067-0.15867-0.06067-0.378v-1.6053h-0.27066v-0.42h0.27067v-0.80733h0.63933v0.80733h0.41067v0.42h-0.41067v1.5493q0 0.14 0.06067 0.20067 0.06067 0.056 0.182 0.056 0.05133 0 0.098-0.00467 0.05133-0.00467 0.098-0.00933v0.48533q-0.07933 0.00933-0.18667 0.018667-0.10267 0.014-0.21933 0.014zm1.19 0.00933q-0.15867 0-0.26133-0.079333-0.10267-0.084-0.14933-0.21933-0.04667-0.14-0.04667-0.294v-2.1467h0.63467v2.03q0 0.12133 0.03733 0.19133 0.042 0.065333 0.14933 0.065333 0.07 0 0.14-0.037333 0.07467-0.037333 0.14467-0.088667v-2.1607h0.63467v2.6973h-0.63466v-0.25667q-0.13533 0.13067-0.29867 0.21467-0.16333 0.084-0.35 0.084zm2.59 0q-0.30333 0-0.49467-0.112-0.19133-0.11666-0.28467-0.336-0.088667-0.224-0.088667-0.53667v-0.812q0-0.322 0.08867-0.54133 0.09333-0.21933 0.28467-0.33133 0.196-0.112 0.49467-0.112 0.322 0 0.49933 0.12133 0.182 0.12133 0.25667 0.35467 0.07933 0.22867 0.07933 0.56v0.38267h-1.0733v0.532q0 0.13067 0.02333 0.21467 0.028 0.084 0.084 0.12133 0.056 0.037333 0.13533 0.037333 0.084 0 0.13533-0.037333 0.05133-0.042 0.07467-0.11667 0.02333-0.079333 0.02333-0.196v-0.224h0.59267v0.182q0 0.41067-0.20533 0.63t-0.62533 0.21933zm-0.238-1.6753h0.476v-0.25666q0-0.14-0.02333-0.224-0.02333-0.088667-0.07467-0.126-0.05133-0.042-0.14467-0.042-0.084 0-0.13533 0.042t-0.07467 0.14q-0.02333 0.098-0.02333 0.28zm1.5027 1.6333v-2.6973h0.63467v0.27067q0.14467-0.14 0.30333-0.224 0.16333-0.088667 0.35-0.088667 0.168 0 0.266 0.084 0.098 0.079333 0.14467 0.21467 0.04667 0.13533 0.04667 0.294v2.1467h-0.63467v-2.0207q0-0.12133-0.03733-0.18667-0.03733-0.065333-0.14467-0.065333-0.06533 0-0.14467 0.037333-0.07467 0.037333-0.14933 0.093333v2.142zm3.024 0.042q-0.31267 0-0.504-0.11667-0.18667-0.12133-0.27533-0.34067-0.084-0.224-0.084-0.52733v-0.812q0-0.31267 0.084-0.532 0.08867-0.21933 0.28-0.336t0.49933-0.11667q0.28933 0 0.47133 0.093333 0.18667 0.088667 0.27067 0.27533 0.084 0.182 0.084 0.462v0.224h-0.59733v-0.238q0-0.14-0.02333-0.21933-0.01867-0.084-0.07-0.11667-0.05133-0.037333-0.13533-0.037333t-0.13533 0.046667q-0.05133 0.042-0.07467 0.14-0.01867 0.098-0.01867 0.27067v0.98933q0 0.26133 0.056 0.35467 0.056 0.088667 0.17733 0.088667 0.09333 0 0.14-0.042 0.05133-0.042 0.06533-0.12133 0.01867-0.084 0.01867-0.20067v-0.28933h0.59733v0.25667q0 0.27067-0.08867 0.462-0.084 0.19133-0.27067 0.28933-0.182 0.093333-0.46667 0.093333zm1.26-0.042v-2.6973h0.63467v2.6973zm0-3.1267v-0.52733h0.63467v0.52733zm1.9553 3.1687q-0.30333 0-0.49467-0.112-0.19133-0.11666-0.28467-0.336-0.088666-0.224-0.088666-0.53667v-0.812q0-0.322 0.08867-0.54133 0.09333-0.21933 0.28467-0.33133 0.196-0.112 0.49467-0.112 0.322 0 0.49933 0.12133 0.182 0.12133 0.25667 0.35467 0.07933 0.22867 0.07933 0.56v0.38267h-1.0733v0.532q0 0.13067 0.02333 0.21467 0.028 0.084 0.084 0.12133 0.056 0.037333 0.13533 0.037333 0.084 0 0.13533-0.037333 0.05133-0.042 0.07467-0.11667 0.02333-0.079333 0.02333-0.196v-0.224h0.59267v0.182q0 0.41067-0.20533 0.63t-0.62533 0.21933zm-0.238-1.6753h0.476v-0.25666q0-0.14-0.02333-0.224-0.02333-0.088667-0.07467-0.126-0.05133-0.042-0.14467-0.042-0.084 0-0.13533 0.042t-0.07467 0.14q-0.02333 0.098-0.02333 0.28zm2.2353 1.6753q-0.34067 0-0.56-0.182t-0.31267-0.532l0.47133-0.182q0.056 0.21933 0.14933 0.336t0.24267 0.11667q0.112 0 0.168-0.056t0.056-0.154q0-0.112-0.07-0.20067-0.06533-0.093333-0.22867-0.22867l-0.32667-0.27533q-0.17733-0.154-0.28933-0.31267-0.10733-0.16333-0.10733-0.406 0-0.21933 0.098-0.37333 0.10267-0.15867 0.27533-0.24267 0.17733-0.088667 0.392-0.088667 0.336 0 0.53667 0.196 0.20067 0.19133 0.26133 0.504l-0.42933 0.17733q-0.02333-0.112-0.07-0.20533-0.042-0.098-0.112-0.15867-0.07-0.060667-0.168-0.060667t-0.15867 0.060667q-0.056 0.060667-0.056 0.154 0 0.079333 0.06533 0.16333 0.07 0.084 0.196 0.19133l0.33133 0.29867q0.10733 0.093333 0.20533 0.20067 0.098 0.10733 0.16333 0.24267 0.06533 0.13067 0.06533 0.30333 0 0.23333-0.10733 0.392-0.10267 0.15867-0.28467 0.24267-0.17733 0.079333-0.39667 0.079333z" display="none" fill="#000" stroke="none" aria-label="Constituencies"/>
</svg>
