<svg fill="#eee" stroke="white" stroke-width=".04" version="1.1" viewBox="0 0 23 21" xmlns="http://www.w3.org/2000/svg">
 <style>#nz-2020-svg rect{ cursor:pointer; transition: fill 1000ms, fill-opacity 500ms }</style>
 <g id="nz-2020-svg">
  <rect x="5" width="1" height="1" name="2020G32"/>
  <rect x="5" y="1" width="1" height="1" name="2020G18"/>
  <rect x="6" y="1" width="1" height="1" name="2020G64"/>
  <rect x="7" y="1" width="1" height="1" name="2020G63"/>
  <rect x="6" y="2" width="1" height="1" name="2020G55"/>
  <rect x="7" y="2" width="1" height="1" name="2020G10"/>
  <rect x="7" y="3" width="1" height="1" name="2020G31"/>
  <rect x="8" y="3" width="1" height="1" name="2020G30"/>
  <rect x="7" y="4" width="1" height="1" name="2020G53"/>
  <rect x="8" y="4" width="1" height="1" name="2020G19"/>
  <rect x="10" y="4" width="1" height="1" name="2020G01"/>
  <rect x="7" y="5" width="1" height="1" name="2020G28"/>
  <rect x="8" y="5" width="1" height="1" name="2020G24"/>
  <rect x="9" y="5" width="1" height="1" name="2020G11"/>
  <rect x="10" y="5" width="1" height="1" name="2020G49"/>
  <rect x="8" y="6" width="1" height="1" name="2020G25"/>
  <rect x="9" y="6" width="1" height="1" name="2020G23"/>
  <rect x="10" y="6" width="1" height="1" name="2020G35"/>
  <rect x="8" y="7" width="1" height="1" name="2020G21"/>
  <rect x="9" y="7" width="1" height="1" name="2020G37"/>
  <rect x="10" y="7" width="1" height="1" name="2020G04"/>
  <rect x="11" y="7" width="1" height="1" name="2020G07"/>
  <rect x="8" y="8" width="1" height="1" name="2020G22"/>
  <rect x="9" y="8" width="1" height="1" name="2020G48"/>
  <rect x="10" y="8" width="1" height="1" name="2020G38"/>
  <rect x="11" y="8" width="1" height="1" name="2020G52"/>
  <rect x="13" y="8" width="1" height="1" name="2020G09"/>
  <rect x="9" y="9" width="1" height="1" name="2020G39"/>
  <rect x="10" y="9" width="1" height="1" name="2020G56"/>
  <rect x="11" y="9" width="1" height="1" name="2020G03"/>
  <rect x="12" y="9" width="1" height="1" name="2020G44"/>
  <rect x="13" y="9" width="1" height="1" name="2020G26"/>
  <rect x="8" y="10" width="1" height="1" name="2020G50"/>
  <rect x="9" y="10" width="1" height="1" name="2020G13"/>
  <rect x="10" y="10" width="1" height="1" name="2020G12"/>
  <rect x="11" y="10" width="1" height="1" name="2020G51"/>
  <rect x="7" y="11" width="1" height="1" name="2020G29"/>
  <rect x="8" y="11" width="1" height="1" name="2020G62"/>
  <rect x="9" y="11" width="1" height="1" name="2020G41"/>
  <rect x="10" y="11" width="1" height="1" name="2020G36"/>
  <rect x="11" y="11" width="1" height="1" name="2020G54"/>
  <rect x="10" y="12" width="1" height="1" name="2020G34"/>
  <rect x="11" y="12" width="1" height="1" name="2020G58"/>
  <rect x="9" y="13" width="1" height="1" name="2020G20"/>
  <rect x="10" y="13" width="1" height="1" name="2020G42"/>
  <rect x="8" y="14" width="1" height="1" name="2020G33"/>
  <rect x="9" y="14" width="1" height="1" name="2020G14"/>
  <rect x="8" y="15" width="1" height="1" name="2020G60"/>
  <rect x="9" y="15" width="1" height="1" name="2020G43"/>
  <rect x="5" y="15" width="1" height="1" name="2020G27"/>
  <rect x="6" y="15" width="1" height="1" name="2020G17"/>
  <rect x="4" y="16" width="1" height="1" name="2020G57"/>
  <rect x="5" y="16" width="1" height="1" name="2020G06"/>
  <rect x="3" y="17" width="1" height="1" name="2020G15"/>
  <rect x="4" y="17" width="1" height="1" name="2020G05"/>
  <rect x="2" y="18" width="1" height="1" name="2020G40"/>
  <rect x="3" y="18" width="1" height="1" name="2020G45"/>
  <rect x="4" y="18" width="1" height="1" name="2020G65"/>
  <rect x="5" y="18" width="1" height="1" name="2020G02"/>
  <rect x="1" y="19" width="1" height="1" name="2020G61"/>
  <rect x="2" y="19" width="1" height="1" name="2020G59"/>
  <rect x="3" y="19" width="1" height="1" name="2020G08"/>
  <rect y="20" width="1" height="1" name="2020G46"/>
  <rect x="1" y="20" width="1" height="1" name="2020G16"/>
  <rect x="2" y="20" width="1" height="1" name="2020G47"/>
  <g transform="translate(1 -0.5)">
   <rect x="18" y="2" width="1" height="1" name="2020M05"/>
   <rect x="19" y="3" width="1" height="1" name="2020M03"/>
   <rect x="20" y="3" width="1" height="1" name="2020M01"/>
   <rect x="19" y="4" width="1" height="1" name="2020M04"/>
   <rect x="20" y="4" width="1" height="1" name="2020M07"/>
   <rect x="19" y="5" width="1" height="1" name="2020M02"/>
   <rect x="17" y="6" width="1" height="1" name="2020M06"/>
   <g name="LIST">
    <rect x="17" y="10" width="1" height="1"/>
    <rect x="18" y="10" width="1" height="1"/>
    <rect x="19" y="10" width="1" height="1"/>
    <rect x="20" y="10" width="1" height="1"/>
    <rect x="21" y="10" width="1" height="1"/>
    <rect x="17" y="11" width="1" height="1"/>
    <rect x="18" y="11" width="1" height="1"/>
    <rect x="19" y="11" width="1" height="1"/>
    <rect x="20" y="11" width="1" height="1"/>
    <rect x="21" y="11" width="1" height="1"/>
    <rect x="17" y="12" width="1" height="1"/>
    <rect x="18" y="12" width="1" height="1"/>
    <rect x="19" y="12" width="1" height="1"/>
    <rect x="20" y="12" width="1" height="1"/>
    <rect x="21" y="12" width="1" height="1"/>
    <rect x="17" y="13" width="1" height="1"/>
    <rect x="18" y="13" width="1" height="1"/>
    <rect x="19" y="13" width="1" height="1"/>
    <rect x="20" y="13" width="1" height="1"/>
    <rect x="21" y="13" width="1" height="1"/>
    <rect x="17" y="14" width="1" height="1"/>
    <rect x="18" y="14" width="1" height="1"/>
    <rect x="19" y="14" width="1" height="1"/>
    <rect x="20" y="14" width="1" height="1"/>
    <rect x="21" y="14" width="1" height="1"/>
    <rect x="17" y="15" width="1" height="1"/>
    <rect x="18" y="15" width="1" height="1"/>
    <rect x="19" y="15" width="1" height="1"/>
    <rect x="20" y="15" width="1" height="1"/>
    <rect x="21" y="15" width="1" height="1"/>
    <rect x="17" y="16" width="1" height="1"/>
    <rect x="18" y="16" width="1" height="1"/>
    <rect x="19" y="16" width="1" height="1"/>
    <rect x="20" y="16" width="1" height="1"/>
    <rect x="21" y="16" width="1" height="1"/>
    <rect x="17" y="17" width="1" height="1"/>
    <rect x="18" y="17" width="1" height="1"/>
    <rect x="19" y="17" width="1" height="1"/>
    <rect x="20" y="17" width="1" height="1"/>
    <rect x="21" y="17" width="1" height="1"/>
    <rect x="17" y="18" width="1" height="1"/>
    <rect x="18" y="18" width="1" height="1"/>
    <rect x="19" y="18" width="1" height="1"/>
    <rect x="20" y="18" width="1" height="1"/>
    <rect x="21" y="18" width="1" height="1"/>
    <rect x="17" y="19" width="1" height="1"/>
    <rect x="18" y="19" width="1" height="1"/>
    <rect x="19" y="19" width="1" height="1"/>
   </g>
  </g>
 </g>
 <path transform="translate(0 -0.5)" d="m17.98 9.508v-0.378h0.11107q0.03407 0 0.05507 0.0126 0.02147 0.0126 0.03127 0.036867 0.01027 0.0238 0.01027 0.057867 0 0.036867-0.0126 0.059733-0.0126 0.0224-0.03547 0.032667-0.0224 0.010267-0.0532 0.010267h-0.03733v0.168zm0.06907-0.21653h0.02613q0.01867 0 0.02893-0.00513 0.01073-0.0056 0.01447-0.017267 0.0042-0.012133 0.0042-0.0322 0-0.020533-0.0033-0.033133-0.0028-0.013067-0.01307-0.019133-0.0098-0.00607-0.03127-0.00607h-0.02613zm0.20291 0.22073q-0.0182 0-0.03173-0.00933-0.01307-0.0098-0.02007-0.024267-7e-3 -0.014933-7e-3 -0.0308 0-0.0252 0.0093-0.042467t0.02473-0.028933q0.01587-0.011667 0.035-0.020067 0.0196-0.00887 0.04013-0.015867v-0.023333q0-0.011667-0.0019-0.0196-0.0014-0.00793-0.0061-0.012133-0.0047-0.0042-0.01353-0.0042-0.0084 0-0.01353 0.00373-0.0047 0.00373-7e-3 0.010733-0.0019 0.00653-0.0019 0.0154l-9.33e-4 0.016333-0.06067-0.00233q0.0019-0.046667 0.02333-0.0686 0.02147-0.0224 0.0658-0.0224 0.0406 0 0.05927 0.0224t0.01867 0.060667v0.1246q0 0.014933 4.67e-4 0.027067 9.33e-4 0.012133 0.0019 0.021933 0.0014 0.0098 0.0023 0.017267h-0.0574q-0.0014-0.00933-0.0033-0.021-0.0019-0.012133-0.0028-0.017733-0.0047 0.016333-0.01773 0.029867-0.01307 0.013067-0.03547 0.013067zm0.02333-0.047133q0.0061 0 0.0112-0.0028 0.0051-0.00327 0.0093-0.00747t0.0065-0.00747v-0.075133q-0.01073 0.00607-0.02007 0.012133-0.0089 0.00607-0.0154 0.013533-0.0065 7e-3 -0.01027 0.0154-0.0037 0.0084-0.0037 0.0196 0 0.014933 0.0056 0.0238 0.0061 0.0084 0.0168 0.0084zm0.13627 0.042933v-0.26973h0.06347v0.041533q0.014-0.0238 0.028-0.034067 0.014-0.010733 0.0308-0.010733 0.0028 0 0.0047 4.667e-4 0.0023 0 0.0051 4.666e-4v0.0658q-0.0056-0.00233-0.0126-0.00373-0.0065-0.00187-0.01353-0.00187-0.0126 0-0.02287 0.00607t-0.0196 0.020067v0.18573zm0.24173 0.00327q-0.02567 0-0.0406-0.0084-0.01447-0.0084-0.02053-0.024267-0.0061-0.015867-0.0061-0.0378v-0.16054h-0.02707v-0.042h0.02707v-0.080733h0.06393v0.080733h0.04107v0.042h-0.04107v0.15493q0 0.014 0.0061 0.020067 0.0061 0.0056 0.0182 0.0056 0.0051 0 0.0098-4.667e-4 0.0051-4.666e-4 0.0098-9.333e-4v0.048533q-0.0079 9.333e-4 -0.01867 0.00187-0.01027 0.0014-0.02193 0.0014zm0.07747 0.07v-0.045733q0.01633 0 0.0266-0.00187t0.01493-0.00653q0.0047-0.00467 0.0047-0.013067 0-0.00607-0.0033-0.019133-0.0028-0.013067-0.0065-0.028467l-0.0593-0.2282h0.0616l0.035 0.1778 0.03033-0.1778h0.06113l-0.063 0.28047q-0.0051 0.0238-0.01727 0.037333-0.01213 0.013533-0.03033 0.019133-0.0182 0.00607-0.04247 0.00607zm0.3122-0.073267v-0.378h0.063v0.378zm0.11527 0v-0.26974h0.06347v0.26973zm0-0.31267v-0.052733h0.06347v0.052733zm0.18713 0.31687q-0.03407 0-0.056-0.0182t-0.03127-0.0532l0.04713-0.0182q0.0056 0.021933 0.01493 0.0336 0.0093 0.011667 0.02427 0.011667 0.0112 0 0.0168-0.0056t0.0056-0.0154q0-0.0112-7e-3 -0.020067-0.0065-0.00933-0.02287-0.022867l-0.03267-0.027533q-0.01773-0.0154-0.02893-0.031267-0.01073-0.016333-0.01073-0.0406 0-0.021933 0.0098-0.037333 0.01027-0.015867 0.02753-0.024267 0.01773-0.00887 0.0392-0.00887 0.0336 0 0.05367 0.0196 0.02007 0.019133 0.02613 0.0504l-0.04293 0.017733q-0.0023-0.0112-7e-3 -0.020533-0.0042-0.0098-0.0112-0.015867-7e-3 -0.00607-0.0168-0.00607t-0.01587 0.00607q-0.0056 0.00607-0.0056 0.0154 0 0.00793 0.0065 0.016333 7e-3 0.0084 0.0196 0.019133l0.03313 0.029867q0.01073 0.00933 0.02053 0.020067 0.0098 0.010733 0.01633 0.024267 0.0065 0.013067 0.0065 0.030333 0 0.023333-0.01073 0.0392-0.01027 0.015867-0.02847 0.024267-0.01773 0.00793-0.03967 0.00793zm0.1918-9.333e-4q-0.02567 0-0.0406-0.0084-0.01447-0.0084-0.02053-0.024267-0.0061-0.015867-0.0061-0.0378v-0.16054h-0.02707v-0.042h0.02707v-0.080733h0.06393v0.080733h0.04107v0.042h-0.04107v0.15493q0 0.014 0.0061 0.020067 0.0061 0.0056 0.0182 0.0056 0.0051 0 0.0098-4.667e-4 0.0051-4.666e-4 0.0098-9.333e-4v0.048533q-0.0079 9.333e-4 -0.01867 0.00187-0.01027 0.0014-0.02193 0.0014zm0.224-0.00327-0.05367-0.26973h0.06207l0.02753 0.19367 0.02707-0.19367h0.06113l-0.05367 0.26973zm0.2352 0.0042q-0.0294 0-0.04853-0.010733-0.01913-0.0112-0.02893-0.0322-0.0093-0.021-0.0093-0.050867v-0.090533q0-0.029867 0.0093-0.050867 0.0098-0.021 0.02893-0.031733 0.01913-0.0112 0.04853-0.0112t0.04853 0.0112q0.0196 0.010733 0.02893 0.031733 0.0098 0.021 0.0098 0.050867v0.090533q0 0.029867-0.0098 0.050867-0.0093 0.021-0.02893 0.0322-0.01913 0.010733-0.04853 0.010733zm4.66e-4 -0.043867q0.01073 0 0.01587-0.00607 0.0051-0.00607 0.0065-0.016333 0.0014-0.010733 0.0014-0.023333v-0.098933q0-0.0126-0.0014-0.022867t-0.0065-0.016333q-0.0051-0.00653-0.01587-0.00653-0.01073 0-0.01587 0.00653-0.0051 0.00607-7e-3 0.016333-0.0014 0.010267-0.0014 0.022867v0.098933q0 0.0126 0.0014 0.023333 0.0019 0.010267 7e-3 0.016333 0.0051 0.00607 0.01587 0.00607zm0.2086 0.042933q-0.02567 0-0.0406-0.0084-0.01447-0.0084-0.02053-0.024267-0.0061-0.015867-0.0061-0.0378v-0.16053h-0.02707v-0.042h0.02707v-0.080733h0.06393v0.080733h0.04107v0.042h-0.04107v0.15493q0 0.014 0.0061 0.020067 0.0061 0.0056 0.0182 0.0056 0.0051 0 0.0098-4.667e-4 0.0051-4.666e-4 0.0098-9.333e-4v0.048533q-0.0079 9.333e-4 -0.01867 0.00187-0.01027 0.0014-0.02193 0.0014zm0.15727 9.333e-4q-0.03033 0-0.04947-0.0112-0.01913-0.011667-0.02847-0.0336-0.0089-0.0224-0.0089-0.053667v-0.0812q0-0.0322 0.0089-0.054133 0.0093-0.021933 0.02847-0.033133 0.0196-0.0112 0.04947-0.0112 0.0322 0 0.04993 0.012133 0.0182 0.012133 0.02567 0.035467 0.0079 0.022867 0.0079 0.056v0.038267h-0.1073v0.0532q0 0.013067 0.0023 0.021467 0.0028 0.0084 0.0084 0.012133 0.0056 0.00373 0.01353 0.00373 0.0084 0 0.01353-0.00373 0.0051-0.0042 0.0075-0.011667 0.0023-0.00793 0.0023-0.0196v-0.0224h0.05927v0.0182q0 0.041067-0.02053 0.063t-0.06253 0.021933zm-0.0238-0.16753h0.0476v-0.025666q0-0.014-0.0023-0.0224-0.0023-0.00887-0.0075-0.0126-0.0051-0.0042-0.01447-0.0042-0.0084 0-0.01353 0.0042-0.0051 0.0042-0.0075 0.014-0.0023 0.0098-0.0023 0.028z" fill="#000" stroke="none" aria-label="Party list vote"/>
 <path transform="translate(0 -0.5)" d="m17.98 1.508 0.0065-0.378h0.0714l0.0537 0.2618 0.056-0.2618h0.06907l7e-3 0.378h-0.05133l-0.0056-0.26273-0.05367 0.26273h-0.04153l-0.0546-0.26367-0.0051 0.26367zm0.36027 0.0042q-0.0182 0-0.03173-0.00933-0.01307-0.0098-0.02007-0.024267-7e-3 -0.014933-7e-3 -0.0308 0-0.0252 0.0093-0.042467t0.02473-0.028933q0.01587-0.011667 0.035-0.020067 0.0196-0.00887 0.04013-0.015867v-0.023333q0-0.011667-0.0019-0.0196-0.0014-0.00793-0.0061-0.012133-0.0047-0.0042-0.01353-0.0042-0.0084 0-0.01353 0.00373-0.0047 0.00373-7e-3 0.010733-0.0019 0.00653-0.0019 0.0154l-9.34e-4 0.016333-0.06067-0.00233q0.0019-0.046667 0.02333-0.0686 0.02147-0.0224 0.0658-0.0224 0.0406 0 0.05927 0.0224t0.01867 0.060667v0.1246q0 0.014933 4.66e-4 0.027067 9.34e-4 0.012133 0.0019 0.021933 0.0014 0.0098 0.0023 0.017267h-0.0574q-0.0014-0.00933-0.0033-0.021-0.0019-0.012133-0.0028-0.017733-0.0047 0.016333-0.01773 0.029867-0.01307 0.013067-0.03547 0.013067zm0.02333-0.047133q0.0061 0 0.0112-0.0028 0.0051-0.00327 0.0093-0.00747t0.0065-0.00747v-0.075127q-0.01073 0.00607-0.02007 0.012133-0.0089 0.00607-0.0154 0.013533-0.0065 7e-3 -0.01027 0.0154-0.0037 0.0084-0.0037 0.0196 0 0.014933 0.0056 0.0238 0.0061 0.0084 0.0168 0.0084zm-0.04433-0.27207v-0.033133h0.11013v0.033133zm0.26087 0.3192q-0.0294 0-0.04853-0.010733-0.01913-0.0112-0.02893-0.0322-0.0093-0.021-0.0093-0.050867v-0.090533q0-0.029867 0.0093-0.050867 0.0098-0.021 0.02893-0.031733 0.01913-0.0112 0.04853-0.0112t0.04853 0.0112q0.0196 0.010733 0.02893 0.031733 0.0098 0.021 0.0098 0.050867v0.090533q0 0.029867-0.0098 0.050867-0.0093 0.021-0.02893 0.0322-0.01913 0.010733-0.04853 0.010733zm4.67e-4 -0.043867q0.01073 0 0.01587-0.00607 0.0051-0.00607 0.0065-0.016333 0.0014-0.010733 0.0014-0.023333v-0.098933q0-0.0126-0.0014-0.022867t-0.0065-0.016333q-0.0051-0.00653-0.01587-0.00653-0.01073 0-0.01587 0.00653-0.0051 0.00607-7e-3 0.016333-0.0014 0.010267-0.0014 0.022867v0.098936q0 0.0126 0.0014 0.023333 0.0019 0.010267 7e-3 0.016333 0.0051 0.00607 0.01587 0.00607zm0.1316 0.039667v-0.26973h0.06347v0.041533q0.014-0.0238 0.028-0.034067 0.014-0.010733 0.0308-0.010733 0.0028 0 0.0047 4.666e-4 0.0023 0 0.0051 4.667e-4v0.0658q-0.0056-0.00233-0.0126-0.00373-0.0065-0.00187-0.01353-0.00187-0.0126 0-0.02287 0.00607t-0.0196 0.020067v0.18573zm0.1652 0v-0.26973h0.06347v0.26973zm0-0.31267v-0.052733h0.06347v0.052733zm0.30893 0.31687q-0.03033 0-0.04947-0.0112-0.01913-0.011667-0.02847-0.0336-0.0089-0.0224-0.0089-0.053667v-0.0812q0-0.0322 0.0089-0.054133 0.0093-0.021933 0.02847-0.033133 0.0196-0.0112 0.04947-0.0112 0.0322 0 0.04993 0.012133 0.0182 0.012133 0.02567 0.035467 0.0079 0.022867 0.0079 0.056v0.038267h-0.10733v0.0532q0 0.013067 0.0023 0.021467 0.0028 0.0084 0.0084 0.012133 0.0056 0.00373 0.01353 0.00373 0.0084 0 0.01353-0.00373 0.0051-0.0042 0.0075-0.011667 0.0023-0.00793 0.0023-0.0196v-0.0224h0.05927v0.0182q0 0.041067-0.02053 0.063t-0.06253 0.021933zm-0.0238-0.16753h0.0476v-0.025667q0-0.014-0.0023-0.0224-0.0023-0.00887-0.0075-0.0126-0.0051-0.0042-0.01447-0.0042-0.0084 0-0.01353 0.0042-0.0051 0.0042-0.0075 0.014-0.0023 0.0098-0.0023 0.028zm0.15447 0.16333v-0.378h0.063v0.378zm0.19507 0.0042q-0.03033 0-0.04947-0.0112-0.01913-0.011667-0.02847-0.0336-0.0089-0.0224-0.0089-0.053667v-0.0812q0-0.0322 0.0089-0.054133 0.0093-0.021933 0.02847-0.033133 0.0196-0.0112 0.04947-0.0112 0.0322 0 0.04993 0.012133 0.0182 0.012133 0.02567 0.035467 0.0079 0.022867 0.0079 0.056v0.038267h-0.10733v0.0532q0 0.013067 0.0023 0.021467 0.0028 0.0084 0.0084 0.012133 0.0056 0.00373 0.01353 0.00373 0.0084 0 0.01353-0.00373 0.0051-0.0042 0.0075-0.011667 0.0023-0.00793 0.0023-0.0196v-0.0224h0.05927v0.0182q0 0.041067-0.02053 0.063t-0.06253 0.021933zm-0.0238-0.16753h0.0476v-0.025667q0-0.014-0.0023-0.0224-0.0023-0.00887-0.0075-0.0126-0.0051-0.0042-0.01447-0.0042-0.0084 0-0.01353 0.0042-0.0051 0.0042-0.0075 0.014-0.0023 0.0098-0.0023 0.028zm0.23147 0.16753q-0.03127 0-0.0504-0.011667-0.01867-0.012133-0.02753-0.034067-0.0084-0.0224-0.0084-0.052733v-0.0812q0-0.031267 0.0084-0.0532 0.0089-0.021933 0.028-0.0336 0.01913-0.011667 0.04993-0.011667 0.02893 0 0.04713 0.00933 0.01867 0.00887 0.02707 0.027533 0.0084 0.0182 0.0084 0.0462v0.0224h-0.05973v-0.0238q0-0.014-0.0023-0.021933-0.0019-0.0084-7e-3 -0.011667-0.0051-0.00373-0.01353-0.00373-0.0084 0-0.01353 0.00467-0.0051 0.0042-0.0075 0.014-0.0019 0.0098-0.0019 0.027067v0.098933q0 0.026133 0.0056 0.035467 0.0056 0.00887 0.01773 0.00887 0.0093 0 0.014-0.0042 0.0051-0.0042 0.0065-0.012133 0.0019-0.0084 0.0019-0.020067v-0.028933h0.05973v0.025667q0 0.027067-0.0089 0.0462-0.0084 0.019133-0.02707 0.028933-0.0182 0.00933-0.04667 0.00933zm0.20253-9.334e-4q-0.02567 0-0.0406-0.0084-0.01447-0.0084-0.02053-0.024267-0.0061-0.015867-0.0061-0.0378v-0.16053h-0.02707v-0.042h0.02707v-0.080733h0.06393v0.080733h0.04107v0.042h-0.04107v0.15493q0 0.014 0.0061 0.020067 0.0061 0.0056 0.0182 0.0056 0.0051 0 0.0098-4.667e-4 0.0051-4.666e-4 0.0098-9.333e-4v0.048533q-0.0079 9.333e-4 -0.01867 0.00187-0.01027 0.0014-0.02193 0.0014zm0.15727 9.334e-4q-0.0294 0-0.04853-0.010733-0.01913-0.0112-0.02893-0.0322-0.0093-0.021-0.0093-0.050867v-0.090533q0-0.029867 0.0093-0.050867 0.0098-0.021 0.02893-0.031733 0.01913-0.0112 0.04853-0.0112t0.04853 0.0112q0.0196 0.010733 0.02893 0.031733 0.0098 0.021 0.0098 0.050867v0.090533q0 0.029867-0.0098 0.050867-0.0093 0.021-0.02893 0.0322-0.01913 0.010733-0.04853 0.010733zm4.66e-4 -0.043867q0.01073 0 0.01587-0.00607 0.0051-0.00607 0.0065-0.016333 0.0014-0.010733 0.0014-0.023333v-0.098933q0-0.0126-0.0014-0.022867t-0.0065-0.016333q-0.0051-0.00653-0.01587-0.00653-0.01073 0-0.01587 0.00653-0.0051 0.00607-7e-3 0.016333-0.0014 0.010267-0.0014 0.022867v0.098936q0 0.0126 0.0014 0.023333 0.0019 0.010267 7e-3 0.016333 0.0051 0.00607 0.01587 0.00607zm0.1316 0.039667v-0.26973h0.06347v0.041533q0.014-0.0238 0.028-0.034067 0.014-0.010733 0.0308-0.010733 0.0028 0 0.0047 4.666e-4 0.0023 0 0.0051 4.667e-4v0.0658q-0.0056-0.00233-0.0126-0.00373-0.0065-0.00187-0.01353-0.00187-0.0126 0-0.02287 0.00607t-0.0196 0.020067v0.18573zm0.20201 0.0042q-0.0182 0-0.03173-0.00933-0.01307-0.0098-0.02007-0.024267-7e-3 -0.014933-7e-3 -0.0308 0-0.0252 0.0093-0.042467t0.02473-0.028933q0.01587-0.011667 0.035-0.020067 0.0196-0.00887 0.04013-0.015867v-0.023333q0-0.011667-0.0019-0.0196-0.0014-0.00793-0.0061-0.012133-0.0047-0.0042-0.01353-0.0042-0.0084 0-0.01353 0.00373-0.0047 0.00373-7e-3 0.010733-0.0019 0.00653-0.0019 0.0154l-9.33e-4 0.016333-0.06067-0.00233q0.0019-0.046667 0.02333-0.0686 0.02147-0.0224 0.0658-0.0224 0.0406 0 0.05927 0.0224t0.01867 0.060667v0.1246q0 0.014933 4.67e-4 0.027067 9.33e-4 0.012133 0.0019 0.021933 0.0014 0.0098 0.0023 0.017267h-0.0574q-0.0014-0.00933-0.0033-0.021-0.0019-0.012133-0.0028-0.017733-0.0047 0.016333-0.01773 0.029867-0.01307 0.013067-0.03547 0.013067zm0.02333-0.047133q0.0061 0 0.0112-0.0028 0.0051-0.00327 0.0093-0.00747t0.0065-0.00747v-0.075128q-0.01073 0.00607-0.02007 0.012133-0.0089 0.00607-0.0154 0.013533-0.0065 7e-3 -0.01027 0.0154-0.0037 0.0084-0.0037 0.0196 0 0.014933 0.0056 0.0238 0.0061 0.0084 0.0168 0.0084zm0.21304 0.0462q-0.02567 0-0.0406-0.0084-0.01447-0.0084-0.02053-0.024267-0.0061-0.015867-0.0061-0.0378v-0.16053h-0.02707v-0.042h0.02707v-0.080733h0.06393v0.080733h0.04107v0.042h-0.04107v0.15493q0 0.014 0.0061 0.020067 0.0061 0.0056 0.0182 0.0056 0.0051 0 0.0098-4.667e-4 0.0051-4.666e-4 0.0098-9.333e-4v0.048533q-0.0079 9.333e-4 -0.01867 0.00187-0.01027 0.0014-0.02193 0.0014zm0.15727 9.334e-4q-0.03033 0-0.04947-0.0112-0.01913-0.011667-0.02847-0.0336-0.0089-0.0224-0.0089-0.053667v-0.0812q0-0.0322 0.0089-0.054133 0.0093-0.021933 0.02847-0.033133 0.0196-0.0112 0.04947-0.0112 0.0322 0 0.04993 0.012133 0.0182 0.012133 0.02567 0.035467 0.0079 0.022867 0.0079 0.056v0.038267h-0.10733v0.0532q0 0.013067 0.0023 0.021467 0.0028 0.0084 0.0084 0.012133 0.0056 0.00373 0.01353 0.00373 0.0084 0 0.01353-0.00373 0.0051-0.0042 0.0075-0.011667 0.0023-0.00793 0.0023-0.0196v-0.0224h0.05927v0.0182q0 0.041067-0.02053 0.063t-0.06253 0.021933zm-0.0238-0.16753h0.0476v-0.025667q0-0.014-0.0023-0.0224-0.0023-0.00887-0.0075-0.0126-0.0051-0.0042-0.01447-0.0042-0.0084 0-0.01353 0.0042-0.0051 0.0042-0.0075 0.014-0.0023 0.0098-0.0023 0.028zm0.22353 0.16753q-0.03407 0-0.056-0.0182t-0.03127-0.0532l0.04713-0.0182q0.0056 0.021933 0.01493 0.0336 0.0093 0.011667 0.02427 0.011667 0.0112 0 0.0168-0.0056t0.0056-0.0154q0-0.0112-7e-3 -0.020067-0.0065-0.00933-0.02287-0.022867l-0.03265-0.027534q-0.01773-0.0154-0.02893-0.031267-0.01073-0.016333-0.01073-0.0406 0-0.021933 0.0098-0.037333 0.01027-0.015867 0.02753-0.024267 0.01773-0.00887 0.0392-0.00887 0.0336 0 0.05367 0.0196 0.02007 0.019133 0.02613 0.0504l-0.04293 0.017733q-0.0023-0.0112-7e-3 -0.020533-0.0042-0.0098-0.0112-0.015867-7e-3 -0.00607-0.0168-0.00607t-0.01587 0.00607q-0.0056 0.00607-0.0056 0.0154 0 0.00793 0.0065 0.016333 7e-3 0.0084 0.0196 0.019133l0.03313 0.029867q0.01073 0.00933 0.02053 0.020067 0.0098 0.010733 0.01633 0.024267 0.0065 0.013067 0.0065 0.030333 0 0.023333-0.01073 0.0392-0.01027 0.015867-0.02847 0.024267-0.01773 0.00793-0.03967 0.00793z" fill="#000" stroke="none" aria-label="Māori electorates"/>
</svg>
