<svg version="1.1" xmlns="http://www.w3.org/2000/svg" xmlns:xlink="http://www.w3.org/1999/xlink" viewBox="0 0 884 1040" stroke-width="1" stroke="white" fill="#EEE"  width="100%" height="100%">
<style>rect{ cursor:pointer; transition: fill 1000ms, opacity 500ms }</style>
<rect x="156" y="754" width="25" height="25" name="2010001"/><rect x="182" y="624" width="25" height="25" name="2010002"/><rect x="520" y="52" width="25" height="25" name="2005001"/><rect x="520" y="78" width="25" height="25" name="2005002"/><rect x="416" y="78" width="25" height="25" name="2005003"/><rect x="416" y="156" width="25" height="25" name="2005004"/><rect x="494" y="936" width="25" height="25" name="2010007"/><rect x="390" y="624" width="25" height="25" name="2010008"/><rect x="312" y="520" width="25" height="25" name="2010009"/><rect x="260" y="598" width="25" height="25" name="2010010"/><rect x="468" y="494" width="25" height="25" name="2010011"/><rect x="520" y="104" width="25" height="25" name="2005005"/><rect x="104" y="182" width="25" height="25" name="2010013"/><rect x="78" y="182" width="25" height="25" name="2010014"/><rect x="78" y="208" width="25" height="25" name="2010015"/><rect x="156" y="624" width="25" height="25" name="2010016"/><rect x="312" y="104" width="25" height="25" name="2005006"/><rect x="650" y="962" width="25" height="25" name="2010018"/><rect x="546" y="494" width="25" height="25" name="2010019"/><rect x="806" y="884" width="25" height="25" name="2010020"/><rect x="390" y="468" width="25" height="25" name="2010021"/><rect x="494" y="780" width="25" height="25" name="2010022"/><rect x="338" y="234" width="25" height="25" name="2005007"/><rect x="312" y="208" width="25" height="25" name="2005008"/><rect x="286" y="208" width="25" height="25" name="2005009"/><rect x="494" y="728" width="25" height="25" name="2010026"/><rect x="468" y="52" width="25" height="25" name="2005010"/><rect x="754" y="780" width="25" height="25" name="2010028"/><rect x="494" y="416" width="25" height="25" name="2010029"/><rect x="520" y="416" width="25" height="25" name="2010030"/><rect x="390" y="312" width="25" height="25" name="2010031"/><rect x="754" y="728" width="25" height="25" name="2010032"/><rect x="806" y="754" width="25" height="25" name="2010033"/><rect x="442" y="936" width="25" height="25" name="2010034"/><rect x="598" y="468" width="25" height="25" name="2010035"/><rect x="364" y="884" width="25" height="25" name="2010036"/><rect x="468" y="364" width="25" height="25" name="2010037"/><rect x="598" y="832" width="25" height="25" name="2010038"/><rect x="494" y="832" width="25" height="25" name="2010039"/><rect x="702" y="884" width="25" height="25" name="2010040"/><rect x="598" y="624" width="25" height="25" name="2010041"/><rect x="572" y="650" width="25" height="25" name="2010042"/><rect x="572" y="624" width="25" height="25" name="2010043"/><rect x="546" y="676" width="25" height="25" name="2010044"/><rect x="130" y="234" width="25" height="25" name="2010045"/><rect x="104" y="208" width="25" height="25" name="2010046"/><rect x="104" y="234" width="25" height="25" name="2010047"/><rect x="78" y="234" width="25" height="25" name="2010048"/><rect x="650" y="806" width="25" height="25" name="2010049"/><rect x="442" y="208" width="25" height="25" name="2010050"/><rect x="416" y="208" width="25" height="25" name="2005011"/><rect x="676" y="806" width="25" height="25" name="2010052"/><rect x="676" y="338" width="25" height="25" name="2010053"/><rect x="754" y="910" width="25" height="25" name="2010054"/><rect x="754" y="806" width="25" height="25" name="2010055"/><rect x="182" y="546" width="25" height="25" name="2010056"/><rect x="338" y="702" width="25" height="25" name="2010057"/><rect x="390" y="650" width="25" height="25" name="2010058"/><rect x="364" y="702" width="25" height="25" name="2010059"/><rect x="416" y="650" width="25" height="25" name="2010060"/><rect x="390" y="676" width="25" height="25" name="2010061"/><rect x="364" y="728" width="25" height="25" name="2010062"/><rect x="364" y="650" width="25" height="25" name="2010063"/><rect x="390" y="728" width="25" height="25" name="2010064"/><rect x="416" y="676" width="25" height="25" name="2010065"/><rect x="468" y="260" width="25" height="25" name="2010066"/><rect x="390" y="364" width="25" height="25" name="2010067"/><rect x="364" y="442" width="25" height="25" name="2010068"/><rect x="364" y="338" width="25" height="25" name="2010069"/><rect x="286" y="364" width="25" height="25" name="2010070"/><rect x="208" y="728" width="25" height="25" name="2010071"/><rect x="494" y="260" width="25" height="25" name="2010072"/><rect x="520" y="208" width="25" height="25" name="2010073"/><rect x="572" y="988" width="25" height="25" name="2010074"/><rect x="546" y="468" width="25" height="25" name="2010075"/><rect x="312" y="416" width="25" height="25" name="2010076"/><rect x="312" y="442" width="25" height="25" name="2010077"/><rect x="286" y="416" width="25" height="25" name="2010078"/><rect x="182" y="494" width="25" height="25" name="2010079"/><rect x="624" y="520" width="25" height="25" name="2010080"/><rect x="468" y="650" width="25" height="25" name="2010081"/><rect x="390" y="962" width="25" height="25" name="2010082"/><rect x="364" y="962" width="25" height="25" name="2010083"/><rect x="520" y="910" width="25" height="25" name="2010084"/><rect x="494" y="338" width="25" height="25" name="2010085"/><rect x="468" y="390" width="25" height="25" name="2010086"/><rect x="442" y="364" width="25" height="25" name="2010087"/><rect x="754" y="676" width="25" height="25" name="2010088"/><rect x="234" y="702" width="25" height="25" name="2010089"/><rect x="572" y="780" width="25" height="25" name="2010090"/><rect x="572" y="754" width="25" height="25" name="2010091"/><rect x="520" y="832" width="25" height="25" name="2010092"/><rect x="728" y="702" width="25" height="25" name="2010093"/><rect x="182" y="806" width="25" height="25" name="2010094"/><rect x="260" y="910" width="25" height="25" name="2010095"/><rect x="598" y="416" width="25" height="25" name="2010096"/><rect x="754" y="936" width="25" height="25" name="2010097"/><rect x="728" y="936" width="25" height="25" name="2010098"/><rect x="338" y="884" width="25" height="25" name="2010099"/><rect x="338" y="858" width="25" height="25" name="2010100"/><rect x="312" y="884" width="25" height="25" name="2010101"/><rect x="364" y="858" width="25" height="25" name="2010102"/><rect x="650" y="572" width="25" height="25" name="2010103"/><rect x="728" y="858" width="25" height="25" name="2010104"/><rect x="338" y="728" width="25" height="25" name="2010105"/><rect x="676" y="676" width="25" height="25" name="2010106"/><rect x="494" y="520" width="25" height="25" name="2010107"/><rect x="520" y="728" width="25" height="25" name="2010108"/><rect x="416" y="416" width="25" height="25" name="2010109"/><rect x="442" y="598" width="25" height="25" name="2010110"/><rect x="338" y="416" width="25" height="25" name="2010111"/><rect x="338" y="442" width="25" height="25" name="2010112"/><rect x="754" y="650" width="25" height="25" name="2010113"/><rect x="234" y="780" width="25" height="25" name="2010114"/><rect x="416" y="26" width="25" height="25" name="2005012"/><rect x="442" y="416" width="25" height="25" name="2010116"/><rect x="650" y="832" width="25" height="25" name="2010117"/><rect x="104" y="988" width="25" height="25" name="2010118"/><rect x="676" y="624" width="25" height="25" name="2010119"/><rect x="598" y="572" width="25" height="25" name="2010120"/><rect x="572" y="598" width="25" height="25" name="2010121"/><rect x="650" y="624" width="25" height="25" name="2010122"/><rect x="702" y="650" width="25" height="25" name="2010123"/><rect x="390" y="598" width="25" height="25" name="2010124"/><rect x="832" y="858" width="25" height="25" name="2010125"/><rect x="260" y="780" width="25" height="25" name="2010126"/><rect x="234" y="806" width="25" height="25" name="2010127"/><rect x="234" y="832" width="25" height="25" name="2010128"/><rect x="208" y="832" width="25" height="25" name="2010129"/><rect x="442" y="260" width="25" height="25" name="2010130"/><rect x="182" y="702" width="25" height="25" name="2010131"/><rect x="130" y="754" width="25" height="25" name="2010132"/><rect x="624" y="910" width="25" height="25" name="2010133"/><rect x="832" y="754" width="25" height="25" name="2010134"/><rect x="208" y="676" width="25" height="25" name="2010135"/><rect x="572" y="520" width="25" height="25" name="2010136"/><rect x="780" y="884" width="25" height="25" name="2010137"/><rect x="338" y="546" width="25" height="25" name="2010138"/><rect x="728" y="676" width="25" height="25" name="2010139"/><rect x="572" y="832" width="25" height="25" name="2010140"/><rect x="390" y="832" width="25" height="25" name="2010141"/><rect x="494" y="754" width="25" height="25" name="2010142"/><rect x="494" y="494" width="25" height="25" name="2010143"/><rect x="546" y="962" width="25" height="25" name="2010144"/><rect x="702" y="728" width="25" height="25" name="2010145"/><rect x="390" y="884" width="25" height="25" name="2010146"/><rect x="624" y="702" width="25" height="25" name="2010147"/><rect x="364" y="390" width="25" height="25" name="2010148"/><rect x="390" y="936" width="25" height="25" name="2010149"/><rect x="624" y="806" width="25" height="25" name="2010150"/><rect x="260" y="572" width="25" height="25" name="2010151"/><rect x="520" y="286" width="25" height="25" name="2010152"/><rect x="832" y="676" width="25" height="25" name="2010153"/><rect x="624" y="416" width="25" height="25" name="2010154"/><rect x="234" y="650" width="25" height="25" name="2010155"/><rect x="208" y="624" width="25" height="25" name="2010156"/><rect x="364" y="130" width="25" height="25" name="2005013"/><rect x="780" y="676" width="25" height="25" name="2010158"/><rect x="442" y="442" width="25" height="25" name="2010159"/><rect x="390" y="546" width="25" height="25" name="2010160"/><rect x="416" y="286" width="25" height="25" name="2010161"/><rect x="546" y="650" width="25" height="25" name="2010162"/><rect x="156" y="936" width="25" height="25" name="2010163"/><rect x="130" y="962" width="25" height="25" name="2010164"/><rect x="442" y="702" width="25" height="25" name="2010165"/><rect x="416" y="702" width="25" height="25" name="2010166"/><rect x="442" y="728" width="25" height="25" name="2010167"/><rect x="676" y="936" width="25" height="25" name="2010168"/><rect x="364" y="546" width="25" height="25" name="2010169"/><rect x="676" y="884" width="25" height="25" name="2010170"/><rect x="650" y="884" width="25" height="25" name="2010171"/><rect x="650" y="910" width="25" height="25" name="2010172"/><rect x="364" y="104" width="25" height="25" name="2005014"/><rect x="182" y="728" width="25" height="25" name="2010174"/><rect x="780" y="780" width="25" height="25" name="2010175"/><rect x="494" y="312" width="25" height="25" name="2010176"/><rect x="780" y="806" width="25" height="25" name="2010177"/><rect x="468" y="702" width="25" height="25" name="2010178"/><rect x="234" y="598" width="25" height="25" name="2010179"/><rect x="390" y="494" width="25" height="25" name="2010180"/><rect x="468" y="546" width="25" height="25" name="2010181"/><rect x="468" y="572" width="25" height="25" name="2010182"/><rect x="442" y="572" width="25" height="25" name="2010183"/><rect x="468" y="520" width="25" height="25" name="2010184"/><rect x="520" y="468" width="25" height="25" name="2010185"/><rect x="468" y="598" width="25" height="25" name="2010186"/><rect x="416" y="884" width="25" height="25" name="2010187"/><rect x="208" y="936" width="25" height="25" name="2010188"/><rect x="260" y="962" width="25" height="25" name="2010189"/><rect x="234" y="910" width="25" height="25" name="2010190"/><rect x="182" y="962" width="25" height="25" name="2010191"/><rect x="182" y="936" width="25" height="25" name="2010192"/><rect x="494" y="390" width="25" height="25" name="2010193"/><rect x="546" y="442" width="25" height="25" name="2010194"/><rect x="572" y="416" width="25" height="25" name="2010195"/><rect x="546" y="390" width="25" height="25" name="2010196"/><rect x="338" y="936" width="25" height="25" name="2010197"/><rect x="364" y="936" width="25" height="25" name="2010198"/><rect x="312" y="962" width="25" height="25" name="2010199"/><rect x="286" y="962" width="25" height="25" name="2010200"/><rect x="832" y="884" width="25" height="25" name="2010201"/><rect x="130" y="208" width="25" height="25" name="2010202"/><rect x="104" y="260" width="25" height="25" name="2010203"/><rect x="312" y="676" width="25" height="25" name="2010204"/><rect x="286" y="676" width="25" height="25" name="2010205"/><rect x="650" y="858" width="25" height="25" name="2010206"/><rect x="364" y="234" width="25" height="25" name="2005015"/><rect x="390" y="234" width="25" height="25" name="2005016"/><rect x="338" y="130" width="25" height="25" name="2005017"/><rect x="312" y="130" width="25" height="25" name="2005018"/><rect x="494" y="78" width="25" height="25" name="2005019"/><rect x="468" y="78" width="25" height="25" name="2005020"/><rect x="416" y="104" width="25" height="25" name="2005021"/><rect x="468" y="286" width="25" height="25" name="2010214"/><rect x="468" y="234" width="25" height="25" name="2010215"/><rect x="208" y="650" width="25" height="25" name="2010216"/><rect x="546" y="806" width="25" height="25" name="2010217"/><rect x="546" y="780" width="25" height="25" name="2010218"/><rect x="520" y="806" width="25" height="25" name="2010219"/><rect x="546" y="286" width="25" height="25" name="2010220"/><rect x="728" y="780" width="25" height="25" name="2010221"/><rect x="390" y="208" width="25" height="25" name="2005022"/><rect x="468" y="182" width="25" height="25" name="2005023"/><rect x="780" y="936" width="25" height="25" name="2010224"/><rect x="520" y="988" width="25" height="25" name="2010225"/><rect x="286" y="572" width="25" height="25" name="2010226"/><rect x="494" y="130" width="25" height="25" name="2005024"/><rect x="468" y="130" width="25" height="25" name="2005025"/><rect x="494" y="156" width="25" height="25" name="2005026"/><rect x="468" y="156" width="25" height="25" name="2005027"/><rect x="442" y="130" width="25" height="25" name="2005028"/><rect x="676" y="728" width="25" height="25" name="2010232"/><rect x="234" y="572" width="25" height="25" name="2010233"/><rect x="598" y="390" width="25" height="25" name="2010234"/><rect x="728" y="832" width="25" height="25" name="2010235"/><rect x="676" y="702" width="25" height="25" name="2010236"/><rect x="650" y="702" width="25" height="25" name="2010237"/><rect x="702" y="702" width="25" height="25" name="2010238"/><rect x="598" y="936" width="25" height="25" name="2010239"/><rect x="494" y="546" width="25" height="25" name="2010240"/><rect x="728" y="806" width="25" height="25" name="2010241"/><rect x="572" y="936" width="25" height="25" name="2010242"/><rect x="234" y="962" width="25" height="25" name="2010243"/><rect x="390" y="130" width="25" height="25" name="2005029"/><rect x="468" y="988" width="25" height="25" name="2010245"/><rect x="806" y="858" width="25" height="25" name="2010246"/><rect x="520" y="858" width="25" height="25" name="2010247"/><rect x="26" y="234" width="25" height="25" name="2010248"/><rect x="494" y="104" width="25" height="25" name="2005030"/><rect x="338" y="832" width="25" height="25" name="2010250"/><rect x="598" y="728" width="25" height="25" name="2010251"/><rect x="832" y="910" width="25" height="25" name="2010252"/><rect x="390" y="780" width="25" height="25" name="2010253"/><rect x="26" y="182" width="25" height="25" name="2010254"/><rect x="312" y="364" width="25" height="25" name="2010255"/><rect x="624" y="468" width="25" height="25" name="2010256"/><rect x="234" y="546" width="25" height="25" name="2010257"/><rect x="520" y="260" width="25" height="25" name="2010258"/><rect x="546" y="546" width="25" height="25" name="2010259"/><rect x="780" y="858" width="25" height="25" name="2010260"/><rect x="312" y="182" width="25" height="25" name="2005031"/><rect x="390" y="156" width="25" height="25" name="2005032"/><rect x="338" y="156" width="25" height="25" name="2005033"/><rect x="364" y="156" width="25" height="25" name="2005034"/><rect x="312" y="156" width="25" height="25" name="2005035"/><rect x="338" y="182" width="25" height="25" name="2005036"/><rect x="286" y="182" width="25" height="25" name="2005037"/><rect x="468" y="104" width="25" height="25" name="2005038"/><rect x="416" y="780" width="25" height="25" name="2010269"/><rect x="494" y="52" width="25" height="25" name="2005039"/><rect x="468" y="1014" width="25" height="25" name="2010271"/><rect x="156" y="806" width="25" height="25" name="2010272"/><rect x="572" y="546" width="25" height="25" name="2010273"/><rect x="780" y="832" width="25" height="25" name="2010274"/><rect x="598" y="442" width="25" height="25" name="2010275"/><rect x="702" y="572" width="25" height="25" name="2010276"/><rect x="702" y="832" width="25" height="25" name="2010277"/><rect x="598" y="962" width="25" height="25" name="2010278"/><rect x="650" y="754" width="25" height="25" name="2010279"/><rect x="676" y="780" width="25" height="25" name="2010280"/><rect x="312" y="702" width="25" height="25" name="2010281"/><rect x="442" y="390" width="25" height="25" name="2010282"/><rect x="624" y="338" width="25" height="25" name="2010283"/><rect x="260" y="546" width="25" height="25" name="2010284"/><rect x="572" y="806" width="25" height="25" name="2010285"/><rect x="520" y="962" width="25" height="25" name="2010286"/><rect x="468" y="936" width="25" height="25" name="2010287"/><rect x="416" y="910" width="25" height="25" name="2010288"/><rect x="598" y="754" width="25" height="25" name="2010289"/><rect x="520" y="598" width="25" height="25" name="2010290"/><rect x="702" y="676" width="25" height="25" name="2010291"/><rect x="468" y="312" width="25" height="25" name="2010292"/><rect x="546" y="728" width="25" height="25" name="2010293"/><rect x="546" y="754" width="25" height="25" name="2010294"/><rect x="572" y="286" width="25" height="25" name="2010295"/><rect x="806" y="676" width="25" height="25" name="2010296"/><rect x="806" y="910" width="25" height="25" name="2010297"/><rect x="546" y="1014" width="25" height="25" name="2010298"/><rect x="494" y="806" width="25" height="25" name="2010299"/><rect x="416" y="520" width="25" height="25" name="2010300"/><rect x="572" y="702" width="25" height="25" name="2010301"/><rect x="520" y="364" width="25" height="25" name="2010302"/><rect x="572" y="728" width="25" height="25" name="2010303"/><rect x="468" y="806" width="25" height="25" name="2010304"/><rect x="338" y="754" width="25" height="25" name="2010305"/><rect x="286" y="728" width="25" height="25" name="2010306"/><rect x="650" y="650" width="25" height="25" name="2010307"/><rect x="676" y="650" width="25" height="25" name="2010308"/><rect x="546" y="702" width="25" height="25" name="2010309"/><rect x="650" y="676" width="25" height="25" name="2010310"/><rect x="442" y="234" width="25" height="25" name="2010311"/><rect x="364" y="416" width="25" height="25" name="2010312"/><rect x="442" y="546" width="25" height="25" name="2010313"/><rect x="598" y="650" width="25" height="25" name="2010314"/><rect x="624" y="780" width="25" height="25" name="2010315"/><rect x="780" y="754" width="25" height="25" name="2010316"/><rect x="624" y="728" width="25" height="25" name="2010317"/><rect x="624" y="962" width="25" height="25" name="2010318"/><rect x="572" y="260" width="25" height="25" name="2010319"/><rect x="676" y="962" width="25" height="25" name="2010320"/><rect x="468" y="416" width="25" height="25" name="2010321"/><rect x="650" y="364" width="25" height="25" name="2010322"/><rect x="650" y="338" width="25" height="25" name="2010323"/><rect x="624" y="364" width="25" height="25" name="2010324"/><rect x="598" y="598" width="25" height="25" name="2010325"/><rect x="390" y="390" width="25" height="25" name="2010326"/><rect x="728" y="728" width="25" height="25" name="2010327"/><rect x="728" y="754" width="25" height="25" name="2010328"/><rect x="286" y="130" width="25" height="25" name="2005040"/><rect x="390" y="78" width="25" height="25" name="2005041"/><rect x="806" y="650" width="25" height="25" name="2010331"/><rect x="416" y="1014" width="25" height="25" name="2010332"/><rect x="624" y="754" width="25" height="25" name="2010333"/><rect x="650" y="780" width="25" height="25" name="2010334"/><rect x="234" y="728" width="25" height="25" name="2010335"/><rect x="546" y="234" width="25" height="25" name="2010336"/><rect x="442" y="338" width="25" height="25" name="2010337"/><rect x="468" y="728" width="25" height="25" name="2010338"/><rect x="598" y="806" width="25" height="25" name="2010339"/><rect x="520" y="624" width="25" height="25" name="2010340"/><rect x="364" y="208" width="25" height="25" name="2005042"/><rect x="572" y="884" width="25" height="25" name="2010342"/><rect x="390" y="858" width="25" height="25" name="2010343"/><rect x="442" y="104" width="25" height="25" name="2005043"/><rect x="260" y="494" width="25" height="25" name="2010345"/><rect x="78" y="260" width="25" height="25" name="2010346"/><rect x="416" y="182" width="25" height="25" name="2005044"/><rect x="260" y="416" width="25" height="25" name="2010348"/><rect x="390" y="338" width="25" height="25" name="2010349"/><rect x="546" y="364" width="25" height="25" name="2010350"/><rect x="598" y="338" width="25" height="25" name="2010351"/><rect x="572" y="364" width="25" height="25" name="2010352"/><rect x="572" y="338" width="25" height="25" name="2010353"/><rect x="546" y="338" width="25" height="25" name="2010354"/><rect x="546" y="598" width="25" height="25" name="2010355"/><rect x="520" y="572" width="25" height="25" name="2010356"/><rect x="494" y="598" width="25" height="25" name="2010357"/><rect x="468" y="624" width="25" height="25" name="2010358"/><rect x="494" y="624" width="25" height="25" name="2010359"/><rect x="312" y="468" width="25" height="25" name="2010360"/><rect x="702" y="936" width="25" height="25" name="2010361"/><rect x="676" y="832" width="25" height="25" name="2010362"/><rect x="702" y="858" width="25" height="25" name="2010363"/><rect x="676" y="858" width="25" height="25" name="2010364"/><rect x="702" y="754" width="25" height="25" name="2010365"/><rect x="416" y="598" width="25" height="25" name="2010366"/><rect x="598" y="494" width="25" height="25" name="2010367"/><rect x="416" y="130" width="25" height="25" name="2005045"/><rect x="208" y="520" width="25" height="25" name="2010369"/><rect x="208" y="494" width="25" height="25" name="2010370"/><rect x="234" y="520" width="25" height="25" name="2010371"/><rect x="234" y="494" width="25" height="25" name="2010372"/><rect x="442" y="156" width="25" height="25" name="2005046"/><rect x="156" y="780" width="25" height="25" name="2010374"/><rect x="52" y="182" width="25" height="25" name="2010375"/><rect x="494" y="572" width="25" height="25" name="2010376"/><rect x="624" y="494" width="25" height="25" name="2010377"/><rect x="260" y="650" width="25" height="25" name="2010378"/><rect x="572" y="676" width="25" height="25" name="2010379"/><rect x="598" y="676" width="25" height="25" name="2010380"/><rect x="416" y="546" width="25" height="25" name="2010381"/><rect x="494" y="884" width="25" height="25" name="2010382"/><rect x="780" y="910" width="25" height="25" name="2010383"/><rect x="286" y="442" width="25" height="25" name="2010384"/><rect x="780" y="702" width="25" height="25" name="2010385"/><rect x="364" y="468" width="25" height="25" name="2010386"/><rect x="364" y="494" width="25" height="25" name="2010387"/><rect x="338" y="494" width="25" height="25" name="2010388"/><rect x="572" y="468" width="25" height="25" name="2010389"/><rect x="546" y="988" width="25" height="25" name="2010390"/><rect x="416" y="728" width="25" height="25" name="2010391"/><rect x="208" y="780" width="25" height="25" name="2010392"/><rect x="572" y="312" width="25" height="25" name="2010393"/><rect x="598" y="312" width="25" height="25" name="2010394"/><rect x="442" y="182" width="25" height="25" name="2005047"/><rect x="520" y="676" width="25" height="25" name="2010396"/><rect x="520" y="702" width="25" height="25" name="2010397"/><rect x="624" y="884" width="25" height="25" name="2010398"/><rect x="572" y="962" width="25" height="25" name="2010399"/><rect x="312" y="754" width="25" height="25" name="2010400"/><rect x="234" y="676" width="25" height="25" name="2010401"/><rect x="442" y="52" width="25" height="25" name="2005048"/><rect x="416" y="338" width="25" height="25" name="2010403"/><rect x="494" y="364" width="25" height="25" name="2010404"/><rect x="390" y="182" width="25" height="25" name="2005049"/><rect x="338" y="52" width="25" height="25" name="2005050"/><rect x="208" y="702" width="25" height="25" name="2010407"/><rect x="442" y="962" width="25" height="25" name="2010408"/><rect x="416" y="962" width="25" height="25" name="2010409"/><rect x="572" y="494" width="25" height="25" name="2010410"/><rect x="442" y="884" width="25" height="25" name="2010411"/><rect x="494" y="234" width="25" height="25" name="2010412"/><rect x="520" y="234" width="25" height="25" name="2010413"/><rect x="468" y="208" width="25" height="25" name="2010414"/><rect x="312" y="572" width="25" height="25" name="2010415"/><rect x="286" y="754" width="25" height="25" name="2010416"/><rect x="260" y="754" width="25" height="25" name="2010417"/><rect x="26" y="260" width="25" height="25" name="2010418"/><rect x="208" y="962" width="25" height="25" name="2010419"/><rect x="624" y="572" width="25" height="25" name="2010420"/><rect x="650" y="546" width="25" height="25" name="2010421"/><rect x="624" y="546" width="25" height="25" name="2010422"/><rect x="676" y="598" width="25" height="25" name="2010423"/><rect x="624" y="598" width="25" height="25" name="2010424"/><rect x="572" y="390" width="25" height="25" name="2010425"/><rect x="494" y="650" width="25" height="25" name="2010426"/><rect x="494" y="676" width="25" height="25" name="2010427"/><rect x="494" y="702" width="25" height="25" name="2010428"/><rect x="676" y="572" width="25" height="25" name="2010429"/><rect x="650" y="598" width="25" height="25" name="2010430"/><rect x="546" y="572" width="25" height="25" name="2010431"/><rect x="520" y="494" width="25" height="25" name="2010432"/><rect x="520" y="520" width="25" height="25" name="2010433"/><rect x="442" y="676" width="25" height="25" name="2010434"/><rect x="390" y="104" width="25" height="25" name="2005051"/><rect x="182" y="754" width="25" height="25" name="2010436"/><rect x="754" y="832" width="25" height="25" name="2010437"/><rect x="416" y="468" width="25" height="25" name="2010438"/><rect x="390" y="442" width="25" height="25" name="2010439"/><rect x="572" y="0" width="25" height="25" name="2005052"/><rect x="728" y="884" width="25" height="25" name="2010441"/><rect x="468" y="884" width="25" height="25" name="2010442"/><rect x="468" y="858" width="25" height="25" name="2010443"/><rect x="286" y="156" width="25" height="25" name="2005053"/><rect x="260" y="182" width="25" height="25" name="2005054"/><rect x="416" y="390" width="25" height="25" name="2010446"/><rect x="442" y="468" width="25" height="25" name="2010447"/><rect x="416" y="234" width="25" height="25" name="2010448"/><rect x="442" y="78" width="25" height="25" name="2005055"/><rect x="572" y="572" width="25" height="25" name="2010450"/><rect x="156" y="962" width="25" height="25" name="2010451"/><rect x="156" y="988" width="25" height="25" name="2010452"/><rect x="208" y="806" width="25" height="25" name="2010453"/><rect x="338" y="962" width="25" height="25" name="2010454"/><rect x="702" y="806" width="25" height="25" name="2010455"/><rect x="494" y="1014" width="25" height="25" name="2010456"/><rect x="520" y="1014" width="25" height="25" name="2010457"/><rect x="130" y="728" width="25" height="25" name="2010458"/><rect x="338" y="364" width="25" height="25" name="2010459"/><rect x="520" y="338" width="25" height="25" name="2010460"/><rect x="546" y="832" width="25" height="25" name="2010461"/><rect x="780" y="728" width="25" height="25" name="2010462"/><rect x="442" y="910" width="25" height="25" name="2010463"/><rect x="468" y="910" width="25" height="25" name="2010464"/><rect x="598" y="286" width="25" height="25" name="2010465"/><rect x="442" y="754" width="25" height="25" name="2010466"/><rect x="624" y="936" width="25" height="25" name="2010467"/><rect x="338" y="208" width="25" height="25" name="2005056"/><rect x="234" y="754" width="25" height="25" name="2010469"/><rect x="338" y="390" width="25" height="25" name="2010470"/><rect x="416" y="364" width="25" height="25" name="2010471"/><rect x="442" y="286" width="25" height="25" name="2010472"/><rect x="572" y="858" width="25" height="25" name="2010473"/><rect x="416" y="442" width="25" height="25" name="2010474"/><rect x="806" y="832" width="25" height="25" name="2010475"/><rect x="832" y="728" width="25" height="25" name="2010476"/><rect x="754" y="754" width="25" height="25" name="2010477"/><rect x="416" y="936" width="25" height="25" name="2010478"/><rect x="416" y="52" width="25" height="25" name="2005057"/><rect x="390" y="416" width="25" height="25" name="2010480"/><rect x="520" y="442" width="25" height="25" name="2010481"/><rect x="494" y="442" width="25" height="25" name="2010482"/><rect x="468" y="676" width="25" height="25" name="2010483"/><rect x="520" y="754" width="25" height="25" name="2010484"/><rect x="546" y="884" width="25" height="25" name="2010485"/><rect x="520" y="546" width="25" height="25" name="2010486"/><rect x="364" y="182" width="25" height="25" name="2005058"/><rect x="546" y="624" width="25" height="25" name="2010488"/><rect x="728" y="650" width="25" height="25" name="2010489"/><rect x="338" y="468" width="25" height="25" name="2010490"/><rect x="390" y="910" width="25" height="25" name="2010491"/><rect x="624" y="286" width="25" height="25" name="2010492"/><rect x="572" y="442" width="25" height="25" name="2010493"/><rect x="494" y="286" width="25" height="25" name="2010494"/><rect x="182" y="468" width="25" height="25" name="2010495"/><rect x="598" y="364" width="25" height="25" name="2010496"/><rect x="754" y="858" width="25" height="25" name="2010497"/><rect x="468" y="442" width="25" height="25" name="2010498"/><rect x="442" y="494" width="25" height="25" name="2010499"/><rect x="442" y="520" width="25" height="25" name="2010500"/><rect x="468" y="468" width="25" height="25" name="2010501"/><rect x="494" y="468" width="25" height="25" name="2010502"/><rect x="546" y="520" width="25" height="25" name="2010503"/><rect x="468" y="338" width="25" height="25" name="2010504"/><rect x="260" y="624" width="25" height="25" name="2010505"/><rect x="286" y="598" width="25" height="25" name="2010506"/><rect x="832" y="832" width="25" height="25" name="2010507"/><rect x="442" y="312" width="25" height="25" name="2010508"/><rect x="598" y="520" width="25" height="25" name="2010509"/><rect x="494" y="858" width="25" height="25" name="2010510"/><rect x="390" y="702" width="25" height="25" name="2010511"/><rect x="286" y="884" width="25" height="25" name="2010512"/><rect x="338" y="910" width="25" height="25" name="2010513"/><rect x="312" y="936" width="25" height="25" name="2010514"/><rect x="598" y="546" width="25" height="25" name="2010515"/><rect x="572" y="234" width="25" height="25" name="2010516"/><rect x="494" y="988" width="25" height="25" name="2010517"/><rect x="468" y="962" width="25" height="25" name="2010518"/><rect x="806" y="728" width="25" height="25" name="2010519"/><rect x="312" y="390" width="25" height="25" name="2010520"/><rect x="572" y="910" width="25" height="25" name="2010521"/><rect x="624" y="676" width="25" height="25" name="2010522"/><rect x="130" y="936" width="25" height="25" name="2010523"/><rect x="286" y="468" width="25" height="25" name="2010524"/><rect x="260" y="520" width="25" height="25" name="2010525"/><rect x="78" y="988" width="25" height="25" name="2010526"/><rect x="364" y="598" width="25" height="25" name="2010527"/><rect x="416" y="572" width="25" height="25" name="2010528"/><rect x="260" y="676" width="25" height="25" name="2010529"/><rect x="416" y="494" width="25" height="25" name="2010530"/><rect x="624" y="624" width="25" height="25" name="2010531"/><rect x="338" y="104" width="25" height="25" name="2005059"/><rect x="364" y="520" width="25" height="25" name="2010533"/><rect x="546" y="312" width="25" height="25" name="2010534"/><rect x="520" y="312" width="25" height="25" name="2010535"/><rect x="364" y="572" width="25" height="25" name="2010536"/><rect x="338" y="572" width="25" height="25" name="2010537"/><rect x="390" y="572" width="25" height="25" name="2010538"/><rect x="338" y="598" width="25" height="25" name="2010539"/><rect x="286" y="702" width="25" height="25" name="2010540"/><rect x="156" y="234" width="25" height="25" name="2010541"/><rect x="468" y="754" width="25" height="25" name="2010542"/><rect x="624" y="858" width="25" height="25" name="2010543"/><rect x="312" y="494" width="25" height="25" name="2010544"/><rect x="416" y="806" width="25" height="25" name="2010545"/><rect x="754" y="624" width="25" height="25" name="2010546"/><rect x="780" y="624" width="25" height="25" name="2010547"/><rect x="780" y="650" width="25" height="25" name="2010548"/><rect x="702" y="624" width="25" height="25" name="2010549"/><rect x="598" y="260" width="25" height="25" name="2010550"/><rect x="676" y="910" width="25" height="25" name="2010551"/><rect x="520" y="936" width="25" height="25" name="2010552"/><rect x="546" y="936" width="25" height="25" name="2010553"/><rect x="650" y="936" width="25" height="25" name="2010554"/><rect x="598" y="910" width="25" height="25" name="2010555"/><rect x="416" y="624" width="25" height="25" name="2010556"/><rect x="208" y="754" width="25" height="25" name="2010557"/><rect x="156" y="728" width="25" height="25" name="2010558"/><rect x="416" y="832" width="25" height="25" name="2010559"/><rect x="442" y="858" width="25" height="25" name="2010560"/><rect x="442" y="624" width="25" height="25" name="2010561"/><rect x="390" y="520" width="25" height="25" name="2010562"/><rect x="260" y="936" width="25" height="25" name="2010563"/><rect x="286" y="624" width="25" height="25" name="2010564"/><rect x="442" y="780" width="25" height="25" name="2010565"/><rect x="858" y="832" width="25" height="25" name="2010566"/><rect x="858" y="858" width="25" height="25" name="2010567"/><rect x="442" y="806" width="25" height="25" name="2010568"/><rect x="312" y="598" width="25" height="25" name="2010569"/><rect x="650" y="286" width="25" height="25" name="2010570"/><rect x="364" y="832" width="25" height="25" name="2010571"/><rect x="806" y="780" width="25" height="25" name="2010572"/><rect x="234" y="936" width="25" height="25" name="2010573"/><rect x="728" y="910" width="25" height="25" name="2010574"/><rect x="598" y="858" width="25" height="25" name="2010575"/><rect x="208" y="988" width="25" height="25" name="2010576"/><rect x="260" y="728" width="25" height="25" name="2010577"/><rect x="182" y="988" width="25" height="25" name="2010578"/><rect x="650" y="728" width="25" height="25" name="2010579"/><rect x="104" y="962" width="25" height="25" name="2010580"/><rect x="754" y="884" width="25" height="25" name="2010581"/><rect x="546" y="858" width="25" height="25" name="2010582"/><rect x="572" y="208" width="25" height="25" name="2010583"/><rect x="546" y="208" width="25" height="25" name="2010584"/><rect x="0" y="208" width="25" height="25" name="2010585"/><rect x="26" y="208" width="25" height="25" name="2010586"/><rect x="52" y="260" width="25" height="25" name="2010587"/><rect x="520" y="780" width="25" height="25" name="2010588"/><rect x="208" y="598" width="25" height="25" name="2010589"/><rect x="182" y="780" width="25" height="25" name="2010590"/><rect x="624" y="832" width="25" height="25" name="2010591"/><rect x="520" y="390" width="25" height="25" name="2010592"/><rect x="156" y="520" width="25" height="25" name="2010593"/><rect x="338" y="624" width="25" height="25" name="2010594"/><rect x="364" y="624" width="25" height="25" name="2010595"/><rect x="676" y="754" width="25" height="25" name="2010596"/><rect x="494" y="208" width="25" height="25" name="2010597"/><rect x="442" y="832" width="25" height="25" name="2010598"/><rect x="364" y="676" width="25" height="25" name="2010599"/><rect x="286" y="520" width="25" height="25" name="2010600"/><rect x="312" y="546" width="25" height="25" name="2010601"/><rect x="416" y="754" width="25" height="25" name="2010602"/><rect x="442" y="650" width="25" height="25" name="2010603"/><rect x="546" y="260" width="25" height="25" name="2010604"/><rect x="598" y="702" width="25" height="25" name="2010605"/><rect x="728" y="624" width="25" height="25" name="2010606"/><rect x="702" y="910" width="25" height="25" name="2010607"/><rect x="286" y="546" width="25" height="25" name="2010608"/><rect x="520" y="650" width="25" height="25" name="2010609"/><rect x="312" y="910" width="25" height="25" name="2010610"/><rect x="624" y="650" width="25" height="25" name="2010611"/><rect x="546" y="416" width="25" height="25" name="2010612"/><rect x="338" y="650" width="25" height="25" name="2010613"/><rect x="338" y="676" width="25" height="25" name="2010614"/><rect x="702" y="780" width="25" height="25" name="2010615"/><rect x="598" y="780" width="25" height="25" name="2010616"/><rect x="416" y="312" width="25" height="25" name="2010617"/><rect x="286" y="910" width="25" height="25" name="2010618"/><rect x="260" y="442" width="25" height="25" name="2010619"/><rect x="416" y="858" width="25" height="25" name="2010620"/><rect x="364" y="910" width="25" height="25" name="2010621"/><rect x="598" y="884" width="25" height="25" name="2010622"/><rect x="494" y="962" width="25" height="25" name="2010623"/><rect x="520" y="884" width="25" height="25" name="2010624"/><rect x="208" y="546" width="25" height="25" name="2010625"/><rect x="156" y="546" width="25" height="25" name="2010626"/><rect x="754" y="702" width="25" height="25" name="2010627"/><rect x="468" y="780" width="25" height="25" name="2010628"/><rect x="546" y="910" width="25" height="25" name="2010629"/><rect x="494" y="910" width="25" height="25" name="2010630"/><rect x="312" y="624" width="25" height="25" name="2010631"/><rect x="312" y="650" width="25" height="25" name="2010632"/><rect x="286" y="650" width="25" height="25" name="2010633"/><rect x="390" y="754" width="25" height="25" name="2010634"/><rect x="364" y="754" width="25" height="25" name="2010635"/><rect x="312" y="728" width="25" height="25" name="2010636"/><rect x="416" y="260" width="25" height="25" name="2010637"/><rect x="286" y="494" width="25" height="25" name="2010638"/><rect x="624" y="988" width="25" height="25" name="2010639"/><rect x="598" y="988" width="25" height="25" name="2010640"/><rect x="234" y="624" width="25" height="25" name="2010641"/><rect x="468" y="832" width="25" height="25" name="2010642"/><rect x="364" y="364" width="25" height="25" name="2010643"/><rect x="260" y="702" width="25" height="25" name="2010644"/><rect x="338" y="520" width="25" height="25" name="2010645"/><rect x="286" y="936" width="25" height="25" name="2010646"/><rect x="130" y="598" width="25" height="25" name="2010647"/><rect x="624" y="312" width="25" height="25" name="2010648"/><rect x="650" y="312" width="25" height="25" name="2010649"/><rect x="676" y="312" width="25" height="25" name="2010650"/>
</svg>