<svg xmlns="http://www.w3.org/2000/svg" xmlns:xlink="http://www.w3.org/1999/xlink" version="1.1" viewBox="0 0 884 1040" stroke-width="1" stroke="white" fill="#EEE" width="100%" height="100%">
   <style>#uk-2010-svg rect{ cursor:pointer; transition: fill 1000ms, opacity 500ms }</style>
   <g id="uk-2010-svg">
      <rect x="156" y="754" width="25" height="25" name="2010001"/>
      <rect x="182" y="624" width="25" height="25" name="2010002"/>
      <rect x="520" y="52" width="25" height="25" name="2024562"/>
      <rect x="520" y="78" width="25" height="25" name="2024563"/>
      <rect x="416" y="78" width="25" height="25" name="2024618"/>
      <rect x="416" y="156" width="25" height="25" name="2024564"/>
      <rect x="494" y="936" width="25" height="25" name="2024001"/>
      <rect x="390" y="624" width="25" height="25" name="2024002"/>
      <rect x="312" y="520" width="25" height="25" name="2024003"/>
      <rect x="260" y="598" width="25" height="25" name="2024621"/>
      <rect x="468" y="494" width="25" height="25" name="2024004"/>
      <rect x="520" y="104" width="25" height="25" name="2005005"/>
      <rect x="104" y="182" width="25" height="25" name="2024548"/>
      <rect x="78" y="182" width="25" height="25" name="2024555"/>
      <rect x="78" y="208" width="25" height="25" name="2024557"/>
      <rect x="156" y="624" width="25" height="25" name="2010016"/>
      <rect x="312" y="104" width="25" height="25" name="2024567"/>
      <rect x="650" y="962" width="25" height="25" name="2024005"/>
      <rect x="546" y="494" width="25" height="25" name="2024006"/>
      <rect x="806" y="884" width="25" height="25" name="2024007"/>
      <rect x="390" y="468" width="25" height="25" name="2024008"/>
      <rect x="494" y="780" width="25" height="25" name="2024009"/>
      <rect x="338" y="234" width="25" height="25" name="2024568"/>
      <rect x="312" y="208" width="25" height="25" name="2024573"/>
      <rect x="286" y="208" width="25" height="25" name="2024612"/>
      <rect x="494" y="728" width="25" height="25" name="2024010"/>
      <rect x="468" y="52" width="25" height="25" name="2005010"/>
      <rect x="754" y="780" width="25" height="25" name="2024011"/>
      <rect x="494" y="416" width="25" height="25" name="2010029"/>
      <rect x="520" y="416" width="25" height="25" name="2010030"/>
      <rect x="390" y="312" width="25" height="25" name="2024014"/>
      <rect x="754" y="728" width="25" height="25" name="2024015"/>
      <rect x="806" y="754" width="25" height="25" name="2024435"/>
      <rect x="442" y="936" width="25" height="25" name="2024016"/>
      <rect x="598" y="468" width="25" height="25" name="2024017"/>
      <rect x="364" y="884" width="25" height="25" name="2024018"/>
      <rect x="468" y="364" width="25" height="25" name="2010037"/>
      <rect x="598" y="832" width="25" height="25" name="2024021"/>
      <rect x="494" y="832" width="25" height="25" name="2024022"/>
      <rect x="702" y="884" width="25" height="25" name="2010040"/>
      <rect x="598" y="624" width="25" height="25" name="2024025"/>
      <rect x="572" y="650" width="25" height="25" name="2024322"/>
      <rect x="572" y="624" width="25" height="25" name="2010043"/>
      <rect x="546" y="676" width="25" height="25" name="2024450"/>
      <rect x="130" y="234" width="25" height="25" name="2024544"/>
      <rect x="104" y="208" width="25" height="25" name="2024545"/>
      <rect x="104" y="234" width="25" height="25" name="2024546"/>
      <rect x="78" y="234" width="25" height="25" name="2024547"/>
      <rect x="650" y="806" width="25" height="25" name="2024026"/>
      <rect x="442" y="208" width="25" height="25" name="2024027"/>
      <rect x="416" y="208" width="25" height="25" name="2024571"/>
      <rect x="676" y="806" width="25" height="25" name="2010052"/>
      <rect x="676" y="338" width="25" height="25" name="2024030"/>
      <rect x="754" y="910" width="25" height="25" name="2024031"/>
      <rect x="754" y="806" width="25" height="25" name="2024032"/>
      <rect x="182" y="546" width="25" height="25" name="2024033"/>
      <rect x="338" y="702" width="25" height="25" name="2024034"/>
      <rect x="390" y="650" width="25" height="25" name="2024035"/>
      <rect x="364" y="702" width="25" height="25" name="2024036"/>
      <rect x="416" y="650" width="25" height="25" name="2010060"/>
      <rect x="390" y="676" width="25" height="25" name="2024038"/>
      <rect x="364" y="728" width="25" height="25" name="2024040"/>
      <rect x="364" y="650" width="25" height="25" name="2024041"/>
      <rect x="390" y="728" width="25" height="25" name="2024042"/>
      <rect x="416" y="676" width="25" height="25" name="2024039"/>
      <rect x="468" y="260" width="25" height="25" name="2024043"/>
      <rect x="390" y="364" width="25" height="25" name="2024044"/>
      <rect x="364" y="442" width="25" height="25" name="2010068"/>
      <rect x="364" y="338" width="25" height="25" name="2010069"/>
      <rect x="286" y="364" width="25" height="25" name="2024050"/>
      <rect x="208" y="728" width="25" height="25" name="2010071"/>
      <rect x="494" y="260" width="25" height="25" name="2010072"/>
      <rect x="520" y="208" width="25" height="25" name="2010073"/>
      <rect x="572" y="988" width="25" height="25" name="2024056"/>
      <rect x="546" y="468" width="25" height="25" name="2024057"/>
      <rect x="312" y="416" width="25" height="25" name="2024058"/>
      <rect x="312" y="442" width="25" height="25" name="2010077"/>
      <rect x="286" y="416" width="25" height="25" name="2024060"/>
      <rect x="182" y="494" width="25" height="25" name="2024061"/>
      <rect x="624" y="520" width="25" height="25" name="2024062"/>
      <rect x="468" y="650" width="25" height="25" name="2024063"/>
      <rect x="390" y="962" width="25" height="25" name="2024064"/>
      <rect x="364" y="962" width="25" height="25" name="2024065"/>
      <rect x="520" y="910" width="25" height="25" name="2024066"/>
      <rect x="494" y="338" width="25" height="25" name="2024067"/>
      <rect x="468" y="390" width="25" height="25" name="2024068"/>
      <rect x="442" y="364" width="25" height="25" name="2024069"/>
      <rect x="754" y="676" width="25" height="25" name="2024070"/>
      <rect x="234" y="702" width="25" height="25" name="2024645"/>
      <rect x="572" y="780" width="25" height="25" name="2010090"/>
      <rect x="572" y="754" width="25" height="25" name="2010091"/>
      <rect x="520" y="832" width="25" height="25" name="2024075"/>
      <rect x="728" y="702" width="25" height="25" name="2024076"/>
      <rect x="182" y="806" width="25" height="25" name="2024649"/>
      <rect x="260" y="910" width="25" height="25" name="2010095"/>
      <rect x="598" y="416" width="25" height="25" name="2010096"/>
      <rect x="754" y="936" width="25" height="25" name="2024084"/>
      <rect x="728" y="936" width="25" height="25" name="2024085"/>
      <rect x="338" y="884" width="25" height="25" name="2024086"/>
      <rect x="338" y="858" width="25" height="25" name="2024087"/>
      <rect x="312" y="884" width="25" height="25" name="2024088"/>
      <rect x="364" y="858" width="25" height="25" name="2010102"/>
      <rect x="650" y="572" width="25" height="25" name="2024090"/>
      <rect x="728" y="858" width="25" height="25" name="2010104"/>
      <rect x="338" y="728" width="25" height="25" name="2024093"/>
      <rect x="676" y="676" width="25" height="25" name="2024094"/>
      <rect x="494" y="520" width="25" height="25" name="2024095"/>
      <rect x="520" y="728" width="25" height="25" name="2010108"/>
      <rect x="416" y="416" width="25" height="25" name="2024098"/>
      <rect x="442" y="598" width="25" height="25" name="2024099"/>
      <rect x="338" y="416" width="25" height="25" name="2024100"/>
      <rect x="338" y="442" width="25" height="25" name="2024048"/>
      <rect x="754" y="650" width="25" height="25" name="2024101"/>
      <rect x="234" y="780" width="25" height="25" name="2024639"/>
      <rect x="416" y="26" width="25" height="25" name="2024572"/>
      <rect x="442" y="416" width="25" height="25" name="2024102"/>
      <rect x="650" y="832" width="25" height="25" name="2010117"/>
      <rect x="104" y="988" width="25" height="25" name="2024107"/>
      <rect x="676" y="624" width="25" height="25" name="2024108"/>
      <rect x="598" y="572" width="25" height="25" name="2024350"/>
      <rect x="572" y="598" width="25" height="25" name="2024363"/>
      <rect x="650" y="624" width="25" height="25" name="2024436"/>
      <rect x="702" y="650" width="25" height="25" name="2010123"/>
      <rect x="390" y="598" width="25" height="25" name="2024109"/>
      <rect x="832" y="858" width="25" height="25" name="2024110"/>
      <rect x="260" y="780" width="25" height="25" name="2010126"/>
      <rect x="234" y="806" width="25" height="25" name="2024630"/>
      <rect x="234" y="832" width="25" height="25" name="2024629"/>
      <rect x="208" y="832" width="25" height="25" name="2024650"/>
      <rect x="442" y="260" width="25" height="25" name="2024111"/>
      <rect x="182" y="702" width="25" height="25" name="2010131"/>
      <rect x="130" y="754" width="25" height="25" name="2010132"/>
      <rect x="624" y="910" width="25" height="25" name="2024112"/>
      <rect x="832" y="754" width="25" height="25" name="2024113"/>
      <rect x="208" y="676" width="25" height="25" name="2024642"/>
      <rect x="572" y="520" width="25" height="25" name="2010136"/>
      <rect x="780" y="884" width="25" height="25" name="2024118"/>
      <rect x="338" y="546" width="25" height="25" name="2024119"/>
      <rect x="728" y="676" width="25" height="25" name="2024120"/>
      <rect x="572" y="832" width="25" height="25" name="2024121"/>
      <rect x="390" y="832" width="25" height="25" name="2024122"/>
      <rect x="494" y="754" width="25" height="25" name="2024123"/>
      <rect x="494" y="494" width="25" height="25" name="2024124"/>
      <rect x="546" y="962" width="25" height="25" name="2024125"/>
      <rect x="702" y="728" width="25" height="25" name="2024126"/>
      <rect x="390" y="884" width="25" height="25" name="2024127"/>
      <rect x="624" y="702" width="25" height="25" name="2024128"/>
      <rect x="364" y="390" width="25" height="25" name="2024129"/>
      <rect x="390" y="936" width="25" height="25" name="2024130"/>
      <rect x="624" y="806" width="25" height="25" name="2024131"/>
      <rect x="260" y="572" width="25" height="25" name="2010151"/>
      <rect x="520" y="286" width="25" height="25" name="2024135"/>
      <rect x="832" y="676" width="25" height="25" name="2024136"/>
      <rect x="624" y="416" width="25" height="25" name="2010154"/>
      <rect x="234" y="650" width="25" height="25" name="2010155"/>
      <rect x="208" y="624" width="25" height="25" name="2010156"/>
      <rect x="364" y="130" width="25" height="25" name="2024574"/>
      <rect x="780" y="676" width="25" height="25" name="2024138"/>
      <rect x="442" y="442" width="25" height="25" name="2024187"/>
      <rect x="390" y="546" width="25" height="25" name="2024139"/>
      <rect x="416" y="286" width="25" height="25" name="2010161"/>
      <rect x="546" y="650" width="25" height="25" name="2024142"/>
      <rect x="156" y="936" width="25" height="25" name="2024345"/>
      <rect x="130" y="962" width="25" height="25" name="2024441"/>
      <rect x="442" y="702" width="25" height="25" name="2010165"/>
      <rect x="416" y="702" width="25" height="25" name="2024145"/>
      <rect x="442" y="728" width="25" height="25" name="2024144"/>
      <rect x="676" y="936" width="25" height="25" name="2024146"/>
      <rect x="364" y="546" width="25" height="25" name="2024147"/>
      <rect x="676" y="884" width="25" height="25" name="2010170"/>
      <rect x="650" y="884" width="25" height="25" name="2010171"/>
      <rect x="650" y="910" width="25" height="25" name="2024150"/>
      <rect x="364" y="104" width="25" height="25" name="2024575"/>
      <rect x="182" y="728" width="25" height="25" name="2010174"/>
      <rect x="780" y="780" width="25" height="25" name="2024152"/>
      <rect x="494" y="312" width="25" height="25" name="2024153"/>
      <rect x="780" y="806" width="25" height="25" name="2024154"/>
      <rect x="468" y="702" width="25" height="25" name="2024155"/>
      <rect x="234" y="598" width="25" height="25" name="2010179"/>
      <rect x="390" y="494" width="25" height="25" name="2010180"/>
      <rect x="468" y="546" width="25" height="25" name="2024158"/>
      <rect x="468" y="572" width="25" height="25" name="2024159"/>
      <rect x="442" y="572" width="25" height="25" name="2024160"/>
      <rect x="468" y="520" width="25" height="25" name="2024323"/>
      <rect x="520" y="468" width="25" height="25" name="2024351"/>
      <rect x="468" y="598" width="25" height="25" name="2024437"/>
      <rect x="416" y="884" width="25" height="25" name="2010187"/>
      <rect x="208" y="936" width="25" height="25" name="2024114"/>
      <rect x="260" y="962" width="25" height="25" name="2010189"/>
      <rect x="234" y="910" width="25" height="25" name="2024346"/>
      <rect x="182" y="962" width="25" height="25" name="2024451"/>
      <rect x="182" y="936" width="25" height="25" name="2024495"/>
      <rect x="494" y="390" width="25" height="25" name="2010193"/>
      <rect x="546" y="442" width="25" height="25" name="2010194"/>
      <rect x="572" y="416" width="25" height="25" name="2024165"/>
      <rect x="546" y="390" width="25" height="25" name="2024166"/>
      <rect x="338" y="936" width="25" height="25" name="2024324"/>
      <rect x="364" y="936" width="25" height="25" name="2024347"/>
      <rect x="312" y="962" width="25" height="25" name="2024438"/>
      <rect x="286" y="962" width="25" height="25" name="2024518"/>
      <rect x="832" y="884" width="25" height="25" name="2024167"/>
      <rect x="130" y="208" width="25" height="25" name="2024556"/>
      <rect x="104" y="260" width="25" height="25" name="2024558"/>
      <rect x="312" y="676" width="25" height="25" name="2010204"/>
      <rect x="286" y="676" width="25" height="25" name="2010205"/>
      <rect x="650" y="858" width="25" height="25" name="2024106"/>
      <rect x="364" y="234" width="25" height="25" name="2024576"/>
      <rect x="390" y="234" width="25" height="25" name="2024577"/>
      <rect x="338" y="130" width="25" height="25" name="2005017"/>
      <rect x="312" y="130" width="25" height="25" name="2024597"/>
      <rect x="494" y="78" width="25" height="25" name="2005019"/>
      <rect x="468" y="78" width="25" height="25" name="2005020"/>
      <rect x="416" y="104" width="25" height="25" name="2024579"/>
      <rect x="468" y="286" width="25" height="25" name="2024348"/>
      <rect x="468" y="234" width="25" height="25" name="2010215"/>
      <rect x="208" y="650" width="25" height="25" name="2024636"/>
      <rect x="546" y="806" width="25" height="25" name="2024171"/>
      <rect x="546" y="780" width="25" height="25" name="2024172"/>
      <rect x="520" y="806" width="25" height="25" name="2024173"/>
      <rect x="546" y="286" width="25" height="25" name="2024174"/>
      <rect x="728" y="780" width="25" height="25" name="2024178"/>
      <rect x="390" y="208" width="25" height="25" name="2024582"/>
      <rect x="468" y="182" width="25" height="25" name="2024583"/>
      <rect x="780" y="936" width="25" height="25" name="2024183"/>
      <rect x="520" y="988" width="25" height="25" name="2024184"/>
      <rect x="286" y="572" width="25" height="25" name="2010226"/>
      <rect x="494" y="130" width="25" height="25" name="2024585"/>
      <rect x="468" y="130" width="25" height="25" name="2024586"/>
      <rect x="494" y="156" width="25" height="25" name="2024587"/>
      <rect x="468" y="156" width="25" height="25" name="2024588"/>
      <rect x="442" y="130" width="25" height="25" name="2024589"/>
      <rect x="676" y="728" width="25" height="25" name="2010232"/>
      <rect x="234" y="572" width="25" height="25" name="2010233"/>
      <rect x="598" y="390" width="25" height="25" name="2010234"/>
      <rect x="728" y="832" width="25" height="25" name="2010235"/>
      <rect x="676" y="702" width="25" height="25" name="2024195"/>
      <rect x="650" y="702" width="25" height="25" name="2010237"/>
      <rect x="702" y="702" width="25" height="25" name="2024196"/>
      <rect x="598" y="936" width="25" height="25" name="2024197"/>
      <rect x="494" y="546" width="25" height="25" name="2024198"/>
      <rect x="728" y="806" width="25" height="25" name="2024194"/>
      <rect x="572" y="936" width="25" height="25" name="2024199"/>
      <rect x="234" y="962" width="25" height="25" name="2024177"/>
      <rect x="390" y="130" width="25" height="25" name="2024591"/>
      <rect x="468" y="988" width="25" height="25" name="2010245"/>
      <rect x="806" y="858" width="25" height="25" name="2024202"/>
      <rect x="520" y="858" width="25" height="25" name="2024203"/>
      <rect x="26" y="234" width="25" height="25" name="2024550"/>
      <rect x="494" y="104" width="25" height="25" name="2024599"/>
      <rect x="338" y="832" width="25" height="25" name="2024204"/>
      <rect x="598" y="728" width="25" height="25" name="2024205"/>
      <rect x="832" y="910" width="25" height="25" name="2024206"/>
      <rect x="390" y="780" width="25" height="25" name="2024207"/>
      <rect x="26" y="182" width="25" height="25" name="2024551"/>
      <rect x="312" y="364" width="25" height="25" name="2024208"/>
      <rect x="624" y="468" width="25" height="25" name="2024209"/>
      <rect x="234" y="546" width="25" height="25" name="2010257"/>
      <rect x="520" y="260" width="25" height="25" name="2010258"/>
      <rect x="546" y="546" width="25" height="25" name="2024213"/>
      <rect x="780" y="858" width="25" height="25" name="2024214"/>
      <rect x="312" y="182" width="25" height="25" name="2005031"/>
      <rect x="390" y="156" width="25" height="25" name="2024592"/>
      <rect x="338" y="156" width="25" height="25" name="2024593"/>
      <rect x="364" y="156" width="25" height="25" name="2024581"/>
      <rect x="312" y="156" width="25" height="25" name="2005035"/>
      <rect x="338" y="182" width="25" height="25" name="2024595"/>
      <rect x="286" y="182" width="25" height="25" name="2024594"/>
      <rect x="468" y="104" width="25" height="25" name="2005038"/>
      <rect x="416" y="780" width="25" height="25" name="2024215"/>
      <rect x="494" y="52" width="25" height="25" name="2005039"/>
      <rect x="468" y="1014" width="25" height="25" name="2024216"/>
      <rect x="156" y="806" width="25" height="25" name="2024624"/>
      <rect x="572" y="546" width="25" height="25" name="2010273"/>
      <rect x="780" y="832" width="25" height="25" name="2024219"/>
      <rect x="598" y="442" width="25" height="25" name="2010275"/>
      <rect x="702" y="572" width="25" height="25" name="2024220"/>
      <rect x="702" y="832" width="25" height="25" name="2024221"/>
      <rect x="598" y="962" width="25" height="25" name="2024222"/>
      <rect x="650" y="754" width="25" height="25" name="2024223"/>
      <rect x="676" y="780" width="25" height="25" name="2024224"/>
      <rect x="312" y="702" width="25" height="25" name="2010281"/>
      <rect x="442" y="390" width="25" height="25" name="2024228"/>
      <rect x="624" y="338" width="25" height="25" name="2010283"/>
      <rect x="260" y="546" width="25" height="25" name="2010284"/>
      <rect x="572" y="806" width="25" height="25" name="2010285"/>
      <rect x="520" y="962" width="25" height="25" name="2024179"/>
      <rect x="468" y="936" width="25" height="25" name="2024352"/>
      <rect x="416" y="910" width="25" height="25" name="2024364"/>
      <rect x="598" y="754" width="25" height="25" name="2010289"/>
      <rect x="520" y="598" width="25" height="25" name="2024234"/>
      <rect x="702" y="676" width="25" height="25" name="2024235"/>
      <rect x="468" y="312" width="25" height="25" name="2024236"/>
      <rect x="546" y="728" width="25" height="25" name="2024074"/>
      <rect x="546" y="754" width="25" height="25" name="2024541"/>
      <rect x="572" y="286" width="25" height="25" name="2024237"/>
      <rect x="806" y="676" width="25" height="25" name="2024238"/>
      <rect x="806" y="910" width="25" height="25" name="2024239"/>
      <rect x="546" y="1014" width="25" height="25" name="2024240"/>
      <rect x="494" y="806" width="25" height="25" name="2024241"/>
      <rect x="416" y="520" width="25" height="25" name="2024242"/>
      <rect x="572" y="702" width="25" height="25" name="2024243"/>
      <rect x="520" y="364" width="25" height="25" name="2010302"/>
      <rect x="572" y="728" width="25" height="25" name="2024245"/>
      <rect x="468" y="806" width="25" height="25" name="2024246"/>
      <rect x="338" y="754" width="25" height="25" name="2024247"/>
      <rect x="286" y="728" width="25" height="25" name="2024355"/>
      <rect x="650" y="650" width="25" height="25" name="2024248"/>
      <rect x="676" y="650" width="25" height="25" name="2024353"/>
      <rect x="546" y="702" width="25" height="25" name="2024452"/>
      <rect x="650" y="676" width="25" height="25" name="2024249"/>
      <rect x="442" y="234" width="25" height="25" name="2024250"/>
      <rect x="364" y="416" width="25" height="25" name="2024251"/>
      <rect x="442" y="546" width="25" height="25" name="2024252"/>
      <rect x="598" y="650" width="25" height="25" name="2010314"/>
      <rect x="624" y="780" width="25" height="25" name="2024233"/>
      <rect x="780" y="754" width="25" height="25" name="2024255"/>
      <rect x="624" y="728" width="25" height="25" name="2010317"/>
      <rect x="624" y="962" width="25" height="25" name="2024258"/>
      <rect x="572" y="260" width="25" height="25" name="2024259"/>
      <rect x="676" y="962" width="25" height="25" name="2024260"/>
      <rect x="468" y="416" width="25" height="25" name="2024261"/>
      <rect x="650" y="364" width="25" height="25" name="2024277"/>
      <rect x="650" y="338" width="25" height="25" name="2010323"/>
      <rect x="624" y="364" width="25" height="25" name="2010324"/>
      <rect x="598" y="598" width="25" height="25" name="2024262"/>
      <rect x="390" y="390" width="25" height="25" name="2024263"/>
      <rect x="728" y="728" width="25" height="25" name="2024264"/>
      <rect x="728" y="754" width="25" height="25" name="2024265"/>
      <rect x="286" y="130" width="25" height="25" name="2024601"/>
      <rect x="390" y="78" width="25" height="25" name="2005041"/>
      <rect x="806" y="650" width="25" height="25" name="2024266"/>
      <rect x="416" y="1014" width="25" height="25" name="2010332"/>
      <rect x="624" y="754" width="25" height="25" name="2024269"/>
      <rect x="650" y="780" width="25" height="25" name="2024270"/>
      <rect x="234" y="728" width="25" height="25" name="2010335"/>
      <rect x="546" y="234" width="25" height="25" name="2010336"/>
      <rect x="442" y="338" width="25" height="25" name="2024272"/>
      <rect x="468" y="728" width="25" height="25" name="2024273"/>
      <rect x="598" y="806" width="25" height="25" name="2024274"/>
      <rect x="520" y="624" width="25" height="25" name="2024275"/>
      <rect x="364" y="208" width="25" height="25" name="2024604"/>
      <rect x="572" y="884" width="25" height="25" name="2024276"/>
      <rect x="390" y="858" width="25" height="25" name="2010343"/>
      <rect x="442" y="104" width="25" height="25" name="2024600"/>
      <rect x="260" y="494" width="25" height="25" name="2024281"/>
      <rect x="78" y="260" width="25" height="25" name="2024552"/>
      <rect x="416" y="182" width="25" height="25" name="2005044"/>
      <rect x="260" y="416" width="25" height="25" name="2024520"/>
      <rect x="390" y="338" width="25" height="25" name="2010349"/>
      <rect x="546" y="364" width="25" height="25" name="2010350"/>
      <rect x="598" y="338" width="25" height="25" name="2024192"/>
      <rect x="572" y="364" width="25" height="25" name="2024287"/>
      <rect x="572" y="338" width="25" height="25" name="2024288"/>
      <rect x="546" y="338" width="25" height="25" name="2010354"/>
      <rect x="546" y="598" width="25" height="25" name="2024290"/>
      <rect x="520" y="572" width="25" height="25" name="2024291"/>
      <rect x="494" y="598" width="25" height="25" name="2024292"/>
      <rect x="468" y="624" width="25" height="25" name="2024365"/>
      <rect x="494" y="624" width="25" height="25" name="2024443"/>
      <rect x="312" y="468" width="25" height="25" name="2010360"/>
      <rect x="702" y="936" width="25" height="25" name="2024296"/>
      <rect x="676" y="832" width="25" height="25" name="2010362"/>
      <rect x="702" y="858" width="25" height="25" name="2024297"/>
      <rect x="676" y="858" width="25" height="25" name="2010364"/>
      <rect x="702" y="754" width="25" height="25" name="2024299"/>
      <rect x="416" y="598" width="25" height="25" name="2024300"/>
      <rect x="598" y="494" width="25" height="25" name="2024301"/>
      <rect x="416" y="130" width="25" height="25" name="2005045"/>
      <rect x="208" y="520" width="25" height="25" name="2024302"/>
      <rect x="208" y="494" width="25" height="25" name="2024303"/>
      <rect x="234" y="520" width="25" height="25" name="2024304"/>
      <rect x="234" y="494" width="25" height="25" name="2024305"/>
      <rect x="442" y="156" width="25" height="25" name="2024610"/>
      <rect x="156" y="780" width="25" height="25" name="2024623"/>
      <rect x="52" y="182" width="25" height="25" name="2024549"/>
      <rect x="494" y="572" width="25" height="25" name="2024306"/>
      <rect x="624" y="494" width="25" height="25" name="2024307"/>
      <rect x="260" y="650" width="25" height="25" name="2024308"/>
      <rect x="572" y="676" width="25" height="25" name="2024309"/>
      <rect x="598" y="676" width="25" height="25" name="2024310"/>
      <rect x="416" y="546" width="25" height="25" name="2024311"/>
      <rect x="494" y="884" width="25" height="25" name="2024312"/>
      <rect x="780" y="910" width="25" height="25" name="2010383"/>
      <rect x="286" y="442" width="25" height="25" name="2024295"/>
      <rect x="780" y="702" width="25" height="25" name="2024315"/>
      <rect x="364" y="468" width="25" height="25" name="2024046"/>
      <rect x="364" y="494" width="25" height="25" name="2010387"/>
      <rect x="338" y="494" width="25" height="25" name="2024317"/>
      <rect x="572" y="468" width="25" height="25" name="2024318"/>
      <rect x="546" y="988" width="25" height="25" name="2010390"/>
      <rect x="416" y="728" width="25" height="25" name="2010391"/>
      <rect x="208" y="780" width="25" height="25" name="2010392"/>
      <rect x="572" y="312" width="25" height="25" name="2010393"/>
      <rect x="598" y="312" width="25" height="25" name="2024329"/>
      <rect x="442" y="182" width="25" height="25" name="2024611"/>
      <rect x="520" y="676" width="25" height="25" name="2024330"/>
      <rect x="520" y="702" width="25" height="25" name="2010397"/>
      <rect x="624" y="884" width="25" height="25" name="2024332"/>
      <rect x="572" y="962" width="25" height="25" name="2010399"/>
      <rect x="312" y="754" width="25" height="25" name="2024633"/>
      <rect x="234" y="676" width="25" height="25" name="2010401"/>
      <rect x="442" y="52" width="25" height="25" name="2005048"/>
      <rect x="416" y="338" width="25" height="25" name="2024283"/>
      <rect x="494" y="364" width="25" height="25" name="2010404"/>
      <rect x="390" y="182" width="25" height="25" name="2005049"/>
      <rect x="338" y="52" width="25" height="25" name="2024590"/>
      <rect x="208" y="702" width="25" height="25" name="2010407"/>
      <rect x="442" y="962" width="25" height="25" name="2024335"/>
      <rect x="416" y="962" width="25" height="25" name="2024336"/>
      <rect x="572" y="494" width="25" height="25" name="2024337"/>
      <rect x="442" y="884" width="25" height="25" name="2024338"/>
      <rect x="494" y="234" width="25" height="25" name="2010412"/>
      <rect x="520" y="234" width="25" height="25" name="2010413"/>
      <rect x="468" y="208" width="25" height="25" name="2024340"/>
      <rect x="312" y="572" width="25" height="25" name="2024342"/>
      <rect x="286" y="754" width="25" height="25" name="2024634"/>
      <rect x="260" y="754" width="25" height="25" name="2010417"/>
      <rect x="26" y="260" width="25" height="25" name="2024554"/>
      <rect x="208" y="962" width="25" height="25" name="2024343"/>
      <rect x="624" y="572" width="25" height="25" name="2024325"/>
      <rect x="650" y="546" width="25" height="25" name="2024356"/>
      <rect x="624" y="546" width="25" height="25" name="2024366"/>
      <rect x="676" y="598" width="25" height="25" name="2024444"/>
      <rect x="624" y="598" width="25" height="25" name="2024453"/>
      <rect x="572" y="390" width="25" height="25" name="2024344"/>
      <rect x="494" y="650" width="25" height="25" name="2024368"/>
      <rect x="494" y="676" width="25" height="25" name="2024369"/>
      <rect x="494" y="702" width="25" height="25" name="2024445"/>
      <rect x="676" y="572" width="25" height="25" name="2024370"/>
      <rect x="650" y="598" width="25" height="25" name="2024371"/>
      <rect x="546" y="572" width="25" height="25" name="2024372"/>
      <rect x="520" y="494" width="25" height="25" name="2010432"/>
      <rect x="520" y="520" width="25" height="25" name="2024374"/>
      <rect x="442" y="676" width="25" height="25" name="2024375"/>
      <rect x="390" y="104" width="25" height="25" name="2005051"/>
      <rect x="182" y="754" width="25" height="25" name="2010436"/>
      <rect x="754" y="832" width="25" height="25" name="2024376"/>
      <rect x="416" y="468" width="25" height="25" name="2024377"/>
      <rect x="390" y="442" width="25" height="25" name="2024378"/>
      <rect x="572" y="0" width="25" height="25" name="2024615"/>
      <rect x="728" y="884" width="25" height="25" name="2024092"/>
      <rect x="468" y="884" width="25" height="25" name="2024379"/>
      <rect x="468" y="858" width="25" height="25" name="2024380"/>
      <rect x="286" y="156" width="25" height="25" name="2024616"/>
      <rect x="260" y="182" width="25" height="25" name="2005054"/>
      <rect x="416" y="390" width="25" height="25" name="2010446"/>
      <rect x="442" y="468" width="25" height="25" name="2024382"/>
      <rect x="416" y="234" width="25" height="25" name="2010448"/>
      <rect x="442" y="78" width="25" height="25" name="2024617"/>
      <rect x="572" y="572" width="25" height="25" name="2024384"/>
      <rect x="156" y="962" width="25" height="25" name="2024385"/>
      <rect x="156" y="988" width="25" height="25" name="2024386"/>
      <rect x="208" y="806" width="25" height="25" name="2024647"/>
      <rect x="338" y="962" width="25" height="25" name="2024387"/>
      <rect x="702" y="806" width="25" height="25" name="2024388"/>
      <rect x="494" y="1014" width="25" height="25" name="2024389"/>
      <rect x="520" y="1014" width="25" height="25" name="2024390"/>
      <rect x="130" y="728" width="25" height="25" name="2010458"/>
      <rect x="338" y="364" width="25" height="25" name="2024391"/>
      <rect x="520" y="338" width="25" height="25" name="2010460"/>
      <rect x="546" y="832" width="25" height="25" name="2024392"/>
      <rect x="780" y="728" width="25" height="25" name="2024393"/>
      <rect x="442" y="910" width="25" height="25" name="2010463"/>
      <rect x="468" y="910" width="25" height="25" name="2010464"/>
      <rect x="598" y="286" width="25" height="25" name="2024397"/>
      <rect x="442" y="754" width="25" height="25" name="2024398"/>
      <rect x="624" y="936" width="25" height="25" name="2024399"/>
      <rect x="338" y="208" width="25" height="25" name="2024584"/>
      <rect x="234" y="754" width="25" height="25" name="2010469"/>
      <rect x="338" y="390" width="25" height="25" name="2024446"/>
      <rect x="416" y="364" width="25" height="25" name="2024400"/>
      <rect x="442" y="286" width="25" height="25" name="2024401"/>
      <rect x="572" y="858" width="25" height="25" name="2024402"/>
      <rect x="416" y="442" width="25" height="25" name="2024403"/>
      <rect x="806" y="832" width="25" height="25" name="2024543"/>
      <rect x="832" y="728" width="25" height="25" name="2024404"/>
      <rect x="754" y="754" width="25" height="25" name="2024405"/>
      <rect x="416" y="936" width="25" height="25" name="2024406"/>
      <rect x="416" y="52" width="25" height="25" name="2005057"/>
      <rect x="390" y="416" width="25" height="25" name="2024407"/>
      <rect x="520" y="442" width="25" height="25" name="2024408"/>
      <rect x="494" y="442" width="25" height="25" name="2024409"/>
      <rect x="468" y="676" width="25" height="25" name="2024410"/>
      <rect x="520" y="754" width="25" height="25" name="2024411"/>
      <rect x="546" y="884" width="25" height="25" name="2024412"/>
      <rect x="520" y="546" width="25" height="25" name="2024413"/>
      <rect x="364" y="182" width="25" height="25" name="2005058"/>
      <rect x="546" y="624" width="25" height="25" name="2010488"/>
      <rect x="728" y="650" width="25" height="25" name="2024414"/>
      <rect x="338" y="468" width="25" height="25" name="2010490"/>
      <rect x="390" y="910" width="25" height="25" name="2024415"/>
      <rect x="624" y="286" width="25" height="25" name="2024416"/>
      <rect x="572" y="442" width="25" height="25" name="2024083"/>
      <rect x="494" y="286" width="25" height="25" name="2010494"/>
      <rect x="182" y="468" width="25" height="25" name="2024419"/>
      <rect x="598" y="364" width="25" height="25" name="2010496"/>
      <rect x="754" y="858" width="25" height="25" name="2024421"/>
      <rect x="468" y="442" width="25" height="25" name="2024424"/>
      <rect x="442" y="494" width="25" height="25" name="2024422"/>
      <rect x="442" y="520" width="25" height="25" name="2024425"/>
      <rect x="468" y="468" width="25" height="25" name="2024426"/>
      <rect x="494" y="468" width="25" height="25" name="2024423"/>
      <rect x="546" y="520" width="25" height="25" name="2024427"/>
      <rect x="468" y="338" width="25" height="25" name="2024428"/>
      <rect x="260" y="624" width="25" height="25" name="2024429"/>
      <rect x="286" y="598" width="25" height="25" name="2024357"/>
      <rect x="832" y="832" width="25" height="25" name="2024430"/>
      <rect x="442" y="312" width="25" height="25" name="2024420"/>
      <rect x="598" y="520" width="25" height="25" name="2024431"/>
      <rect x="494" y="858" width="25" height="25" name="2024432"/>
      <rect x="390" y="702" width="25" height="25" name="2010511"/>
      <rect x="286" y="884" width="25" height="25" name="2024542"/>
      <rect x="338" y="910" width="25" height="25" name="2010513"/>
      <rect x="312" y="936" width="25" height="25" name="2010514"/>
      <rect x="598" y="546" width="25" height="25" name="2024442"/>
      <rect x="572" y="234" width="25" height="25" name="2024271"/>
      <rect x="494" y="988" width="25" height="25" name="2024456"/>
      <rect x="468" y="962" width="25" height="25" name="2024457"/>
      <rect x="806" y="728" width="25" height="25" name="2024458"/>
      <rect x="312" y="390" width="25" height="25" name="2024459"/>
      <rect x="572" y="910" width="25" height="25" name="2024460"/>
      <rect x="624" y="676" width="25" height="25" name="2024461"/>
      <rect x="130" y="936" width="25" height="25" name="2024462"/>
      <rect x="286" y="468" width="25" height="25" name="2024463"/>
      <rect x="260" y="520" width="25" height="25" name="2024464"/>
      <rect x="78" y="988" width="25" height="25" name="2024465"/>
      <rect x="364" y="598" width="25" height="25" name="2024466"/>
      <rect x="416" y="572" width="25" height="25" name="2024467"/>
      <rect x="260" y="676" width="25" height="25" name="2010529"/>
      <rect x="416" y="494" width="25" height="25" name="2024468"/>
      <rect x="624" y="624" width="25" height="25" name="2024469"/>
      <rect x="338" y="104" width="25" height="25" name="2024614"/>
      <rect x="364" y="520" width="25" height="25" name="2024157"/>
      <rect x="546" y="312" width="25" height="25" name="2024470"/>
      <rect x="520" y="312" width="25" height="25" name="2010535"/>
      <rect x="364" y="572" width="25" height="25" name="2024471"/>
      <rect x="338" y="572" width="25" height="25" name="2024472"/>
      <rect x="390" y="572" width="25" height="25" name="2024473"/>
      <rect x="338" y="598" width="25" height="25" name="2010539"/>
      <rect x="286" y="702" width="25" height="25" name="2024170"/>
      <rect x="156" y="234" width="25" height="25" name="2024559"/>
      <rect x="468" y="754" width="25" height="25" name="2024474"/>
      <rect x="624" y="858" width="25" height="25" name="2010543"/>
      <rect x="312" y="494" width="25" height="25" name="2024476"/>
      <rect x="416" y="806" width="25" height="25" name="2024477"/>
      <rect x="754" y="624" width="25" height="25" name="2024115"/>
      <rect x="780" y="624" width="25" height="25" name="2024478"/>
      <rect x="780" y="650" width="25" height="25" name="2024448"/>
      <rect x="702" y="624" width="25" height="25" name="2024521"/>
      <rect x="598" y="260" width="25" height="25" name="2024479"/>
      <rect x="676" y="910" width="25" height="25" name="2024180"/>
      <rect x="520" y="936" width="25" height="25" name="2024480"/>
      <rect x="546" y="936" width="25" height="25" name="2010553"/>
      <rect x="650" y="936" width="25" height="25" name="2024326"/>
      <rect x="598" y="910" width="25" height="25" name="2024481"/>
      <rect x="416" y="624" width="25" height="25" name="2024482"/>
      <rect x="208" y="754" width="25" height="25" name="2010557"/>
      <rect x="156" y="728" width="25" height="25" name="2024625"/>
      <rect x="416" y="832" width="25" height="25" name="2024358"/>
      <rect x="442" y="858" width="25" height="25" name="2024449"/>
      <rect x="442" y="624" width="25" height="25" name="2024483"/>
      <rect x="390" y="520" width="25" height="25" name="2024484"/>
      <rect x="260" y="936" width="25" height="25" name="2024485"/>
      <rect x="286" y="624" width="25" height="25" name="2024486"/>
      <rect x="442" y="780" width="25" height="25" name="2024487"/>
      <rect x="858" y="832" width="25" height="25" name="2010566"/>
      <rect x="858" y="858" width="25" height="25" name="2010567"/>
      <rect x="442" y="806" width="25" height="25" name="2010568"/>
      <rect x="312" y="598" width="25" height="25" name="2024489"/>
      <rect x="650" y="286" width="25" height="25" name="2024490"/>
      <rect x="364" y="832" width="25" height="25" name="2024280"/>
      <rect x="806" y="780" width="25" height="25" name="2024491"/>
      <rect x="234" y="936" width="25" height="25" name="2010573"/>
      <rect x="728" y="910" width="25" height="25" name="2010574"/>
      <rect x="598" y="858" width="25" height="25" name="2024493"/>
      <rect x="208" y="988" width="25" height="25" name="2024494"/>
      <rect x="260" y="728" width="25" height="25" name="2024632"/>
      <rect x="182" y="988" width="25" height="25" name="2024496"/>
      <rect x="650" y="728" width="25" height="25" name="2024257"/>
      <rect x="104" y="962" width="25" height="25" name="2024497"/>
      <rect x="754" y="884" width="25" height="25" name="2024498"/>
      <rect x="546" y="858" width="25" height="25" name="2024499"/>
      <rect x="572" y="208" width="25" height="25" name="2024361"/>
      <rect x="546" y="208" width="25" height="25" name="2010584"/>
      <rect x="0" y="208" width="25" height="25" name="2024561"/>
      <rect x="26" y="208" width="25" height="25" name="2024553"/>
      <rect x="52" y="260" width="25" height="25" name="2024560"/>
      <rect x="520" y="780" width="25" height="25" name="2024500"/>
      <rect x="208" y="598" width="25" height="25" name="2010589"/>
      <rect x="182" y="780" width="25" height="25" name="2024641"/>
      <rect x="624" y="832" width="25" height="25" name="2010591"/>
      <rect x="520" y="390" width="25" height="25" name="2010592"/>
      <rect x="156" y="520" width="25" height="25" name="2024501"/>
      <rect x="338" y="624" width="25" height="25" name="2010594"/>
      <rect x="364" y="624" width="25" height="25" name="2010595"/>
      <rect x="676" y="754" width="25" height="25" name="2024505"/>
      <rect x="494" y="208" width="25" height="25" name="2010597"/>
      <rect x="442" y="832" width="25" height="25" name="2010598"/>
      <rect x="364" y="676" width="25" height="25" name="2024227"/>
      <rect x="286" y="520" width="25" height="25" name="2024508"/>
      <rect x="312" y="546" width="25" height="25" name="2024509"/>
      <rect x="416" y="754" width="25" height="25" name="2024510"/>
      <rect x="442" y="650" width="25" height="25" name="2024362"/>
      <rect x="546" y="260" width="25" height="25" name="2010604"/>
      <rect x="598" y="702" width="25" height="25" name="2024511"/>
      <rect x="728" y="624" width="25" height="25" name="2024512"/>
      <rect x="702" y="910" width="25" height="25" name="2010607"/>
      <rect x="286" y="546" width="25" height="25" name="2010608"/>
      <rect x="520" y="650" width="25" height="25" name="2024515"/>
      <rect x="312" y="910" width="25" height="25" name="2010610"/>
      <rect x="624" y="650" width="25" height="25" name="2024516"/>
      <rect x="546" y="416" width="25" height="25" name="2010612"/>
      <rect x="338" y="650" width="25" height="25" name="2010613"/>
      <rect x="338" y="676" width="25" height="25" name="2010614"/>
      <rect x="702" y="780" width="25" height="25" name="2010615"/>
      <rect x="598" y="780" width="25" height="25" name="2010616"/>
      <rect x="416" y="312" width="25" height="25" name="2024383"/>
      <rect x="286" y="910" width="25" height="25" name="2024523"/>
      <rect x="260" y="442" width="25" height="25" name="2024524"/>
      <rect x="416" y="858" width="25" height="25" name="2010620"/>
      <rect x="364" y="910" width="25" height="25" name="2024455"/>
      <rect x="598" y="884" width="25" height="25" name="2024525"/>
      <rect x="494" y="962" width="25" height="25" name="2024319"/>
      <rect x="520" y="884" width="25" height="25" name="2024538"/>
      <rect x="208" y="546" width="25" height="25" name="2010625"/>
      <rect x="156" y="546" width="25" height="25" name="2024526"/>
      <rect x="754" y="702" width="25" height="25" name="2024527"/>
      <rect x="468" y="780" width="25" height="25" name="2024507"/>
      <rect x="546" y="910" width="25" height="25" name="2024528"/>
      <rect x="494" y="910" width="25" height="25" name="2024529"/>
      <rect x="312" y="624" width="25" height="25" name="2024503"/>
      <rect x="312" y="650" width="25" height="25" name="2024504"/>
      <rect x="286" y="650" width="25" height="25" name="2010633"/>
      <rect x="390" y="754" width="25" height="25" name="2024531"/>
      <rect x="364" y="754" width="25" height="25" name="2024327"/>
      <rect x="312" y="728" width="25" height="25" name="2024522"/>
      <rect x="416" y="260" width="25" height="25" name="2010637"/>
      <rect x="286" y="494" width="25" height="25" name="2010638"/>
      <rect x="624" y="988" width="25" height="25" name="2024181"/>
      <rect x="598" y="988" width="25" height="25" name="2024532"/>
      <rect x="234" y="624" width="25" height="25" name="2024622"/>
      <rect x="468" y="832" width="25" height="25" name="2024533"/>
      <rect x="364" y="364" width="25" height="25" name="2010643"/>
      <rect x="260" y="702" width="25" height="25" name="2024534"/>
      <rect x="338" y="520" width="25" height="25" name="2024535"/>
      <rect x="286" y="936" width="25" height="25" name="2024434"/>
      <rect x="130" y="598" width="25" height="25" name="2024619"/>
      <rect x="624" y="312" width="25" height="25" name="2024536"/>
      <rect x="650" y="312" width="25" height="25" name="2024537"/>
      <rect x="676" y="312" width="25" height="25" name="2010650"/>
   </g>
</svg>