<svg xmlns="http://www.w3.org/2000/svg" viewbox="0 0 529 450" stroke-width="1" stroke="white" fill="#EEE">
    <style>#uk-S2026-svg rect{ cursor:pointer; transition: fill 1000ms, fill-opacity 500ms }</style>
    <g id="uk-S2026-svg">

        <rect x="225.5" y="0.5" width="24" height="24" name="S2026001"/><rect x="175.5" y="25.500401" width="24" height="24" name="S2026002"/><rect x="125.5" y="75.500404" width="24" height="24" name="S2026005"/><rect x="150.5" y="75.500404" width="24" height="24" name="S2026007"/><rect x="175.5" y="75.500404" width="24" height="24" name="S2026003"/><rect x="100.5" y="100.4994" width="24" height="24" name="S2026006"/><rect x="125.5" y="100.4994" width="24" height="24" name="S2026008"/><rect x="150.5" y="100.4994" width="24" height="24" name="S2026009"/><rect x="175.5" y="100.4994" width="24" height="24" name="S2026010"/><rect x="75.5" y="125.4994" width="24" height="24" name="S2026057"/><rect x="100.5" y="125.4994" width="24" height="24" name="S2026019"/><rect x="125.5" y="125.4994" width="24" height="24" name="S2026014"/><rect x="150.5" y="125.4994" width="24" height="24" name="S2026011"/><rect x="75.5" y="150.49939" width="24" height="24" name="S2026020"/><rect x="100.5" y="150.49939" width="24" height="24" name="S2026021"/><rect x="125.5" y="150.49939" width="24" height="24" name="S2026013"/><rect x="150.5" y="150.49939" width="24" height="24" name="S2026012"/><rect x="0.5" y="175.49939" width="24" height="24" name="S2026004"/><rect x="50.5" y="175.49939" width="24" height="24" name="S2026058"/><rect x="75.5" y="175.49939" width="24" height="24" name="S2026059"/><rect x="100.5" y="175.49939" width="24" height="24" name="S2026027"/><rect x="125.5" y="175.49939" width="24" height="24" name="S2026023"/><rect x="150.5" y="175.49939" width="24" height="24" name="S2026024"/><rect x="175.5" y="175.49939" width="24" height="24" name="S2026016"/><rect x="200.5" y="175.49939" width="24" height="24" name="S2026015"/><rect x="50.5" y="200.49939" width="24" height="24" name="S2026060"/><rect x="75.5" y="200.49939" width="24" height="24" name="S2026056"/><rect x="100.5" y="200.49939" width="24" height="24" name="S2026055"/><rect x="125.5" y="200.49939" width="24" height="24" name="S2026026"/><rect x="150.5" y="200.49939" width="24" height="24" name="S2026025"/><rect x="175.5" y="200.49939" width="24" height="24" name="S2026017"/><rect x="200.5" y="200.49939" width="24" height="24" name="S2026018"/><rect x="50.5" y="225.49939" width="24" height="24" name="S2026061"/><rect x="75.5" y="225.49939" width="24" height="24" name="S2026051"/><rect x="100.5" y="225.49939" width="24" height="24" name="S2026050"/><rect x="125.5" y="225.49939" width="24" height="24" name="S2026038"/><rect x="150.5" y="225.49939" width="24" height="24" name="S2026037"/><rect x="175.5" y="225.49939" width="24" height="24" name="S2026022"/><rect x="75.5" y="250.49939" width="24" height="24" name="S2026049"/><rect x="100.5" y="250.49939" width="24" height="24" name="S2026040"/><rect x="125.5" y="250.49939" width="24" height="24" name="S2026039"/><rect x="150.5" y="250.49939" width="24" height="24" name="S2026036"/><rect x="75.5" y="275.49939" width="24" height="24" name="S2026052"/><rect x="100.5" y="275.49939" width="24" height="24" name="S2026048"/><rect x="125.5" y="275.49939" width="24" height="24" name="S2026041"/><rect x="150.5" y="275.49939" width="24" height="24" name="S2026035"/><rect x="175.5" y="275.49939" width="24" height="24" name="S2026033"/><rect x="50.5" y="300.49939" width="24" height="24" name="S2026047"/><rect x="75.5" y="300.49939" width="24" height="24" name="S2026053"/><rect x="100.5" y="300.49939" width="24" height="24" name="S2026046"/><rect x="125.5" y="300.49939" width="24" height="24" name="S2026042"/><rect x="50.5" y="325.49939" width="24" height="24" name="S2026063"/><rect x="100.5" y="325.49939" width="24" height="24" name="S2026044"/><rect x="125.5" y="325.49939" width="24" height="24" name="S2026043"/><rect x="150.5" y="325.49939" width="24" height="24" name="S2026028"/><rect x="150.5" y="375.49939" width="24" height="24" name="S2026030"/><rect x="200.5" y="325.49939" width="24" height="24" name="S2026029"/><rect x="100.5" y="350.49939" width="24" height="24" name="S2026064"/><rect x="125.5" y="350.49939" width="24" height="24" name="S2026045"/><rect x="175.5" y="350.49939" width="24" height="24" name="S2026032"/><rect x="150.5" y="350.49939" width="24" height="24" name="S2026054"/><rect x="175.5" y="375.49939" width="24" height="24" name="S2026031"/><rect x="200.5" y="350.49939" width="24" height="24" name="S2026072"/><rect x="75.5" y="375.49939" width="24" height="24" name="S2026066"/><rect x="100.5" y="375.49939" width="24" height="24" name="S2026065"/><rect x="125.5" y="375.49939" width="24" height="24" name="S2026062"/><rect x="175.5" y="325.49939" width="24" height="24" name="S2026034"/><rect x="175.5" y="400.49939" width="24" height="24" name="S2026073"/><rect x="75.5" y="400.49939" width="24" height="24" name="S2026067"/><rect x="100.5" y="400.49939" width="24" height="24" name="S2026070"/><rect x="125.5" y="400.49939" width="24" height="24" name="S2026069"/><rect x="150.5" y="400.49939" width="24" height="24" name="S2026071"/><rect x="75.5" y="425.49939" width="24" height="24" name="S2026068"/>

        <g transform="matrix(0.31111,0,0,0.31111,275.79,253.8894)"/>

        <g transform="translate(-35.671559,-2.5764496)" name="S2026700">
            <rect x="380.53134" y="375.0838" width="24" height="24"/>
            <rect x="405.53134" y="375.0838" width="24" height="24"/>
            <rect x="430.53134" y="375.0838" width="24" height="24"/>
            <rect x="455.53134" y="375.0838" width="24" height="24"/>
            <rect x="480.53134" y="375.0838" width="24" height="24"/>
            <rect x="480.53134" y="350.0838" width="24" height="24"/>
            <rect x="505.53131" y="350.0838" width="24" height="24"/>
        </g> 

        <g transform="translate(-12.937592,6.3500194)" name="S2026200">
            <rect x="375.36349" y="307.34604" width="24" height="24"/>
            <rect x="400.36349" y="307.34604" width="24" height="24"/>
            <rect x="375.36349" y="332.34604" width="24" height="24"/>
            <rect x="400.36349" y="332.34604" width="24" height="24"/>

            <rect x="425.36349" y="307.34604" width="24" height="24"/>
            <rect x="450.36349" y="307.34604" width="24" height="24"/>
            <rect x="425.36349" y="332.34604" width="24" height="24"/>
        </g> 

        <g transform="translate(-58.033143,9.8178924)" name="S2026400">
            <rect x="452.45905" y="272.01041" width="24" height="24"/>
            <rect x="477.45905" y="272.01041" width="24" height="24"/>

            <rect x="477.45905" y="247.01041" width="24" height="24"/>
            <rect x="502.45908" y="247.01041" width="24" height="24"/>
            <rect x="527.45905" y="247.01041" width="24" height="24"/>
            <rect x="502.45908" y="272.01041" width="24" height="24"/>
            <rect x="527.45905" y="272.01041" width="24" height="24"/>
        </g> 

        <g transform="translate(-27.406031,9.4879574)" name="S2026800">
            <rect x="361.04767" y="193.51859" width="24" height="24"/>
            <rect x="361.04767" y="218.51857" width="24" height="24"/>
            <rect x="361.04767" y="243.51857" width="24" height="24"/>
            <rect x="361.04767" y="268.51855" width="24" height="24"/>
            <rect x="386.04767" y="243.51857" width="24" height="24"/>
            <rect x="411.04767" y="243.51857" width="24" height="24"/>
            <rect x="386.04767" y="268.51855" width="24" height="24"/>
        </g> 

        <g transform="translate(-51.455617,30.738712)" name="S2026100">
            <rect x="421.45325" y="167.40088" width="24" height="24"/>
            <rect x="446.45325" y="167.40088" width="24" height="24"/>
            <rect x="421.45325" y="192.40088" width="24" height="24"/>
            <rect x="446.45325" y="192.40088" width="24" height="24"/>
            <rect x="471.45325" y="167.40088" width="24" height="24"/>
            <rect x="471.45325" y="192.40088" width="24" height="24"/>
            <rect x="496.45325" y="192.40088" width="24" height="24"/>
        </g> 

        <g transform="translate(-59.726531,57.788123)" name="S2026600">
            <rect x="513.56274" y="108.81113" width="24" height="24"/>
            <rect x="538.56281" y="108.81113" width="24" height="24"/>
            <rect x="513.56274" y="133.81114" width="24" height="24"/>
            <rect x="538.56281" y="133.81114" width="24" height="24"/>
            <rect x="563.56281" y="108.81113" width="24" height="24"/>
            <rect x="563.56281" y="133.81114" width="24" height="24"/>
            <rect x="538.56281" y="158.81114" width="24" height="24"/>
        </g> 

        <g transform="translate(-19.471769,39.102329)" name="S2026500">
            <rect height="24" width="24" y="127.03726" x="364.46957"/>
            <rect height="24" width="24" y="127.03726" x="389.46957"/>
            <rect height="24" width="24" y="102.03726" x="389.46957"/>
            <rect height="24" width="24" y="127.03726" x="414.4696"/>
            <rect height="24" width="24" y="102.03726" x="414.4696"/>
            <rect height="24" width="24" y="102.03726" x="439.46957"/>
            <rect height="24" width="24" y="127.03726" x="439.46957"/>
        </g> 

        <g transform="translate(34.819468,0.94147145)" name="S2026300">
            <rect x="335.17816" y="108.19813" width="24" height="24"/>
            <rect x="360.17816" y="108.19813" width="24" height="24"/>
            <rect x="360.17816" y="83.198135" width="24" height="24"/>
            <rect x="385.17816" y="108.19813" width="24" height="24"/>
            <rect x="385.17816" y="83.198135" width="24" height="24"/>
            <rect x="410.17816" y="83.198135" width="24" height="24"/>
            <rect x="410.17816" y="58.198132" width="24" height="24"/>
        </g>

    </g>
</svg>