<svg xmlns="http://www.w3.org/2000/svg" viewbox="0 0 529 450" stroke-width="1" stroke="white" fill="#EEE">
    <style>#uk-S2011-svg rect{ cursor:pointer; transition: fill 1000ms, fill-opacity 500ms }</style>
    <g id="uk-S2011-svg">

        <rect x="225.5" y="0.5" width="24" height="24" name="S2011001"/><rect x="175.5" y="25.500401" width="24" height="24" name="S2011002"/><rect x="125.5" y="75.500404" width="24" height="24" name="S2011005"/><rect x="150.5" y="75.500404" width="24" height="24" name="S2011007"/><rect x="175.5" y="75.500404" width="24" height="24" name="S2011003"/><rect x="100.5" y="100.4994" width="24" height="24" name="S2011006"/><rect x="125.5" y="100.4994" width="24" height="24" name="S2011008"/><rect x="150.5" y="100.4994" width="24" height="24" name="S2011009"/><rect x="175.5" y="100.4994" width="24" height="24" name="S2011010"/><rect x="75.5" y="125.4994" width="24" height="24" name="S2011057"/><rect x="100.5" y="125.4994" width="24" height="24" name="S2011019"/><rect x="125.5" y="125.4994" width="24" height="24" name="S2011014"/><rect x="150.5" y="125.4994" width="24" height="24" name="S2011011"/><rect x="75.5" y="150.49939" width="24" height="24" name="S2011020"/><rect x="100.5" y="150.49939" width="24" height="24" name="S2011021"/><rect x="125.5" y="150.49939" width="24" height="24" name="S2011013"/><rect x="150.5" y="150.49939" width="24" height="24" name="S2011012"/><rect x="0.5" y="175.49939" width="24" height="24" name="S2011004"/><rect x="50.5" y="175.49939" width="24" height="24" name="S2011058"/><rect x="75.5" y="175.49939" width="24" height="24" name="S2011059"/><rect x="100.5" y="175.49939" width="24" height="24" name="S2011027"/><rect x="125.5" y="175.49939" width="24" height="24" name="S2011023"/><rect x="150.5" y="175.49939" width="24" height="24" name="S2011024"/><rect x="175.5" y="175.49939" width="24" height="24" name="S2011016"/><rect x="200.5" y="175.49939" width="24" height="24" name="S2011015"/><rect x="50.5" y="200.49939" width="24" height="24" name="S2011060"/><rect x="75.5" y="200.49939" width="24" height="24" name="S2011056"/><rect x="100.5" y="200.49939" width="24" height="24" name="S2011055"/><rect x="125.5" y="200.49939" width="24" height="24" name="S2011026"/><rect x="150.5" y="200.49939" width="24" height="24" name="S2011025"/><rect x="175.5" y="200.49939" width="24" height="24" name="S2011017"/><rect x="200.5" y="200.49939" width="24" height="24" name="S2011018"/><rect x="50.5" y="225.49939" width="24" height="24" name="S2011061"/><rect x="75.5" y="225.49939" width="24" height="24" name="S2011051"/><rect x="100.5" y="225.49939" width="24" height="24" name="S2011050"/><rect x="125.5" y="225.49939" width="24" height="24" name="S2011038"/><rect x="150.5" y="225.49939" width="24" height="24" name="S2011037"/><rect x="175.5" y="225.49939" width="24" height="24" name="S2011022"/><rect x="75.5" y="250.49939" width="24" height="24" name="S2011049"/><rect x="100.5" y="250.49939" width="24" height="24" name="S2011040"/><rect x="125.5" y="250.49939" width="24" height="24" name="S2011039"/><rect x="150.5" y="250.49939" width="24" height="24" name="S2011036"/><rect x="50.5" y="275.49939" width="24" height="24" name="S2011054"/><rect x="75.5" y="275.49939" width="24" height="24" name="S2011052"/><rect x="100.5" y="275.49939" width="24" height="24" name="S2011048"/><rect x="125.5" y="275.49939" width="24" height="24" name="S2011041"/><rect x="150.5" y="275.49939" width="24" height="24" name="S2011035"/><rect x="175.5" y="275.49939" width="24" height="24" name="S2011033"/><rect x="50.5" y="300.49939" width="24" height="24" name="S2011047"/><rect x="75.5" y="300.49939" width="24" height="24" name="S2011053"/><rect x="100.5" y="300.49939" width="24" height="24" name="S2011046"/><rect x="125.5" y="300.49939" width="24" height="24" name="S2011042"/><rect x="50.5" y="325.49939" width="24" height="24" name="S2011063"/><rect x="100.5" y="325.49939" width="24" height="24" name="S2011044"/><rect x="125.5" y="325.49939" width="24" height="24" name="S2011043"/><rect x="150.5" y="325.49939" width="24" height="24" name="S2011028"/><rect x="175.5" y="325.49939" width="24" height="24" name="S2011031"/><rect x="200.5" y="325.49939" width="24" height="24" name="S2011029"/><rect x="100.5" y="350.49939" width="24" height="24" name="S2011064"/><rect x="125.5" y="350.49939" width="24" height="24" name="S2011045"/><rect x="150.5" y="350.49939" width="24" height="24" name="S2011032"/><rect x="175.5" y="350.49939" width="24" height="24" name="S2011030"/><rect x="200.5" y="350.49939" width="24" height="24" name="S2011072"/><rect x="75.5" y="375.49939" width="24" height="24" name="S2011066"/><rect x="100.5" y="375.49939" width="24" height="24" name="S2011065"/><rect x="125.5" y="375.49939" width="24" height="24" name="S2011062"/><rect x="150.5" y="375.49939" width="24" height="24" name="S2011034"/><rect x="175.5" y="375.49939" width="24" height="24" name="S2011073"/><rect x="75.5" y="400.49939" width="24" height="24" name="S2011067"/><rect x="100.5" y="400.49939" width="24" height="24" name="S2011070"/><rect x="125.5" y="400.49939" width="24" height="24" name="S2011069"/><rect x="150.5" y="400.49939" width="24" height="24" name="S2011071"/><rect x="75.5" y="425.49939" width="24" height="24" name="S2011068"/>

        <g transform="matrix(0.31111,0,0,0.31111,275.79,253.8894)"/>

        <g transform="translate(-35.671559,-2.5764496)" name="S2011700">
            <rect x="380.53134" y="375.0838" width="24" height="24"/>
            <rect x="405.53134" y="375.0838" width="24" height="24"/>
            <rect x="430.53134" y="375.0838" width="24" height="24"/>
            <rect x="455.53134" y="375.0838" width="24" height="24"/>
            <rect x="480.53134" y="375.0838" width="24" height="24"/>
            <rect x="480.53134" y="350.0838" width="24" height="24"/>
            <rect x="505.53131" y="350.0838" width="24" height="24"/>
        </g> 

        <g transform="translate(-12.937592,6.3500194)" name="S2011200">
            <rect x="375.36349" y="307.34604" width="24" height="24"/>
            <rect x="400.36349" y="307.34604" width="24" height="24"/>
            <rect x="375.36349" y="332.34604" width="24" height="24"/>
            <rect x="400.36349" y="332.34604" width="24" height="24"/>

            <rect x="425.36349" y="307.34604" width="24" height="24"/>
            <rect x="450.36349" y="307.34604" width="24" height="24"/>
            <rect x="425.36349" y="332.34604" width="24" height="24"/>
        </g> 

        <g transform="translate(-58.033143,9.8178924)" name="S2011400">
            <rect x="452.45905" y="272.01041" width="24" height="24"/>
            <rect x="477.45905" y="272.01041" width="24" height="24"/>

            <rect x="477.45905" y="247.01041" width="24" height="24"/>
            <rect x="502.45908" y="247.01041" width="24" height="24"/>
            <rect x="527.45905" y="247.01041" width="24" height="24"/>
            <rect x="502.45908" y="272.01041" width="24" height="24"/>
            <rect x="527.45905" y="272.01041" width="24" height="24"/>
        </g> 

        <g transform="translate(-27.406031,9.4879574)" name="S2011800">
            <rect x="361.04767" y="193.51859" width="24" height="24"/>
            <rect x="361.04767" y="218.51857" width="24" height="24"/>
            <rect x="361.04767" y="243.51857" width="24" height="24"/>
            <rect x="361.04767" y="268.51855" width="24" height="24"/>
            <rect x="386.04767" y="243.51857" width="24" height="24"/>
            <rect x="411.04767" y="243.51857" width="24" height="24"/>
            <rect x="386.04767" y="268.51855" width="24" height="24"/>
        </g> 

        <g transform="translate(-51.455617,30.738712)" name="S2011100">
            <rect x="421.45325" y="167.40088" width="24" height="24"/>
            <rect x="446.45325" y="167.40088" width="24" height="24"/>
            <rect x="421.45325" y="192.40088" width="24" height="24"/>
            <rect x="446.45325" y="192.40088" width="24" height="24"/>
            <rect x="471.45325" y="167.40088" width="24" height="24"/>
            <rect x="471.45325" y="192.40088" width="24" height="24"/>
            <rect x="496.45325" y="192.40088" width="24" height="24"/>
        </g> 

        <g transform="translate(-59.726531,57.788123)" name="S2011600">
            <rect x="513.56274" y="108.81113" width="24" height="24"/>
            <rect x="538.56281" y="108.81113" width="24" height="24"/>
            <rect x="513.56274" y="133.81114" width="24" height="24"/>
            <rect x="538.56281" y="133.81114" width="24" height="24"/>
            <rect x="563.56281" y="108.81113" width="24" height="24"/>
            <rect x="563.56281" y="133.81114" width="24" height="24"/>
            <rect x="538.56281" y="158.81114" width="24" height="24"/>
        </g> 

        <g transform="translate(-19.471769,39.102329)" name="S2011500">
            <rect height="24" width="24" y="127.03726" x="364.46957"/>
            <rect height="24" width="24" y="127.03726" x="389.46957"/>
            <rect height="24" width="24" y="102.03726" x="389.46957"/>
            <rect height="24" width="24" y="127.03726" x="414.4696"/>
            <rect height="24" width="24" y="102.03726" x="414.4696"/>
            <rect height="24" width="24" y="102.03726" x="439.46957"/>
            <rect height="24" width="24" y="127.03726" x="439.46957"/>
        </g> 

        <g transform="translate(34.819468,0.94147145)" name="S2011300">
            <rect x="335.17816" y="108.19813" width="24" height="24"/>
            <rect x="360.17816" y="108.19813" width="24" height="24"/>
            <rect x="360.17816" y="83.198135" width="24" height="24"/>
            <rect x="385.17816" y="108.19813" width="24" height="24"/>
            <rect x="385.17816" y="83.198135" width="24" height="24"/>
            <rect x="410.17816" y="83.198135" width="24" height="24"/>
            <rect x="410.17816" y="58.198132" width="24" height="24"/>
        </g>

    </g>
</svg>