<svg viewBox="0 0 959 593" xmlns="http://www.w3.org/2000/svg"><style>
  .usa-gubernatorial-1960-geo path{
    cursor:pointer; transition: fill 1000ms, opacity 500ms;
  }
  .usa-gubernatorial-1960-geo-borders{stroke:#FFFFFF; stroke-width:1; pointer-events:none}
  </style>
 <g class="usa-gubernatorial-1960-geo" fill="#eee">
  <path d="m643 467.4 0.4-7.3-0.9-1.2-1.7-0.7-2.5-2.8 0.5-2.9 48.8-5.1-0.7-2.2-1.5-1.5-0.5-1.4 0.6-6.3-2.4-5.7 0.5-2.6 0.3-3.7 2.2-3.8-0.2-1.1-1.7-1v-3.2l-1.8-1.9-2.9-6.1-12.9-45.8-45.7 4 1.3 2-1.3 67 4.4 33.2 0.9-0.5 1.3 0.1 0.6 0.4 0.8-0.1 2-3.8v-2.3l1.1-1.1 1.4 0.5 3.4 6.4v0.9l-3.3 2.2 3.5-0.4 4.9-1.6z" name="GAL"/>
  <path d="m15.8 572h2.4l0.7 0.7-1 1.2-1.9 0.2-2.5 1.3-3.7-0.1 2.2-0.9 0.3-1.1 2.5-0.3zm8.3-1.7 1.3 0.5h0.9l0.5 1.2 0.3-0.6 0.9 0.2 1.1 1.5v0.5l-4.2 1.9-2.4-0.1-1-0.5-1.1 0.7h-2l-1.1-1.4 4.7-0.5zm5.4-0.1 1 0.1 0.7 0.7v1l-1.3 0.1-0.9-1.1zm2.5 0.3 1.3-0.1-0.1 1-1.1 0.6zm0.3 2.2 3.4-0.1 0.2 1.1-1.3 0.1-0.3-0.5-0.8 0.6-0.4-0.6-0.9-0.2zm166.3 7.6 2.1 0.1-1 1.9-1.1-0.1-0.4-0.8 0.5-1.3m-1.1-2.9 0.6-1.3-0.2-2.3 2.4-0.5 4.5 4.4 1.3 3.4 1.9 1.6 0.3 5.1h-1.4l-1.3-2.3-3.1-2.4h-0.6l1.1 2.8 1.7 0.2 0.2 2.1-0.9 0.1-4.1-4.4-0.1-0.9 1.9-1v-1l-0.5-0.8-1.6-0.6-1.7-1.3 1.4 0.1 0.5-0.4-0.6-0.9-0.6 0.5zm-3.6-9.1 1.3 0.1 2.4 2.5-0.2 0.8-0.8-0.1-0.1 1.8 0.5 0.5v1.5l-0.8 0.3-0.4 1.2-0.8-0.4-0.4-2.2 1.1-1.4-2.1-2.2 0.1-1.2zm1.5-1.5 1.9 0.2 2.5 0.1 3.4 3.2-0.2 0.5-1.1 0.6-1.1-0.2-0.1-0.7-1.2-1.6-0.3 0.7 1 1.3-0.2 1.2-0.8-0.1-1.3 0.2-0.1-1.7-2.6-2.8zm-12.7-8.9 0.9-0.4h1.6l0.7-0.5 4.1 2.2 0.1 1.5-0.5 0.5h-0.8l-1.4-0.7 1.1 1.3h1.8l0.5 2h-0.9l-2.2-1.5-1.1-0.2 0.6 1.3 0.1 0.9 0.8-0.6 1.7 1.2 1.3-0.1-0.2 0.8 1.9 4.3v3.4l0.4 2.1-0.8 0.3-1.2-2-0.5-1.5-1.6-1.6-0.2-2.7-0.6-1.7h-0.7l0.3 1.1v0.5l-1.4 1 0.1-3.3-1.6-1.6-1.3-2.3-1.2-1.2zm7.2-2.3 1.1 1.8 2.4-0.1 1 2.1-0.6 0.6 2 3.2v1.3l-1.2 0.8v0.7l-2 1.9-0.5-1.4-0.1-1.3 0.6-0.7v-1.1l-1.5-1.9-0.5-3.7-0.9-1.5zm-56.7-18.3-4 4.1v1.6l2.1-0.8 0.8-1.9 2.2-2.4zm-31.6 16.6v0.6l1.8 1.2 0.2-1.4 0.6 0.9 3.5 0.1 0.7-0.6 0.2-1.8-0.5-0.7h-1.4v-0.8l0.4-0.6v-0.4l-1.5-0.3-3.3 3.6zm-8.1 6.2 1.5 5.8h2.1l2.4-2.5 0.3 1.2 6.3-4 0.7-1-1-1.1v-0.7l0.5-1.3-0.9-0.1-2 1v-1.2l-2.7-0.6-2.4 0.3-0.2 3.4-0.8-2-1.5-0.1-1 0.6zm-2.2 8.2 0.1-0.7 2.1-1.3 0.6 0.3 1.3 0.2 1.3 1.2-2.2-0.2-0.4-0.6-1 0.6zm-5.2 3.3-1.1 0.8 1.5 1.4 0.8-0.7-0.1-1.3zm-6.3-7.9 1.4 0.1 0.4 0.6-1.8 0.1zm-13.9 11.9v0.5l0.7 0.1-0.1-0.6zm-0.4-3.2-1 1v0.5l0.7 1.1 1-1-0.7-0.1zm-2-0.8-0.3 1-1.3 0.1-0.4 0.2v1.3l-0.5 0.9h0.6l0.7-0.9 0.8-0.1 0.9-1 0.2-1.3zm-4.4-2-0.2 1.8 1.4 0.8 1.2-0.6v-1l1.7-0.3-0.1-0.6-0.9-0.2-0.7 0.6-0.9-0.5zm-4.9-0.1 1 0.7-0.3 1.2-1.4-1.1zm-4.2 1.3 1.4 0.1-0.7 0.8zm-3.5 3 1.8 1.1-1.7 0.1zm-25.4-31.2 1.2 0.6-0.8 0.6zm-0.7-6.3 0.4 1.2 0.8-1.2zm24.3-19.3 1.5-0.1 0.9 0.4 1.1-0.5 1.3-0.1 1.6 0.8 0.8 1.9-0.1 0.9-1.2 2-2.4-0.2-2.1-1.8-1-0.4-1.1-2zm-21.1-14.4 0.1 1.9 2 2v0.5l-0.8-0.2-1.7-0.8-0.3-1.1-0.3-1.6zm18.3-23.3v1.2l1.9 1.8h2.3l0.6 1.1v1.6l2.1 1.9 1.8 1.2-0.1 0.7-0.7 1.1-1.4-1.2-2.1 0.1-0.8-0.8-0.9-2.1-1.5-2.2-2.6-0.1-1-0.7 1-2.1zm16.8-4.5h1l0.1 1.1h-1zm16.2 19.7 0.9 0.1v1.2l-1.7-0.5zm127.8 77.7-1.2 0.4-0.1 1.1h1.2zm-157.6-4.5-1.3-0.4-4.1 0.6-2.8 1.4-0.1 1.9 1.9 0.7 1.5-0.9 1.7-0.1 4.7 1.4 0.1-1.3-1.6-1.1zm2.1 2.3-0.4-1.4 1.2 0.2 0.1 1.4h1.8l0.4-2.5 0.3 2.4 2.5-0.1 3.2-3.3 0.8 0.1-0.7 1.3 1.4 0.9 4.2-0.2 2.6-1.2 1.4-0.1 0.3 1.5 0.6-0.5 0.4-1.4 5.9 0.2 1.9-1.6-1.3-1.1 0.6-1.2 2.6 0.2-0.2-1.2 2.5 0.2 0.7-1.1 1.1 0.2 4.6-1.9 0.2-1.7 5.6-2.4 2-1.9 1.2-0.6 1.3 0.8 2.3-0.9 1.1-1.9 0.5-1.3 1.7-0.9 1.5-0.7 0.4-1.4-1.1-1.7-2.2-0.2-0.2-1.3 0.8-1.6 1.4-0.2 1.3-1.5 1.9-0.1 3.4-3.2 0.4-1.4 1.5-2.3 3.8-4.1 2.5-0.9 1.9-0.9 2.1 0.8 1.4 2.6h-1.5l-1.4-1.5-3 2-1.7 0.1-0.2 3.1-3.1 4.9 0.6 2h2.3l-0.6 1-1.4 0.1-2.4 1.8v0.9l1.9 1 3.4-0.6 1.4-1.7 1.4 0.1 3-1.7 0.5-2.3 1.6-0.1 6.3 0.8 1-1.1 1-4.5-1.6 1.1 0.6-2.2-1.6-1.4 0.8-1.5 0.1 1.5h3.4l0.7-1 1.6-0.1-0.3 1.7 1.9 0.1-1.9 1.3 4.1 1.1-3.5 0.4-1.3 1.2 0.9 1.4 4.6-1.7 2.3 1.7 0.7-0.9 0.6 1.4 4 2.3h2.9l3.9-0.5 4.3 1.1 2 1.9 4.5 0.4 1.8-1.5 0.8 2.4-1.8 0.7 1.2 1.2 7.4 3.8 1.4 2.5 5.4 4.1 3.3-2-0.6-2.2-3.5-2 3.1 1.2 0.5-0.7 0.9 1.3v2.7l2.1-0.6 2.1 1.8-2.5-9.8 1.2 1.3 1.4 6 2.2 2.5 2.4-0.4 1.8 3.5h0.9l0.6 5.6 3.4 0.5 1.6 2.2 1.8 1.1 0.4 2.8-1.8 2.6 2.9 1.6 1.2-2.4-0.2 3.1-0.8 0.9 1.4 1.7 0.7-2.4-0.2-1.2 0.8 0.2 0.6 2.3-1 1.4 0.6 2.6 0.5 0.4 0.3-1.6 0.7 0.6-0.3 2 1.2 0.2-0.4 0.9 1.7-0.1v-1h-1l0.1-1.7-0.8-0.6 1.7-0.3 0.5-0.8v-1.6l0.5 1.3-0.6 1.8 1.2 3.9 1.8 0.1 2.2-4.2 0.1-1.9-1.3-4-0.1-1.2 0.5-1.2-0.7-0.7-1.7 0.1-2.5-2h-1.7l-2-1.4h-1.5l-0.5-1.6-1.4-0.3-0.2-1.5-1-0.5 0.1-1.7-5.1-7.4-1.8-1.5v-1.2l-4.3-3.5-0.7-1.1-1.6-2-1.9-0.6v-2.2l-1.2-1.3-1.7-0.7-2.1 1.3-1.6 2.1-0.4 2.4-1.5 0.1-2.5 2.7-0.8-0.3v-2.5l-2.4-2.2-2.3-2-0.5-2-2.5-1.3 0.2-2.2-2.8-0.1-0.7 1.1h-1.2l-0.7-0.7-1.2 0.8-1.8-1.2v-85.8l-6.9-4.1-1.8-0.5-2.2 1.1-2.2 0.1-2.3-1.6-4.3-0.6-5.8-3.6-5.7-0.4-2 0.5-0.2-1.8-1.8-0.7 1.1-1-0.2-0.9-3.2-1.1h-2.4l-0.4 0.4-0.9-0.6 0.1-2.6-0.8-0.9-2.5 2.9-0.8-0.1v-0.8l1.7-0.8v-0.8l-1.9-2.4-1.1-0.1-4.5 3.1h-3.9l0.4-0.9-1.8-0.1-5.2 3.4h-1.8l-0.6-0.8-2.7 1.5-3.6 3.7-2.8 2.7-1.5 1.2-2.6 0.1-2.2-0.4-2.3-1.3-2.8 3.9-0.1 2.4 2.6 2.4 2.1 4.5 0.2 5.3 2.9 2 3.4 0.4 0.7 0.8-1.5 2.3 0.7 2.7-1.7-2.6v-2.4l-1.5-0.3 0.1 1.2 0.7 2.1 2.9 3.7h-1.4l-2.2 1.1-6.2-2.5-0.1-2 1.4-1.3v-1.4l-2.1-0.5-2.3 0.2-4.8 0.2 1.5 2.3-1.9-1.8-8.4 1.2-0.8 1.5 4.9 4.7-0.8 1.4-0.3 2-0.7 0.8-0.1 1.9 4.4 3.6 4.1 0.2 4.6 1.9h2l0.8-0.6 3.8 0.1 0.1-0.8 1.2 1.1 0.1 2-2.5-0.1 0.1 3.3 0.5 3.2-2.9 2.7-1.9-0.1-2-0.8-1 0.1-3.1 2.1-1.7 0.2-1.4-2.8h-3.1l-2.2 2-0.5 1.8-3.3 1.8-5.3 4.3-0.3 3.1 0.7 2.2 1 1.2 1-0.4 0.9 1-0.8 0.6-1.5 0.9 1.1 1.5-2.6 1.1 0.8 2.2 1.7 2.3 0.8 4.1 4 1.5 2.6-0.8 1.7-1.1 0.5 2.1 0.3 4.4-1.9 1.4v4.4l-0.6 0.9h-1.7l1.7 1.2 2.1-0.1 0.4-1 4.6-0.6 2 2.6 1.3-0.7 1.3 5.1 1 0.5 1-0.7 0.1-2.4 0.9-1 0.7 1.1 0.2 1.6 1.6 0.4 4.7-1.2 0.2 1.2-2 1.1-1.6 1.7-2.8 7-4.3 2-1.4 1.5-0.3 1.4-1-0.6-9.3 3.3-1.8 4.1-1.3-0.4 0.5-1.1-1.5-1.4-3.5-0.2-5.3 3.2-2.2 1.3h-2.3l-0.5 2.4z" name="GAK"/>
  <path d="m139.6 387.6 3-2.2 0.8-2.4-1-1.6-1.8-0.2-1.1-1.6 1.1-6.9 1.6-0.3 2.4-3.2 1.6-7 2.4-3.6 4.8-1.7 1.3-1.3-0.4-1.9-2.3-2.5-1.2-5.8-1.4-1.8-1.3-3.4 0.9-2.1 1.4-3 0.5-2.9-0.5-4.9 1-13.6 3.5-0.6 3.7 1.4 1.2 2.7h2l2.4-2.9 3.4-17.5 46.2 8.2 40 6-17.4 124.1-37.3-5.4-64.2-37.5 0.5-2.9 2-1.8z" name="GAZ"/>
  <path d="m584.2 367 0.9-2.2 1.2 0.5 0.7-1-0.8-0.7 0.3-1.5-1.1-0.9 0.6-1-0.1-1.5-1.1-0.1 0.8-0.8 1.3 0.8 0.3-1.4-0.4-1.1 0.1-0.7 2 0.6-0.4-1.5 1.6-1.3-0.5-0.9-1.1 0.1-0.6-0.9 0.9-0.9 1.6-0.2 0.5-0.8 1.4-0.2-0.1-0.8-0.9-0.9v-0.5h1.5l0.4-0.7-1.4-1-0.1-0.6-11.2 0.8 2.8-5.1 1.7-1.5v-2.2l-1.6-2.5-39.8 2-39.1 0.7 4.1 24.4-0.7 39 2.6 2.3 2.8-1.3 3.2 0.8 0.2 11.9 52.3-1.3 1.2-1.5 0.5-3-1.5-2.3-0.5-2.2 0.9-0.7v-0.8l-1.7-1.1-0.1-0.7 1.6-0.9-1.2-1.1 1.7-7.1 3.4-1.6v-0.8l-1.1-1.4 2.9-5.4h1.9l1.5-1.2-0.3-5.2 3.1-4.5 1.8-0.6-0.5-3.1z" name="GAR"/>
  <path d="m69.4 365.6 3.4 5.2-1.4 0.1-1.8-1.9zm1.9-9.8 1.8 4.1 2.6 1 0.7-0.6-1.3-2.5-2.6-2.4zm-19.9-19v2.4l2 1.2 4.4-0.2 1-1-3.1-0.2zm-5.9 0.1 3.3 0.5 1.4 2.2h-3.8zm47.9 45.5-1-3 0.2-3-0.4-7.9-1.8-4.8-1.2-1.4-0.6-1.5-7-8.6-3.6 0.1-2-1.9 1.1-1.8-0.7-3.7-2.2-1.2-3.9-0.6-2.8-1.3-1.5-1.9-4.5-6.6-2.7-2.2-3.7-0.5-3.1-2.3-4.7-1.5-2.8-0.3-2.5-2.5 0.2-2.8 0.8-4.8 1.8-5.1-1.4-1.6-4-9.4-2.7-3.7-0.4-3-1.6-2.3 0.2-2.5-2-5-2.9-2.7 0.6-7.1 2.4-0.8 1.8-3.1-0.4-3.2-1-0.9h-2.5l-2.5-3.3-1.5-3.5v-7.5l1.2-4.2 0.2-2.1 2.5 0.2-0.1 1.6-0.8 0.7v2.5l3.7 3.2v-4.7l-1.4-3.4 0.5-1.1-1-1.7 2.8-1.5-1.9-3-1.4 0.5-1.5 3.8 0.5 1.3-0.8 1-0.9-0.1-5.4-6.1 0.7-5.6-1.1-3.9-6.5-12.8 0.8-10.7 2.3-3.6 0.2-6.4-5.5-11.1 0.3-5.2 6.9-7.5 1.7-2.4-0.1-1.4 4-9.2 0.1-8.4 0.9-2.5 66.1 18.6-16.4 63.1 1.1 3.5 70.4 105-0.9 2.1 1.3 3.4 1.4 1.8 1.2 5.8 2.3 2.5 0.4 1.9-1.3 1.3-4.8 1.7-2.4 3.6-1.6 7-2.4 3.2-1.6 0.3-1.1 6.9 1.1 1.6 1.8 0.2 1 1.6-0.8 2.4-3 2.2-2.2-0.1z" name="GCA"/>
  <path d="m374.6 323.3-16.5-1-51.7-4.8-52.6-6.5 11.5-88.3 44.9 5.7 37.5 3.4 33.1 2.4-1.4 22.1z" name="GCO"/>
  <path d="m873.5 178.9 0.4-1.1-3.2-12.3-0.1-0.3-14.9 3.4v0.7l-0.9 0.3-0.5-0.7-10.5 2.4 2.8 16.3 1.8 1.5-3.5 3.4 1.7 2.2 5.4-4.5 1.7-1.3h0.8l2.4-3.1 1.4 0.1 2.9-1.1h2.1l5.3-2.7 2.8-0.9 1-1 1.5 0.5z" name="GCT"/>
  <path d="m822.2 226.6-1.6 0.3-1.5 1.1-1.2 2.1 7.6 27.1 10.9-2.3-2.2-7.6-1.1 0.5-3.3-2.6-0.5-1.7-1.8-1-0.2-3.7-2.1-2.2-1.1-0.8-1.2-1.1-0.4-3.2 0.3-2.1 1-2.2z" name="GDE"/>
  <path d="m751.7 445.1-4-0.7-1.7-0.9-2.2 1.4v2.5l1.4 2.1-0.5 4.3-2.1 0.6-1-1.1-0.6-3.2-50.1 3.3-3.3-6-48.8 5.1-0.5 2.9 2.5 2.8 1.7 0.7 0.9 1.2-0.4 7.3-1.1 0.6 0.5 0.4 1-0.3 0.7-0.8 10.5-2.7 9.2-0.5 8.1 1.9 8.5 5 2.4 0.8 2.2 2-0.1 2.7h2.4l1.9-1 2.5 0.1 2-0.8 2.9-2 3.1-2.9 1.1-0.4 0.6 0.5h1.4l0.5-0.8-0.5-1.2-0.6-0.6 0.2-0.8 2-1.1 5-0.4 0.8 1 1 0.1 2.3 1 3 1.8 1.2 1.7 1.1 1.2 2.8 1.4v2.4l2.8 1.9 1 0.1 1.6 1.4 0.7 1.6 1 0.2 0.8 2.1 0.7 0.6 1-1.1 2.9 0.1 0.5 1.4 1.1 0.9v1.3l2.9 2.2 0.2 9.6-1.8 5.8 1 1.2-0.2 3.4-0.8 1.4 0.7 1.2 2.3 2.3 0.3 1.5 0.8 1-0.4-1.9 1.3-0.6 0.8-3.6-3-1.2 0.1-0.6 2.6-0.4 0.9 2.6 1.1 0.6 0.1-2 1.1 0.3 0.6 0.8-0.1 0.7-2.9 4.2-0.2 1.1-1.7 1.9v1.1l3.7 3.8 5.3 7.9 1.8 2.1v1.8l2.8 4.6 2.3 0.6 0.7-1.2-2.1 0.3-3-4.5 0.2-1.4 1.5-0.8v-1.5l-0.6-1.3 0.9-0.9 0.4 0.9 0.7 0.5v4l-1.2-0.6-0.8 0.9 1.4 1.6 1 2.6 1.2-0.6 2.3 1.2 2.1 2.2 1.6 5.1 3.1 4.8 0.8-1.3 2.8-0.5 3.2 1.3 0.3 1.7 3.3 3.8 0.1 1.1 2.2 2.7-0.7 0.5v2.7l2.7 1.4h1.5l2.7-1.8 1.5 0.3 1.1 0.4 2.3-1.7 0.2-0.7 1.2 0.3 2.4-1.7 1.3-2.3-0.7-3.2-0.2-1.3 1.1-4 0.6-0.2 0.6 1.6 0.8-1.8-0.8-7.2-0.4-10.5-1-6.8-0.7-1.7-6.6-11.1-5.2-9.1-2.2-3.3-1.3-3.6-0.2-3.4 0.9-0.3v-0.9l-1.1-2.2-4-4-7.6-9.7-5.7-10.4-4.3-10.7-0.6-3.7-1.2-1-0.5-3.8zm9.2 134.5 1.7-0.1-0.7-1zm7.3-1.1v-0.7l1.6-0.2 3.7-3.3 1.5-0.6 2.4-0.9 0.3 1.3 1.7 0.8-2.6 1.2h-2.4l-3.9 2.5zm17.2-7.6-3 1.4-1 1.3 1.1 0.1zm3.8-2.9-1.1 0.3-1.4 2 1.1-0.2 1.5-1.6zm8.3-15.7-1.7 5.6-0.8 1-1 2.6-1.2 1.6-0.7 1.7-1.9 2.2v0.9l2.7-2.8 2.4-3.5 0.6-2 2.1-4.9z" name="GFL"/>
  <path d="m761.8 414.1v1.4l-4.2 6.2-1.2 0.2 1.5 0.5v2l-0.9 1.1-0.6 6-2.3 6.2 0.5 2 0.7 5.1-3.6 0.3-4-0.7-1.7-0.9-2.2 1.4v2.5l1.4 2.1-0.5 4.3-2.1 0.6-1-1.1-0.6-3.2-50.1 3.3-3.3-6-0.7-2.2-1.5-1.5-0.5-1.4 0.6-6.3-2.4-5.7 0.5-2.6 0.3-3.7 2.2-3.8-0.2-1.1-1.7-1v-3.2l-1.8-1.9-2.9-6.1-12.9-45.8 22.9-2.9 21.4-3-0.1 1.9-1.9 1-1.4 3.2 0.2 1.3 6.1 3.8 2.6-0.3 3.1 4 0.4 1.7 4.2 5.1 2.6 1.7 1.4 0.2 2.2 1.6 1.1 2.2 2 1.6 1.8 0.5 2.7 2.7 0.1 1.4 2.6 2.8 5 2.3 3.6 6.7 0.3 2.7 3.9 2.1 2.5 4.8 0.8 3.1 4.2 0.4z" name="GGA"/>
  <path d="m317 553.7-0.2 3.2 1.7 1.9 0.1 1.2-4.8 4.5-0.1 1.2 1.9 3.2 1.7 4.2v2.6l-0.5 1.2 0.1 3.4 4.1 2.1 1.1 1.1 1.2-1.1 2.1-3.6 4.5-2.9 3.3-0.5 2.5-1 1.7-1.2 3.2-3.5-2.8-1.1-1.4-1.4 0.1-1.7-0.5-0.6h-2l0.2-2.5-0.7-1.2-2.6-2.3-4.5-1.9-2.8-0.2-3.3-2.7-1.2-0.6zm-15.3-17-1.1 1.5-0.1 1.7 2.7 2.4 1.9 0.5 0.6 1 0.4 3 3.6 0.2 5.3-2.6-0.1-2.5-1.4-0.5-3.5-2.6-1.8-0.3-2.9 1.3-1.5-2.7zm-1.5 11.5 0.9-1.4 2.5-0.3 0.6 1.8zm-7-8.7 1.7 4 3.1-0.6 0.3-2-1.4-1.5zm-4.1-6.7-1.1 2.4h5l4.8 1.6 2.5-1.6 0.2-1.5-4.8 0.2zm-16-10.6-1.9 2.1-2.9 0.6 0.8 2.2 2.2 2.8 0.1 1 2.1-0.3 2.3 0.1 1.7 1.2 3.5-0.8v-0.7l-1-0.8-0.5-2.1-0.8-0.3-0.5 1-1.2-1.3 0.2-1.4-1.8-3.3-1.1-0.7zm-31.8-12.4-4.2 2.9 0.2 2.3 2.4 1.2 1.9 1.3 2.7 0.4 2.6-2.2-0.2-1.9 0.8-1.7v-1.4l-1-0.9zm-10.8 4.8-0.3 1.2-1.9 0.9-0.6 1.8 1 0.8 1.1-1.5 1.9-0.6 0.4-2.6z" name="GHI"/>
  <path d="m165.3 183.1-24.4-5.4 8.5-37.3 2.9-5.8 0.4-2.1 0.8-0.9-0.9-2-2.9-1.2 0.2-4.2 4-5.8 2.5-0.8 1.6-2.3-0.1-1.6 1.8-1.6 3.2-5.5 4.2-4.8-0.5-3.2-3.5-3.1-1.6-3.6 1.1-4.3-0.7-4 12.7-56.1 14.2 3-4.8 22 3.7 7.4-1.6 4.8 3.6 4.8 1.9 0.7 3.9 8.3v2.1l2.3 3h0.9l1.4 2.1h3.2v1.6l-7.1 17-0.5 4.1 1.4 0.5 1.6 2.6 2.8-1.4 3.6-2.4 1.9 1.9 0.5 2.5-0.5 3.2 2.5 9.7 2.6 3.5 2.3 1.4 0.4 3v4.1l2.3 2.3 1.6-2.3 6.9 1.6 2.1-1.2 9 1.7 2.8-3.3 1.8-0.6 1.2 1.8 1.6 4.1 0.9 0.1-8.5 54.8-47.9-8.2z" name="GID"/>
  <path d="m623.5 265.9-1 5.2v2l2.4 3.5v0.7l-0.3 0.9 0.9 1.9-0.3 2.4-1.6 1.8-1.3 4.2-3.8 5.3-0.1 7h-1l0.9 1.9v0.9l-2.2 2.7 0.1 1.1 1.5 2.2-0.1 0.9-3.7 0.6-0.6 1.2-1.2-0.6-1 0.5-0.4 3.3 1.7 1.8-0.4 2.4-1.5 0.3-6.9-3-4 3.7 0.3 1.8h-2.8l-1.4-1.5-1.8-3.8v-1.9l0.8-0.6 0.1-1.3-1.7-1.9-0.9-2.5-2.7-4.1-4.8-1.3-7.4-7.1-0.4-2.4 2.8-7.6-0.4-1.9 1.2-1.1v-1.3l-2.8-1.5-3-0.7-3.4 1.2-1.3-2.3 0.6-1.9-0.7-2.4-8.6-8.4-2.2-1.5-2.5-5.9-1.2-5.4 1.4-3.7 0.7-0.7 0.1-2.3-0.7-0.9 1-1.5 2.7-0.9 1-1.2v-2.4l1.7-2.4 0.5-0.5 0.1-3.5-0.9-1.4-1-0.3-1.1-1.6 1-4 3-0.8h2.4l4.2-1.8 1.7-2.2 0.1-2.4 1.1-1.3 1.3-3.2-0.1-2.6-2.8-3.5h-1.2l-0.9-1.1 0.2-1.6-1.7-1.7-2.5-1.3 0.5-0.6 45.9-2.8 0.1 4.6 3.4 4.6 1.2 4.1 1.6 3.2z" name="GIL"/>
  <path d="m629.2 214.8-5.1 2.3-4.7-1.4 4.1 50.2-1 5.2v2l2.4 3.5v0.7l-0.3 0.9 0.9 1.9-0.3 2.4-1.6 1.8-1.3 4.2-3.8 5.3-0.1 7h-1l0.9 1.9 1.1 0.8 0.6-1-0.7-1.7 4.6-0.5 0.2 1.2 1.1 0.2 0.4-0.9-0.6-1.3 0.3-0.8 1.3 0.8 1.7-0.4 1.7 0.6 3.4 2.1 1.8-2.8 3.5-2.2 3 3.3 1.6-2.1 0.3-2.7 3.8-2.3 0.2 1.3 1.9 1.2 3-0.2 1.2-0.7 0.1-3.4 2.5-3.7 4.6-4.4-0.1-1.7 1.2-3.8 2.2 1 6.7-4.5-0.4-1.7-1.5-2.1 1-1.9-6.6-57.2-0.1-1.4-32.4 3.4z" name="GIN"/>
  <path d="m556.9 183 2.1 1.6 0.6 1.1-1.6 3.3-0.1 2.5 2 5.5 2.7 1.5 3.3 0.7 1.3 2.8-0.5 0.6 2.5 1.3 1.7 1.7-0.2 1.6 0.9 1.1h1.2l2.8 3.5 0.1 2.6-1.3 3.2-1.1 1.3-0.1 2.4-1.7 2.2-4.2 1.8h-2.4l-3 0.8-1 4 1.1 1.6 1 0.3 0.9 1.4-0.1 3.5-0.5 0.5-1.7 2.4v2.4l-1 1.2-2.7 0.9-1 1.5 0.7 0.9-0.1 2.3-0.7 0.7-1.5-0.8-1.1-1.1-0.6-1.6-1.7-1.3-14.3 0.8-27.2 1.2-25.9-0.1-1.8-4.4 0.7-2.2-0.8-3.3 0.2-2.9-1.3-0.7-0.4-6.1-2.8-5-0.2-3.7-2.2-4.3-1.3-3.7v-1.4l-0.6-1.7v-2.3l-0.5-0.9-0.7-1.7-0.3-1.3-1.3-1.2 1-4.3 1.7-5.1-0.7-2-1.3-0.4-0.4-1.6 1-0.5 0.1-1.1-1.3-1.5 0.1-1.6 2.2 0.1h28.2l36.3-0.9 18.6-0.7z" name="GIA"/>
  <path d="m459.1 259.5-43.7-1.2-36-2-4.8 67 67.7 2.9 62 0.1-0.5-48.1-3.2-0.7-2.6-4.7-2.5-2.5 0.5-2.3 2.7-2.6 0.1-1.2-1.5-2.1-0.9 1-2-0.6-2.9-3z" name="GKS"/>
  <path d="m692.1 322.5-20.5 1.4-5.2 0.8-17.4 1-2.6 0.8-22.6 2-0.7-0.6h-3.7l1.2 3.2-0.6 0.9-23.3 1.5 1-2.7 1.4 0.9 0.7-0.4 1.2-4.1-1-1 1-2 0.2-0.9-1.3-0.8-0.3-1.8 4-3.7 6.9 3 1.5-0.3 0.4-2.4-1.7-1.8 0.4-3.3 1-0.5 1.2 0.6 0.6-1.2 3.7-0.6 0.1-0.9-1.5-2.2-0.1-1.1 2.2-2.7v-0.9l1.1 0.8 0.6-1-0.7-1.7 4.6-0.5 0.2 1.2 1.1 0.2 0.4-0.9-0.6-1.3 0.3-0.8 1.3 0.8 1.7-0.4 1.7 0.6 3.4 2.1 1.8-2.8 3.5-2.2 3 3.3 1.6-2.1 0.3-2.7 3.8-2.3 0.2 1.3 1.9 1.2 3-0.2 1.2-0.7 0.1-3.4 2.5-3.7 4.6-4.4-0.1-1.7 1.2-3.8 2.2 1 6.7-4.5-0.4-1.7-1.5-2.1 1-1.9 1.3 0.5 2.2 0.1 1.9-0.8 2.9 1.2 2.2 3.4v1l4.1 0.7 2.3-0.2 1.9 2.1 2.2 0.2v-1l1.9-0.8 3 0.8 1.2 0.8 1.3-0.7h0.9l0.6-1.7 3.4-1.8 0.5 0.8 0.8 2.9 3.5 1.4 1.2 2.1-0.1 1.1 0.6 1-0.6 3.6 1.9 1.6 0.8 1.1 1 0.6-0.1 0.9 4.4 5.6h1.4l1.5 1.8 1.2 0.3 1.4-0.1-4.9 6.6-2.9 1-3 3-0.4 2.2-2.1 1.3-0.1 1.7-1.4 1.4-1.8 0.5-0.5 1.9-1 0.4-6.9 4.2zm-98 11.3-0.7-0.7 0.2-1h1.1l0.7 0.7-0.3 1z" name="GKY"/>
  <path d="m602.5 472.8-1.2-1.8 0.3-1.3-4.8-6.8 0.9-4.6 1-1.4 0.1-1.4-36 2 1.7-11.9 2.4-4.8 6-8.4-1.8-2.5h2v-3.3l-2.4-2.5 0.5-1.7-1.2-1-1.6-7.1 0.6-1.4-52.3 1.3 0.5 19.9 0.7 3.4 2.6 2.8 0.7 5.4 3.8 4.6 0.8 4.3h1l-0.1 7.3-3.3 6.4 1.3 2.3-1.3 1.5 0.7 3-0.1 4.3-2.2 3.5-0.1 0.8-1.7 1.2 1 1.8 1.2 1.1 1.6-1.3 5.3-0.9 6.1-0.1 9.6 3.8 8 1 1.5-1.4 1.8-0.2 4.8 2.2 1.6-0.4 1.1-1.5-4.2-1.8-2.2 1-1.1-0.2-1.4-2 3.3-2.2 1.6-0.1v1.7l1.5-0.1 3.4-0.3 0.4 2.3 1.1 0.4 0.6 1.9 4.8 1 1.7 1.6v0.7h-1.2l-1.5 1.7 1.7 1.2 5.4 1 2.7 2.8 4.4-1-3.7 0.2-0.1-0.6 2.8-0.7 0.2-1.8 1.2-0.3v-1.4l1.1 0.1v1.6l2.5 0.1 0.8-1.9 0.9 0.3 0.2 2.5 1.2 0.2-1.8 2 2.6-0.9 2-1.1 2.9-3.3h-0.7l-1.3 1.2-0.4-0.1-0.5-0.8 0.9-1.2v-2.3l1.1-0.8 0.7 0.7 1-0.8 1-0.1 0.6 1.3-0.6 1.9h2.4l5.1 1.7 0.5 1.3 1.6 1.4 2.8 0.1 1.3 0.7 1.8-1 0.9-1.7v-1.7h-1.4l-1.2-1.4-1.1-1.1-3.2-0.9-2.6 0.2-4.2-2.4v-2.3l1.3-1 2.4 0.6-3.1-1.6 0.2-0.8h3.6l2.6-3.5-2.6-1.8 0.8-1.5-1.2-0.8h-0.8l-2 2.1v2.1l-0.6 0.7-1.1-0.1-1.6-1.4h-1.3v-1.5l0.6-0.7 0.8 0.7 1.7-1.6 0.7-1.6 0.8-0.3zm-10.3-2.7 1.9 1 0.8 1.1 2.5 0.1 1.5 0.8 0.2 1.4-0.4 0.6-0.9-1.5-1.4 1.2-0.9 1.4-2.8 0.8-1.6 0.1-3.7-1 0.1-1.7 2-2 1.1-2.4zm-4.7 1.2v1.1l-1.8 2h-1.2v-2.2l1.6-1.5z" name="GLA"/>
  <path d="m875 128.7 0.6 4 3.2 2 0.8 2.2 2.3 1.4 1.4-0.3 1-3-0.8-2.9 1.6-0.9 0.5-2.8-0.6-1.3 3.3-1.9-2.2-2.3 0.9-2.4 1.4-2.2 0.5 3.2 1.6-2 1.3 0.9 1.2-0.8v-1.7l3.2-1.3 0.3-2.9 2.5-0.2 2.7-3.7v-0.7l-0.9-0.5-0.1-3.3 0.6-1.1 0.2 1.6 1-0.5-0.2-3.2-0.9 0.3-0.1 1.2-1.2-1.4 0.9-1.4 0.6 0.1 1.1-0.4 0.5 2.8 2-0.3 2.9 0.7v-1l-1.1-1.2 1.3 0.1 0.1-2.3 0.6 0.8 0.3 1.9 2.1 1.5 0.2-1 0.9-0.2-0.3-0.8 0.8-0.6-0.1-1.6-1.6-0.2-2 0.7 2.1-2.4 1.3-0.2 0.4 1.3 1.7 1.6 0.4-2.1 2.3-1.2-0.9-1.3 0.1-1.7 1.1 0.5h0.7l1.7-1.4 0.4-2.3 2.2 0.3 0.1-0.7 0.2-1.6 0.5 1.4 1.5-1 2.3-4.1-0.1-2.2-1.4-2-3-3.2h-1.9l-0.8 2.2-2.9-3 0.3-0.8v-1.5l-1.6-4.5-0.8-0.2-0.7 0.4h-4.8l-0.3-3.6-8.1-26-7.3-3.7-2.9-0.1-6.7 6.6-2.7-1-1-3.9h-2.7l-6.9 19.5 0.7 6.2-1.7 2.4-0.4 4.6 1.3 3.7 0.8 0.2v1.6l-1.6 4.5-1.5 1.4-1.3 2.2-0.4 7.8-2.4-1-1.5 0.4zm34.6-24.7-1 0.8v1.3l0.7-0.8 0.9 0.8 0.4-0.5 1.1 0.2-1-0.8 0.4-0.8zm-1.7 2.6-1 1.1 0.5 0.4-0.1 1h1.1v-1.8zm-3-1.6 0.9 1.3 1 0.5 0.3-1v-1.8l-1.3-0.7-0.4 1.2zm-1 5-1.7-1.7 1.6-2.4 0.8 0.3 0.2 1.1 1 0.8v1.1l-1 1z" name="GME"/>
  <path d="m822.9 269.3v-1.7h-0.8v1.8zm11.8-3.9 1.2-2.2 0.1-2.5-0.6-0.6-0.7 0.9-0.2 2.1-0.8 1.4-0.3 1.1-4.6 1.6-0.7 0.8-1.3 0.2-0.4 0.9-1.3 0.6-0.3-2.5 0.4-0.7-0.8-0.5 0.2-1.5-1.6 1v-2l1.2-0.3-1.9-0.4-0.7-0.8 0.4-1.3-0.8-0.6-0.7 1.6 0.5 0.8-0.7 0.6-1.1 0.5-2-1-0.2-1.2-1-1.1-1.4-1.7 1.5-0.8-1-0.6v-0.9l0.6-1 1.7-0.3-1.4-0.6-0.1-0.7-1.3-0.1-0.4 1.1-0.6 0.3 0.1-3.4 1-1 0.8 0.7 0.1-1.6-1-0.9-0.9 1.1-1 1.4-0.6-1 0.2-2.4 0.9-1 0.9 0.9 1.2-0.7-0.4-1.7-1 1-0.9-2.1-0.2-1.7 1.1-2.4 1.1-1.4 1.4-0.2-0.5-0.8 0.5-0.6-0.3-0.7 0.2-2.1-1.5 0.4-0.8 1.1 1 1.3-2.6 3.6-0.9-0.4-0.7 0.9-0.6 2.2-1.8 0.5 1.3 0.6 1.3 1.3-0.2 0.7 0.9 1.2-1.1 1 0.5 0.3-0.5 1.3v2.1l-0.5 1.3 0.9 1.1 0.7 3.4 1.3 1.4 1.6 1.4 0.4 2.8 1.6 2 0.4 1.4v1h-0.7l-1.5-1.2-0.4 0.2-1.2-0.2-1.7-1.4-1.4-0.3-1 0.5-1.2-0.3-0.4 0.2-1.7-0.8-1-1-1-1.3-0.6-0.2-0.8 0.7-1.6 1.3-1.1-0.8-0.4-2.3 0.8-2.1-0.3-0.5 0.3-0.4-0.7-1 1-0.1 1-0.9 0.4-1.8 1.7-2.6-2.6-1.8-1 1.7-0.6-0.6h-1l-0.6-0.1-0.4-0.4 0.1-0.5-1.7-0.6-0.8 0.3-1.2-0.1-0.7-0.7-0.5-0.2-0.2-0.7 0.6-0.8v-0.9l-1.2-0.2-1-0.9-0.9 0.1-1.6-0.3-0.9-0.4 0.2-1.6-1-0.5-0.2-0.7h-0.7l-0.8-1.2 0.2-1-2.6 0.4-2.2-1.6-1.4 0.3-0.9 1.4h-1.3l-1.7 2.9-3.3 0.4-1.9-1-2.6 3.8-2.2-0.3-3.1 3.9-0.9 1.6-1.8 1.6-1.7-11.4 60.5-11.8 7.6 27.1 10.9-2.3v5.3l-0.1 3.1-1 1.8zm-13.4-1.8-1.3 0.9 0.8 1.8 1.7 0.8-0.4-1.6z" name="GMD"/>
  <path d="m899.9 174.2h3.4l0.9-0.6 0.1-1.3-1.9-1.8 0.4 1-1.5 1.5h-2.3l0.1 0.8zm-9 1.8-1.2-0.6 1-0.8 0.6-2.1 1.2-1 0.8-0.2 0.6 0.9 1.1 0.2 0.6-0.6 0.5 1.9-1.3 0.3-2.8 0.7zm-34.9-23.4 18.4-3.8 1-1.5 0.3-1.7 1.9-0.6 0.5-1.1 1.7-1.1 1.3 0.3 1.7 3.3 1 0.4 1.1-1.3 0.8 1.3v1.1l-3 2.4 0.2 0.8-0.9 1 0.4 0.8-1.3 0.3 0.9 1.2-0.8 0.7 0.6 1 0.9-0.2 0.3-0.8 1.1 0.6h1.8l2.5 2.6 0.2 2.6 1.8 0.1 0.8 1.1 0.6 2 1 0.7h1.9l1.9-0.1 0.8-0.9 1.6-1.2 1.1-0.3-1.2-2.1-0.3 0.9-1.5-3.6h-0.8l-0.4 0.9-1.2-1 1.3-1.1 1.8 0.4 2.3 2.1 1.3 2.7 1.2 3.3-1 2.8v-1.8l-0.7-1-3.5 2.3-0.9-0.3-1.6 1-0.1 1.2-2.2 1.2-2 2.1-2 1.9h-1.2l3.3-3.3 0.5-1.9-0.5-0.6-0.3-1.3-0.9-0.1-0.1 1.3-1 1.2h-1.2l-0.3 1.1 0.4 1.2-1.2 1.1-1.1-0.2-0.4 1-1.4-3-1.3-1.1-2.6-1.3-0.6-2.2h-0.8l-0.7-2.6-6.5 2-0.1-0.3-14.9 3.4v0.7l-0.9 0.3-0.5-0.7-10.5 2.4-0.7-1 0.5-15z" name="GMA"/>
  <path d="m663.3 209.8 0.1 1.4 21.4-3.5 0.5-1.2 3.9-5.9v-4.3l0.8-2.1 2.2-0.8 2-7.8 1-0.5 1 0.6-0.2 0.6-1.1 0.8 0.3 0.9 0.8 0.4 1.9-1.4 0.4-9.8-1.6-2.3-1.2-3.7v-2.5l-2.3-4.4v-1.8l-1.2-3.3-2.3-3-2.9-1-4.8 3-2.5 4.6-0.2 0.9-3 3.5-1.5-0.2-2.9-2.8-0.1-3.4 1.5-1.9 2-0.2 1.2-1.7 0.2-4 0.8-0.8 1.1-0.1 0.9-1.7-0.2-9.6-0.3-1.3-1.2-1.2-1.7-1-0.1-1.8 0.7-0.6 1.8 0.8-0.3-1.7-1.9-2.7-0.7-1.6-1.1-1.1h-2.2l-8.1-2.9-1.4-1.7-3.1-0.3-1.2 0.3-4.4-2.3h-1.4l0.5 1-2.7-0.1 0.1 0.6 0.6 0.6-2.5 2.1 0.1 1.8 1.5 2.3 1.5 0.2v0.6l-1.5 0.5-2.1-0.1-2.8 2.5 0.1 2.5 0.4 5.8-2.2 3.4 0.8-4.5-0.8-0.6-0.9 5.3-1-2.3 0.5-2.3-0.5-1 0.6-1.3-0.6-1.1 1-1v-1.2l-1.3 0.6-1.3 3.1-0.7 0.7-1.3 2.4-1.7-0.2-0.1 1.2h-1.6l0.2 1.5 0.2 2-3 1.2 0.1 1.3 1 1.7-0.1 5.2-1.3 4.4-1.7 2.5 1.2 1.4 0.8 3.5-1 2.5-0.2 2.1 1.7 3.4 2.5 4.9 1.2 1.9 1.6 6.9-0.1 8.8-0.9 3.9-2 3.2-0.9 3.7-2 3-1.2 1zm-95.8-96.8 3 3.8 17 3.8 1.4 1 4 0.8 0.7 0.5 2.8-0.2 4.9 0.8 1.4 1.5-1 1 0.8 0.8 3.8 0.7 1.2 1.2 0.1 4.4-1.3 2.8 2 0.1 1-0.8 0.9 0.8-1.1 3.1 1 1.6 1.2 0.3 0.8-1.8 2.9-4.6 1.6-6 2.3-2-0.5-1.6 0.5-0.9 1 1.6-0.3 2.2 2.9-2.2 0.2-2.3 2.1 0.6 0.8-1.6 0.7 0.6-0.7 1.5-1 0.5-1 2 1.4 1.8 1.1-0.5-0.5-0.7 1-1.5 1.9-1.7h0.8l0.2-2.6 2-1.8 7.9-0.5 1.9-3.1 3.8-0.3 3.8 1.2 4.2 2.7 0.7-0.2-0.2-3.5 0.7-0.2 4.5 1.1 1.5-0.2 2.9-0.7 1.7 0.4 1.8 0.1v-1.1l-0.7-0.9-1.5-0.2-1.1-0.8 0.5-1.4-0.8-0.3-2.6 0.1-0.1-1 1.1-0.8 0.6 0.8 0.5-1.8-0.7-0.7 0.7-0.2-1.4-1.3 0.3-1.3 0.1-1.9h-1.3l-1.5 1-1.9 0.1-0.5 1.8-1.9 0.2-0.3-1.2-2.2 0.1-1 1.2-0.7-0.1-0.2-0.8-2.6 0.4-0.1-4.8 1-2-0.7-0.1-1.8 1.1h-2.2l-3.8 2.7-6.2 0.3-4.1 0.8-1.9 1.5-1.4 1.3-2.5 1.7-0.3 0.8-0.6-1.7-1.3-0.6v0.6l0.7 0.7v1.3l-1.5-0.6h-0.6l-0.3 1.2-2-1.9-1.3-0.2-1.3 1.5-3.2-0.1-0.5-1.4-2-1.9-1.3-1.6v-0.7l-1.1-1.4-2.6-1.2-3.3-0.1-1.1-0.9h-1.4l-0.7 0.4-2.2 2.2-0.7 1.1-1-0.7 0.2-1 0.8-2.1 3.2-5 0.8-0.2 1.7-1.9 0.7-1.6 3-0.6 0.8-0.6-0.1-1-0.5-0.5-4.5 0.2-2 0.5-2.6 1.2-1.2 1.2-1.7 2.2-1.8 1-3.3 3.4-0.4 1.6-7.4 4.6-4 0.5-1.8 0.4-2.3 3-1.8 0.7-4.4 2.3zm100.7 3.8 3.8 0.1 0.6-0.5-0.2-2-1.7-1.8-1.9 0.1-0.1 0.5 1.1 0.4-1.6 0.8-0.3 1-0.6-0.6-0.4 0.8zm-75.1-41.9-2.3 0.2-2.7 1.9-7.1 5.3 0.8 1 1.8 0.3 2.8-2-1.1-0.5 2.3-1.6h1l3-1.9-0.1-0.9zm41.1 62.8v1l2.1 1.6-0.2-2.4zm-0.7 2.8 1.1 0.1v0.9h-1zm21.4-21.3v0.9l0.8-0.2v-0.5zm4.7 3.1-0.1-1.1-1.6-0.2-0.6-0.4h-0.9l-0.4 0.3 0.9 0.4 1.1 1.1zm-18 1.2-0.1 1.1-0.3 0.7 0.2 2.2 0.4 0.3 0.7 0.1 0.5-0.9 0.1-1.6-0.3-0.6-0.1-1.1z" name="GMI"/>
  <path d="m464.7 68.6-1.1 2.8 0.8 1.4-0.3 5.1-0.5 1.1 2.7 9.1 1.3 2.5 0.7 14 1 2.7-0.4 5.8 2.9 7.4 0.3 5.8-0.1 2.1-0.1 2.2-0.9 2-3.1 1.9-0.3 1.2 1.7 2.5 0.4 1.8 2.6 0.6 1.5 1.9-0.2 39.5h28.2l36.3-0.9 18.6-0.7-1.1-4.5-0.2-3-2.2-3-2.8-0.7-5.2-3.6-0.6-3.3-6.3-3.1-0.2-1.3h-3.3l-2.2-2.6-2-1.3 0.7-5.1-0.9-1.6 0.5-5.4 1-1.8-0.3-2.7-1.2-1.3-1.8-0.3v-1.7l2.8-5.8 5.9-3.9-0.4-13 0.9 0.4 0.6-0.5 0.1-1.1 0.9-0.6 1.4 1.2 0.7-0.1-1.2-2.2 4.3-3.1 3.1-3.7 1.6-0.8 4.7-5.9 6.3-5.8 3.9-2.1 6.3-2.7 7.6-4.5-0.6-0.4-3.7 0.7-2.8 0.1-1-1.6-1.4-0.9-9.8 1.2-1-2.8-1.6-0.1-1.7 0.8-3.7 3.1h-4.1l-2.1-1-0.3-1.7-3.9-0.8-0.6-1.6-0.7-1.3-1 0.9-2.6 0.1-9.9-5.5h-2.9l-0.8-0.7-3.1 1.3-0.8 1.3-3.3 0.8-1.3-0.2v-1.7l-0.7-0.9h-5.9l-0.4-1.4h-2.6l-1.1 0.4-2.4-1.7 0.3-1.4-0.6-2.4-0.7-1.1-0.2-3-1-3.1-2.1-1.6h-2.9l0.1 8-30.9-0.4z" name="GMN"/>
  <path d="m623.8 468.6-5 0.1-2.4-1.5-7.9 2.5-0.9-0.7-0.5 0.2-0.1 1.6-0.6 0.1-2.6 2.7-0.7-0.1-0.6-0.7-1.2-1.8 0.3-1.3-4.8-6.8 0.9-4.6 1-1.4 0.1-1.4-36 2 1.7-11.9 2.4-4.8 6-8.4-1.8-2.5h2v-3.3l-2.4-2.5 0.5-1.7-1.2-1-1.6-7.1 0.6-1.4 1.2-1.5 0.5-3-1.5-2.3-0.5-2.2 0.9-0.7v-0.8l-1.7-1.1-0.1-0.7 1.6-0.9-1.2-1.1 1.7-7.1 3.4-1.6v-0.8l-1.1-1.4 2.9-5.4h1.9l1.5-1.2-0.3-5.2 3.1-4.5 1.8-0.6-0.5-3.1 38.3-2.6 1.3 2-1.3 67 4.4 33.2z" name="GMS"/>
  <path d="m555.3 248.9-1.1-1.1-0.6-1.6-1.7-1.3-14.3 0.8-27.2 1.2-25.9-0.1 1.3 1.3-0.3 1.4 2.1 3.7 3.9 6.3 2.9 3 2 0.6 0.9-1 1.5 2.1-0.1 1.2-2.7 2.6-0.5 2.3 2.5 2.5 2.6 4.7 3.2 0.7 0.5 48.1 0.2 10.8 39.1-0.7 39.8-2 1.6 2.5v2.2l-1.7 1.5-2.8 5.1 11.2-0.8 1-2 1.2-0.5v-0.7l-1.2-1.1-0.6-1 1.7 0.2 0.8-0.7-1.4-1.5 1.4-0.5 0.1-1-0.6-1v-1.3l-0.7-0.7 0.2-1h1.1l0.7 0.7-0.3 1 0.8 0.7 0.8-1 1-2.7 1.4 0.9 0.7-0.4 1.2-4.1-1-1 1-2 0.2-0.9-1.3-0.8h-2.8l-1.4-1.5-1.8-3.8v-1.9l0.8-0.6 0.1-1.3-1.7-1.9-0.9-2.5-2.7-4.1-4.8-1.3-7.4-7.1-0.4-2.4 2.8-7.6-0.4-1.9 1.2-1.1v-1.3l-2.8-1.5-3-0.7-3.4 1.2-1.3-2.3 0.6-1.9-0.7-2.4-8.6-8.4-2.2-1.5-2.5-5.9-1.2-5.4 1.4-3.7z" name="GMO"/>
  <path d="m247 130.5 57.3 7.9 51 5.3 2-20.7 5.2-66.7-53.5-5.6-54.3-7.7-65.9-12.5-4.8 22 3.7 7.4-1.6 4.8 3.6 4.8 1.9 0.7 3.9 8.3v2.1l2.3 3h0.9l1.4 2.1h3.2v1.6l-7.1 17-0.5 4.1 1.4 0.5 1.6 2.6 2.8-1.4 3.6-2.4 1.9 1.9 0.5 2.5-0.5 3.2 2.5 9.7 2.6 3.5 2.3 1.4 0.4 3v4.1l2.3 2.3 1.6-2.3 6.9 1.6 2.1-1.2 9 1.7 2.8-3.3 1.8-0.6 1.2 1.8 1.6 4.1 0.9 0.1z" name="GMT"/>
  <path d="m402.5 191.1 38 1.6 3.4 3.2 1.7 0.2 2.1 2 1.8-0.1 1.8-2 1.5 0.6 1-0.7 0.7 0.5 0.9-0.4 0.7 0.4 0.9-0.4 1 0.5 1.4-0.6 2 0.6 0.6 1.1 6.1 2.2 1.2 1.3 0.9 2.6 1.8 0.7 1.5-0.2 0.5 0.9v2.3l0.6 1.7v1.4l1.3 3.7 2.2 4.3 0.2 3.7 2.8 5 0.4 6.1 1.3 0.7-0.2 2.9 0.8 3.3-0.7 2.2 1.8 4.4 1.3 1.3-0.3 1.4 2.1 3.7 3.9 6.3h-32.4l-43.7-1.2-36-2 1.4-22.1-33.1-2.4 3.7-44.2z" name="GNE"/>
  <path d="m167.6 296.8-3.4 17.5-2.4 2.9h-2l-1.2-2.7-3.7-1.4-3.5 0.6-1 13.6 0.5 4.9-0.5 2.9-1.4 3-70.4-105-1.1-3.5 16.4-63.1 47 11.2 24.4 5.4 23.3 4.7z" name="GNV"/>
  <path d="m862.6 93.6-1.3 0.1-1-1.1-1.9 1.4-0.5 6.1 1.2 2.3-1.1 3.5 2.1 2.8-0.4 1.7 0.1 1.3-1.1 2.1-1.4 0.4-0.6 1.3-2.1 1-0.7 1.5 1.4 3.4-0.5 2.5 0.5 1.5-1 1.9 0.4 1.9-1.3 1.9 0.2 2.2-0.7 1.1 0.7 4.5 0.7 1.5-0.5 2.6 0.9 1.8-0.2 2.5-0.5 1.3-0.1 1.4 2.1 2.6 18.4-3.8 1-1.5 0.3-1.7 1.9-0.6 0.5-1.1 1.7-1.1 1.3 0.3 0.8-4.8-2.3-1.4-0.8-2.2-3.2-2-0.6-4-11.9-36.8z" name="GNH"/>
  <path d="m842.5 195.4-14.6-4.9-1.8 2.5 0.1 2.2-3 5.4 1.5 1.8-0.7 2-1 1 0.5 3.6 2.7 0.9 1 2.8 2.1 1.1 4.2 3.2-3.3 2.6-1.6 2.3-1.8 3-1.6 0.6-1.4 1.7-1 2.2-0.3 2.1 0.8 0.9 0.4 2.3 1.2 0.6 2.4 1.5 1.8 0.8 1.6 0.8 0.1 1.1 0.8 0.1 1.1-1.2 0.8 0.4 2.1 0.2-0.2 2.9 0.2 2.5 1.8-0.7 1.5-3.9 1.6-4.8 2.9-2.8 0.6-3.5-0.6-1.2 1.7-2.9v-1.2l-0.7-1.1 1.2-2.7-0.3-3.6-0.6-8.2-1.2-1.4v1.4l0.5 0.6h-1.1l-0.6-0.4-1.3-0.2-0.9 0.6-1.2-1.6 0.7-1.7v-1l1.7-0.7 0.8-2.1z" name="GNJ"/>
  <path d="m357.5 332.9h-0.8l-7.9 99.3-31.8-2.6-34.4-3.6-0.3 3 2 2.2-30.8-4.1-1.4 10.2-15.7-2.2 17.4-124.1 52.6 6.5 51.7 4.8z" name="GNM"/>
  <path d="m872.9 181.6-1.3 0.1-0.5 1zm-30.6 22.7 0.7 0.6 1.3-0.3 1.1 0.3 0.9-1.3h1.9l2.4-0.9 5.1-2.1-0.5-0.5-1.9 0.8-2 0.9 0.2-0.8 2.6-1.1 0.8-1 1.2 0.1 4.1-2.3v0.7l-4.2 3 4.5-2.8 1.7-2.2 1.5-0.1 4.5-3.1 3.2-3.1 3-2.3 1-1.2-1.7-0.1-1 1.2-0.2 0.7-0.9 0.7-0.8-1.1-1.7 1-0.1 0.9-0.9-0.2 0.5-0.9-1.2-0.7-0.6 0.9 0.9 0.3 0.2 0.5-0.3 0.5-1.4 2.6h-1.9l0.9-1.8 0.9-0.6 0.3-1.7 1.4-1.6 0.9-0.8 1.5-0.7-1.2-0.2-0.7 0.9h-0.7l-1.1 0.8-0.2 1-2.2 2.1-0.4 0.9-1.4 0.9-7.7 1.9 0.2 0.9-0.9 0.7-2 0.3-1-0.6-0.2 1.1-1.1-0.4 0.1 1-1.2-0.1-1.2 0.5-0.2 1.1h-1l0.2 1h-0.7l0.2 1-1.8 0.4-1.5 2.3zm-0.8-0.4-1.6 0.4v1l-0.7 1.6 0.6 0.7 2.4-2.3-0.1-0.9zm-10.1-95.2-0.6 1.9 1.4 0.9-0.4 1.5 0.5 3.2 2.2 2.3-0.4 2.2 0.6 2-0.4 1-0.3 3.8 3.1 6.7-0.8 1.8 0.9 2.2 0.9-1.6 1.9 1.5 3 14.2-0.5 2 1.1 1-0.5 15 0.7 1 2.8 16.3 1.8 1.5-3.5 3.4 1.7 2.2-1.3 3.3-1.5 1.7-1.5 2.3-0.2-0.7 0.4-5.9-14.6-4.9-1.6-1.1-1.9 0.3-3-2.2-3-5.8h-2l-0.4-1.5-1.7-1.1-70.5 13.9-0.8-6 4.3-3.9 0.6-1.7 3.9-2.5 0.6-2.4 2.3-2 0.8-1.1-1.7-3.3-1.7-0.5-1.8-3-0.2-3.2 7.6-3.9 8.2-1.6h4.4l3.2 1.6 0.9-0.1 1.8-1.6 3.4-0.7h3l2.6-1.3 2.5-2.6 2.4-3.1 1.9-0.4 1.1-0.5 0.4-3.2-1.4-2.7-1.2-0.7 2-1.3-0.1-1.8h-1.5l-2.3-1.4-0.1-3.1 6.2-6.1 0.7-2.4 3.7-6.3 5.9-6.4 2.1-1.7 2.5 0.1 20.6-5.2z" name="GNY"/>
  <path d="m829 300.1-29.1 6.1-39.4 7.3-29.4 3.5v5.2l-1.5-0.1-1.4 1.2-2.4 5.2-2.6-1.1-3.5 2.5-0.7 2.1-1.5 1.2-0.8-0.8-0.1-1.5-0.8-0.2-4 3.3-0.6 3.4-4.7 2.4-0.5 1.2-3.2 2.6-3.6 0.5-4.6 3-0.8 4.1-1.3 0.9-1.5-0.1-1.4 1.3-0.1 4.9 21.4-3 4.4-1.9 1.3-0.1 7.3-4.3 23.2-2.2 0.4 0.5-0.2 1.4 0.7 0.3 1.2-1.5 3.3 3 0.1 2.6 19.7-2.8 24.5 17.1 4-2.2 3-0.7h1.7l1.1 1.1 0.8-2 0.6-5 1.7-3.9 5.4-6.1 4.1-3.5 5.4-2.3 2.5-0.4 1.3 0.4 0.7 1.1 3.3-6.6 3.3-5.3-0.7-0.3-4.4 6.8-0.5-0.8 2-2.2-0.4-1.5-2-0.5 1 1.3-1.2 0.1-1.2-1.8-1.2 2-1.6 0.2 1-2.7 0.7-1.7-0.2-2.9-2.2-0.1 0.9-0.9 1.1 0.3 2.7 0.1 0.8-0.5h2.3l2-1.9 0.2-3.2 1.3-1.4 1.2-0.2 1.3-1-0.5-3.7-2.2-3.8-2.7-0.2-0.9 1.6-0.5-1-2.7 0.2-1.2 0.4-1.9 1.2-0.3-0.4h-0.9l-1.8 1.2-2.6 0.5v-1.3l0.8-1 1 0.7h1l1.7-2.1 3.7-1.7 2-2.2h2.4l0.8 1.3 1.7 0.8-0.5-1.5-0.3-1.6-2.8-3.1-0.3-1.4-0.4 1-0.9-1.3zm7 31 2.7-2.5 4.6-3.3v-3.7l-0.4-3.1-1.7-4.2 1.5 1.4 1 3.2 0.4 7.6-1.7 0.4-3.1 2.4-3.2 3.2zm1.9-19.3-0.9-0.2v1l2.5 2.2-0.2-1.4zm2.9 2.1-1.4-2.8-2.2-3.4-2.4-3-2.2-4.3-0.8-0.7 2.2 4.3 0.3 1.3 3.4 5.5 1.8 2.1z" name="GNC"/>
  <path d="m464.7 68.6-1.1 2.8 0.8 1.4-0.3 5.1-0.5 1.1 2.7 9.1 1.3 2.5 0.7 14 1 2.7-0.4 5.8 2.9 7.4 0.3 5.8-0.1 2.1-29.5-0.4-46-2.1-39.2-2.9 5.2-66.7 44.5 3.4 55.3 1.6z" name="GND"/>
  <path d="m685.7 208.8 1.9-0.4 3 1.3 2.1 0.6 0.7 0.9h1l1-1.5 1.3 0.8h1.5l-0.1 1-3.1 0.5-2 1.1 1.9 0.8 1.6-1.5 2.4-0.4 2.2 1.5 1.5-0.1 2.5-1.7 3.6-2.1 5.2-0.3 4.9-5.9 3.8-3.1 9.3-5.1 4.9 29.9-2.2 1.2 1.4 2.1-0.1 2.2 0.6 2-1.1 3.4-0.1 5.4-1 3.6 0.5 1.1-0.4 2.2-1.1 0.5-2 3.3-1.8 2h-0.6l-1.8 1.7-1.3-1.2-1.5 1.8-0.3 1.2h-1.3l-1.3 2.2 0.1 2.1-1 0.5 1.4 1.1v1.9l-1 0.2-0.7 0.8-1 0.5-0.6-2.1-1.6-0.5-1 2.3-0.3 2.2-1.1 1.3 1.3 3.6-1.5 0.8-0.4 3.5h-1.5l-3.2 1.4-1.2-2.1-3.5-1.4-0.8-2.9-0.5-0.8-3.4 1.8-0.6 1.7h-0.9l-1.3 0.7-1.2-0.8-3-0.8-1.9 0.8v1l-2.2-0.2-1.9-2.1-2.3 0.2-4.1-0.7v-1l-2.2-3.4-2.9-1.2-1.9 0.8-2.2-0.1-1.3-0.5-6.6-57.2 21.4-3.5z" name="GOH"/>
  <path d="m501.5 398.6-4.6-3.8-2.2-0.9-0.5 1.6-5.1 0.3-0.6-1.5-5 2.5-1.6-0.7-3.7 0.3-0.6 1.7-3.6 0.9-1.3-1.2-1.2 0.1-2-1.8-2.1 0.7-2-0.5-1.8-2-2.5 4.2-1.2 0.8-1-1.8 0.3-2-1.2-0.7-2.3 2.5-1.7-1.2-0.1-1.5-1.3 0.5-2.6-1.7-3 2.6-2.3-1.1 0.7-2.1-2.3 0.1-1.9-3-3.5-1.1-2 2.3-2.3-2.2-1.4 0.4-2 0.1-3.5-1.9-2.3 0.1-1.2-0.7-0.5-2.9-2.3-1.7-1.1 1.5-1.4-1-1.2-0.4-1.1 1-1.5-0.3-2.5-3-2.7-1.3 1.4-42.7-52.6-3.2 0.6-10.6 16.5 1 67.7 2.9 62 0.1 0.2 10.8 4.1 24.4-0.7 39z" name="GOK"/>
  <path d="m93.9 166.5 47 11.2 8.5-37.3 2.9-5.8 0.4-2.1 0.8-0.9-0.9-2-2.9-1.2 0.2-4.2 4-5.8 2.5-0.8 1.6-2.3-0.1-1.6 1.8-1.6 3.2-5.5 4.2-4.8-0.5-3.2-3.5-3.1-1.6-3.6-30.3-7.3-2.8 1-5.4-0.9-1.8-0.9-1.5 1.2-3.3-0.4-4.5 0.5-0.9 0.7-4.2-0.4-0.8-1.6-1.2-0.2-4.4 1.3-1.6-1.1-2.2 0.8-0.2-1.8-2.3-1.2-1.5-0.2-1-1.1-3 0.3-1.2-0.8h-1.2l-1.2 0.9-5.5 0.7-6.6-4.2 1.1-5.6-0.4-4.1-3.2-3.7-3.7 0.1-0.4-1.1 0.4-1.2-0.7-0.8-1 0.1-1.1 1.3-1.5-0.2-0.5-1.1-1-0.1-0.7 0.6-2-1.9v4.3l-1.3 1.3-1.1 3.5-0.1 2.3-4.5 12.3-13.2 31.3-3.2 4.6-1.6-0.1 0.1 2.1-5.2 7.1-0.3 3.3 1 1.3 0.1 2.4-1.2 1.1-1.2 3 0.1 5.7 1.2 2.9z" name="GOR"/>
  <path d="m826.3 189.4-1.9 0.3-3-2.2-3-5.8h-2l-0.4-1.5-1.7-1.1-70.5 13.9-0.8-6-4.2 3.4-0.9 0.1-2.7 3-3.3 1.7 4.9 29.9 3.2 19.7 17.4-2.9 60.5-11.8 1.2-2.1 1.5-1.1 1.6-0.3 1.6 0.6 1.4-1.7 1.6-0.6 1.8-3 1.6-2.3 3.3-2.6-4.2-3.2-2.1-1.1-1-2.8-2.7-0.9-0.5-3.6 1-1 0.7-2-1.5-1.8 3-5.4-0.1-2.2 1.8-2.5z" name="GPA"/>
  <path d="m883.2 170.7-1.3-1.1-2.6-1.3-0.6-2.2h-0.8l-0.7-2.6-6.5 2 3.2 12.3-0.4 1.1 0.4 1.8 5.6-3.6 0.1-3-0.8-0.8 0.4-0.6-0.1-1.3-0.9-0.7 1.2-0.4-0.9-1.6 1.8 0.7 0.3 1.4 0.7 1.2-1.4-0.8 1.1 1.7-0.3 1.2-0.6-1.1v2.5l0.6-0.9 0.4 0.9 1.3-1.5-0.2-2.5 1.4 3.1 1-0.9zm-4.7 12.2h0.9l0.5-0.6-0.8-1.3-0.7 0.7z" name="GRI"/>
  <path d="m772.3 350.2-19.7 2.8-0.1-2.6-3.3-3-1.2 1.5-0.7-0.3 0.2-1.4-0.4-0.5-23.2 2.2-7.3 4.3-1.3 0.1-4.4 1.9-0.1 1.9-1.9 1-1.4 3.2 0.2 1.3 6.1 3.8 2.6-0.3 3.1 4 0.4 1.7 4.2 5.1 2.6 1.7 1.4 0.2 2.2 1.6 1.1 2.2 2 1.6 1.8 0.5 2.7 2.7 0.1 1.4 2.6 2.8 5 2.3 3.6 6.7 0.3 2.7 3.9 2.1 2.5 4.8 0.8 3.1 4.2 0.4 0.8-1.5h0.6l1.8-1.5 0.5-2 3.2-2.1 0.3-2.4-1.2-0.9 0.8-0.7 0.8 0.4 1.3-0.4 1.8-2.1 3.8-1.8 1.6-2.4 0.1-0.7 4.8-4.4-0.1-0.5-0.9-0.8 1.1-1.5h0.8l0.4 0.5 0.7-0.8h1.3l0.6-1.5 2.3-2.1-0.3-5.4 0.8-2.3 3.6-6.2 2.4-2.2 2.2-1.1z" name="GSC"/>
  <path d="m396.5 125.9 46 2.1 29.5 0.4-0.1 2.2-0.9 2-3.1 1.9-0.3 1.2 1.7 2.5 0.4 1.8 2.6 0.6 1.5 1.9-0.2 39.5-2.2-0.1-0.1 1.6 1.3 1.5-0.1 1.1-1 0.5 0.4 1.6 1.3 0.4 0.7 2-1.7 5.1-1 4.3 1.3 1.2 0.3 1.3 0.7 1.7-1.5 0.2-1.8-0.7-0.9-2.6-1.2-1.3-6.1-2.2-0.6-1.1-2-0.6-1.4 0.6-1-0.5-0.9 0.4-0.7-0.4-0.9 0.4-0.7-0.5-1 0.7-1.5-0.6-1.8 2-1.8 0.1-2.1-2-1.7-0.2-3.4-3.2-38-1.6-51.1-3.5 3.9-43.9 2-20.7z" name="GSD"/>
  <path d="m620.9 365.1 45.7-4 22.9-2.9 0.1-4.9 1.4-1.3 1.5 0.1 1.3-0.9 0.8-4.1 4.6-3 3.6-0.5 3.2-2.6 0.5-1.2 4.7-2.4 0.6-3.4 4-3.3 0.8 0.2 0.1 1.5 0.8 0.8 1.5-1.2 0.7-2.1 3.5-2.5 2.6 1.1 2.4-5.2 1.4-1.2 1.5 0.1v-5.2l0.3-0.7-4.6 0.5-0.2 1-28.9 3.3-5.6 1.4-20.5 1.4-5.2 0.8-17.4 1-2.6 0.8-22.6 2-0.7-0.6h-3.7l1.2 3.2-0.6 0.9-23.3 1.5-0.8 1-0.8-0.7h-1v1.3l0.6 1-0.1 1-1.4 0.5 1.4 1.5-0.8 0.7-1.7-0.2 0.6 1 1.2 1.1v0.7l-1.2 0.5-1 2 0.1 0.6 1.4 1-0.4 0.7h-1.5v0.5l0.9 0.9 0.1 0.8-1.4 0.2-0.5 0.8-1.6 0.2-0.9 0.9 0.6 0.9 1.1-0.1 0.5 0.9-1.6 1.3 0.4 1.5-2-0.6-0.1 0.7 0.4 1.1-0.3 1.4-1.3-0.8-0.8 0.8 1.1 0.1 0.1 1.5-0.6 1 1.1 0.9-0.3 1.5 0.8 0.7-0.7 1-1.2-0.5-0.9 2.2-1.6 0.7z" name="GTN"/>
  <path d="m282.3 429 0.3-3 34.4 3.6 31.8 2.6 7.9-99.3h0.8l52.6 3.2-1.4 42.7 2.7 1.3 2.5 3 1.5 0.3 1.1-1 1.2 0.4 1.4 1 1.1-1.5 2.3 1.7 0.5 2.9 1.2 0.7 2.3-0.1 3.5 1.9 2-0.1 1.4-0.4 2.3 2.2 2-2.3 3.5 1.1 1.9 3 2.3-0.1-0.7 2.1 2.3 1.1 3-2.6 2.6 1.7 1.3-0.5 0.1 1.5 1.7 1.2 2.3-2.5 1.2 0.7-0.3 2 1 1.8 1.2-0.8 2.5-4.2 1.8 2 2 0.5 2.1-0.7 2 1.8 1.2-0.1 1.3 1.2 3.6-0.9 0.6-1.7 3.7-0.3 1.6 0.7 5-2.5 0.6 1.5 5.1-0.3 0.5-1.6 2.2 0.9 4.6 3.8 6.4 1.9 2.6 2.3 2.8-1.3 3.2 0.8 0.2 11.9 0.5 19.9 0.7 3.4 2.6 2.8 0.7 5.4 3.8 4.6 0.8 4.3h1l-0.1 7.3-3.3 6.4 1.3 2.3-1.3 1.5 0.7 3-0.1 4.3-2.2 3.5-0.1 0.8-1.7 1.2 1 1.8 1.2 1.1-3.5 0.3-8.4 3.9-3.5 1.4-1.8 1.8-0.7-0.5 2.1-2.3 1.8-0.7 0.5-0.9-2.9-0.1-0.7-0.8 0.8-2-0.9-1.8h-0.6l-2.4 1.3-1.9 2.6 0.3 1.7 3.3 3.4 1.3 0.3v0.8l-2.3 1.6-4.9 4-4 3.9-3.2 1.4-5 3-3.7 2-4.5 1.9-4.1 2.5 3.2-3v-1.1l0.6-0.8-0.2-1.8-1.5-0.1-1.1 1.5-2.6 1.3-1.8-1.2-0.3-1.7h-1.5l0.8 2.2 1.4 0.7 1.2 0.9 1.8 1.6-0.7 0.8-3.9 1.7-1.7 0.1-1.2-1.2-0.5 2.1 0.5 1.1-2.7 2-1.5 0.2-0.8 0.7-0.4 1.7-1.8 3.3-1.6 0.7-1.6-0.6-1.8 1.1 0.3 1.4 1.3 0.8 1 0.8-1.8 3.5-0.3 2.8-1 1.7-1.4 1-2.9 0.4 1.8 0.6 1.9-0.6-0.4 3.2-1.1-0.1 0.2 1.2 0.3 1.4-1.3 0.9v3.1l1.6 1.4 0.6 3.1-0.4 2.2-1 0.4 0.4 1.5 1.1 0.4 0.8 1.7v2.6l1.1 2.1 2.2 2.6-0.1 0.7-2.2-0.2-1.6 1.4 0.2 1.4-0.9-0.3-1.4-0.2-3.4-3.7-2.3-0.6h-7.1l-2.8-0.8-3.6-3-1.7-1-2.1 0.1-3.2-2.6-5.4-1.6v-1.3l-1.4-1.8-0.9-4.7-1.1-1.7-1.7-1.4v-1.6l-1.4-0.6 0.6-2.6-0.3-2.2-1.3-1.4 0.7-3-0.8-3.2-1.7-1.4h-1.1l-4-3.5 0.1-1.9-0.8-1.7-0.8-0.2-0.9-2.4-2-1.6-2.9-2.5-0.2-2.1-1-0.7 0.2-1.6 0.5-0.7-1.4-1.5 0.1-0.7-2-2.2 0.1-2.1-2.7-4.9-0.1-1.7-1.8-3.1-5.1-4.8v-1.1l-3.3-1.7-0.1-1.8-1.2-0.4v-0.7l-0.8-0.2-2.1-2.8h-0.8l-0.7-0.6-1.3 1.1h-2.2l-2.6-1.1h-4.6l-4.2-2.1-1.3 1.9-2.2-0.6-3.3 1.2-1.7 2.8-2 3.2-1.1 4.4-1.4 1.2-1.1 0.1-0.9 1.6-1.3 0.6-0.1 1.8-2.9 0.1-1.8-1.5h-1l-2-2.9-3.6-0.5-1.7-2.3-1.3-0.2-2.1-0.8-3.4-3.4 0.2-0.8-1.6-1.2-1-0.1-3.4-3.1-0.1-2-2.3-4 0.2-1.6-0.7-1.3 0.8-1.5-0.1-2.4-2.6-4.1-0.6-4.2-1.6-1.6v-1l-1.2-0.2-0.7-1.1-2.4-1.7-0.9-0.1-1.9-1.6v-1.1l-2.9-1.8-0.6-2.1-2.6-2.3-3.2-4.4-3-1.3-2.1-1.8 0.2-1.2-1.3-1.4-1.7-3.7-2.4-1zm174.9 138.3 0.8 0.1-0.6-4.8-3.5-12.3-0.2-8.1 4.9-10.5 6.1-8.2 7.2-5.1v-0.7h-0.8l-2.6 1-3.6 2.3-0.7 1.5-8.2 11.6-2.8 7.9v8.8l3.6 12z" name="GTX"/>
  <path d="m233.2 217.9 3.3-21.9-47.9-8.2-21 109 46.2 8.2 40 6 11.5-88.3z" name="GUT"/>
  <path d="m859.1 102.4-1.1 3.5 2.1 2.8-0.4 1.7 0.1 1.3-1.1 2.1-1.4 0.4-0.6 1.3-2.1 1-0.7 1.5 1.4 3.4-0.5 2.5 0.5 1.5-1 1.9 0.4 1.9-1.3 1.9 0.2 2.2-0.7 1.1 0.7 4.5 0.7 1.5-0.5 2.6 0.9 1.8-0.2 2.5-0.5 1.3-0.1 1.4 2.1 2.6-12.4 2.7-1.1-1 0.5-2-3-14.2-1.9-1.5-0.9 1.6-0.9-2.2 0.8-1.8-3.1-6.7 0.3-3.8 0.4-1-0.6-2 0.4-2.2-2.2-2.3-0.5-3.2 0.4-1.5-1.4-0.9 0.6-1.9-0.8-1.7 27.3-6.9z" name="GVT"/>
  <path d="m834.7 265.4-1.1 2.8 0.5 1.1 0.4-1.1 0.8-3.1zm-34.6-7-0.7-1 1-0.1 1-0.9 0.4-1.8-0.2-0.5 0.1-0.5-0.3-0.7-0.6-0.5-0.4-0.1-0.5-0.4-0.6-0.6h-1l-0.6-0.1-0.4-0.4 0.1-0.5-1.7-0.6-0.8 0.3-1.2-0.1-0.7-0.7-0.5-0.2-0.2-0.7 0.6-0.8v-0.9l-1.2-0.2-1-0.9-0.9 0.1-1.6-0.3-0.4 0.7-0.4 1.6-0.5 2.3-10-5.2-0.2 0.9 0.9 1.6-0.8 2.3 0.1 2.9-1.2 0.8-0.5 2.1-0.9 0.8-1.4 1.8-0.9 0.8-1 2.5-2.4-1.1-2.3 8.5-1.3 1.6-2.8-0.5-1.3-1.9-2.3-0.7-0.1 4.7-1.4 1.7 0.4 1.5-2.1 2.2 0.4 1.9-3.7 6.3-1 3.3 1.5 1.2-1.5 1.9 0.1 1.4-2.3 2-0.7-1.1-4.3 3.1-1.5-1-0.6 1.4 0.8 0.5-0.5 0.9-5.5 2.4-3-1.8-0.8 1.7-1.9 1.8-2.3 0.1-4.4-2.3-0.1-1.5-1.5-0.7 0.8-1.2-0.7-0.6-4.9 6.6-2.9 1-3 3-0.4 2.2-2.1 1.3-0.1 1.7-1.4 1.4-1.8 0.5-0.5 1.9-1 0.4-6.9 4.2 28.9-3.3 0.2-1 4.6-0.5-0.3 0.7 29.4-3.5 39.4-7.3 29.1-6.1-0.6-1.2 0.4-0.1 0.9 0.9-0.1-1.4-0.3-1.9 1.6 1.2 0.9 2.1v-1.3l-3.4-5.5v-1.2l-0.7-0.8-1.3 0.7 0.5 1.4h-0.8l-0.4-1-0.6 0.9-0.9-1.1-2.1-0.1-0.2 0.7 1.5 2.1-1.4-0.7-0.5-1-0.4 0.8-0.8 0.1-1.5 1.7 0.3-1.6v-1.4l-1.5-0.7-1.8-0.5-0.2-1.7-0.6-1.3-0.6 1.1-1.7-1-2 0.3 0.2-0.9 1.5-0.2 0.9 0.5 1.7-0.8 0.9 0.4 0.5 1v0.7l1.9 0.4 0.3 0.9 0.9 0.4 0.9 1.2 1.4-1.6h0.6l-0.1-2.1-1.3 1-0.6-0.9 1.5-0.2-1.2-0.9-1.2 0.6-0.1-1.7-1.7 0.2-2.2-1.1-1.8-2.2 3.6 2.2 0.9 0.3 1.7-0.8-1.7-0.9 0.6-0.6-1-0.5 0.8-0.2-0.3-0.9 1.1 0.9 0.4-0.8 0.4 1.3 1.2 0.8 0.6-0.5-0.5-0.6-0.1-2.5-1.1-0.1-1.6-0.8 0.9-1.1-2-0.1-0.4-0.5-1.4 0.6-1.4-0.8-0.5-1.2-2.1-1.2-2.1-1.8-2.2-1.9 3 1.3 0.9 1.2 2.1 0.7 2.3 2.5 0.2-1.7 0.6 1.3 2.3 0.5v-4l-0.8-1.1 1.1 0.4 0.1-1.6-3.1-1.4-1.6-0.2-1.3-0.2 0.3-1.2-1.5-0.3-0.1-0.6h-1.8l-0.2 0.8-0.7-1h-2.7l-1-0.4-0.2-1-1.2-0.6-0.4-1.5-0.6-0.4-0.7 1.1-0.9 0.2-0.9 0.7h-1.5l-0.9-1.3 0.4-3.1 0.5-2.4 0.6 0.5zm21.9 11.6 0.9-0.1v-0.6l-0.8 0.1zm7.5 14.2-1 2.7 1.2-1.3zm-1.8-15.3 0.7 0.3-0.2 1.9-0.5-0.5-1.3 1 1 0.4-1.8 4.4 0.1 8.1 1.9 3.1 0.5-1.5 0.4-2.7-0.3-2.3 0.7-0.9-0.2-1.4 1.2-0.6-0.6-0.5 0.5-0.7 0.8 1.1-0.2 1.1-0.4 3.9 1.1-2.2 0.4-3.1 0.1-3-0.3-2 0.6-2.3 1.1-1.8 0.1-2.2 0.3-0.9-4.6 1.6-0.7 0.8z" name="GVA"/>
  <path d="m161.9 83.6 0.7 4-1.1 4.3-30.3-7.3-2.8 1-5.4-0.9-1.8-0.9-1.5 1.2-3.3-0.4-4.5 0.5-0.9 0.7-4.2-0.4-0.8-1.6-1.2-0.2-4.4 1.3-1.6-1.1-2.2 0.8-0.2-1.8-2.3-1.2-1.5-0.2-1-1.1-3 0.3-1.2-0.8h-1.2l-1.2 0.9-5.5 0.7-6.6-4.2 1.1-5.6-0.4-4.1-3.2-3.7-3.7 0.1-0.4-1.1 0.4-1.2-0.7-0.8-1 0.1-2.1-1.5-1.2 0.4-2-0.1-0.7-1.5-1.6-0.3 2.5-7.5-0.7 6 0.5 0.5v-2l0.8-0.2 1.1 2.3-0.5-2.2 1.2-4.2 1.8 0.4-1.1-2-1 0.3-1.5-0.4 0.2-4.2 0.2 1.5 0.9 0.5 0.6-1.6h3.2l-2.2-1.2-1.7-1.9-1.4 1.6 1.2-3.1-0.3-4.6-0.2-3.6 0.9-6.1-0.5-2-1.4-2.1 0.1-4 0.4-2.7 2-2.3-0.7-1.4 0.2-0.6 0.9 0.1 7.8 7.6 4.7 1.9 5.1 2.5 3.2-0.1 0.2 3 1-1.6h0.7l0.6 2.7 0.5-2.6 1.4-0.2 0.5 0.7-1.1 0.6 0.1 1.6 0.7-1.5h1.1l-0.4 2.6-1.1-0.8 0.4 1.4-0.1 1.5-0.8 0.7-2.5 2.9 1.2-3.4-1.6 0.4-0.4 2.1-3.8 2.8-0.4 1-2.1 2.2-0.1 1h2.2l2.4-0.2 0.5-0.9-3.9 0.5v-0.6l2.6-2.8 1.8-0.8 1.9-0.2 1-1.6 3-2.3v-1.4h1.1l0.1 4h-1.5l-0.6 0.8-1.1-0.9 0.3 1.1v1.7l-0.7 0.7-0.3-1.6-0.8 0.8 0.7 0.6-0.9 1.1h1.3l0.7-0.5 0.1 2-1 1.9-0.9 1-0.1 1.8-1-0.2-0.2-1.4 0.9-1.1-0.8-0.5-0.8 0.7-0.7 2.2-0.8 0.9-0.1-2 0.8-1.1-0.2-1.1-1.2 1.2 0.1 2.2-0.6 0.4-2.1-0.4-1.3 1.2 2.2-0.6-0.2 2.2 1-1.8 0.4 1.4 0.5-1 0.7 1.8h0.7l0.7-0.8 0.6-0.1 2-1.9 0.2-1.2 0.8 0.6 0.3 0.9 0.7-0.3 0.1-1.2h1.3l0.2-2.9-0.1-2.7 0.9 0.3-0.7-2.1 1.4-0.8 0.2-2.4 2.3-2.2 1 0.1 0.3-1.4-1.2-1.4-0.1-3.5-0.8 0.9 0.7 2.9-0.6 0.1-0.6-1.9-0.6-0.5 0.3-2.3 1.8-0.1 0.3 0.7 0.3-1.6-1.6-1.7-0.6-1.6-0.2 2 0.9 1.1-0.7 0.4-1-0.8-1.8 1.3 1.5 0.5 0.2 2.4-0.3 1.8 0.9-1.3 1.4 2.3-0.4 1.9h-1.5v-1.2l-1.5-1.2 0.5-3-1.9-2.6 2.7-3 0.6-4.1h0.9l1.4 3.2v-2.6l1.2 0.3v-3.3l-0.9-0.8-1.2 2.5-1-3 1.3-0.1-1.5-4.9 1.9-0.6 25.4 7.5 31.7 8 23.6 5.5zm-78.7-39.4h0.5l0.1 0.8-0.5 0.3 0.1 0.6-0.7 0.4-0.2-0.9 0.5-0.4zm5-4.3-1.2 1.9-0.1 0.8 0.4 0.2 0.5-0.6 1.1 0.1zm-0.4-21.6 0.5 0.6 1.3-0.3 0.2-1 1.2-1.8-1-0.4-0.7 1.6-0.1-1.6-1.1 0.2-0.7 1.4zm3.2-5.5 0.7 1.5-0.9 0.2-0.8 0.4-0.2-2.4zm-2.7-1.6-1.1-0.2 0.5 1.4zm-1 2.5 0.8 0.4-0.4 1.1 1.7-0.5-0.2-2.2-0.9-0.2zm-2.7-0.4 0.3 2.7 1.6 1.3 0.6-1.9-1.1-2.2zm1.9-1.1-1.1-1-0.9 0.1 1.8 1.5zm3.2-7h-1.2v0.8l1.2 0.6zm-0.9 32.5 0.4-2.7h-1.1l-0.2 1.9z" name="GWA"/>
  <path d="m723.4 297.5-0.8 1.2 1.5 0.7 0.1 1.5 4.4 2.3 2.3-0.1 1.9-1.8 0.8-1.7 3 1.8 5.5-2.4 0.5-0.9-0.8-0.5 0.6-1.4 1.5 1 4.3-3.1 0.7 1.1 2.3-2-0.1-1.4 1.5-1.9-1.5-1.2 1-3.3 3.7-6.3-0.4-1.9 2.1-2.2-0.4-1.5 1.4-1.7 0.1-4.7 2.3 0.7 1.3 1.9 2.8 0.5 1.3-1.6 2.3-8.5 2.4 1.1 1-2.5 0.9-0.8 1.4-1.8 0.9-0.8 0.5-2.1 1.2-0.8-0.1-2.9 0.8-2.3-0.9-1.6 0.2-0.9 10 5.2 0.5-2.3 0.4-1.6 0.4-0.7-0.9-0.4 0.2-1.6-1-0.5-0.2-0.7h-0.7l-0.8-1.2 0.2-1-2.6 0.4-2.2-1.6-1.4 0.3-0.9 1.4h-1.3l-1.7 2.9-3.3 0.4-1.9-1-2.6 3.8-2.2-0.3-3.1 3.9-0.9 1.6-1.8 1.6-1.7-11.4-17.4 2.9-3.2-19.7-2.2 1.2 1.4 2.1-0.1 2.2 0.6 2-1.1 3.4-0.1 5.4-1 3.6 0.5 1.1-0.4 2.2-1.1 0.5-2 3.3-1.8 2h-0.6l-1.8 1.7-1.3-1.2-1.5 1.8-0.3 1.2h-1.3l-1.3 2.2 0.1 2.1-1 0.5 1.4 1.1v1.9l-1 0.2-0.7 0.8-1 0.5-0.6-2.1-1.6-0.5-1 2.3-0.3 2.2-1.1 1.3 1.3 3.6-1.5 0.8-0.4 3.5h-1.5l-3.2 1.4-0.1 1.1 0.6 1-0.6 3.6 1.9 1.6 0.8 1.1 1 0.6-0.1 0.9 4.4 5.6h1.4l1.5 1.8 1.2 0.3 1.4-0.1z" name="GWV"/>
  <path d="m611 144-2.9 0.8 0.2 2.3-2.4 3.4-0.2 3.1 0.6 0.7 0.8-0.7 0.5-1.6 2-1.1 1.6-4.2 3.5-1.1 0.8-3.3 0.7-0.9 0.4-2.1 1.8-1.1v-1.5l1-0.9 1.4 0.1v2l-1 0.1 0.5 1.2-0.7 2.2-0.6 0.1-1.2 4.5-0.7 0.5-2.8 7.2-0.3 4.2 0.6 2 0.1 1.3-2.4 1.9 0.3 1.9-0.9 3.1 0.3 1.6 0.4 3.7-1.1 4.1-1.5 5 1 1.5-0.3 0.3 0.8 1.7-0.5 1.1 1.1 0.9v2.7l1.3 1.5-0.4 3 0.3 4-45.9 2.8-1.3-2.8-3.3-0.7-2.7-1.5-2-5.5 0.1-2.5 1.6-3.3-0.6-1.1-2.1-1.6-0.2-2.6-1.1-4.5-0.2-3-2.2-3-2.8-0.7-5.2-3.6-0.6-3.3-6.3-3.1-0.2-1.3h-3.3l-2.2-2.6-2-1.3 0.7-5.1-0.9-1.6 0.5-5.4 1-1.8-0.3-2.7-1.2-1.3-1.8-0.3v-1.7l2.8-5.8 5.9-3.9-0.4-13 0.9 0.4 0.6-0.5 0.1-1.1 0.9-0.6 1.4 1.2 0.7-0.1h2.6l6.8-2.6 0.3-1h1.2l0.7-1.2 0.4 0.8 1.8-0.9 1.8-1.7 0.3 0.5 1-1 2.2 1.6-0.8 1.6-1.2 1.4 0.5 1.5-1.4 1.6 0.4 0.9 2.3-1.1v-1.4l3.3 1.9 3.8 1.4 3 3.8 17 3.8 1.4 1 4 0.8 0.7 0.5 2.8-0.2 4.9 0.8 1.4 1.5-1 1 0.8 0.8 3.8 0.7 1.2 1.2 0.1 4.4-1.3 2.8 2 0.1 1-0.8 0.9 0.8-1.1 3.1 1 1.6 1.2 0.3zm-49.5-37.3-0.5 0.1-1.5 1.6 0.2 0.5 1.5-0.6v-0.6l0.9-0.3zm1.6-1.1-1 0.3-0.2 0.7 0.9-0.1zm-1.3-1.6-0.2 0.9h1.7l0.6-0.4 0.1-1zm2.8-3-0.3 1.9 1.2-0.5 0.1-1.4zm58.3 31.9-2 0.3-0.4 1.3 1.3 1.7z" name="GWI"/>
  <path d="m355.3 143.7-51-5.3-57.3-7.9-2 10.7-8.5 54.8-3.3 21.9 32.1 4.8 44.9 5.7 37.5 3.4 3.7-44.2z" name="GWY"/>
  <path d="m 803.5,252 -2.6,-1.8 -1,1.7 .5,.4 .4,.1 .6,.5 .3,.7 -.1,.5 .2,.5 z"/>
 </g>
 <g class="usa-gubernatorial-1960-geo-borders" fill="none">
  <path d="m687.6 447.4-48.8 5.1-0.5 2.9 2.5 2.8 1.7 0.7 0.9 1.2-0.4 7.3-1.1 0.6"/>
  <path d="m666.6 361.1 12.9 45.8 2.9 6.1 1.8 1.9v3.2l1.7 1 0.2 1.1-2.2 3.8-0.3 3.7-0.5 2.6 2.4 5.7-0.6 6.3 0.5 1.4 1.5 1.5 0.7 2.2"/>
  <path d="m620.9 365.1 1.3 2-1.3 67 4.4 33.2"/>
  <path d="m620.9 365.1 45.7-4"/>
  <path d="m516.7 414.2 52.3-1.3"/>
  <path d="m591.7 344.9-11.2 0.8 2.8-5.1 1.7-1.5v-2.2l-1.6-2.5-39.8 2-39.1 0.7"/>
  <path d="m569 412.9 1.2-1.5 0.5-3-1.5-2.3-0.5-2.2 0.9-0.7v-0.8l-1.7-1.1-0.1-0.7 1.6-0.9-1.2-1.1 1.7-7.1 3.4-1.6v-0.8l-1.1-1.4 2.9-5.4h1.9l1.5-1.2-0.3-5.2 3.1-4.5 1.8-0.6-0.5-3.1"/>
  <path d="m507.9 400.5 0.7-39-4.1-24.4"/>
  <path d="m582.6 367.7 1.6-0.7 0.9-2.2 1.2 0.5 0.7-1-0.8-0.7 0.3-1.5-1.1-0.9 0.6-1-0.1-1.5-1.1-0.1 0.8-0.8 1.3 0.8 0.3-1.4-0.4-1.1 0.1-0.7 2 0.6-0.4-1.5 1.6-1.3-0.5-0.9-1.1 0.1-0.6-0.9 0.9-0.9 1.6-0.2 0.5-0.8 1.4-0.2-0.1-0.8-0.9-0.9v-0.5h1.5l0.4-0.7-1.4-1-0.1-0.6"/>
  <path d="m507.9 400.5 2.6 2.3 2.8-1.3 3.2 0.8 0.2 11.9"/>
  <path d="m149 338.1-0.9 2.1 1.3 3.4 1.4 1.8 1.2 5.8 2.3 2.5 0.4 1.9-1.3 1.3-4.8 1.7-2.4 3.6-1.6 7-2.4 3.2-1.6 0.3-1.1 6.9 1.1 1.6 1.8 0.2 1 1.6-0.8 2.4-3 2.2-2.2-0.1"/>
  <path d="m253.8 311-17.4 124.1"/>
  <path d="m167.6 296.8-3.4 17.5-2.4 2.9h-2l-1.2-2.7-3.7-1.4-3.5 0.6-1 13.6 0.5 4.9-0.5 2.9-1.4 3"/>
  <path d="m167.6 296.8 46.2 8.2 40 6"/>
  <path d="m93.9 166.5-16.4 63.1 1.1 3.5 70.4 105"/>
  <path d="m27.8 147.9 66.1 18.6"/>
  <path d="m379.4 256.3-4.8 67"/>
  <path d="m347.7 231.8 33.1 2.4-1.4 22.1"/>
  <path d="m253.8 311 52.6 6.5 51.7 4.8"/>
  <path d="m358.1 322.3 16.5 1"/>
  <path d="m265.3 222.7-11.5 88.3"/>
  <path d="m265.3 222.7 44.9 5.7 37.5 3.4"/>
  <path d="m 843.8,171.3 10.5,-2.4 .5,.7 .9,-.3 0,-.7 14.9,-3.4 .1,.3"/>
  <path d="m846.6 194.7-1.7-2.2 3.5-3.4-1.8-1.5-2.8-16.3"/>
  <path d="m870.7 165.5 3.2 12.3-0.4 1.1 0.4 1.8"/>
  <path d="m801.8 254.6 1.7-2.6-2.6-1.8-1 1.7"/>
  <path d="m 799.9,251.9 .5,.4 .4,.1 .6,.5 .3,.7 -.1,.5 .2,.5"/>
  <path d="m817.9 230.1 7.6 27.1 10.9-2.3"/>
  <path d="m823.8 227.2-1 2.2-0.3 2.1"/>
  <path d="m817.9 230.1 1.2-2.1 1.5-1.1 1.6-0.3 1.6 0.6"/>
  <path d="m687.6 447.4 3.3 6 50.1-3.3 0.6 3.2 1 1.1 2.1-0.6 0.5-4.3-1.4-2.1v-2.5l2.2-1.4 1.7 0.9 4 0.7 3.6-0.3"/>
  <path d="m689.5 358.2 21.4-3"/>
  <path d="m 710.9,355.2 -.1,1.9 -1.9,1 -1.4,3.2 .2,1.3 6.1,3.8 2.6,-.3 3.1,4 .4,1.7 4.2,5.1 2.6,1.7 1.4,.2 2.2,1.6 1.1,2.2 2,1.6 1.8,.5 2.7,2.7 .1,1.4 2.6,2.8 5,2.3 3.6,6.7 .3,2.7 3.9,2.1 2.5,4.8 .8,3.1 4.2,.4"/>
  <path d="m666.6 361.1 22.9-2.9"/>
  <path d="m556.8 249.7 0.7-0.7 0.1-2.3-0.7-0.9 1-1.5 2.7-0.9 1-1.2v-2.4l1.7-2.4 0.5-0.5 0.1-3.5-0.9-1.4-1-0.3-1.1-1.6 1-4 3-0.8h2.4l4.2-1.8 1.7-2.2 0.1-2.4 1.1-1.3 1.3-3.2-0.1-2.6-2.8-3.5h-1.2l-0.9-1.1 0.2-1.6-1.7-1.7-2.5-1.3 0.5-0.6"/>
  <path d="m473.6 182h28.2l36.3-0.9 18.6-0.7"/>
  <path d="m 484.5,246.8 25.9,.1 27.2,-1.2 14.3,-.8 1.7,1.3 .6,1.6 1.1,1.1 1.5,.8"/>
  <path d="m484.5 246.8-1.8-4.4 0.7-2.2-0.8-3.3 0.2-2.9-1.3-0.7-0.4-6.1-2.8-5-0.2-3.7-2.2-4.3-1.3-3.7v-1.4l-0.6-1.7v-2.3l-0.5-0.9"/>
  <path d="m473.5 204.2-0.7-1.7-0.3-1.3-1.3-1.2 1-4.3 1.7-5.1-0.7-2-1.3-0.4-0.4-1.6 1-0.5 0.1-1.1-1.3-1.5 0.1-1.6 2.2 0.1"/>
  <path d="m567.2 202-1.3-2.8-3.3-0.7-2.7-1.5-2-5.5 0.1-2.5 1.6-3.3-0.6-1.1-2.1-1.6-0.2-2.6"/>
  <path d="m188.8 30.5-4.8 22 3.7 7.4-1.6 4.8 3.6 4.8 1.9 0.7 3.9 8.3v2.1l2.3 3h0.9l1.4 2.1h3.2v1.6l-7.1 17-0.5 4.1 1.4 0.5 1.6 2.6 2.8-1.4 3.6-2.4 1.9 1.9 0.5 2.5-0.5 3.2 2.5 9.7 2.6 3.5 2.3 1.4 0.4 3v4.1l2.3 2.3 1.6-2.3 6.9 1.6 2.1-1.2 9 1.7 2.8-3.3 1.8-0.6 1.2 1.8 1.6 4.1 0.9 0.1"/>
  <path d="m140.9 177.7 24.4 5.4 23.3 4.7"/>
  <path d="m140.9 177.7 8.5-37.3 2.9-5.8 0.4-2.1 0.8-0.9-0.9-2-2.9-1.2 0.2-4.2 4-5.8 2.5-0.8 1.6-2.3-0.1-1.6 1.8-1.6 3.2-5.5 4.2-4.8-0.5-3.2-3.5-3.1-1.6-3.6"/>
  <path d="m236.5 196-47.9-8.2"/>
  <path d="m174.6 27.5-12.7 56.1 0.7 4-1.1 4.3"/>
  <path d="m245 141.2-8.5 54.8"/>
  <path d="m619.4 215.7 4.1 50.2-1 5.2v2l2.4 3.5v0.7l-0.3 0.9 0.9 1.9-0.3 2.4-1.6 1.8-1.3 4.2-3.8 5.3-0.1 7h-1l0.9 1.9"/>
  <path d="m599.9 322.5-0.3-1.8 4-3.7 6.9 3 1.5-0.3 0.4-2.4-1.7-1.8 0.4-3.3 1-0.5 1.2 0.6 0.6-1.2 3.7-0.6 0.1-0.9-1.5-2.2-0.1-1.1 2.2-2.7v-0.9"/>
  <path d="m599.9 322.5h-2.8l-1.4-1.5-1.8-3.8v-1.9l0.8-0.6 0.1-1.3-1.7-1.9-0.9-2.5-2.7-4.1-4.8-1.3-7.4-7.1-0.4-2.4 2.8-7.6-0.4-1.9 1.2-1.1v-1.3l-2.8-1.5-3-0.7-3.4 1.2-1.3-2.3 0.6-1.9-0.7-2.4-8.6-8.4-2.2-1.5-2.5-5.9-1.2-5.4 1.4-3.7"/>
  <path d="m567.2 202 45.9-2.8"/>
  <path d="m618.3 302.7 1.1 0.8 0.6-1-0.7-1.7 4.6-0.5 0.2 1.2 1.1 0.2 0.4-0.9-0.6-1.3 0.3-0.8 1.3 0.8 1.7-0.4 1.7 0.6 3.4 2.1 1.8-2.8 3.5-2.2 3 3.3 1.6-2.1 0.3-2.7 3.8-2.3 0.2 1.3 1.9 1.2 3-0.2 1.2-0.7 0.1-3.4 2.5-3.7 4.6-4.4-0.1-1.7 1.2-3.8 2.2 1 6.7-4.5-0.4-1.7-1.5-2.1 1-1.9"/>
  <path d="m630.9 213.2 32.4-3.4 0.1 1.4"/>
  <path d="m670 268.4-6.6-57.2"/>
  <path d="m504.3 326.3-0.5-48.1-3.2-0.7-2.6-4.7-2.5-2.5 0.5-2.3 2.7-2.6 0.1-1.2-1.5-2.1-0.9 1-2-0.6-2.9-3"/>
  <path d="m379.4 256.3 36 2 43.7 1.2h32.4"/>
  <path d="m374.6 323.3 67.7 2.9 62 0.1"/>
  <path d="m596.7 333.5 1-2.7 1.4 0.9 0.7-0.4 1.2-4.1-1-1 1-2 0.2-0.9-1.3-0.8m-5.8 11.3-0.7-0.7 0.2-1h1.1l0.7 0.7-0.3 1"/>
  <path d="m670 268.4 1.3 0.5 2.2 0.1 1.9-0.8 2.9 1.2 2.2 3.4v1l4.1 0.7 2.3-0.2 1.9 2.1 2.2 0.2v-1l1.9-0.8 3 0.8 1.2 0.8 1.3-0.7h0.9l0.6-1.7 3.4-1.8 0.5 0.8 0.8 2.9 3.5 1.4 1.2 2.1"/>
  <path d="m596.7 333.5 23.3-1.5 0.6-0.9-1.2-3.2h3.7l0.7 0.6 22.6-2 2.6-0.8 17.4-1 5.2-0.8 20.5-1.4 5.6-1.4m-103.6 12.7h1"/>
  <path d="m697.7 321.1 6.9-4.2 1-0.4 0.5-1.9 1.8-0.5 1.4-1.4 0.1-1.7 2.1-1.3 0.4-2.2 3-3 2.9-1 4.9-6.6"/>
  <path d="m709.3 279.4-0.1 1.1 0.6 1-0.6 3.6 1.9 1.6 0.8 1.1 1 0.6-0.1 0.9 4.4 5.6h1.4l1.5 1.8 1.2 0.3 1.4-0.1"/>
  <path d="m569 412.9-0.6 1.4 1.6 7.1 1.2 1-0.5 1.7 2.4 2.5v3.3h-2l1.8 2.5-6 8.4-2.4 4.8-1.7 11.9 36-2-0.1 1.4-1 1.4-0.9 4.6 4.8 6.8-0.3 1.3 1.2 1.8 0.6 0.7"/>
  <path d="m516.7 414.2 0.5 19.9 0.7 3.4 2.6 2.8 0.7 5.4 3.8 4.6 0.8 4.3h1l-0.1 7.3-3.3 6.4 1.3 2.3-1.3 1.5 0.7 3-0.1 4.3-2.2 3.5-0.1 0.8-1.7 1.2 1 1.8 1.2 1.1"/>
  <path d="m856 152.6 18.4-3.8 1-1.5 0.3-1.7 1.9-0.6 0.5-1.1 1.7-1.1 1.3 0.3"/>
  <path d="m843.8 171.3-0.7-1 0.5-15"/>
  <path d="m870.7 165.5 6.5-2 0.7 2.6h0.8l0.6 2.2 2.6 1.3 1.3 1.1 1.4 3"/>
  <path d="m843.6 155.3 12.4-2.7"/>
  <path d="m757.4 241.9 60.5-11.8"/>
  <path d="m822.9 269.3-0.8 0.1m13.2-4.3-0.6 0.3m-1.3 0.2-4.6 1.6-0.7 0.8m-28.2-16.1-0.6-0.6h-1l-0.6-0.1-0.4-0.4 0.1-0.5-1.7-0.6-0.8 0.3-1.2-0.1-0.7-0.7-0.5-0.2-0.2-0.7 0.6-0.8v-0.9l-1.2-0.2-1-0.9-0.9 0.1-1.6-0.3m11.6 13.5 0.3-0.4-0.7-1 1-0.1 1-0.9 0.4-1.8"/>
  <path d="m757.4 241.9 1.7 11.4 1.8-1.6 0.9-1.6 3.1-3.9 2.2 0.3 2.6-3.8 1.9 1 3.3-0.4 1.7-2.9h1.3l0.9-1.4 1.4-0.3 2.2 1.6 2.6-0.4-0.2 1 0.8 1.2h0.7l0.2 0.7 1 0.5-0.2 1.6 0.9 0.4"/>
  <path d="m881.9 138.3-2.3-1.4-0.8-2.2-3.2-2-0.6-4-11.9-36.8"/>
  <path d="m663.4 211.2 21.4-3.5"/>
  <path d="m 565.6,112.3 1.9,.7 3,3.8 17,3.8 1.4,1 4,.8 .7,.5 2.8,-.2 4.9,.8 1.4,1.5 -1,1 .8,.8 3.8,.7 1.2,1.2 .1,4.4 -1.3,2.8 2,.1 1,-.8 .9,.8 -1.1,3.1 1,1.6 1.2,.3"/>
  <path d="m 462.3,61.3 2.4,7.3 -1.1,2.8 .8,1.4 -.3,5.1 -.5,1.1 2.7,9.1 1.3,2.5 .7,14 1,2.7 -.4,5.8 2.9,7.4 .3,5.8 -.1,2.1"/>
  <path d="m473.6 182 0.2-39.5-1.5-1.9-2.6-0.6-0.4-1.8-1.7-2.5 0.3-1.2 3.1-1.9 0.9-2 0.1-2.2"/>
  <path d="m556.7 180.4-1.1-4.5-0.2-3-2.2-3-2.8-0.7-5.2-3.6-0.6-3.3-6.3-3.1-0.2-1.3h-3.3l-2.2-2.6-2-1.3 0.7-5.1-0.9-1.6 0.5-5.4 1-1.8-0.3-2.7-1.2-1.3-1.8-0.3v-1.7l2.8-5.8 5.9-3.9-0.4-13 0.9 0.4 0.6-0.5 0.1-1.1 0.9-0.6 1.4 1.2 0.7-0.1"/>
  <path d="m491.5 259.5-3.9-6.3-2.1-3.7 0.3-1.4-1.3-1.3"/>
  <path d="m504.3 326.3 0.2 10.8"/>
  <path d="m591.7 344.9 1-2 1.2-0.5v-0.7l-1.2-1.1-0.6-1 1.7 0.2 0.8-0.7-1.4-1.5 1.4-0.5 0.1-1-0.6-1v-1.3m1 0 0.8 0.7 0.8-1"/>
  <path d="m582.6 367.7 38.3-2.6"/>
  <path d="m362.5 56.3-5.2 66.7"/>
  <path d="m357.3 123-2 20.7"/>
  <path d="m355.3 143.7-51-5.3-57.3-7.9-2 10.7"/>
  <path d="m710.9 355.2 4.4-1.9 1.3-0.1 7.3-4.3 23.2-2.2 0.4 0.5-0.2 1.4 0.7 0.3 1.2-1.5 3.3 3 0.1 2.6 19.7-2.8 24.5 17.1"/>
  <path d="m731.1 317v5.2l-1.5-0.1-1.4 1.2-2.4 5.2-2.6-1.1-3.5 2.5-0.7 2.1-1.5 1.2-0.8-0.8-0.1-1.5-0.8-0.2-4 3.3-0.6 3.4-4.7 2.4-0.5 1.2-3.2 2.6-3.6 0.5-4.6 3-0.8 4.1-1.3 0.9-1.5-0.1-1.4 1.3-0.1 4.9"/>
  <path d="m731.1 317 29.4-3.5 39.4-7.3 29.1-6.1"/>
  <path d="m357.3 123 39.2 2.9 46 2.1 29.5 0.4"/>
  <path d="m 351.4,187.6 51.1,3.5 38,1.6 3.4,3.2 1.7,.2 2.1,2 1.8,-.1 1.8,-2 1.5,.6 1,-.7 .7,.5 .9,-.4 .7,.4 .9,-.4 1,.5 1.4,-.6 2,.6 .6,1.1 6.1,2.2 1.2,1.3 .9,2.6 1.8,.7 1.5,-.2"/>
  <path d="m347.7 231.8 3.7-44.2"/>
  <path d="m 857.9,100.1 1.2,2.3 -1.1,3.5 2.1,2.8 -.4,1.7 .1,1.3 -1.1,2.1 -1.4,.4 -.6,1.3 -2.1,1 -.7,1.5 1.4,3.4 -.5,2.5 .5,1.5 -1,1.9 .4,1.9 -1.3,1.9 .2,2.2 -.7,1.1 .7,4.5 .7,1.5 -.5,2.6 .9,1.8 -.2,2.5 -.5,1.3 -.1,1.4 2.1,2.6"/>
  <path d="m827.9 190.5 14.6 4.9-0.4 5.9"/>
  <path d="m823.8 227.2 1.4-1.7 1.6-0.6 1.8-3 1.6-2.3 3.3-2.6-4.2-3.2-2.1-1.1-1-2.8-2.7-0.9-0.5-3.6 1-1 0.7-2-1.5-1.8 3-5.4-0.1-2.2 1.8-2.5"/>
  <path d="m358.1 322.3-0.6 10.6"/>
  <path d="m284.3 431.2-2-2.2 0.3-3 34.4 3.6 31.8 2.6 7.9-99.3h0.8"/>
  <path d="m93.9 166.5 47 11.2"/>
  <path d="m188.6 187.8-21 109"/>
  <path d="m827.9 190.5-1.6-1.1-1.9 0.3-3-2.2-3-5.8h-2l-0.4-1.5-1.7-1.1-70.5 13.9-0.8-6"/>
  <path d="m843.6 155.3-1.1-1 0.5-2-3-14.2-1.9-1.5-0.9 1.6-0.9-2.2 0.8-1.8-3.1-6.7 0.3-3.8 0.4-1-0.6-2 0.4-2.2-2.2-2.3-0.5-3.2 0.4-1.5-1.4-0.9 0.6-1.9-0.8-1.7"/>
  <path d="m736.8 225.1-4.9-29.9"/>
  <path d="m709.3 279.4 3.2-1.4h1.5l0.4-3.5 1.5-0.8-1.3-3.6 1.1-1.3 0.3-2.2 1-2.3 1.6 0.5 0.6 2.1 1-0.5 0.7-0.8 1-0.2v-1.9l-1.4-1.1 1-0.5-0.1-2.1 1.3-2.2h1.3l0.3-1.2 1.5-1.8 1.3 1.2 1.8-1.7h0.6l1.8-2 2-3.3 1.1-0.5 0.4-2.2-0.5-1.1 1-3.6 0.1-5.4 1.1-3.4-0.6-2 0.1-2.2-1.4-2.1 2.2-1.2"/>
  <path d="m 357.5,332.9 52.6,3.2 -1.4,42.7 2.7,1.3 2.5,3 1.5,.3 1.1,-1 1.2,.4 1.4,1 1.1,-1.5 2.3,1.7 .5,2.9 1.2,.7 2.3,-.1 3.5,1.9 2,-.1 1.4,-.4 2.3,2.2 2,-2.3 3.5,1.1 1.9,3 2.3,-.1 -.7,2.1 2.3,1.1 3,-2.6 2.6,1.7 1.3,-.5 .1,1.5 1.7,1.2 2.3,-2.5 1.2,.7 -.3,2 1,1.8 1.2,-.8 2.5,-4.2 1.8,2 2,.5 2.1,-.7 2,1.8 1.2,-.1 1.3,1.2 3.6,-.9 .6,-1.7 3.7,-.3 1.6,.7 5,-2.5 .6,1.5 5.1,-.3 .5,-1.6 2.2,.9 4.6,3.8 6.4,1.9"/>
  <path d="m161.5 91.9-30.3-7.3-2.8 1-5.4-0.9-1.8-0.9-1.5 1.2-3.3-0.4-4.5 0.5-0.9 0.7-4.2-0.4-0.8-1.6-1.2-0.2-4.4 1.3-1.6-1.1-2.2 0.8-0.2-1.8-2.3-1.2-1.5-0.2-1-1.1-3 0.3-1.2-0.8h-1.2l-1.2 0.9-5.5 0.7-6.6-4.2 1.1-5.6-0.4-4.1-3.2-3.7-3.7 0.1-0.4-1.1 0.4-1.2-0.7-0.8-1 0.1"/>
  <path d="m736.8 225.1 3.2 19.7 17.4-2.9"/>
  <path d="m351.4 187.6 3.9-43.9"/>
  <path d="m697.7 321.1 28.9-3.3 0.2-1 4.6-0.5-0.3 0.7"/>
  <path d="m236.5 196-3.3 21.9 32.1 4.8"/>
  <path d="m722.7 296.9 0.7 0.6-0.8 1.2 1.5 0.7 0.1 1.5 4.4 2.3 2.3-0.1 1.9-1.8 0.8-1.7 3 1.8 5.5-2.4 0.5-0.9-0.8-0.5 0.6-1.4 1.5 1 4.3-3.1 0.7 1.1 2.3-2-0.1-1.4 1.5-1.9-1.5-1.2 1-3.3 3.7-6.3-0.4-1.9 2.1-2.2-0.4-1.5 1.4-1.7 0.1-4.7 2.3 0.7 1.3 1.9 2.8 0.5 1.3-1.6 2.3-8.5 2.4 1.1 1-2.5 0.9-0.8 1.4-1.8 0.9-0.8 0.5-2.1 1.2-0.8-0.1-2.9 0.8-2.3-0.9-1.6 0.2-0.9 10 5.2 0.5-2.3 0.4-1.6 0.4-0.7"/>
 </g>
</svg>
