<svg version="1.1" viewBox="0 0 640 500" xmlns="http://www.w3.org/2000/svg" fill="#eee">
 <style>#usa-house-2022-svg rect{ cursor:pointer; transition: fill 1000ms, opacity 500ms }</style>
 <g id="usa-house-2022-svg">
  <rect x="620" width="20" height="20" name="2022ME02"/>
  <rect x="260" y="20" width="20" height="20" name="2022MI01"/>
  <rect x="320" y="20" width="20" height="20" name="2022MI02"/>
  <rect x="340" y="20" width="20" height="20" name="2022MI08"/>
  <rect x="540" y="20" width="20" height="20" name="2022NY20"/>
  <rect x="560" y="20" width="20" height="20" name="2022NY21"/>
  <rect x="580" y="20" width="20" height="20" name="2022VTAL"/>
  <rect x="600" y="20" width="20" height="20" name="2022NH02"/>
  <rect x="620" y="20" width="20" height="20" name="2022ME01"/>
  <rect x="200" y="40" width="20" height="20" name="2022MN07"/>
  <rect x="220" y="40" width="20" height="20" name="2022MN08"/>
  <rect x="240" y="40" width="20" height="20" name="2022WI07"/>
  <rect x="260" y="40" width="20" height="20" name="2022WI08"/>
  <rect x="280" y="80" width="20" height="20" name="2022WI04"/>
  <rect x="320" y="40" width="20" height="20" name="2022MI03"/>
  <rect x="340" y="40" width="20" height="20" name="2022MI07"/>
  <rect x="360" y="40" width="20" height="20" name="2022MI10"/>
  <rect x="380" y="40" width="20" height="20" name="2022MI09"/>
  <rect x="460" y="40" width="20" height="20" name="2022NY26"/>
  <rect x="480" y="40" width="20" height="20" name="2022NY24"/>
  <rect x="500" y="40" width="20" height="20" name="2022NY22"/>
  <rect x="520" y="40" width="20" height="20" name="2022NY18"/>
  <rect x="540" y="40" width="20" height="20" name="2022NY17"/>
  <rect x="560" y="40" width="20" height="20" name="2022MA01"/>
  <rect x="580" y="40" width="20" height="20" name="2022MA03"/>
  <rect x="600" y="40" width="20" height="20" name="2022NH01"/>
  <rect y="60" width="20" height="20" name="2022CA11"/>
  <rect x="20" y="60" width="20" height="20" name="2022CA12"/>
  <rect x="40" y="60" width="20" height="20" name="2022CA08"/>
  <rect x="60" y="60" width="20" height="20" name="2022CA10"/>
  <rect x="80" y="60" width="20" height="20" name="2022CA07"/>
  <rect x="100" y="60" width="20" height="20" name="2022WA02"/>
  <rect x="120" y="60" width="20" height="20" name="2022WA07"/>
  <rect x="140" y="60" width="20" height="20" name="2022WA01"/>
  <rect x="160" y="60" width="20" height="20" name="2022WA08"/>
  <rect x="180" y="60" width="20" height="20" name="2022ID01"/>
  <rect x="200" y="60" width="20" height="20" name="2022MN06"/>
  <rect x="220" y="60" width="20" height="20" name="2022MN03"/>
  <rect x="240" y="60" width="20" height="20" name="2022WI03"/>
  <rect x="260" y="60" width="20" height="20" name="2022WI06"/>
  <rect x="280" y="100" width="20" height="20" name="2022WI01"/>
  <rect x="320" y="60" width="20" height="20" name="2022MI05"/>
  <rect x="340" y="60" width="20" height="20" name="2022MI11"/>
  <rect x="360" y="60" width="20" height="20" name="2022MI12"/>
  <rect x="380" y="60" width="20" height="20" name="2022MI13"/>
  <rect x="420" y="60" width="20" height="20" name="2022PA16"/>
  <rect x="440" y="60" width="20" height="20" name="2022PA15"/>
  <rect x="460" y="60" width="20" height="20" name="2022NY23"/>
  <rect x="480" y="60" width="20" height="20" name="2022NY25"/>
  <rect x="500" y="60" width="20" height="20" name="2022NY13"/>
  <rect x="520" y="60" width="20" height="20" name="2022NY15"/>
  <rect x="540" y="60" width="20" height="20" name="2022NY16"/>
  <rect x="560" y="60" width="20" height="20" name="2022MA02"/>
  <rect x="580" y="60" width="20" height="20" name="2022MA05"/>
  <rect x="600" y="60" width="20" height="20" name="2022MA06"/>
  <rect y="80" width="20" height="20" name="2022CA15"/>
  <rect x="20" y="80" width="20" height="20" name="2022CA17"/>
  <rect x="40" y="80" width="20" height="20" name="2022CA14"/>
  <rect x="60" y="80" width="20" height="20" name="2022CA09"/>
  <rect x="80" y="80" width="20" height="20" name="2022CA05"/>
  <rect x="100" y="80" width="20" height="20" name="2022WA06"/>
  <rect x="120" y="80" width="20" height="20" name="2022WA10"/>
  <rect x="140" y="80" width="20" height="20" name="2022WA09"/>
  <rect x="160" y="80" width="20" height="20" name="2022WA05"/>
  <rect x="180" y="80" width="20" height="20" name="2022ID02"/>
  <rect x="160" y="100" width="20" height="20" name="2022MT01"/>
  <rect x="180" y="100" width="20" height="20" name="2022MT02"/>
  <rect x="200" y="80" width="20" height="20" name="2022MN05"/>
  <rect x="220" y="80" width="20" height="20" name="2022MN04"/>
  <rect x="240" y="80" width="20" height="20" name="2022WI02"/>
  <rect x="260" y="80" width="20" height="20" name="2022WI05"/>
  <rect x="320" y="80" width="20" height="20" name="2022MI04"/>
  <rect x="340" y="80" width="20" height="20" name="2022OH09"/>
  <rect x="360" y="80" width="20" height="20" name="2022OH11"/>
  <rect x="380" y="80" width="20" height="20" name="2022MI06"/>
  <rect x="420" y="80" width="20" height="20" name="2022PA17"/>
  <rect x="440" y="80" width="20" height="20" name="2022PA09"/>
  <rect x="460" y="80" width="20" height="20" name="2022NY19"/>
  <rect x="480" y="80" width="20" height="20" name="2022NY07"/>
  <rect x="500" y="80" width="20" height="20" name="2022NY12"/>
  <rect x="520" y="80" width="20" height="20" name="2022NY14"/>
  <rect x="540" y="80" width="20" height="20" name="2022NY06"/>
  <rect x="560" y="80" width="20" height="20" name="2022CT05"/>
  <rect x="580" y="80" width="20" height="20" name="2022MA04"/>
  <rect x="600" y="80" width="20" height="20" name="2022MA07"/>
  <rect x="620" y="80" width="20" height="20" name="2022MA08"/>
  <rect y="100" width="20" height="20" name="2022CA16"/>
  <rect x="20" y="100" width="20" height="20" name="2022CA19"/>
  <rect x="40" y="100" width="20" height="20" name="2022CA18"/>
  <rect x="60" y="100" width="20" height="20" name="2022CA13"/>
  <rect x="80" y="100" width="20" height="20" name="2022CA20"/>
  <rect x="140" y="120" width="20" height="20" name="2022OR05"/>
  <rect x="140" y="140" width="20" height="20" name="2022OR02"/>
  <rect x="140" y="100" width="20" height="20" name="2022OR03"/>
  <rect x="100" y="100" width="20" height="20" name="2022WA03"/>
  <rect x="120" y="100" width="20" height="20" name="2022WA04"/>
  <rect x="200" y="100" width="20" height="20" name="2022NDAL"/>
  <rect x="220" y="100" width="20" height="20" name="2022MN01"/>
  <rect x="240" y="100" width="20" height="20" name="2022MN02"/>
  <rect x="260" y="100" width="20" height="20" name="2022IL17"/>
  <rect x="300" y="100" width="20" height="20" name="2022IN01"/>
  <rect x="320" y="100" width="20" height="20" name="2022IN03"/>
  <rect x="340" y="100" width="20" height="20" name="2022OH05"/>
  <rect x="360" y="100" width="20" height="20" name="2022OH07"/>
  <rect x="380" y="100" width="20" height="20" name="2022OH13"/>
  <rect x="400" y="100" width="20" height="20" name="2022OH14"/>
  <rect x="420" y="100" width="20" height="20" name="2022PA12"/>
  <rect x="440" y="100" width="20" height="20" name="2022PA04"/>
  <rect x="460" y="100" width="20" height="20" name="2022NY11"/>
  <rect x="480" y="100" width="20" height="20" name="2022NY10"/>
  <rect x="500" y="100" width="20" height="20" name="2022NY09"/>
  <rect x="520" y="100" width="20" height="20" name="2022NY08"/>
  <rect x="540" y="100" width="20" height="20" name="2022NY05"/>
  <rect x="560" y="100" width="20" height="20" name="2022CT01"/>
  <rect x="580" y="100" width="20" height="20" name="2022CT02"/>
  <rect x="600" y="100" width="20" height="20" name="2022RI01"/>
  <rect x="620" y="100" width="20" height="20" name="2022MA09"/>
  <rect y="120" width="20" height="20" name="2022CA24"/>
  <rect x="20" y="120" width="20" height="20" name="2022CA22"/>
  <rect x="40" y="120" width="20" height="20" name="2022CA21"/>
  <rect x="60" y="120" width="20" height="20" name="2022CA27"/>
  <rect x="80" y="120" width="20" height="20" name="2022CA23"/>
  <rect x="100" y="120" width="20" height="20" name="2022OR01"/>
  <rect x="120" y="120" width="20" height="20" name="2022OR06"/>
  <rect x="120" y="140" width="20" height="20" name="2022OR04"/>
  <rect x="100" y="140" width="20" height="20" name="2022NV02"/>
  <rect x="160" y="120" width="20" height="20" name="2022UT01"/>
  <rect x="180" y="120" width="20" height="20" name="2022UT04"/>
  <rect x="200" y="120" width="20" height="20" name="2022SDAL"/>
  <rect x="220" y="120" width="20" height="20" name="2022IA04"/>
  <rect x="240" y="120" width="20" height="20" name="2022IA02"/>
  <rect x="260" y="120" width="20" height="20" name="2022IL11"/>
  <rect x="280" y="120" width="20" height="20" name="2022IL10"/>
  <rect x="300" y="120" width="20" height="20" name="2022IN02"/>
  <rect x="320" y="120" width="20" height="20" name="2022IN05"/>
  <rect x="340" y="120" width="20" height="20" name="2022OH08"/>
  <rect x="360" y="120" width="20" height="20" name="2022OH04"/>
  <rect x="380" y="120" width="20" height="20" name="2022OH12"/>
  <rect x="400" y="120" width="20" height="20" name="2022OH06"/>
  <rect x="420" y="120" width="20" height="20" name="2022PA14"/>
  <rect x="440" y="120" width="20" height="20" name="2022PA10"/>
  <rect x="460" y="120" width="20" height="20" name="2022PA08"/>
  <rect x="480" y="120" width="20" height="20" name="2022PA07"/>
  <rect x="500" y="120" width="20" height="20" name="2022NJ05"/>
  <rect x="520" y="120" width="20" height="20" name="2022NY04"/>
  <rect x="540" y="120" width="20" height="20" name="2022NY03"/>
  <rect x="560" y="120" width="20" height="20" name="2022CT04"/>
  <rect x="580" y="120" width="20" height="20" name="2022CT03"/>
  <rect x="600" y="120" width="20" height="20" name="2022RI02"/>
  <rect y="140" width="20" height="20" name="2022CA26"/>
  <rect x="20" y="140" width="20" height="20" name="2022CA32"/>
  <rect x="40" y="140" width="20" height="20" name="2022CA29"/>
  <rect x="60" y="140" width="20" height="20" name="2022CA30"/>
  <rect x="80" y="140" width="20" height="20" name="2022CA28"/>
  <rect x="60" y="40" width="20" height="20" name="2022CA06"/>
  <rect x="80" y="40" width="20" height="20" name="2022CA03"/>
  <rect x="100" y="160" width="20" height="20" name="2022NV04"/>
  <rect x="160" y="140" width="20" height="20" name="2022UT02"/>
  <rect x="180" y="140" width="20" height="20" name="2022UT03"/>
  <rect x="200" y="140" width="20" height="20" name="2022WYAL"/>
  <rect x="220" y="140" width="20" height="20" name="2022IA03"/>
  <rect x="240" y="140" width="20" height="20" name="2022IA01"/>
  <rect x="260" y="140" width="20" height="20" name="2022IL08"/>
  <rect x="280" y="140" width="20" height="20" name="2022IL09"/>
  <rect x="300" y="140" width="20" height="20" name="2022IN04"/>
  <rect x="320" y="140" width="20" height="20" name="2022IN07"/>
  <rect x="340" y="140" width="20" height="20" name="2022OH10"/>
  <rect x="360" y="140" width="20" height="20" name="2022OH15"/>
  <rect x="380" y="140" width="20" height="20" name="2022OH03"/>
  <rect x="400" y="140" width="20" height="20" name="2022WV02"/>
  <rect x="420" y="140" width="20" height="20" name="2022PA13"/>
  <rect x="440" y="140" width="20" height="20" name="2022PA11"/>
  <rect x="460" y="140" width="20" height="20" name="2022PA02"/>
  <rect x="480" y="140" width="20" height="20" name="2022PA01"/>
  <rect x="500" y="140" width="20" height="20" name="2022NJ11"/>
  <rect x="520" y="140" width="20" height="20" name="2022NJ09"/>
  <rect x="540" y="140" width="20" height="20" name="2022NY02"/>
  <rect x="560" y="140" width="20" height="20" name="2022NY01"/>
  <rect y="160" width="20" height="20" name="2022CA36"/>
  <rect x="20" y="160" width="20" height="20" name="2022CA37"/>
  <rect x="40" y="160" width="20" height="20" name="2022CA34"/>
  <rect x="60" y="160" width="20" height="20" name="2022CA31"/>
  <rect x="80" y="160" width="20" height="20" name="2022CA33"/>
  <rect x="40" y="40" width="20" height="20" name="2022CA01"/>
  <rect x="100" y="180" width="20" height="20" name="2022NV01"/>
  <rect x="100" y="200" width="20" height="20" name="2022NV03"/>
  <rect x="180" y="160" width="20" height="20" name="2022NE03"/>
  <rect x="200" y="160" width="20" height="20" name="2022NE01"/>
  <rect x="220" y="160" width="20" height="20" name="2022MO05"/>
  <rect x="240" y="160" width="20" height="20" name="2022MO06"/>
  <rect x="260" y="160" width="20" height="20" name="2022IL03"/>
  <rect x="280" y="160" width="20" height="20" name="2022IL05"/>
  <rect x="300" y="160" width="20" height="20" name="2022IN08"/>
  <rect x="320" y="160" width="20" height="20" name="2022IN09"/>
  <rect x="340" y="160" width="20" height="20" name="2022IN06"/>
  <rect x="360" y="160" width="20" height="20" name="2022OH01"/>
  <rect x="380" y="160" width="20" height="20" name="2022OH02"/>
  <rect x="400" y="160" width="20" height="20" name="2022WV01"/>
  <rect x="440" y="160" width="20" height="20" name="2022PA06"/>
  <rect x="460" y="160" width="20" height="20" name="2022PA05"/>
  <rect x="480" y="160" width="20" height="20" name="2022PA03"/>
  <rect x="500" y="160" width="20" height="20" name="2022NJ07"/>
  <rect x="520" y="160" width="20" height="20" name="2022NJ10"/>
  <rect x="540" y="160" width="20" height="20" name="2022NJ08"/>
  <rect x="560" y="160" width="20" height="20" name="2022NJ04"/>
  <rect y="180" width="20" height="20" name="2022CA43"/>
  <rect x="20" y="180" width="20" height="20" name="2022CA44"/>
  <rect x="40" y="180" width="20" height="20" name="2022CA42"/>
  <rect x="60" y="180" width="20" height="20" name="2022CA38"/>
  <rect x="80" y="180" width="20" height="20" name="2022CA35"/>
  <rect x="20" y="40" width="20" height="20" name="2022CA04"/>
  <rect x="120" y="180" width="20" height="20" name="2022CO07"/>
  <rect x="140" y="180" width="20" height="20" name="2022CO01"/>
  <rect x="160" y="180" width="20" height="20" name="2022CO05"/>
  <rect x="180" y="180" width="20" height="20" name="2022CO04"/>
  <rect x="200" y="180" width="20" height="20" name="2022NE02"/>
  <rect x="220" y="180" width="20" height="20" name="2022MO02"/>
  <rect x="240" y="180" width="20" height="20" name="2022MO01"/>
  <rect x="260" y="180" width="20" height="20" name="2022IL06"/>
  <rect x="280" y="180" width="20" height="20" name="2022IL04"/>
  <rect x="300" y="180" width="20" height="20" name="2022IL07"/>
  <rect x="320" y="180" width="20" height="20" name="2022KY03"/>
  <rect x="340" y="180" width="20" height="20" name="2022KY04"/>
  <rect x="360" y="180" width="20" height="20" name="2022KY06"/>
  <rect x="380" y="180" width="20" height="20" name="2022VA07"/>
  <rect x="400" y="180" width="20" height="20" name="2022VA11"/>
  <rect x="420" y="180" width="20" height="20" name="2022VA08"/>
  <rect x="440" y="180" width="20" height="20" name="2022MD06"/>
  <rect x="460" y="180" width="20" height="20" name="2022MD04"/>
  <rect x="480" y="180" width="20" height="20" name="2022MD07"/>
  <rect x="500" y="180" width="20" height="20" name="2022NJ12"/>
  <rect x="520" y="180" width="20" height="20" name="2022NJ06"/>
  <rect x="540" y="180" width="20" height="20" name="2022NJ01"/>
  <rect x="560" y="180" width="20" height="20" name="2022NJ03"/>
  <rect x="20" y="200" width="20" height="20" name="2022CA47"/>
  <rect x="40" y="200" width="20" height="20" name="2022CA45"/>
  <rect x="60" y="200" width="20" height="20" name="2022CA46"/>
  <rect x="80" y="200" width="20" height="20" name="2022CA39"/>
  <rect y="40" width="20" height="20" name="2022CA02"/>
  <rect x="120" y="200" width="20" height="20" name="2022CO03"/>
  <rect x="160" y="160" width="20" height="20" name="2022CO06"/>
  <rect x="120" y="160" width="20" height="20" name="2022CO02"/>
  <rect x="140" y="160" width="20" height="20" name="2022CO08"/>
  <rect x="180" y="200" width="20" height="20" name="2022KS01"/>
  <rect x="200" y="200" width="20" height="20" name="2022KS03"/>
  <rect x="220" y="200" width="20" height="20" name="2022MO04"/>
  <rect x="240" y="200" width="20" height="20" name="2022MO03"/>
  <rect x="260" y="200" width="20" height="20" name="2022IL16"/>
  <rect x="280" y="200" width="20" height="20" name="2022IL14"/>
  <rect x="300" y="200" width="20" height="20" name="2022IL01"/>
  <rect x="320" y="200" width="20" height="20" name="2022KY01"/>
  <rect x="340" y="200" width="20" height="20" name="2022KY02"/>
  <rect x="360" y="200" width="20" height="20" name="2022KY05"/>
  <rect x="380" y="200" width="20" height="20" name="2022VA06"/>
  <rect x="400" y="200" width="20" height="20" name="2022VA01"/>
  <rect x="420" y="200" width="20" height="20" name="2022VA03"/>
  <rect x="440" y="200" width="20" height="20" name="2022MD08"/>
  <rect x="460" y="200" width="20" height="20" name="2022MD05"/>
  <rect x="480" y="200" width="20" height="20" name="2022MD03"/>
  <rect x="500" y="200" width="20" height="20" name="2022MD02"/>
  <rect x="540" y="200" width="20" height="20" name="2022NJ02"/>
  <rect x="20" y="220" width="20" height="20" name="2022CA49"/>
  <rect x="40" y="220" width="20" height="20" name="2022CA40"/>
  <rect x="60" y="220" width="20" height="20" name="2022CA41"/>
  <rect x="80" y="220" width="20" height="20" name="2022AZ09"/>
  <rect x="100" y="220" width="20" height="20" name="2022AZ02"/>
  <rect x="120" y="220" width="20" height="20" name="2022NM03"/>
  <rect x="140" y="200" width="20" height="20" name="2022TX19"/>
  <rect x="160" y="200" width="20" height="20" name="2022TX13"/>
  <rect x="140" y="220" width="20" height="20" name="2022TX11"/>
  <rect x="160" y="220" width="20" height="20" name="2022TX25"/>
  <rect x="180" y="220" width="20" height="20" name="2022KS04"/>
  <rect x="200" y="220" width="20" height="20" name="2022KS02"/>
  <rect x="220" y="220" width="20" height="20" name="2022MO07"/>
  <rect x="240" y="220" width="20" height="20" name="2022MO08"/>
  <rect x="260" y="220" width="20" height="20" name="2022IL15"/>
  <rect x="280" y="220" width="20" height="20" name="2022IL13"/>
  <rect x="300" y="220" width="20" height="20" name="2022IL02"/>
  <rect x="320" y="220" width="20" height="20" name="2022IL12"/>
  <rect x="340" y="220" width="20" height="20" name="2022TN06"/>
  <rect x="360" y="220" width="20" height="20" name="2022VA09"/>
  <rect x="380" y="220" width="20" height="20" name="2022VA05"/>
  <rect x="400" y="220" width="20" height="20" name="2022VA04"/>
  <rect x="420" y="220" width="20" height="20" name="2022VA02"/>
  <rect x="420" y="160" width="20" height="20" name="2022VA10"/>
  <rect x="480" y="220" width="20" height="20" name="2022MD01"/>
  <rect x="500" y="220" width="20" height="20" name="2022DEAL"/>
  <rect x="40" y="240" width="20" height="20" name="2022CA50"/>
  <rect x="60" y="240" width="20" height="20" name="2022CA51"/>
  <rect x="80" y="240" width="20" height="20" name="2022AZ08"/>
  <rect x="100" y="240" width="20" height="20" name="2022AZ01"/>
  <rect x="120" y="240" width="20" height="20" name="2022NM01"/>
  <rect x="140" y="240" width="20" height="20" name="2022TX12"/>
  <rect x="160" y="240" width="20" height="20" name="2022TX26"/>
  <rect x="180" y="240" width="20" height="20" name="2022TX32"/>
  <rect x="200" y="240" width="20" height="20" name="2022TX03"/>
  <rect x="220" y="240" width="20" height="20" name="2022TX04"/>
  <rect x="240" y="240" width="20" height="20" name="2022OK03"/>
  <rect x="260" y="240" width="20" height="20" name="2022OK01"/>
  <rect x="280" y="240" width="20" height="20" name="2022AR03"/>
  <rect x="300" y="240" width="20" height="20" name="2022AR01"/>
  <rect x="320" y="240" width="20" height="20" name="2022TN08"/>
  <rect x="340" y="240" width="20" height="20" name="2022TN02"/>
  <rect x="360" y="240" width="20" height="20" name="2022TN01"/>
  <rect x="380" y="240" width="20" height="20" name="2022NC05"/>
  <rect x="400" y="240" width="20" height="20" name="2022NC04"/>
  <rect x="420" y="240" width="20" height="20" name="2022NC13"/>
  <rect x="440" y="240" width="20" height="20" name="2022NC03"/>
  <rect x="440" y="220" width="20" height="20" name="2022NC01"/>
  <rect x="40" y="260" width="20" height="20" name="2022CA52"/>
  <rect x="60" y="260" width="20" height="20" name="2022CA48"/>
  <rect x="80" y="260" width="20" height="20" name="2022AZ03"/>
  <rect x="100" y="260" width="20" height="20" name="2022AZ04"/>
  <rect x="120" y="260" width="20" height="20" name="2022NM02"/>
  <rect x="140" y="260" width="20" height="20" name="2022TX24"/>
  <rect x="160" y="260" width="20" height="20" name="2022TX33"/>
  <rect x="180" y="260" width="20" height="20" name="2022TX06"/>
  <rect x="200" y="260" width="20" height="20" name="2022TX05"/>
  <rect x="220" y="260" width="20" height="20" name="2022TX01"/>
  <rect x="240" y="260" width="20" height="20" name="2022OK05"/>
  <rect x="260" y="260" width="20" height="20" name="2022OK02"/>
  <rect x="280" y="260" width="20" height="20" name="2022AR04"/>
  <rect x="300" y="260" width="20" height="20" name="2022AR02"/>
  <rect x="320" y="260" width="20" height="20" name="2022TN07"/>
  <rect x="340" y="260" width="20" height="20" name="2022TN05"/>
  <rect x="360" y="260" width="20" height="20" name="2022TN03"/>
  <rect x="380" y="260" width="20" height="20" name="2022NC10"/>
  <rect x="400" y="260" width="20" height="20" name="2022NC06"/>
  <rect x="420" y="260" width="20" height="20" name="2022NC09"/>
  <rect x="440" y="260" width="20" height="20" name="2022NC02"/>
  <rect x="60" y="280" width="20" height="20" name="2022CA25"/>
  <rect x="80" y="280" width="20" height="20" name="2022AZ07"/>
  <rect x="100" y="280" width="20" height="20" name="2022AZ05"/>
  <rect x="120" y="280" width="20" height="20" name="2022TX16"/>
  <rect x="140" y="280" width="20" height="20" name="2022TX31"/>
  <rect x="160" y="280" width="20" height="20" name="2022TX18"/>
  <rect x="180" y="280" width="20" height="20" name="2022TX02"/>
  <rect x="200" y="280" width="20" height="20" name="2022TX30"/>
  <rect x="220" y="280" width="20" height="20" name="2022TX36"/>
  <rect x="240" y="280" width="20" height="20" name="2022OK04"/>
  <rect x="260" y="280" width="20" height="20" name="2022MS01"/>
  <rect x="280" y="280" width="20" height="20" name="2022AL05"/>
  <rect x="300" y="280" width="20" height="20" name="2022AL03"/>
  <rect x="320" y="280" width="20" height="20" name="2022TN09"/>
  <rect x="340" y="280" width="20" height="20" name="2022TN04"/>
  <rect x="360" y="280" width="20" height="20" name="2022NC11"/>
  <rect x="380" y="280" width="20" height="20" name="2022NC14"/>
  <rect x="400" y="280" width="20" height="20" name="2022NC12"/>
  <rect x="420" y="280" width="20" height="20" name="2022NC08"/>
  <rect x="440" y="280" width="20" height="20" name="2022NC07"/>
  <rect x="100" y="300" width="20" height="20" name="2022AZ06"/>
  <rect x="120" y="300" width="20" height="20" name="2022TX23"/>
  <rect x="140" y="300" width="20" height="20" name="2022TX08"/>
  <rect x="160" y="300" width="20" height="20" name="2022TX38"/>
  <rect x="180" y="300" width="20" height="20" name="2022TX09"/>
  <rect x="200" y="300" width="20" height="20" name="2022TX29"/>
  <rect x="220" y="300" width="20" height="20" name="2022LA04"/>
  <rect x="240" y="300" width="20" height="20" name="2022LA05"/>
  <rect x="260" y="300" width="20" height="20" name="2022MS02"/>
  <rect x="280" y="300" width="20" height="20" name="2022AL04"/>
  <rect x="300" y="300" width="20" height="20" name="2022AL06"/>
  <rect x="320" y="300" width="20" height="20" name="2022GA14"/>
  <rect x="340" y="300" width="20" height="20" name="2022GA11"/>
  <rect x="360" y="300" width="20" height="20" name="2022GA09"/>
  <rect x="380" y="300" width="20" height="20" name="2022SC03"/>
  <rect x="400" y="300" width="20" height="20" name="2022SC04"/>
  <rect x="420" y="300" width="20" height="20" name="2022SC05"/>
  <rect x="440" y="300" width="20" height="20" name="2022SC07"/>
  <rect x="120" y="320" width="20" height="20" name="2022TX21"/>
  <rect x="140" y="320" width="20" height="20" name="2022TX37"/>
  <rect x="160" y="320" width="20" height="20" name="2022TX07"/>
  <rect x="180" y="320" width="20" height="20" name="2022TX10"/>
  <rect x="200" y="320" width="20" height="20" name="2022TX14"/>
  <rect x="220" y="320" width="20" height="20" name="2022LA06"/>
  <rect x="240" y="320" width="20" height="20" name="2022LA02"/>
  <rect x="260" y="320" width="20" height="20" name="2022MS03"/>
  <rect x="280" y="320" width="20" height="20" name="2022AL07"/>
  <rect x="300" y="320" width="20" height="20" name="2022AL02"/>
  <rect x="320" y="320" width="20" height="20" name="2022GA03"/>
  <rect x="340" y="320" width="20" height="20" name="2022GA13"/>
  <rect x="360" y="320" width="20" height="20" name="2022GA06"/>
  <rect x="380" y="320" width="20" height="20" name="2022SC02"/>
  <rect x="400" y="320" width="20" height="20" name="2022SC06"/>
  <rect x="420" y="320" width="20" height="20" name="2022SC01"/>
  <rect x="140" y="340" width="20" height="20" name="2022TX20"/>
  <rect x="160" y="340" width="20" height="20" name="2022TX17"/>
  <rect x="180" y="340" width="20" height="20" name="2022TX35"/>
  <rect x="200" y="340" width="20" height="20" name="2022TX22"/>
  <rect x="220" y="340" width="20" height="20" name="2022LA03"/>
  <rect x="240" y="340" width="20" height="20" name="2022LA01"/>
  <rect x="260" y="340" width="20" height="20" name="2022MS04"/>
  <rect x="280" y="340" width="20" height="20" name="2022AL01"/>
  <rect x="300" y="340" width="20" height="20" name="2022FL01"/>
  <rect x="320" y="340" width="20" height="20" name="2022FL02"/>
  <rect x="340" y="340" width="20" height="20" name="2022GA05"/>
  <rect x="360" y="340" width="20" height="20" name="2022GA04"/>
  <rect x="380" y="340" width="20" height="20" name="2022GA07"/>
  <rect x="400" y="340" width="20" height="20" name="2022GA10"/>
  <rect x="160" y="360" width="20" height="20" name="2022TX28"/>
  <rect x="180" y="360" width="20" height="20" name="2022TX15"/>
  <rect x="200" y="360" width="20" height="20" name="2022TX27"/>
  <rect x="300" y="360" width="20" height="20" name="2022FL03"/>
  <rect x="320" y="360" width="20" height="20" name="2022FL04"/>
  <rect x="340" y="360" width="20" height="20" name="2022GA02"/>
  <rect x="360" y="360" width="20" height="20" name="2022GA08"/>
  <rect x="380" y="360" width="20" height="20" name="2022GA12"/>
  <rect x="400" y="360" width="20" height="20" name="2022GA01"/>
  <rect x="160" y="380" width="20" height="20" name="2022TX34"/>
  <rect x="300" y="380" width="20" height="20" name="2022FL13"/>
  <rect x="320" y="380" width="20" height="20" name="2022FL12"/>
  <rect x="340" y="380" width="20" height="20" name="2022FL11"/>
  <rect x="360" y="380" width="20" height="20" name="2022FL06"/>
  <rect x="380" y="380" width="20" height="20" name="2022FL05"/>
  <rect x="400" y="380" width="20" height="20" name="2022FL07"/>
  <rect x="320" y="400" width="20" height="20" name="2022FL14"/>
  <rect x="340" y="400" width="20" height="20" name="2022FL15"/>
  <rect x="360" y="400" width="20" height="20" name="2022FL09"/>
  <rect x="380" y="400" width="20" height="20" name="2022FL10"/>
  <rect x="400" y="400" width="20" height="20" name="2022FL08"/>
  <rect x="340" y="420" width="20" height="20" name="2022FL16"/>
  <rect x="360" y="420" width="20" height="20" name="2022FL17"/>
  <rect x="380" y="420" width="20" height="20" name="2022FL18"/>
  <rect x="400" y="420" width="20" height="20" name="2022FL21"/>
  <rect x="360" y="440" width="20" height="20" name="2022FL19"/>
  <rect x="380" y="440" width="20" height="20" name="2022FL20"/>
  <rect x="400" y="440" width="20" height="20" name="2022FL22"/>
  <rect x="420" y="440" width="20" height="20" name="2022FL23"/>
  <rect x="380" y="460" width="20" height="20" name="2022FL26"/>
  <rect x="400" y="460" width="20" height="20" name="2022FL25"/>
  <rect x="400" y="480" width="20" height="20" name="2022FL28"/>
  <rect x="420" y="460" width="20" height="20" name="2022FL24"/>
  <rect x="420" y="480" width="20" height="20" name="2022FL27"/>
  <rect x="80" y="440" width="20" height="20" name="2022AKAL"/>
  <rect x="140" y="440" width="20" height="20" name="2022HI01"/>
  <rect x="140" y="460" width="20" height="20" name="2022HI02"/>
 </g>
 <path d="m80 300v-80h40v100m0-40h20v-80h40m-60 20h20m40 0v-20h20v-20h-20m-60 0v40m60-120h-20v20-20h-20v20h-40v100m0-80h20v40m0-20h40m0-40v40h20v20m-80-60v-60m80 0v40h20v20h-40m40 0v40h-20m20 0h20v40h-20m20 0v40h-40v-20m20-160v40m20 0h-20m20 0v20h-20 20v20h-20m20 0v20m20-120v60m20 20h-40m40 0v40h-40m40 0v80h-40m20 0v60h-20v60m20-60h20v60m20 0v-80h-20v20m20-20v-40h-20m20 0h60v-20h-20v-40h-20v-80m-40 0v20m40 0h-20v-20h-40m40-60h-20m60 60h20v60h20v20h-40m40 0h20v40h-40m-20 20v40h-40m40 0v60h-20v20m20-20h20v40h80m0-40h-40v-40m-60 0h140m-20-80v20h-60v40h-20v20m0-80v20h20m0-60h40m20 0v40h20m-20-40h60v20h20m0 20h-20v20m0-60v-60h20v20h20v20h40m-240-60v-20h40v20h20m20 0v40h-20v40m40 0v-20h-20v20-40m40-100v80h40m80 20h-20v-100h20v-20m0 20h20m0-20v40h20m0-20v-20m0 100v-20h-40v-20h-20m40 20v40" fill="none" stroke="white" stroke-width="2" style="pointer-events:none"/>
 <path d="m600 140h20v-20h20v-40h-20v-40h20v-40h-20v20h-80v20h-80v20h-40v40h-20v-60h-40v-20h-40v80h-20v-20h-20v-60h-20v20h-60v20h-100v-20h-100v160h20v40h20v40h20v20h40v20h20v20h20v20h20v40h20v-20h40v-20h80v40h20v20h20v20h20v20h20v20h20v20h40v-60h-20v-100h20v-20h20v-100h20v20h40v-40h20v20h20v-20h20v-60h20" fill="none" stroke="white" stroke-width="2" style="pointer-events:none"/>
</svg>
