<svg xmlns="http://www.w3.org/2000/svg" xmlns:xlink="http://www.w3.org/1999/xlink" viewBox="0 0 640 500" fill="#eee">
    <style>#usa-house-2012-svg rect{ cursor:pointer; transition: fill 1000ms, opacity 500ms }</style>
    <g id="usa-house-2012-svg">
    <rect x="620" y="0" width="20" height="20" name="2012ME02"/><rect x="280" y="20" width="20" height="20" name="2012MI01"/><rect x="320" y="20" width="20" height="20" name="2012MI04"/><rect x="340" y="20" width="20" height="20" name="2012MI05"/><rect x="360" y="20" width="20" height="20" name="2012MI10"/><rect x="520" y="20" width="20" height="20" name="2012NY19"/><rect x="540" y="20" width="20" height="20" name="2012NY20"/><rect x="560" y="20" width="20" height="20" name="2012NY21"/><rect x="580" y="20" width="20" height="20" name="2012VTAL"/><rect x="600" y="20" width="20" height="20" name="2012NH02"/><rect x="620" y="20" width="20" height="20" name="2012ME01"/><rect x="200" y="40" width="20" height="20" name="2012MN07"/><rect x="220" y="40" width="20" height="20" name="2012MN08"/><rect x="240" y="40" width="20" height="20" name="2012WI07"/><rect x="260" y="40" width="20" height="20" name="2012WI06"/><rect x="280" y="40" width="20" height="20" name="2012WI08"/><rect x="320" y="40" width="20" height="20" name="2012MI02"/><rect x="340" y="40" width="20" height="20" name="2012MI08"/><rect x="360" y="40" width="20" height="20" name="2012MI09"/><rect x="380" y="40" width="20" height="20" name="2012MI14"/><rect x="440" y="40" width="20" height="20" name="2012PA16"/><rect x="460" y="40" width="20" height="20" name="2012NY26"/><rect x="480" y="40" width="20" height="20" name="2012NY24"/><rect x="500" y="40" width="20" height="20" name="2012NY22"/><rect x="520" y="40" width="20" height="20" name="2012NY18"/><rect x="540" y="40" width="20" height="20" name="2012NY17"/><rect x="560" y="40" width="20" height="20" name="2012MA01"/><rect x="580" y="40" width="20" height="20" name="2012MA03"/><rect x="600" y="40" width="20" height="20" name="2012NH01"/><rect x="0" y="60" width="20" height="20" name="2012CA02"/><rect x="20" y="60" width="20" height="20" name="2012CA05"/><rect x="40" y="60" width="20" height="20" name="2012CA11"/><rect x="60" y="60" width="20" height="20" name="2012CA03"/><rect x="80" y="60" width="20" height="20" name="2012CA01"/><rect x="100" y="60" width="20" height="20" name="2012WA06"/><rect x="120" y="60" width="20" height="20" name="2012WA01"/><rect x="140" y="60" width="20" height="20" name="2012WA04"/><rect x="160" y="60" width="20" height="20" name="2012WA05"/><rect x="180" y="60" width="20" height="20" name="2012ID01"/><rect x="200" y="60" width="20" height="20" name="2012MN06"/><rect x="220" y="60" width="20" height="20" name="2012MN03"/><rect x="240" y="60" width="20" height="20" name="2012WI03"/><rect x="260" y="60" width="20" height="20" name="2012WI05"/><rect x="280" y="60" width="20" height="20" name="2012WI04"/><rect x="320" y="60" width="20" height="20" name="2012MI03"/><rect x="340" y="60" width="20" height="20" name="2012MI07"/><rect x="360" y="60" width="20" height="20" name="2012MI11"/><rect x="380" y="60" width="20" height="20" name="2012MI13"/><rect x="420" y="60" width="20" height="20" name="2012PA17"/><rect x="440" y="60" width="20" height="20" name="2012PA15"/><rect x="460" y="60" width="20" height="20" name="2012NY27"/><rect x="480" y="60" width="20" height="20" name="2012NY25"/><rect x="500" y="60" width="20" height="20" name="2012NY13"/><rect x="520" y="60" width="20" height="20" name="2012NY15"/><rect x="540" y="60" width="20" height="20" name="2012NY16"/><rect x="560" y="60" width="20" height="20" name="2012MA02"/><rect x="580" y="60" width="20" height="20" name="2012MA05"/><rect x="600" y="60" width="20" height="20" name="2012MA06"/><rect x="0" y="80" width="20" height="20" name="2012CA13"/><rect x="20" y="80" width="20" height="20" name="2012CA14"/><rect x="40" y="80" width="20" height="20" name="2012CA09"/><rect x="60" y="80" width="20" height="20" name="2012CA06"/><rect x="80" y="80" width="20" height="20" name="2012CA07"/><rect x="100" y="80" width="20" height="20" name="2012WA02"/><rect x="120" y="80" width="20" height="20" name="2012WA07"/><rect x="140" y="80" width="20" height="20" name="2012WA09"/><rect x="160" y="80" width="20" height="20" name="2012WA08"/><rect x="180" y="80" width="20" height="20" name="2012ID02"/><rect x="200" y="80" width="20" height="20" name="2012MTAL"/><rect x="220" y="80" width="20" height="20" name="2012MN05"/><rect x="240" y="80" width="20" height="20" name="2012MN04"/><rect x="260" y="80" width="20" height="20" name="2012WI02"/><rect x="280" y="80" width="20" height="20" name="2012WI01"/><rect x="320" y="80" width="20" height="20" name="2012MI06"/><rect x="340" y="80" width="20" height="20" name="2012OH09"/><rect x="360" y="80" width="20" height="20" name="2012OH11"/><rect x="380" y="80" width="20" height="20" name="2012MI12"/><rect x="400" y="80" width="20" height="20" name="2012OH14"/><rect x="420" y="80" width="20" height="20" name="2012PA14"/><rect x="440" y="80" width="20" height="20" name="2012PA18"/><rect x="460" y="80" width="20" height="20" name="2012NY23"/><rect x="480" y="80" width="20" height="20" name="2012NY07"/><rect x="500" y="80" width="20" height="20" name="2012NY12"/><rect x="520" y="80" width="20" height="20" name="2012NY14"/><rect x="540" y="80" width="20" height="20" name="2012NY06"/><rect x="560" y="80" width="20" height="20" name="2012CT05"/><rect x="580" y="80" width="20" height="20" name="2012MA04"/><rect x="600" y="80" width="20" height="20" name="2012MA07"/><rect x="620" y="80" width="20" height="20" name="2012MA08"/><rect x="0" y="100" width="20" height="20" name="2012CA12"/><rect x="20" y="100" width="20" height="20" name="2012CA19"/><rect x="40" y="100" width="20" height="20" name="2012CA17"/><rect x="60" y="100" width="20" height="20" name="2012CA15"/><rect x="80" y="100" width="20" height="20" name="2012CA10"/><rect x="100" y="100" width="20" height="20" name="2012OR01"/><rect x="120" y="100" width="20" height="20" name="2012OR03"/><rect x="140" y="100" width="20" height="20" name="2012OR02"/><rect x="160" y="100" width="20" height="20" name="2012WA10"/><rect x="180" y="100" width="20" height="20" name="2012WA03"/><rect x="200" y="100" width="20" height="20" name="2012NDAL"/><rect x="220" y="100" width="20" height="20" name="2012MN01"/><rect x="240" y="100" width="20" height="20" name="2012MN02"/><rect x="260" y="100" width="20" height="20" name="2012IL14"/><rect x="280" y="100" width="20" height="20" name="2012IL10"/><rect x="300" y="100" width="20" height="20" name="2012IN01"/><rect x="320" y="100" width="20" height="20" name="2012IN03"/><rect x="340" y="100" width="20" height="20" name="2012OH05"/><rect x="360" y="100" width="20" height="20" name="2012OH04"/><rect x="380" y="100" width="20" height="20" name="2012OH16"/><rect x="400" y="100" width="20" height="20" name="2012OH13"/><rect x="420" y="100" width="20" height="20" name="2012PA10"/><rect x="440" y="100" width="20" height="20" name="2012PA13"/><rect x="460" y="100" width="20" height="20" name="2012NY11"/><rect x="480" y="100" width="20" height="20" name="2012NY10"/><rect x="500" y="100" width="20" height="20" name="2012NY09"/><rect x="520" y="100" width="20" height="20" name="2012NY08"/><rect x="540" y="100" width="20" height="20" name="2012NY05"/><rect x="560" y="100" width="20" height="20" name="2012CT01"/><rect x="580" y="100" width="20" height="20" name="2012CT02"/><rect x="600" y="100" width="20" height="20" name="2012RI01"/><rect x="620" y="100" width="20" height="20" name="2012MA09"/><rect x="0" y="120" width="20" height="20" name="2012CA18"/><rect x="20" y="120" width="20" height="20" name="2012CA25"/><rect x="40" y="120" width="20" height="20" name="2012CA20"/><rect x="60" y="120" width="20" height="20" name="2012CA16"/><rect x="80" y="120" width="20" height="20" name="2012CA04"/><rect x="100" y="120" width="20" height="20" name="2012OR05"/><rect x="120" y="120" width="20" height="20" name="2012OR04"/><rect x="140" y="120" width="20" height="20" name="2012NV02"/><rect x="160" y="120" width="20" height="20" name="2012UT01"/><rect x="180" y="120" width="20" height="20" name="2012UT04"/><rect x="200" y="120" width="20" height="20" name="2012SDAL"/><rect x="220" y="120" width="20" height="20" name="2012IA04"/><rect x="240" y="120" width="20" height="20" name="2012IA01"/><rect x="260" y="120" width="20" height="20" name="2012IL06"/><rect x="280" y="120" width="20" height="20" name="2012IL09"/><rect x="300" y="120" width="20" height="20" name="2012IN02"/><rect x="320" y="120" width="20" height="20" name="2012IN05"/><rect x="340" y="120" width="20" height="20" name="2012OH08"/><rect x="360" y="120" width="20" height="20" name="2012OH12"/><rect x="380" y="120" width="20" height="20" name="2012OH03"/><rect x="400" y="120" width="20" height="20" name="2012OH07"/><rect x="420" y="120" width="20" height="20" name="2012PA11"/><rect x="440" y="120" width="20" height="20" name="2012PA12"/><rect x="460" y="120" width="20" height="20" name="2012PA09"/><rect x="480" y="120" width="20" height="20" name="2012PA08"/><rect x="500" y="120" width="20" height="20" name="2012NJ05"/><rect x="520" y="120" width="20" height="20" name="2012NY04"/><rect x="540" y="120" width="20" height="20" name="2012NY03"/><rect x="560" y="120" width="20" height="20" name="2012CT04"/><rect x="580" y="120" width="20" height="20" name="2012CT03"/><rect x="600" y="120" width="20" height="20" name="2012RI02"/><rect x="0" y="140" width="20" height="20" name="2012CA24"/><rect x="20" y="140" width="20" height="20" name="2012CA30"/><rect x="40" y="140" width="20" height="20" name="2012CA21"/><rect x="60" y="140" width="20" height="20" name="2012CA22"/><rect x="80" y="140" width="20" height="20" name="2012CA23"/><rect x="100" y="140" width="20" height="20" name="2012CA31"/><rect x="120" y="140" width="20" height="20" name="2012CA08"/><rect x="140" y="140" width="20" height="20" name="2012NV04"/><rect x="160" y="140" width="20" height="20" name="2012UT02"/><rect x="180" y="140" width="20" height="20" name="2012UT03"/><rect x="200" y="140" width="20" height="20" name="2012WYAL"/><rect x="220" y="140" width="20" height="20" name="2012IA03"/><rect x="240" y="140" width="20" height="20" name="2012IA02"/><rect x="260" y="140" width="20" height="20" name="2012IL08"/><rect x="280" y="140" width="20" height="20" name="2012IL05"/><rect x="300" y="140" width="20" height="20" name="2012IN04"/><rect x="320" y="140" width="20" height="20" name="2012IN07"/><rect x="340" y="140" width="20" height="20" name="2012OH01"/><rect x="360" y="140" width="20" height="20" name="2012OH10"/><rect x="380" y="140" width="20" height="20" name="2012OH15"/><rect x="400" y="140" width="20" height="20" name="2012WV01"/><rect x="420" y="140" width="20" height="20" name="2012PA06"/><rect x="440" y="140" width="20" height="20" name="2012PA05"/><rect x="460" y="140" width="20" height="20" name="2012PA04"/><rect x="480" y="140" width="20" height="20" name="2012PA07"/><rect x="500" y="140" width="20" height="20" name="2012NJ11"/><rect x="520" y="140" width="20" height="20" name="2012NJ09"/><rect x="540" y="140" width="20" height="20" name="2012NY02"/><rect x="560" y="140" width="20" height="20" name="2012NY01"/><rect x="0" y="160" width="20" height="20" name="2012CA26"/><rect x="20" y="160" width="20" height="20" name="2012CA37"/><rect x="40" y="160" width="20" height="20" name="2012CA29"/><rect x="60" y="160" width="20" height="20" name="2012CA28"/><rect x="80" y="160" width="20" height="20" name="2012CA34"/><rect x="100" y="160" width="20" height="20" name="2012CA27"/><rect x="120" y="160" width="20" height="20" name="2012CA32"/><rect x="140" y="160" width="20" height="20" name="2012NV01"/><rect x="160" y="160" width="20" height="20" name="2012NV03"/><rect x="180" y="160" width="20" height="20" name="2012NE03"/><rect x="200" y="160" width="20" height="20" name="2012NE01"/><rect x="220" y="160" width="20" height="20" name="2012MO05"/><rect x="240" y="160" width="20" height="20" name="2012MO06"/><rect x="260" y="160" width="20" height="20" name="2012IL11"/><rect x="280" y="160" width="20" height="20" name="2012IL04"/><rect x="300" y="160" width="20" height="20" name="2012IN08"/><rect x="320" y="160" width="20" height="20" name="2012IN09"/><rect x="340" y="160" width="20" height="20" name="2012IN06"/><rect x="360" y="160" width="20" height="20" name="2012OH02"/><rect x="380" y="160" width="20" height="20" name="2012OH06"/><rect x="400" y="160" width="20" height="20" name="2012WV02"/><rect x="420" y="160" width="20" height="20" name="2012WV03"/><rect x="440" y="160" width="20" height="20" name="2012PA03"/><rect x="460" y="160" width="20" height="20" name="2012PA02"/><rect x="480" y="160" width="20" height="20" name="2012PA01"/><rect x="500" y="160" width="20" height="20" name="2012NJ07"/><rect x="520" y="160" width="20" height="20" name="2012NJ10"/><rect x="540" y="160" width="20" height="20" name="2012NJ08"/><rect x="560" y="160" width="20" height="20" name="2012NJ04"/><rect x="0" y="180" width="20" height="20" name="2012CA33"/><rect x="20" y="180" width="20" height="20" name="2012CA43"/><rect x="40" y="180" width="20" height="20" name="2012CA44"/><rect x="60" y="180" width="20" height="20" name="2012CA40"/><rect x="80" y="180" width="20" height="20" name="2012CA39"/><rect x="100" y="180" width="20" height="20" name="2012CA35"/><rect x="120" y="180" width="20" height="20" name="2012CO02"/><rect x="140" y="180" width="20" height="20" name="2012CO07"/><rect x="160" y="180" width="20" height="20" name="2012CO01"/><rect x="180" y="180" width="20" height="20" name="2012CO06"/><rect x="200" y="180" width="20" height="20" name="2012NE02"/><rect x="220" y="180" width="20" height="20" name="2012MO02"/><rect x="240" y="180" width="20" height="20" name="2012MO01"/><rect x="260" y="180" width="20" height="20" name="2012IL03"/><rect x="280" y="180" width="20" height="20" name="2012IL07"/><rect x="300" y="180" width="20" height="20" name="2012IL01"/><rect x="320" y="180" width="20" height="20" name="2012KY03"/><rect x="340" y="180" width="20" height="20" name="2012KY04"/><rect x="360" y="180" width="20" height="20" name="2012KY06"/><rect x="380" y="180" width="20" height="20" name="2012VA10"/><rect x="400" y="180" width="20" height="20" name="2012VA11"/><rect x="420" y="180" width="20" height="20" name="2012VA09"/><rect x="440" y="180" width="20" height="20" name="2012MD06"/><rect x="460" y="180" width="20" height="20" name="2012MD04"/><rect x="480" y="180" width="20" height="20" name="2012MD07"/><rect x="500" y="180" width="20" height="20" name="2012NJ12"/><rect x="520" y="180" width="20" height="20" name="2012NJ06"/><rect x="540" y="180" width="20" height="20" name="2012NJ01"/><rect x="560" y="180" width="20" height="20" name="2012NJ03"/><rect x="20" y="200" width="20" height="20" name="2012CA47"/><rect x="40" y="200" width="20" height="20" name="2012CA46"/><rect x="60" y="200" width="20" height="20" name="2012CA45"/><rect x="80" y="200" width="20" height="20" name="2012CA38"/><rect x="100" y="200" width="20" height="20" name="2012CA41"/><rect x="120" y="200" width="20" height="20" name="2012CO03"/><rect x="140" y="200" width="20" height="20" name="2012CO05"/><rect x="160" y="200" width="20" height="20" name="2012CO04"/><rect x="180" y="200" width="20" height="20" name="2012KS01"/><rect x="200" y="200" width="20" height="20" name="2012KS03"/><rect x="220" y="200" width="20" height="20" name="2012MO04"/><rect x="240" y="200" width="20" height="20" name="2012MO03"/><rect x="260" y="200" width="20" height="20" name="2012IL17"/><rect x="280" y="200" width="20" height="20" name="2012IL16"/><rect x="300" y="200" width="20" height="20" name="2012IL02"/><rect x="320" y="200" width="20" height="20" name="2012KY01"/><rect x="340" y="200" width="20" height="20" name="2012KY02"/><rect x="360" y="200" width="20" height="20" name="2012KY05"/><rect x="380" y="200" width="20" height="20" name="2012VA06"/><rect x="400" y="200" width="20" height="20" name="2012VA07"/><rect x="420" y="200" width="20" height="20" name="2012VA01"/><rect x="440" y="200" width="20" height="20" name="2012MD08"/><rect x="460" y="200" width="20" height="20" name="2012MD05"/><rect x="480" y="200" width="20" height="20" name="2012MD03"/><rect x="500" y="200" width="20" height="20" name="2012MD02"/><rect x="540" y="200" width="20" height="20" name="2012NJ02"/><rect x="20" y="220" width="20" height="20" name="2012CA48"/><rect x="40" y="220" width="20" height="20" name="2012CA42"/><rect x="60" y="220" width="20" height="20" name="2012CA36"/><rect x="80" y="220" width="20" height="20" name="2012AZ04"/><rect x="100" y="220" width="20" height="20" name="2012AZ01"/><rect x="120" y="220" width="20" height="20" name="2012NM03"/><rect x="140" y="220" width="20" height="20" name="2012TX13"/><rect x="160" y="220" width="20" height="20" name="2012TX24"/><rect x="180" y="220" width="20" height="20" name="2012KS04"/><rect x="200" y="220" width="20" height="20" name="2012KS02"/><rect x="220" y="220" width="20" height="20" name="2012MO07"/><rect x="240" y="220" width="20" height="20" name="2012MO08"/><rect x="260" y="220" width="20" height="20" name="2012IL12"/><rect x="280" y="220" width="20" height="20" name="2012IL18"/><rect x="300" y="220" width="20" height="20" name="2012IL13"/><rect x="320" y="220" width="20" height="20" name="2012IL15"/><rect x="340" y="220" width="20" height="20" name="2012TN06"/><rect x="360" y="220" width="20" height="20" name="2012VA08"/><rect x="380" y="220" width="20" height="20" name="2012VA05"/><rect x="400" y="220" width="20" height="20" name="2012VA04"/><rect x="420" y="220" width="20" height="20" name="2012VA03"/><rect x="440" y="220" width="20" height="20" name="2012VA02"/><rect x="480" y="220" width="20" height="20" name="2012MD01"/><rect x="500" y="220" width="20" height="20" name="2012DEAL"/><rect x="40" y="240" width="20" height="20" name="2012CA52"/><rect x="60" y="240" width="20" height="20" name="2012CA49"/><rect x="80" y="240" width="20" height="20" name="2012AZ08"/><rect x="100" y="240" width="20" height="20" name="2012AZ06"/><rect x="120" y="240" width="20" height="20" name="2012NM01"/><rect x="140" y="240" width="20" height="20" name="2012TX12"/><rect x="160" y="240" width="20" height="20" name="2012TX26"/><rect x="180" y="240" width="20" height="20" name="2012TX30"/><rect x="200" y="240" width="20" height="20" name="2012TX03"/><rect x="220" y="240" width="20" height="20" name="2012TX04"/><rect x="240" y="240" width="20" height="20" name="2012OK03"/><rect x="260" y="240" width="20" height="20" name="2012OK01"/><rect x="280" y="240" width="20" height="20" name="2012AR03"/><rect x="300" y="240" width="20" height="20" name="2012AR01"/><rect x="320" y="240" width="20" height="20" name="2012TN08"/><rect x="340" y="240" width="20" height="20" name="2012TN02"/><rect x="360" y="240" width="20" height="20" name="2012TN01"/><rect x="380" y="240" width="20" height="20" name="2012NC05"/><rect x="400" y="240" width="20" height="20" name="2012NC06"/><rect x="420" y="240" width="20" height="20" name="2012NC04"/><rect x="440" y="240" width="20" height="20" name="2012NC01"/><rect x="40" y="260" width="20" height="20" name="2012CA53"/><rect x="60" y="260" width="20" height="20" name="2012CA50"/><rect x="80" y="260" width="20" height="20" name="2012AZ07"/><rect x="100" y="260" width="20" height="20" name="2012AZ09"/><rect x="120" y="260" width="20" height="20" name="2012NM02"/><rect x="140" y="260" width="20" height="20" name="2012TX25"/><rect x="160" y="260" width="20" height="20" name="2012TX33"/><rect x="180" y="260" width="20" height="20" name="2012TX32"/><rect x="200" y="260" width="20" height="20" name="2012TX18"/><rect x="220" y="260" width="20" height="20" name="2012TX01"/><rect x="240" y="260" width="20" height="20" name="2012OK05"/><rect x="260" y="260" width="20" height="20" name="2012OK02"/><rect x="280" y="260" width="20" height="20" name="2012AR04"/><rect x="300" y="260" width="20" height="20" name="2012AR02"/><rect x="320" y="260" width="20" height="20" name="2012TN07"/><rect x="340" y="260" width="20" height="20" name="2012TN05"/><rect x="360" y="260" width="20" height="20" name="2012TN03"/><rect x="380" y="260" width="20" height="20" name="2012NC10"/><rect x="400" y="260" width="20" height="20" name="2012NC13"/><rect x="420" y="260" width="20" height="20" name="2012NC02"/><rect x="440" y="260" width="20" height="20" name="2012NC03"/><rect x="60" y="280" width="20" height="20" name="2012CA51"/><rect x="80" y="280" width="20" height="20" name="2012AZ03"/><rect x="100" y="280" width="20" height="20" name="2012AZ05"/><rect x="120" y="280" width="20" height="20" name="2012TX19"/><rect x="140" y="280" width="20" height="20" name="2012TX31"/><rect x="160" y="280" width="20" height="20" name="2012TX06"/><rect x="180" y="280" width="20" height="20" name="2012TX05"/><rect x="200" y="280" width="20" height="20" name="2012TX02"/><rect x="220" y="280" width="20" height="20" name="2012TX36"/><rect x="240" y="280" width="20" height="20" name="2012OK04"/><rect x="260" y="280" width="20" height="20" name="2012MS01"/><rect x="280" y="280" width="20" height="20" name="2012AL05"/><rect x="300" y="280" width="20" height="20" name="2012AL03"/><rect x="320" y="280" width="20" height="20" name="2012TN09"/><rect x="340" y="280" width="20" height="20" name="2012TN04"/><rect x="360" y="280" width="20" height="20" name="2012NC11"/><rect x="380" y="280" width="20" height="20" name="2012NC12"/><rect x="400" y="280" width="20" height="20" name="2012NC08"/><rect x="420" y="280" width="20" height="20" name="2012NC09"/><rect x="440" y="280" width="20" height="20" name="2012NC07"/><rect x="100" y="300" width="20" height="20" name="2012AZ02"/><rect x="120" y="300" width="20" height="20" name="2012TX11"/><rect x="140" y="300" width="20" height="20" name="2012TX21"/><rect x="160" y="300" width="20" height="20" name="2012TX17"/><rect x="180" y="300" width="20" height="20" name="2012TX08"/><rect x="200" y="300" width="20" height="20" name="2012TX29"/><rect x="220" y="300" width="20" height="20" name="2012LA04"/><rect x="240" y="300" width="20" height="20" name="2012LA05"/><rect x="260" y="300" width="20" height="20" name="2012MS02"/><rect x="280" y="300" width="20" height="20" name="2012AL04"/><rect x="300" y="300" width="20" height="20" name="2012AL06"/><rect x="320" y="300" width="20" height="20" name="2012GA14"/><rect x="340" y="300" width="20" height="20" name="2012GA11"/><rect x="360" y="300" width="20" height="20" name="2012GA09"/><rect x="380" y="300" width="20" height="20" name="2012SC03"/><rect x="400" y="300" width="20" height="20" name="2012SC04"/><rect x="420" y="300" width="20" height="20" name="2012SC05"/><rect x="440" y="300" width="20" height="20" name="2012SC07"/><rect x="120" y="320" width="20" height="20" name="2012TX16"/><rect x="140" y="320" width="20" height="20" name="2012TX23"/><rect x="160" y="320" width="20" height="20" name="2012TX20"/><rect x="180" y="320" width="20" height="20" name="2012TX10"/><rect x="200" y="320" width="20" height="20" name="2012TX09"/><rect x="220" y="320" width="20" height="20" name="2012LA06"/><rect x="240" y="320" width="20" height="20" name="2012LA02"/><rect x="260" y="320" width="20" height="20" name="2012MS03"/><rect x="280" y="320" width="20" height="20" name="2012AL07"/><rect x="300" y="320" width="20" height="20" name="2012AL02"/><rect x="320" y="320" width="20" height="20" name="2012GA03"/><rect x="340" y="320" width="20" height="20" name="2012GA13"/><rect x="360" y="320" width="20" height="20" name="2012GA06"/><rect x="380" y="320" width="20" height="20" name="2012SC02"/><rect x="400" y="320" width="20" height="20" name="2012SC06"/><rect x="420" y="320" width="20" height="20" name="2012SC01"/><rect x="140" y="340" width="20" height="20" name="2012TX28"/><rect x="160" y="340" width="20" height="20" name="2012TX35"/><rect x="180" y="340" width="20" height="20" name="2012TX22"/><rect x="200" y="340" width="20" height="20" name="2012TX07"/><rect x="220" y="340" width="20" height="20" name="2012LA03"/><rect x="240" y="340" width="20" height="20" name="2012LA01"/><rect x="260" y="340" width="20" height="20" name="2012MS04"/><rect x="280" y="340" width="20" height="20" name="2012AL01"/><rect x="300" y="340" width="20" height="20" name="2012FL01"/><rect x="320" y="340" width="20" height="20" name="2012FL02"/><rect x="340" y="340" width="20" height="20" name="2012GA05"/><rect x="360" y="340" width="20" height="20" name="2012GA04"/><rect x="380" y="340" width="20" height="20" name="2012GA07"/><rect x="400" y="340" width="20" height="20" name="2012GA10"/><rect x="160" y="360" width="20" height="20" name="2012TX15"/><rect x="180" y="360" width="20" height="20" name="2012TX27"/><rect x="200" y="360" width="20" height="20" name="2012TX14"/><rect x="300" y="360" width="20" height="20" name="2012FL05"/><rect x="320" y="360" width="20" height="20" name="2012FL04"/><rect x="340" y="360" width="20" height="20" name="2012GA02"/><rect x="360" y="360" width="20" height="20" name="2012GA08"/><rect x="380" y="360" width="20" height="20" name="2012GA12"/><rect x="400" y="360" width="20" height="20" name="2012GA01"/><rect x="160" y="380" width="20" height="20" name="2012TX34"/><rect x="300" y="380" width="20" height="20" name="2012FL12"/><rect x="320" y="380" width="20" height="20" name="2012FL03"/><rect x="340" y="380" width="20" height="20" name="2012FL14"/><rect x="360" y="380" width="20" height="20" name="2012FL11"/><rect x="380" y="380" width="20" height="20" name="2012FL10"/><rect x="400" y="380" width="20" height="20" name="2012FL06"/><rect x="320" y="400" width="20" height="20" name="2012FL13"/><rect x="340" y="400" width="20" height="20" name="2012FL15"/><rect x="360" y="400" width="20" height="20" name="2012FL09"/><rect x="380" y="400" width="20" height="20" name="2012FL07"/><rect x="400" y="400" width="20" height="20" name="2012FL08"/><rect x="340" y="420" width="20" height="20" name="2012FL16"/><rect x="360" y="420" width="20" height="20" name="2012FL17"/><rect x="380" y="420" width="20" height="20" name="2012FL18"/><rect x="400" y="420" width="20" height="20" name="2012FL21"/><rect x="360" y="440" width="20" height="20" name="2012FL19"/><rect x="380" y="440" width="20" height="20" name="2012FL20"/><rect x="400" y="440" width="20" height="20" name="2012FL23"/><rect x="420" y="440" width="20" height="20" name="2012FL22"/><rect x="380" y="460" width="20" height="20" name="2012FL25"/><rect x="400" y="460" width="20" height="20" name="2012FL24"/><rect x="420" y="460" width="20" height="20" name="2012FL27"/><rect x="420" y="480" width="20" height="20" name="2012FL26"/><rect x="80" y="440" width="20" height="20" name="2012AKAL"/><rect x="140" y="440" width="20" height="20" name="2012HI01"/><rect x="140" y="460" width="20" height="20" name="2012HI02"/>
    </g>
    <path d="M80 300l0 -80l40 0l0 100m0 -40l20 0l0 -60m-20 0l60 0l0 -20l20 0l0 -20l-80 0l0 40m20 -40l0 -60l20 0l0 40l20 0l0 20m-40 -40l-40 0l0 -40l60 0l0 20m-60 -20l0 -40m80 0l0 40l20 0l0 20l-40 0m40 0l0 40l-20 0m20 0l20 0l0 40l-20 0m20 0l0 40l-40 0l0 -20m20 -160l0 40m0 -20l20 0l0 20l-20 0m20 0l0 20l-20 0l20 0l0 20l-20 0m20 0l0 20m20 -120l0 40l20 0l0 40l-40 0m40 0l0 40l-40 0m40 0l0 80l-40 0m20 0l0 60l-20 0l0 60m20 -60l20 0l0 60m20 0l0 -80l-20 0l0 20m20 -20l0 -40l-20 0m20 0l60 0l0 -20l-20 0l0 -40l-20 0l0 -80l-40 0m20 -60l20 0m20 60l20 0l0 60l20 0l0 20l-40 0m40 0l20 0l0 40l-40 0m-20 20l0 40l-40 0m40 0l0 60l-20 0l0 20m20 -20l20 0l0 40l80 0m0 -40l-40 0l0 -40m-60 0l140 0m0 -60l-80 0l0 40l-20 0l0 20m0 -80l0 20l20 0m0 -60l60 0l0 40l20 0m-20 -40l60 0l0 20l20 0m0 20l-20 0l0 20m0 -60l0 -60l20 0l0 20l20 0l0 20l40 0m-240 -60l0 -20l40 0l0 20l20 0l0 -20m20 0l0 60l-20 0l0 40m40 0l0 -20l-20 0l0 -20m40 -100l0 80l40 0m80 20l-20 0l0 -100l20 0l0 -20m0 20l20 0m0 -20l0 40l20 0m0 -20l0 -20m0 100l0 -20l-40 0l0 -20l-20 0m40 20l0 40" stroke="white" stroke-width="2" fill="none" style="pointer-events:none"></path>
    <path d="M600 140l20 0l0 -20l20 0l0 -40l-20 0l0 -40l20 0l0 -40l-20 0l0 20l-100 0l0 20l-80 0l0 20l-20 0l0 20l-20 0l0 -40l-20 0l0 -20l-60 0l0 80l-20 0l0 -80l-20 0l0 20l-80 0l0 20l-200 0l0 140l20 0l0 40l20 0l0 40l20 0l0 20l40 0l0 20l20 0l0 20l20 0l0 20l20 0l0 40l20 0l0 -20l40 0l0 -20l80 0l0 40l20 0l0 20l20 0l0 20l20 0l0 20l20 0l0 20l40 0l0 20l20 0l0 -60l-20 0l0 -100l20 0l0 -20l20 0l0 -100l20 0l0 20l40 0l0 -40l20 0l0 20l20 0l0 -20l20 0l0 -60l20 0" stroke-width="2" fill="none" stroke="white" style="pointer-events:none"></path>
</svg>