<svg version="1.1" viewBox="0 34 256 200" xmlns="http://www.w3.org/2000/svg">
    <path d="m37.5 205.71c-7.7818 0-14.836 0.82392-20.286 2.2959-2.7252 0.73597-5.0708 1.6264-6.925 2.8103-1.8542 1.184-3.2888 2.811-3.2888 4.6755v2.5741h11.12v60.061h38.76v-60.061h11.12v-2.5741c0-1.8645-1.4346-3.4916-3.2888-4.6755-1.8542-1.1839-4.1999-2.0744-6.925-2.8103-5.4503-1.472-12.504-2.2959-20.286-2.2959zm0 5.1481c6.9577 0 13.246 0.7906 17.454 1.9272 0.15542 0.042 0.25512 0.0895 0.40458 0.13239h-35.717c0.14946-0.0429 0.24916-0.0904 0.40458-0.13239 4.2085-1.1366 10.496-1.9272 17.454-1.9272z" fill="#aaa"/>        
    <g name="smoke-group" fill="#000" stroke="#fff" stroke-width="2"></g>
    <path name="smoke-mouse-capture" d="m0 0l256 0l0 100l-256 100z" fill="rgba(0,0,0,0)"></path>
</svg>
